<?xml version="1.0" encoding="UTF-8" standalone="no"?><!DOCTYPE svg PUBLIC "-//W3C//DTD SVG 1.1//EN" "http://www.w3.org/Graphics/SVG/1.1/DTD/svg11.dtd"><svg width="100%" height="100%" viewBox="0 0 116 257" version="1.1" xmlns="http://www.w3.org/2000/svg" xmlns:xlink="http://www.w3.org/1999/xlink" xml:space="preserve" xmlns:serif="http://www.serif.com/" style="fill-rule:evenodd;clip-rule:evenodd;stroke-linejoin:round;stroke-miterlimit:2;"><g><g><path d="M8.548,0c-4.718,0 -8.548,3.83 -8.548,8.548c0,4.718 3.83,8.548 8.548,8.548c4.718,0 8.548,-3.83 8.548,-8.548c0,-4.718 -3.83,-8.548 -8.548,-8.548Zm0,1c4.166,0 7.548,3.382 7.548,7.548c0,4.166 -3.382,7.548 -7.548,7.548c-4.166,0 -7.548,-3.382 -7.548,-7.548c0,-4.166 3.382,-7.548 7.548,-7.548Z" style="fill:#3e98a6;"/><path d="M33.099,0c-4.718,0 -8.548,3.83 -8.548,8.548c0,4.718 3.83,8.548 8.548,8.548c4.718,0 8.548,-3.83 8.548,-8.548c0,-4.718 -3.83,-8.548 -8.548,-8.548Zm0,1c4.166,0 7.548,3.382 7.548,7.548c0,4.166 -3.382,7.548 -7.548,7.548c-4.166,0 -7.548,-3.382 -7.548,-7.548c0,-4.166 3.382,-7.548 7.548,-7.548Z" style="fill:#3e98a6;"/><path d="M57.65,0c-4.718,0 -8.548,3.83 -8.548,8.548c0,4.718 3.83,8.548 8.548,8.548c4.718,0 8.548,-3.83 8.548,-8.548c0,-4.718 -3.83,-8.548 -8.548,-8.548Zm0,1c4.166,0 7.548,3.382 7.548,7.548c0,4.166 -3.382,7.548 -7.548,7.548c-4.166,0 -7.548,-3.382 -7.548,-7.548c0,-4.166 3.382,-7.548 7.548,-7.548Z" style="fill:#3e98a6;"/><path d="M82.201,0c-4.718,0 -8.549,3.83 -8.549,8.548c0,4.718 3.831,8.548 8.549,8.548c4.718,0 8.548,-3.83 8.548,-8.548c0,-4.718 -3.83,-8.548 -8.548,-8.548Zm0,1c4.166,0 7.548,3.382 7.548,7.548c0,4.166 -3.382,7.548 -7.548,7.548c-4.166,0 -7.549,-3.382 -7.549,-7.548c0,-4.166 3.383,-7.548 7.549,-7.548Z" style="fill:#3e98a6;"/><path d="M106.751,0c-4.717,0 -8.548,3.83 -8.548,8.548c0,4.718 3.831,8.548 8.548,8.548c4.718,0 8.549,-3.83 8.549,-8.548c0,-4.718 -3.831,-8.548 -8.549,-8.548Zm0,1c4.166,0 7.549,3.382 7.549,7.548c0,4.166 -3.383,7.548 -7.549,7.548c-4.165,0 -7.548,-3.382 -7.548,-7.548c0,-4.166 3.383,-7.548 7.548,-7.548Z" style="fill:#3e98a6;"/></g><g><path d="M8.548,21.746c-4.718,0 -8.548,3.83 -8.548,8.548c0,4.718 3.83,8.548 8.548,8.548c4.718,0 8.548,-3.83 8.548,-8.548c0,-4.718 -3.83,-8.548 -8.548,-8.548Zm0,1c4.166,0 7.548,3.382 7.548,7.548c0,4.166 -3.382,7.548 -7.548,7.548c-4.166,0 -7.548,-3.382 -7.548,-7.548c0,-4.166 3.382,-7.548 7.548,-7.548Z" style="fill:#3e98a6;"/><path d="M33.099,21.746c-4.718,0 -8.548,3.83 -8.548,8.548c0,4.718 3.83,8.548 8.548,8.548c4.718,0 8.548,-3.83 8.548,-8.548c0,-4.718 -3.83,-8.548 -8.548,-8.548Zm0,1c4.166,0 7.548,3.382 7.548,7.548c0,4.166 -3.382,7.548 -7.548,7.548c-4.166,0 -7.548,-3.382 -7.548,-7.548c0,-4.166 3.382,-7.548 7.548,-7.548Z" style="fill:#3e98a6;"/><path d="M57.65,21.746c-4.718,0 -8.548,3.83 -8.548,8.548c0,4.718 3.83,8.548 8.548,8.548c4.718,0 8.548,-3.83 8.548,-8.548c0,-4.718 -3.83,-8.548 -8.548,-8.548Zm0,1c4.166,0 7.548,3.382 7.548,7.548c0,4.166 -3.382,7.548 -7.548,7.548c-4.166,0 -7.548,-3.382 -7.548,-7.548c0,-4.166 3.382,-7.548 7.548,-7.548Z" style="fill:#3e98a6;"/><path d="M82.201,21.746c-4.718,0 -8.549,3.83 -8.549,8.548c0,4.718 3.831,8.548 8.549,8.548c4.718,0 8.548,-3.83 8.548,-8.548c0,-4.718 -3.83,-8.548 -8.548,-8.548Zm0,1c4.166,0 7.548,3.382 7.548,7.548c0,4.166 -3.382,7.548 -7.548,7.548c-4.166,0 -7.549,-3.382 -7.549,-7.548c0,-4.166 3.383,-7.548 7.549,-7.548Z" style="fill:#3e98a6;"/><path d="M106.751,21.746c-4.717,0 -8.548,3.83 -8.548,8.548c0,4.718 3.831,8.548 8.548,8.548c4.718,0 8.549,-3.83 8.549,-8.548c0,-4.718 -3.831,-8.548 -8.549,-8.548Zm0,1c4.166,0 7.549,3.382 7.549,7.548c0,4.166 -3.383,7.548 -7.549,7.548c-4.165,0 -7.548,-3.382 -7.548,-7.548c0,-4.166 3.383,-7.548 7.548,-7.548Z" style="fill:#3e98a6;"/></g><g><path d="M8.548,43.492c-4.718,0 -8.548,3.83 -8.548,8.548c0,4.718 3.83,8.548 8.548,8.548c4.718,0 8.548,-3.83 8.548,-8.548c0,-4.718 -3.83,-8.548 -8.548,-8.548Zm0,1c4.166,0 7.548,3.382 7.548,7.548c0,4.166 -3.382,7.548 -7.548,7.548c-4.166,0 -7.548,-3.382 -7.548,-7.548c0,-4.166 3.382,-7.548 7.548,-7.548Z" style="fill:#3e98a6;"/><path d="M33.099,43.492c-4.718,0 -8.548,3.83 -8.548,8.548c0,4.718 3.83,8.548 8.548,8.548c4.718,0 8.548,-3.83 8.548,-8.548c0,-4.718 -3.83,-8.548 -8.548,-8.548Zm0,1c4.166,0 7.548,3.382 7.548,7.548c0,4.166 -3.382,7.548 -7.548,7.548c-4.166,0 -7.548,-3.382 -7.548,-7.548c0,-4.166 3.382,-7.548 7.548,-7.548Z" style="fill:#3e98a6;"/><path d="M57.65,43.492c-4.718,0 -8.548,3.83 -8.548,8.548c0,4.718 3.83,8.548 8.548,8.548c4.718,0 8.548,-3.83 8.548,-8.548c0,-4.718 -3.83,-8.548 -8.548,-8.548Zm0,1c4.166,0 7.548,3.382 7.548,7.548c0,4.166 -3.382,7.548 -7.548,7.548c-4.166,0 -7.548,-3.382 -7.548,-7.548c0,-4.166 3.382,-7.548 7.548,-7.548Z" style="fill:#3e98a6;"/><path d="M82.201,43.492c-4.718,0 -8.549,3.83 -8.549,8.548c0,4.718 3.831,8.548 8.549,8.548c4.718,0 8.548,-3.83 8.548,-8.548c0,-4.718 -3.83,-8.548 -8.548,-8.548Zm0,1c4.166,0 7.548,3.382 7.548,7.548c0,4.166 -3.382,7.548 -7.548,7.548c-4.166,0 -7.549,-3.382 -7.549,-7.548c0,-4.166 3.383,-7.548 7.549,-7.548Z" style="fill:#3e98a6;"/><path d="M106.751,43.492c-4.717,0 -8.548,3.83 -8.548,8.548c0,4.718 3.831,8.548 8.548,8.548c4.718,0 8.549,-3.83 8.549,-8.548c0,-4.718 -3.831,-8.548 -8.549,-8.548Zm0,1c4.166,0 7.549,3.382 7.549,7.548c0,4.166 -3.383,7.548 -7.549,7.548c-4.165,0 -7.548,-3.382 -7.548,-7.548c0,-4.166 3.383,-7.548 7.548,-7.548Z" style="fill:#3e98a6;"/></g><g><path d="M8.548,65.238c-4.718,0 -8.548,3.83 -8.548,8.548c0,4.718 3.83,8.548 8.548,8.548c4.718,0 8.548,-3.83 8.548,-8.548c0,-4.718 -3.83,-8.548 -8.548,-8.548Zm0,1c4.166,0 7.548,3.382 7.548,7.548c0,4.166 -3.382,7.548 -7.548,7.548c-4.166,0 -7.548,-3.382 -7.548,-7.548c0,-4.166 3.382,-7.548 7.548,-7.548Z" style="fill:#3e98a6;"/><path d="M33.099,65.238c-4.718,0 -8.548,3.83 -8.548,8.548c0,4.718 3.83,8.548 8.548,8.548c4.718,0 8.548,-3.83 8.548,-8.548c0,-4.718 -3.83,-8.548 -8.548,-8.548Zm0,1c4.166,0 7.548,3.382 7.548,7.548c0,4.166 -3.382,7.548 -7.548,7.548c-4.166,0 -7.548,-3.382 -7.548,-7.548c0,-4.166 3.382,-7.548 7.548,-7.548Z" style="fill:#3e98a6;"/><path d="M57.65,65.238c-4.718,0 -8.548,3.83 -8.548,8.548c0,4.718 3.83,8.548 8.548,8.548c4.718,0 8.548,-3.83 8.548,-8.548c0,-4.718 -3.83,-8.548 -8.548,-8.548Zm0,1c4.166,0 7.548,3.382 7.548,7.548c0,4.166 -3.382,7.548 -7.548,7.548c-4.166,0 -7.548,-3.382 -7.548,-7.548c0,-4.166 3.382,-7.548 7.548,-7.548Z" style="fill:#3e98a6;"/><path d="M82.201,65.238c-4.718,0 -8.549,3.83 -8.549,8.548c0,4.718 3.831,8.548 8.549,8.548c4.718,0 8.548,-3.83 8.548,-8.548c0,-4.718 -3.83,-8.548 -8.548,-8.548Zm0,1c4.166,0 7.548,3.382 7.548,7.548c0,4.166 -3.382,7.548 -7.548,7.548c-4.166,0 -7.549,-3.382 -7.549,-7.548c0,-4.166 3.383,-7.548 7.549,-7.548Z" style="fill:#3e98a6;"/><path d="M106.751,65.238c-4.717,0 -8.548,3.83 -8.548,8.548c0,4.718 3.831,8.548 8.548,8.548c4.718,0 8.549,-3.83 8.549,-8.548c0,-4.718 -3.831,-8.548 -8.549,-8.548Zm0,1c4.166,0 7.549,3.382 7.549,7.548c0,4.166 -3.383,7.548 -7.549,7.548c-4.165,0 -7.548,-3.382 -7.548,-7.548c0,-4.166 3.383,-7.548 7.548,-7.548Z" style="fill:#3e98a6;"/></g><g><path d="M8.548,86.984c-4.718,0 -8.548,3.83 -8.548,8.548c0,4.718 3.83,8.548 8.548,8.548c4.718,0 8.548,-3.83 8.548,-8.548c0,-4.718 -3.83,-8.548 -8.548,-8.548Zm0,1c4.166,0 7.548,3.382 7.548,7.548c0,4.166 -3.382,7.548 -7.548,7.548c-4.166,0 -7.548,-3.382 -7.548,-7.548c0,-4.166 3.382,-7.548 7.548,-7.548Z" style="fill:#3e98a6;"/><path d="M33.099,86.984c-4.718,0 -8.548,3.83 -8.548,8.548c0,4.718 3.83,8.548 8.548,8.548c4.718,0 8.548,-3.83 8.548,-8.548c0,-4.718 -3.83,-8.548 -8.548,-8.548Zm0,1c4.166,0 7.548,3.382 7.548,7.548c0,4.166 -3.382,7.548 -7.548,7.548c-4.166,0 -7.548,-3.382 -7.548,-7.548c0,-4.166 3.382,-7.548 7.548,-7.548Z" style="fill:#3e98a6;"/><path d="M57.65,86.984c-4.718,0 -8.548,3.83 -8.548,8.548c0,4.718 3.83,8.548 8.548,8.548c4.718,0 8.548,-3.83 8.548,-8.548c0,-4.718 -3.83,-8.548 -8.548,-8.548Zm0,1c4.166,0 7.548,3.382 7.548,7.548c0,4.166 -3.382,7.548 -7.548,7.548c-4.166,0 -7.548,-3.382 -7.548,-7.548c0,-4.166 3.382,-7.548 7.548,-7.548Z" style="fill:#3e98a6;"/><path d="M82.201,86.984c-4.718,0 -8.549,3.83 -8.549,8.548c0,4.718 3.831,8.548 8.549,8.548c4.718,0 8.548,-3.83 8.548,-8.548c0,-4.718 -3.83,-8.548 -8.548,-8.548Zm0,1c4.166,0 7.548,3.382 7.548,7.548c0,4.166 -3.382,7.548 -7.548,7.548c-4.166,0 -7.549,-3.382 -7.549,-7.548c0,-4.166 3.383,-7.548 7.549,-7.548Z" style="fill:#3e98a6;"/><path d="M106.751,86.984c-4.717,0 -8.548,3.83 -8.548,8.548c0,4.718 3.831,8.548 8.548,8.548c4.718,0 8.549,-3.83 8.549,-8.548c0,-4.718 -3.831,-8.548 -8.549,-8.548Zm0,1c4.166,0 7.549,3.382 7.549,7.548c0,4.166 -3.383,7.548 -7.549,7.548c-4.165,0 -7.548,-3.382 -7.548,-7.548c0,-4.166 3.383,-7.548 7.548,-7.548Z" style="fill:#3e98a6;"/></g><g><path d="M8.548,108.73c-4.718,0 -8.548,3.83 -8.548,8.548c0,4.718 3.83,8.548 8.548,8.548c4.718,0 8.548,-3.83 8.548,-8.548c0,-4.718 -3.83,-8.548 -8.548,-8.548Zm0,1c4.166,0 7.548,3.382 7.548,7.548c0,4.166 -3.382,7.548 -7.548,7.548c-4.166,0 -7.548,-3.382 -7.548,-7.548c0,-4.166 3.382,-7.548 7.548,-7.548Z" style="fill:#3e98a6;"/><path d="M33.099,108.73c-4.718,0 -8.548,3.83 -8.548,8.548c0,4.718 3.83,8.548 8.548,8.548c4.718,0 8.548,-3.83 8.548,-8.548c0,-4.718 -3.83,-8.548 -8.548,-8.548Zm0,1c4.166,0 7.548,3.382 7.548,7.548c0,4.166 -3.382,7.548 -7.548,7.548c-4.166,0 -7.548,-3.382 -7.548,-7.548c0,-4.166 3.382,-7.548 7.548,-7.548Z" style="fill:#3e98a6;"/><path d="M57.65,108.73c-4.718,0 -8.548,3.83 -8.548,8.548c0,4.718 3.83,8.548 8.548,8.548c4.718,0 8.548,-3.83 8.548,-8.548c0,-4.718 -3.83,-8.548 -8.548,-8.548Zm0,1c4.166,0 7.548,3.382 7.548,7.548c0,4.166 -3.382,7.548 -7.548,7.548c-4.166,0 -7.548,-3.382 -7.548,-7.548c0,-4.166 3.382,-7.548 7.548,-7.548Z" style="fill:#3e98a6;"/><path d="M82.201,108.73c-4.718,0 -8.549,3.83 -8.549,8.548c0,4.718 3.831,8.548 8.549,8.548c4.718,0 8.548,-3.83 8.548,-8.548c0,-4.718 -3.83,-8.548 -8.548,-8.548Zm0,1c4.166,0 7.548,3.382 7.548,7.548c0,4.166 -3.382,7.548 -7.548,7.548c-4.166,0 -7.549,-3.382 -7.549,-7.548c0,-4.166 3.383,-7.548 7.549,-7.548Z" style="fill:#3e98a6;"/><path d="M106.751,108.73c-4.717,0 -8.548,3.83 -8.548,8.548c0,4.718 3.831,8.548 8.548,8.548c4.718,0 8.549,-3.83 8.549,-8.548c0,-4.718 -3.831,-8.548 -8.549,-8.548Zm0,1c4.166,0 7.549,3.382 7.549,7.548c0,4.166 -3.383,7.548 -7.549,7.548c-4.165,0 -7.548,-3.382 -7.548,-7.548c0,-4.166 3.383,-7.548 7.548,-7.548Z" style="fill:#3e98a6;"/></g><g><path d="M8.548,130.476c-4.718,0 -8.548,3.83 -8.548,8.548c0,4.718 3.83,8.548 8.548,8.548c4.718,0 8.548,-3.83 8.548,-8.548c0,-4.718 -3.83,-8.548 -8.548,-8.548Zm0,1c4.166,0 7.548,3.382 7.548,7.548c0,4.166 -3.382,7.548 -7.548,7.548c-4.166,0 -7.548,-3.382 -7.548,-7.548c0,-4.166 3.382,-7.548 7.548,-7.548Z" style="fill:#3e98a6;"/><path d="M33.099,130.476c-4.718,0 -8.548,3.83 -8.548,8.548c0,4.718 3.83,8.548 8.548,8.548c4.718,0 8.548,-3.83 8.548,-8.548c0,-4.718 -3.83,-8.548 -8.548,-8.548Zm0,1c4.166,0 7.548,3.382 7.548,7.548c0,4.166 -3.382,7.548 -7.548,7.548c-4.166,0 -7.548,-3.382 -7.548,-7.548c0,-4.166 3.382,-7.548 7.548,-7.548Z" style="fill:#3e98a6;"/><path d="M57.65,130.476c-4.718,0 -8.548,3.83 -8.548,8.548c0,4.718 3.83,8.548 8.548,8.548c4.718,0 8.548,-3.83 8.548,-8.548c0,-4.718 -3.83,-8.548 -8.548,-8.548Zm0,1c4.166,0 7.548,3.382 7.548,7.548c0,4.166 -3.382,7.548 -7.548,7.548c-4.166,0 -7.548,-3.382 -7.548,-7.548c0,-4.166 3.382,-7.548 7.548,-7.548Z" style="fill:#3e98a6;"/><path d="M82.201,130.476c-4.718,0 -8.549,3.83 -8.549,8.548c0,4.718 3.831,8.548 8.549,8.548c4.718,0 8.548,-3.83 8.548,-8.548c0,-4.718 -3.83,-8.548 -8.548,-8.548Zm0,1c4.166,0 7.548,3.382 7.548,7.548c0,4.166 -3.382,7.548 -7.548,7.548c-4.166,0 -7.549,-3.382 -7.549,-7.548c0,-4.166 3.383,-7.548 7.549,-7.548Z" style="fill:#3e98a6;"/><path d="M106.751,130.476c-4.717,0 -8.548,3.83 -8.548,8.548c0,4.718 3.831,8.548 8.548,8.548c4.718,0 8.549,-3.83 8.549,-8.548c0,-4.718 -3.831,-8.548 -8.549,-8.548Zm0,1c4.166,0 7.549,3.382 7.549,7.548c0,4.166 -3.383,7.548 -7.549,7.548c-4.165,0 -7.548,-3.382 -7.548,-7.548c0,-4.166 3.383,-7.548 7.548,-7.548Z" style="fill:#3e98a6;"/></g><g><path d="M8.548,152.222c-4.718,0 -8.548,3.83 -8.548,8.548c0,4.718 3.83,8.548 8.548,8.548c4.718,0 8.548,-3.83 8.548,-8.548c0,-4.718 -3.83,-8.548 -8.548,-8.548Zm0,1c4.166,0 7.548,3.382 7.548,7.548c0,4.166 -3.382,7.548 -7.548,7.548c-4.166,0 -7.548,-3.382 -7.548,-7.548c0,-4.166 3.382,-7.548 7.548,-7.548Z" style="fill:#3e98a6;"/><path d="M33.099,152.222c-4.718,0 -8.548,3.83 -8.548,8.548c0,4.718 3.83,8.548 8.548,8.548c4.718,0 8.548,-3.83 8.548,-8.548c0,-4.718 -3.83,-8.548 -8.548,-8.548Zm0,1c4.166,0 7.548,3.382 7.548,7.548c0,4.166 -3.382,7.548 -7.548,7.548c-4.166,0 -7.548,-3.382 -7.548,-7.548c0,-4.166 3.382,-7.548 7.548,-7.548Z" style="fill:#3e98a6;"/><path d="M57.65,152.222c-4.718,0 -8.548,3.83 -8.548,8.548c0,4.718 3.83,8.548 8.548,8.548c4.718,0 8.548,-3.83 8.548,-8.548c0,-4.718 -3.83,-8.548 -8.548,-8.548Zm0,1c4.166,0 7.548,3.382 7.548,7.548c0,4.166 -3.382,7.548 -7.548,7.548c-4.166,0 -7.548,-3.382 -7.548,-7.548c0,-4.166 3.382,-7.548 7.548,-7.548Z" style="fill:#3e98a6;"/><path d="M82.201,152.222c-4.718,0 -8.549,3.83 -8.549,8.548c0,4.718 3.831,8.548 8.549,8.548c4.718,0 8.548,-3.83 8.548,-8.548c0,-4.718 -3.83,-8.548 -8.548,-8.548Zm0,1c4.166,0 7.548,3.382 7.548,7.548c0,4.166 -3.382,7.548 -7.548,7.548c-4.166,0 -7.549,-3.382 -7.549,-7.548c0,-4.166 3.383,-7.548 7.549,-7.548Z" style="fill:#3e98a6;"/><path d="M106.751,152.222c-4.717,0 -8.548,3.83 -8.548,8.548c0,4.718 3.831,8.548 8.548,8.548c4.718,0 8.549,-3.83 8.549,-8.548c0,-4.718 -3.831,-8.548 -8.549,-8.548Zm0,1c4.166,0 7.549,3.382 7.549,7.548c0,4.166 -3.383,7.548 -7.549,7.548c-4.165,0 -7.548,-3.382 -7.548,-7.548c0,-4.166 3.383,-7.548 7.548,-7.548Z" style="fill:#3e98a6;"/></g><g><path d="M8.548,173.968c-4.718,0 -8.548,3.83 -8.548,8.548c0,4.718 3.83,8.548 8.548,8.548c4.718,0 8.548,-3.83 8.548,-8.548c0,-4.718 -3.83,-8.548 -8.548,-8.548Zm0,1c4.166,0 7.548,3.382 7.548,7.548c0,4.166 -3.382,7.548 -7.548,7.548c-4.166,0 -7.548,-3.382 -7.548,-7.548c0,-4.166 3.382,-7.548 7.548,-7.548Z" style="fill:#3e98a6;"/><path d="M33.099,173.968c-4.718,0 -8.548,3.83 -8.548,8.548c0,4.718 3.83,8.548 8.548,8.548c4.718,0 8.548,-3.83 8.548,-8.548c0,-4.718 -3.83,-8.548 -8.548,-8.548Zm0,1c4.166,0 7.548,3.382 7.548,7.548c0,4.166 -3.382,7.548 -7.548,7.548c-4.166,0 -7.548,-3.382 -7.548,-7.548c0,-4.166 3.382,-7.548 7.548,-7.548Z" style="fill:#3e98a6;"/><path d="M57.65,173.968c-4.718,0 -8.548,3.83 -8.548,8.548c0,4.718 3.83,8.548 8.548,8.548c4.718,0 8.548,-3.83 8.548,-8.548c0,-4.718 -3.83,-8.548 -8.548,-8.548Zm0,1c4.166,0 7.548,3.382 7.548,7.548c0,4.166 -3.382,7.548 -7.548,7.548c-4.166,0 -7.548,-3.382 -7.548,-7.548c0,-4.166 3.382,-7.548 7.548,-7.548Z" style="fill:#3e98a6;"/><path d="M82.201,173.968c-4.718,0 -8.549,3.83 -8.549,8.548c0,4.718 3.831,8.548 8.549,8.548c4.718,0 8.548,-3.83 8.548,-8.548c0,-4.718 -3.83,-8.548 -8.548,-8.548Zm0,1c4.166,0 7.548,3.382 7.548,7.548c0,4.166 -3.382,7.548 -7.548,7.548c-4.166,0 -7.549,-3.382 -7.549,-7.548c0,-4.166 3.383,-7.548 7.549,-7.548Z" style="fill:#3e98a6;"/><path d="M106.751,173.968c-4.717,0 -8.548,3.83 -8.548,8.548c0,4.718 3.831,8.548 8.548,8.548c4.718,0 8.549,-3.83 8.549,-8.548c0,-4.718 -3.831,-8.548 -8.549,-8.548Zm0,1c4.166,0 7.549,3.382 7.549,7.548c0,4.166 -3.383,7.548 -7.549,7.548c-4.165,0 -7.548,-3.382 -7.548,-7.548c0,-4.166 3.383,-7.548 7.548,-7.548Z" style="fill:#3e98a6;"/></g><g><path d="M8.548,195.714c-4.718,0 -8.548,3.83 -8.548,8.548c0,4.718 3.83,8.548 8.548,8.548c4.718,0 8.548,-3.83 8.548,-8.548c0,-4.718 -3.83,-8.548 -8.548,-8.548Zm0,1c4.166,0 7.548,3.382 7.548,7.548c0,4.166 -3.382,7.548 -7.548,7.548c-4.166,0 -7.548,-3.382 -7.548,-7.548c0,-4.166 3.382,-7.548 7.548,-7.548Z" style="fill:#3e98a6;"/><path d="M33.099,195.714c-4.718,0 -8.548,3.83 -8.548,8.548c0,4.718 3.83,8.548 8.548,8.548c4.718,0 8.548,-3.83 8.548,-8.548c0,-4.718 -3.83,-8.548 -8.548,-8.548Zm0,1c4.166,0 7.548,3.382 7.548,7.548c0,4.166 -3.382,7.548 -7.548,7.548c-4.166,0 -7.548,-3.382 -7.548,-7.548c0,-4.166 3.382,-7.548 7.548,-7.548Z" style="fill:#3e98a6;"/><path d="M57.65,195.714c-4.718,0 -8.548,3.83 -8.548,8.548c0,4.718 3.83,8.548 8.548,8.548c4.718,0 8.548,-3.83 8.548,-8.548c0,-4.718 -3.83,-8.548 -8.548,-8.548Zm0,1c4.166,0 7.548,3.382 7.548,7.548c0,4.166 -3.382,7.548 -7.548,7.548c-4.166,0 -7.548,-3.382 -7.548,-7.548c0,-4.166 3.382,-7.548 7.548,-7.548Z" style="fill:#3e98a6;"/><path d="M82.201,195.714c-4.718,0 -8.549,3.83 -8.549,8.548c0,4.718 3.831,8.548 8.549,8.548c4.718,0 8.548,-3.83 8.548,-8.548c0,-4.718 -3.83,-8.548 -8.548,-8.548Zm0,1c4.166,0 7.548,3.382 7.548,7.548c0,4.166 -3.382,7.548 -7.548,7.548c-4.166,0 -7.549,-3.382 -7.549,-7.548c0,-4.166 3.383,-7.548 7.549,-7.548Z" style="fill:#3e98a6;"/><path d="M106.751,195.714c-4.717,0 -8.548,3.83 -8.548,8.548c0,4.718 3.831,8.548 8.548,8.548c4.718,0 8.549,-3.83 8.549,-8.548c0,-4.718 -3.831,-8.548 -8.549,-8.548Zm0,1c4.166,0 7.549,3.382 7.549,7.548c0,4.166 -3.383,7.548 -7.549,7.548c-4.165,0 -7.548,-3.382 -7.548,-7.548c0,-4.166 3.383,-7.548 7.548,-7.548Z" style="fill:#3e98a6;"/></g><g><path d="M8.548,217.46c-4.718,0 -8.548,3.83 -8.548,8.548c0,4.718 3.83,8.548 8.548,8.548c4.718,0 8.548,-3.83 8.548,-8.548c0,-4.718 -3.83,-8.548 -8.548,-8.548Zm0,1c4.166,0 7.548,3.382 7.548,7.548c0,4.166 -3.382,7.548 -7.548,7.548c-4.166,0 -7.548,-3.382 -7.548,-7.548c0,-4.166 3.382,-7.548 7.548,-7.548Z" style="fill:#3e98a6;"/><path d="M33.099,217.46c-4.718,0 -8.548,3.83 -8.548,8.548c0,4.718 3.83,8.548 8.548,8.548c4.718,0 8.548,-3.83 8.548,-8.548c0,-4.718 -3.83,-8.548 -8.548,-8.548Zm0,1c4.166,0 7.548,3.382 7.548,7.548c0,4.166 -3.382,7.548 -7.548,7.548c-4.166,0 -7.548,-3.382 -7.548,-7.548c0,-4.166 3.382,-7.548 7.548,-7.548Z" style="fill:#3e98a6;"/><path d="M57.65,217.46c-4.718,0 -8.548,3.83 -8.548,8.548c0,4.718 3.83,8.548 8.548,8.548c4.718,0 8.548,-3.83 8.548,-8.548c0,-4.718 -3.83,-8.548 -8.548,-8.548Zm0,1c4.166,0 7.548,3.382 7.548,7.548c0,4.166 -3.382,7.548 -7.548,7.548c-4.166,0 -7.548,-3.382 -7.548,-7.548c0,-4.166 3.382,-7.548 7.548,-7.548Z" style="fill:#3e98a6;"/><path d="M82.201,217.46c-4.718,0 -8.549,3.83 -8.549,8.548c0,4.718 3.831,8.548 8.549,8.548c4.718,0 8.548,-3.83 8.548,-8.548c0,-4.718 -3.83,-8.548 -8.548,-8.548Zm0,1c4.166,0 7.548,3.382 7.548,7.548c0,4.166 -3.382,7.548 -7.548,7.548c-4.166,0 -7.549,-3.382 -7.549,-7.548c0,-4.166 3.383,-7.548 7.549,-7.548Z" style="fill:#3e98a6;"/><path d="M106.751,217.46c-4.717,0 -8.548,3.83 -8.548,8.548c0,4.718 3.831,8.548 8.548,8.548c4.718,0 8.549,-3.83 8.549,-8.548c0,-4.718 -3.831,-8.548 -8.549,-8.548Zm0,1c4.166,0 7.549,3.382 7.549,7.548c0,4.166 -3.383,7.548 -7.549,7.548c-4.165,0 -7.548,-3.382 -7.548,-7.548c0,-4.166 3.383,-7.548 7.548,-7.548Z" style="fill:#3e98a6;"/></g><g><path d="M8.548,239.206c-4.718,0 -8.548,3.83 -8.548,8.548c0,4.718 3.83,8.548 8.548,8.548c4.718,0 8.548,-3.83 8.548,-8.548c0,-4.718 -3.83,-8.548 -8.548,-8.548Zm0,1c4.166,0 7.548,3.382 7.548,7.548c0,4.166 -3.382,7.548 -7.548,7.548c-4.166,0 -7.548,-3.382 -7.548,-7.548c0,-4.166 3.382,-7.548 7.548,-7.548Z" style="fill:#3e98a6;"/><path d="M33.099,239.206c-4.718,0 -8.548,3.83 -8.548,8.548c0,4.718 3.83,8.548 8.548,8.548c4.718,0 8.548,-3.83 8.548,-8.548c0,-4.718 -3.83,-8.548 -8.548,-8.548Zm0,1c4.166,0 7.548,3.382 7.548,7.548c0,4.166 -3.382,7.548 -7.548,7.548c-4.166,0 -7.548,-3.382 -7.548,-7.548c0,-4.166 3.382,-7.548 7.548,-7.548Z" style="fill:#3e98a6;"/><path d="M57.65,239.206c-4.718,0 -8.548,3.83 -8.548,8.548c0,4.718 3.83,8.548 8.548,8.548c4.718,0 8.548,-3.83 8.548,-8.548c0,-4.718 -3.83,-8.548 -8.548,-8.548Zm0,1c4.166,0 7.548,3.382 7.548,7.548c0,4.166 -3.382,7.548 -7.548,7.548c-4.166,0 -7.548,-3.382 -7.548,-7.548c0,-4.166 3.382,-7.548 7.548,-7.548Z" style="fill:#3e98a6;"/><path d="M82.201,239.206c-4.718,0 -8.549,3.83 -8.549,8.548c0,4.718 3.831,8.548 8.549,8.548c4.718,0 8.548,-3.83 8.548,-8.548c0,-4.718 -3.83,-8.548 -8.548,-8.548Zm0,1c4.166,0 7.548,3.382 7.548,7.548c0,4.166 -3.382,7.548 -7.548,7.548c-4.166,0 -7.549,-3.382 -7.549,-7.548c0,-4.166 3.383,-7.548 7.549,-7.548Z" style="fill:#3e98a6;"/><path d="M106.751,239.206c-4.717,0 -8.548,3.83 -8.548,8.548c0,4.718 3.831,8.548 8.548,8.548c4.718,0 8.549,-3.83 8.549,-8.548c0,-4.718 -3.831,-8.548 -8.549,-8.548Zm0,1c4.166,0 7.549,3.382 7.549,7.548c0,4.166 -3.383,7.548 -7.549,7.548c-4.165,0 -7.548,-3.382 -7.548,-7.548c0,-4.166 3.383,-7.548 7.548,-7.548Z" style="fill:#3e98a6;"/></g></g></svg>