<?xml version="1.0" encoding="UTF-8" standalone="no"?><!DOCTYPE svg PUBLIC "-//W3C//DTD SVG 1.1//EN" "http://www.w3.org/Graphics/SVG/1.1/DTD/svg11.dtd"><svg width="100%" height="100%" viewBox="0 0 88 88" version="1.1" xmlns="http://www.w3.org/2000/svg" xmlns:xlink="http://www.w3.org/1999/xlink" xml:space="preserve" xmlns:serif="http://www.serif.com/" style="fill-rule:evenodd;clip-rule:evenodd;stroke-linejoin:round;stroke-miterlimit:2;"><path d="M2.272,38.856c6.097,-1.563 36.584,0 36.584,0c0,0 -1.563,-30.487 0,-36.584c0.777,-3.029 8.604,-3.029 9.381,0c1.563,6.097 0,36.584 0,36.584c0,0 30.487,-1.563 36.584,0c3.029,0.777 3.029,8.604 0,9.381c-6.097,1.563 -36.584,0 -36.584,0c0,0 1.563,30.487 0,36.584c-0.777,3.029 -8.604,3.029 -9.381,0c-1.563,-6.097 0,-36.584 0,-36.584c0,0 -30.487,1.563 -36.584,0c-3.029,-0.777 -3.029,-8.604 0,-9.381Z" style="fill:#8a8c8e;"/></svg>