<?xml version="1.0" encoding="UTF-8" standalone="no"?><!DOCTYPE svg PUBLIC "-//W3C//DTD SVG 1.1//EN" "http://www.w3.org/Graphics/SVG/1.1/DTD/svg11.dtd"><svg width="100%" height="100%" viewBox="0 0 203 204" version="1.1" xmlns="http://www.w3.org/2000/svg" xmlns:xlink="http://www.w3.org/1999/xlink" xml:space="preserve" xmlns:serif="http://www.serif.com/" style="fill-rule:evenodd;clip-rule:evenodd;stroke-linecap:round;stroke-linejoin:bevel;stroke-miterlimit:1.5;"><g><g><rect x="11.138" y="11.278" width="60.117" height="60.117" style="fill:none;stroke:#404040;stroke-width:1px;"/><rect x="71.276" y="11.278" width="60.117" height="60.117" style="fill:none;stroke:#404040;stroke-width:1px;"/><rect x="131.616" y="11.278" width="60.117" height="60.117" style="fill:none;stroke:#404040;stroke-width:1px;"/><rect x="11.138" y="71.534" width="60.117" height="60.117" style="fill:none;stroke:#404040;stroke-width:1px;"/><rect x="71.276" y="71.534" width="60.117" height="60.117" style="fill:none;stroke:#404040;stroke-width:1px;"/><rect x="131.616" y="71.534" width="60.117" height="60.117" style="fill:none;stroke:#404040;stroke-width:1px;"/><rect x="11.138" y="131.79" width="60.117" height="60.117" style="fill:none;stroke:#404040;stroke-width:1px;"/><rect x="71.276" y="131.79" width="60.117" height="60.117" style="fill:none;stroke:#404040;stroke-width:1px;"/><rect x="131.616" y="131.79" width="60.117" height="60.117" style="fill:none;stroke:#404040;stroke-width:1px;"/></g><path d="M1.237,10.018c1.464,-0.376 8.781,0 8.781,0c0,0 -0.376,-7.317 0,-8.781c0.186,-0.727 2.065,-0.727 2.251,0c0.375,1.464 0,8.781 0,8.781c0,0 7.317,-0.376 8.78,0c0.727,0.186 0.727,2.065 0,2.251c-1.463,0.375 -8.78,0 -8.78,0c0,0 0.375,7.317 0,8.78c-0.186,0.727 -2.065,0.727 -2.251,0c-0.376,-1.463 0,-8.78 0,-8.78c0,0 -7.317,0.375 -8.781,0c-0.727,-0.186 -0.727,-2.065 0,-2.251Z" style="fill:#8a8c8e;stroke:#404040;stroke-width:1px;"/><path d="M61.465,9.825c1.464,-0.375 8.781,0 8.781,0c0,0 -0.376,-7.316 0,-8.78c0.186,-0.727 2.065,-0.727 2.251,0c0.375,1.464 0,8.78 0,8.78c0,0 7.317,-0.375 8.78,0c0.727,0.187 0.727,2.065 0,2.252c-1.463,0.375 -8.78,0 -8.78,0c0,0 0.375,7.317 0,8.78c-0.186,0.727 -2.065,0.727 -2.251,0c-0.376,-1.463 0,-8.78 0,-8.78c0,0 -7.317,0.375 -8.781,0c-0.727,-0.187 -0.727,-2.065 0,-2.252Z" style="fill:#8a8c8e;stroke:#404040;stroke-width:1px;"/><path d="M121.885,9.922c1.464,-0.376 8.781,0 8.781,0c0,0 -0.376,-7.317 0,-8.781c0.186,-0.727 2.065,-0.727 2.251,0c0.375,1.464 0,8.781 0,8.781c0,0 7.317,-0.376 8.78,0c0.727,0.186 0.727,2.064 0,2.251c-1.463,0.375 -8.78,0 -8.78,0c0,0 0.375,7.317 0,8.78c-0.186,0.727 -2.065,0.727 -2.251,0c-0.376,-1.463 0,-8.78 0,-8.78c0,0 -7.317,0.375 -8.781,0c-0.726,-0.187 -0.726,-2.065 0,-2.251Z" style="fill:#8a8c8e;stroke:#404040;stroke-width:1px;"/><path d="M181.921,10.21c1.464,-0.376 8.781,0 8.781,0c0,0 -0.376,-7.317 0,-8.781c0.186,-0.727 2.065,-0.727 2.251,0c0.375,1.464 0,8.781 0,8.781c0,0 7.317,-0.376 8.78,0c0.727,0.186 0.727,2.065 0,2.251c-1.463,0.375 -8.78,0 -8.78,0c0,0 0.375,7.317 0,8.78c-0.186,0.727 -2.065,0.727 -2.251,0c-0.376,-1.463 0,-8.78 0,-8.78c0,0 -7.317,0.375 -8.781,0c-0.727,-0.186 -0.727,-2.065 0,-2.251Z" style="fill:#8a8c8e;stroke:#404040;stroke-width:1px;"/><path d="M182.113,70.438c1.464,-0.376 8.781,0 8.781,0c0,0 -0.376,-7.317 0,-8.781c0.186,-0.726 2.065,-0.726 2.251,0c0.375,1.464 0,8.781 0,8.781c0,0 7.317,-0.376 8.78,0c0.727,0.186 0.727,2.065 0,2.251c-1.463,0.375 -8.78,0 -8.78,0c0,0 0.375,7.317 0,8.78c-0.186,0.727 -2.065,0.727 -2.251,0c-0.376,-1.463 0,-8.78 0,-8.78c0,0 -7.317,0.375 -8.781,0c-0.726,-0.186 -0.726,-2.065 0,-2.251Z" style="fill:#8a8c8e;stroke:#404040;stroke-width:1px;"/><path d="M121.981,70.342c1.464,-0.376 8.781,0 8.781,0c0,0 -0.375,-7.317 0,-8.781c0.186,-0.727 2.065,-0.727 2.251,0c0.375,1.464 0,8.781 0,8.781c0,0 7.317,-0.376 8.78,0c0.727,0.186 0.727,2.065 0,2.251c-1.463,0.375 -8.78,0 -8.78,0c0,0 0.375,7.317 0,8.78c-0.186,0.727 -2.065,0.727 -2.251,0c-0.375,-1.463 0,-8.78 0,-8.78c0,0 -7.317,0.375 -8.781,0c-0.726,-0.186 -0.726,-2.065 0,-2.251Z" style="fill:#8a8c8e;stroke:#404040;stroke-width:1px;"/><path d="M61.465,70.342c1.464,-0.376 8.781,0 8.781,0c0,0 -0.376,-7.317 0,-8.781c0.186,-0.727 2.065,-0.727 2.251,0c0.375,1.464 0,8.781 0,8.781c0,0 7.317,-0.376 8.78,0c0.727,0.186 0.727,2.065 0,2.251c-1.463,0.375 -8.78,0 -8.78,0c0,0 0.375,7.317 0,8.78c-0.186,0.727 -2.065,0.727 -2.251,0c-0.376,-1.463 0,-8.78 0,-8.78c0,0 -7.317,0.375 -8.781,0c-0.727,-0.186 -0.727,-2.065 0,-2.251Z" style="fill:#8a8c8e;stroke:#404040;stroke-width:1px;"/><path d="M1.045,70.342c1.464,-0.376 8.78,0 8.78,0c0,0 -0.375,-7.317 0,-8.781c0.187,-0.727 2.065,-0.727 2.252,0c0.375,1.464 0,8.781 0,8.781c0,0 7.317,-0.376 8.78,0c0.727,0.186 0.727,2.065 0,2.251c-1.463,0.375 -8.78,0 -8.78,0c0,0 0.375,7.317 0,8.78c-0.187,0.727 -2.065,0.727 -2.252,0c-0.375,-1.463 0,-8.78 0,-8.78c0,0 -7.316,0.375 -8.78,0c-0.727,-0.186 -0.727,-2.065 0,-2.251Z" style="fill:#8a8c8e;stroke:#404040;stroke-width:1px;"/><path d="M1.233,131.128c1.463,-0.375 8.78,0 8.78,0c0,0 -0.375,-7.317 0,-8.78c0.186,-0.727 2.065,-0.727 2.251,0c0.376,1.463 0,8.78 0,8.78c0,0 7.317,-0.375 8.781,0c0.727,0.186 0.727,2.065 0,2.251c-1.464,0.376 -8.781,0 -8.781,0c0,0 0.376,7.317 0,8.781c-0.186,0.726 -2.065,0.726 -2.251,0c-0.375,-1.464 0,-8.781 0,-8.781c0,0 -7.317,0.376 -8.78,0c-0.727,-0.186 -0.727,-2.065 0,-2.251Z" style="fill:#8a8c8e;stroke:#404040;stroke-width:1px;"/><path d="M61.456,130.378c1.464,-0.376 8.781,0 8.781,0c0,0 -0.376,-7.317 0,-8.781c0.186,-0.727 2.065,-0.727 2.251,0c0.375,1.464 0,8.781 0,8.781c0,0 7.317,-0.376 8.78,0c0.727,0.186 0.727,2.064 0,2.251c-1.463,0.375 -8.78,0 -8.78,0c0,0 0.375,7.317 0,8.78c-0.186,0.727 -2.065,0.727 -2.251,0c-0.376,-1.463 0,-8.78 0,-8.78c0,0 -7.317,0.375 -8.781,0c-0.727,-0.187 -0.727,-2.065 0,-2.251Z" style="fill:#8a8c8e;stroke:#404040;stroke-width:1px;"/><path d="M121.68,130.565c1.463,-0.375 8.78,0 8.78,0c0,0 -0.375,-7.317 0,-8.78c0.186,-0.727 2.065,-0.727 2.251,0c0.376,1.463 0,8.78 0,8.78c0,0 7.317,-0.375 8.781,0c0.727,0.187 0.727,2.065 0,2.251c-1.464,0.376 -8.781,0 -8.781,0c0,0 0.376,7.317 0,8.781c-0.186,0.727 -2.065,0.727 -2.251,0c-0.375,-1.464 0,-8.781 0,-8.781c0,0 -7.317,0.376 -8.78,0c-0.727,-0.186 -0.727,-2.064 0,-2.251Z" style="fill:#8a8c8e;stroke:#404040;stroke-width:1px;"/><path d="M181.903,130.378c1.464,-0.376 8.781,0 8.781,0c0,0 -0.376,-7.317 0,-8.781c0.186,-0.727 2.065,-0.727 2.251,0c0.375,1.464 0,8.781 0,8.781c0,0 7.317,-0.376 8.78,0c0.727,0.186 0.727,2.064 0,2.251c-1.463,0.375 -8.78,0 -8.78,0c0,0 0.375,7.317 0,8.78c-0.186,0.727 -2.065,0.727 -2.251,0c-0.376,-1.463 0,-8.78 0,-8.78c0,0 -7.317,0.375 -8.781,0c-0.727,-0.187 -0.727,-2.065 0,-2.251Z" style="fill:#8a8c8e;stroke:#404040;stroke-width:1px;"/><path d="M181.903,190.601c1.464,-0.375 8.781,0 8.781,0c0,0 -0.376,-7.317 0,-8.78c0.186,-0.727 2.065,-0.727 2.251,0c0.375,1.463 0,8.78 0,8.78c0,0 7.317,-0.375 8.78,0c0.727,0.186 0.727,2.065 0,2.251c-1.463,0.376 -8.78,0 -8.78,0c0,0 0.375,7.317 0,8.781c-0.186,0.727 -2.065,0.727 -2.251,0c-0.376,-1.464 0,-8.781 0,-8.781c0,0 -7.317,0.376 -8.781,0c-0.727,-0.186 -0.727,-2.065 0,-2.251Z" style="fill:#8a8c8e;stroke:#404040;stroke-width:1px;"/><path d="M121.68,190.789c1.463,-0.376 8.78,0 8.78,0c0,0 -0.375,-7.317 0,-8.781c0.186,-0.727 2.065,-0.727 2.251,0c0.376,1.464 0,8.781 0,8.781c0,0 7.317,-0.376 8.781,0c0.727,0.186 0.727,2.065 0,2.251c-1.464,0.375 -8.781,0 -8.781,0c0,0 0.376,7.317 0,8.78c-0.186,0.727 -2.065,0.727 -2.251,0c-0.375,-1.463 0,-8.78 0,-8.78c0,0 -7.317,0.375 -8.78,0c-0.727,-0.186 -0.727,-2.065 0,-2.251Z" style="fill:#8a8c8e;stroke:#404040;stroke-width:1px;"/><path d="M61.456,191.164c1.464,-0.375 8.781,0 8.781,0c0,0 -0.376,-7.317 0,-8.78c0.186,-0.727 2.065,-0.727 2.251,0c0.375,1.463 0,8.78 0,8.78c0,0 7.317,-0.375 8.78,0c0.727,0.186 0.727,2.065 0,2.251c-1.463,0.375 -8.78,0 -8.78,0c0,0 0.375,7.317 0,8.78c-0.186,0.727 -2.065,0.727 -2.251,0c-0.376,-1.463 0,-8.78 0,-8.78c0,0 -7.317,0.375 -8.781,0c-0.727,-0.186 -0.727,-2.065 0,-2.251Z" style="fill:#8a8c8e;stroke:#404040;stroke-width:1px;"/><path d="M1.233,190.789c1.463,-0.376 8.78,0 8.78,0c0,0 -0.375,-7.317 0,-8.781c0.186,-0.727 2.065,-0.727 2.251,0c0.376,1.464 0,8.781 0,8.781c0,0 7.317,-0.376 8.781,0c0.727,0.186 0.727,2.065 0,2.251c-1.464,0.375 -8.781,0 -8.781,0c0,0 0.376,7.317 0,8.78c-0.186,0.727 -2.065,0.727 -2.251,0c-0.375,-1.463 0,-8.78 0,-8.78c0,0 -7.317,0.375 -8.78,0c-0.727,-0.186 -0.727,-2.065 0,-2.251Z" style="fill:#8a8c8e;stroke:#404040;stroke-width:1px;"/></g></svg>