<?xml version="1.0" encoding="UTF-8" standalone="no"?><!DOCTYPE svg PUBLIC "-//W3C//DTD SVG 1.1//EN" "http://www.w3.org/Graphics/SVG/1.1/DTD/svg11.dtd"><svg width="100%" height="100%" viewBox="0 0 1748 1581" version="1.1" xmlns="http://www.w3.org/2000/svg" xmlns:xlink="http://www.w3.org/1999/xlink" xml:space="preserve" xmlns:serif="http://www.serif.com/" style="fill-rule:evenodd;clip-rule:evenodd;stroke-linejoin:round;stroke-miterlimit:2;"><g><path d="M415.418,916.142l-83.396,-83.396l-83.396,83.396l83.396,83.396l83.396,-83.396Z" style="fill:#fff;fill-opacity:0.24;"/><path d="M664.854,1165.58l-83.396,-83.396l-83.396,83.396l83.396,83.396l83.396,-83.396Z" style="fill:#fff;fill-opacity:0.24;"/><path d="M914.289,1415.01l-83.396,-83.396l-83.396,83.396l83.396,83.396l83.396,-83.396Z" style="fill:#fff;fill-opacity:0.24;"/><path d="M831.762,499.799l-83.396,-83.396l-83.396,83.396l83.396,83.396l83.396,-83.396Z" style="fill:#fff;fill-opacity:0.24;"/><path d="M1081.2,749.234l-83.396,-83.396l-83.396,83.396l83.396,83.396l83.396,-83.396Z" style="fill:#fff;fill-opacity:0.24;"/><path d="M1330.63,998.67l-83.396,-83.396l-83.396,83.396l83.396,83.396l83.396,-83.396Z" style="fill:#fff;fill-opacity:0.24;"/><path d="M498.836,667.438l-83.396,-83.396l-83.396,83.396l83.396,83.396l83.396,-83.396Z" style="fill:#fff;fill-opacity:0.24;"/><path d="M748.272,916.873l-83.397,-83.396l-83.396,83.396l83.396,83.396l83.397,-83.396Z" style="fill:#fff;fill-opacity:0.24;"/><path d="M915.179,251.094l-83.396,-83.396l-83.396,83.396l83.396,83.396l83.396,-83.396Z" style="fill:#fff;fill-opacity:0.24;"/><path d="M250.188,916.086l-83.396,-83.396l-83.396,83.396l83.396,83.396l83.396,-83.396Z" style="fill:#fff;fill-opacity:0.24;"/><path d="M499.624,1165.52l-83.396,-83.396l-83.396,83.396l83.396,83.396l83.396,-83.396Z" style="fill:#fff;fill-opacity:0.24;"/><path d="M749.059,1414.96l-83.396,-83.396l-83.396,83.396l83.396,83.396l83.396,-83.396Z" style="fill:#fff;fill-opacity:0.24;"/><path d="M666.532,499.742l-83.397,-83.396l-83.396,83.396l83.396,83.396l83.397,-83.396Z" style="fill:#fff;fill-opacity:0.24;"/><path d="M915.967,749.178l-83.396,-83.396l-83.396,83.396l83.396,83.396l83.396,-83.396Z" style="fill:#fff;fill-opacity:0.24;"/><path d="M1165.4,998.613l-83.396,-83.396l-83.396,83.396l83.396,83.396l83.396,-83.396Z" style="fill:#fff;fill-opacity:0.24;"/><path d="M331.752,667.729l-83.396,-83.396l-83.396,83.396l83.396,83.396l83.396,-83.396Z" style="fill:#fff;fill-opacity:0.24;"/><path d="M581.188,917.165l-83.396,-83.396l-83.396,83.396l83.396,83.396l83.396,-83.396Z" style="fill:#fff;fill-opacity:0.24;"/><path d="M830.623,1166.6l-83.396,-83.396l-83.396,83.396l83.396,83.396l83.396,-83.396Z" style="fill:#fff;fill-opacity:0.24;"/><path d="M748.096,251.386l-83.396,-83.396l-83.396,83.396l83.396,83.396l83.396,-83.396Z" style="fill:#fff;fill-opacity:0.24;"/><path d="M1246.97,750.257l-83.396,-83.396l-83.396,83.396l83.396,83.396l83.396,-83.396Z" style="fill:#fff;fill-opacity:0.24;"/><path d="M665.779,665.782l-83.396,-83.396l-83.396,83.396l83.396,83.396l83.396,-83.396Z" style="fill:#fff;fill-opacity:0.24;"/><path d="M915.214,915.217l-83.396,-83.396l-83.396,83.396l83.396,83.396l83.396,-83.396Z" style="fill:#fff;fill-opacity:0.24;"/><path d="M1164.65,1164.65l-83.396,-83.396l-83.396,83.396l83.396,83.396l83.396,-83.396Z" style="fill:#fff;fill-opacity:0.24;"/><path d="M1082.12,249.438l-83.396,-83.396l-83.396,83.396l83.396,83.396l83.396,-83.396Z" style="fill:#fff;fill-opacity:0.24;"/><path d="M166.792,832.69l-83.396,-83.396l-83.396,83.396l83.396,83.396l83.396,-83.396Z" style="fill:#fff;fill-opacity:0.24;"/><path d="M416.228,1082.13l-83.396,-83.396l-83.396,83.396l83.396,83.396l83.396,-83.396Z" style="fill:#fff;fill-opacity:0.24;"/><path d="M665.663,1331.56l-83.396,-83.396l-83.396,83.396l83.396,83.396l83.396,-83.396Z" style="fill:#fff;fill-opacity:0.24;"/><path d="M583.135,416.346l-83.396,-83.396l-83.396,83.396l83.396,83.396l83.396,-83.396Z" style="fill:#fff;fill-opacity:0.24;"/><path d="M832.571,665.782l-83.396,-83.396l-83.396,83.396l83.396,83.396l83.396,-83.396Z" style="fill:#fff;fill-opacity:0.24;"/><path d="M747.227,1083.2l-83.396,-83.396l-83.396,83.396l83.396,83.396l83.396,-83.396Z" style="fill:#fff;fill-opacity:0.24;"/><path d="M914.135,417.425l-83.396,-83.396l-83.396,83.396l83.396,83.396l83.396,-83.396Z" style="fill:#fff;fill-opacity:0.24;"/><path d="M583.138,583.135l-83.396,-83.396l-83.396,83.396l83.396,83.397l83.396,-83.397Z" style="fill:#fff;fill-opacity:0.24;"/><path d="M832.574,832.571l-83.396,-83.396l-83.396,83.396l83.396,83.396l83.396,-83.396Z" style="fill:#fff;fill-opacity:0.24;"/><path d="M1082.01,1082.01l-83.396,-83.396l-83.396,83.396l83.396,83.396l83.396,-83.396Z" style="fill:#fff;fill-opacity:0.24;"/><path d="M1248.92,416.228l-83.396,-83.396l-83.396,83.396l83.396,83.396l83.396,-83.396Z" style="fill:#fff;fill-opacity:0.24;"/><path d="M1498.35,665.663l-83.396,-83.396l-83.396,83.396l83.396,83.396l83.396,-83.396Z" style="fill:#fff;fill-opacity:0.24;"/><path d="M332.775,833.499l-83.396,-83.396l-83.396,83.396l83.396,83.396l83.396,-83.396Z" style="fill:#fff;fill-opacity:0.24;"/><path d="M582.21,1082.93l-83.396,-83.396l-83.396,83.396l83.396,83.396l83.396,-83.396Z" style="fill:#fff;fill-opacity:0.24;"/><path d="M831.646,1332.37l-83.396,-83.396l-83.396,83.396l83.396,83.396l83.396,-83.396Z" style="fill:#fff;fill-opacity:0.24;"/><path d="M998.554,666.591l-83.396,-83.396l-83.396,83.396l83.396,83.396l83.396,-83.396Z" style="fill:#fff;fill-opacity:0.24;"/><path d="M415.44,584.042l-83.396,-83.396l-83.396,83.396l83.396,83.396l83.396,-83.396Z" style="fill:#fff;fill-opacity:0.24;"/><path d="M664.875,833.477l-83.396,-83.396l-83.396,83.396l83.396,83.396l83.396,-83.396Z" style="fill:#fff;fill-opacity:0.24;"/><path d="M914.311,1082.91l-83.396,-83.396l-83.396,83.396l83.396,83.396l83.396,-83.396Z" style="fill:#fff;fill-opacity:0.24;"/><path d="M831.783,167.698l-83.396,-83.396l-83.396,83.396l83.396,83.396l83.396,-83.396Z" style="fill:#fff;fill-opacity:0.24;"/><path d="M1081.22,417.134l-83.396,-83.396l-83.396,83.396l83.396,83.396l83.396,-83.396Z" style="fill:#fff;fill-opacity:0.24;"/><path d="M499.742,499.739l-83.396,-83.396l-83.396,83.396l83.396,83.396l83.396,-83.396Z" style="fill:#fff;fill-opacity:0.24;"/><path d="M998.613,998.611l-83.396,-83.397l-83.396,83.397l83.396,83.396l83.396,-83.396Z" style="fill:#fff;fill-opacity:0.24;"/><path d="M916.086,83.396l-83.396,-83.396l-83.396,83.396l83.396,83.396l83.396,-83.396Z" style="fill:#fff;fill-opacity:0.24;"/><path d="M249.379,750.103l-83.396,-83.396l-83.396,83.396l83.396,83.396l83.396,-83.396Z" style="fill:#fff;fill-opacity:0.24;"/><path d="M665.722,333.759l-83.396,-83.396l-83.396,83.396l83.396,83.396l83.396,-83.396Z" style="fill:#fff;fill-opacity:0.24;"/><path d="M915.158,583.195l-83.396,-83.396l-83.396,83.396l83.396,83.396l83.396,-83.396Z" style="fill:#fff;fill-opacity:0.24;"/><path d="M1164.59,832.63l-83.396,-83.396l-83.396,83.396l83.396,83.396l83.396,-83.396Z" style="fill:#fff;fill-opacity:0.24;"/><path d="M581.479,750.081l-83.396,-83.396l-83.396,83.396l83.396,83.396l83.396,-83.396Z" style="fill:#fff;fill-opacity:0.24;"/><path d="M997.823,333.738l-83.396,-83.396l-83.396,83.396l83.396,83.396l83.396,-83.396Z" style="fill:#fff;fill-opacity:0.24;"/><path d="M1247.26,583.173l-83.396,-83.396l-83.396,83.396l83.396,83.396l83.396,-83.396Z" style="fill:#fff;fill-opacity:0.24;"/><path d="M1496.69,832.609l-83.396,-83.396l-83.396,83.396l83.396,83.396l83.396,-83.396Z" style="fill:#fff;fill-opacity:0.24;"/><path d="M1747.85,748.249l-83.396,-83.396l-83.396,83.396l83.396,83.396l83.396,-83.396Z" style="fill:#fff;fill-opacity:0.24;"/><path d="M332.832,998.729l-83.396,-83.396l-83.397,83.396l83.397,83.396l83.396,-83.396Z" style="fill:#fff;fill-opacity:0.24;"/><path d="M582.267,1248.16l-83.396,-83.396l-83.396,83.396l83.396,83.396l83.396,-83.396Z" style="fill:#fff;fill-opacity:0.24;"/><path d="M831.703,1497.6l-83.396,-83.396l-83.396,83.396l83.396,83.396l83.396,-83.396Z" style="fill:#fff;fill-opacity:0.24;"/><path d="M998.611,831.821l-83.397,-83.396l-83.396,83.396l83.396,83.396l83.397,-83.396Z" style="fill:#fff;fill-opacity:0.24;"/><path d="M415.148,751.125l-83.396,-83.396l-83.396,83.396l83.396,83.396l83.396,-83.396Z" style="fill:#fff;fill-opacity:0.24;"/><path d="M664.584,1000.56l-83.396,-83.396l-83.396,83.396l83.396,83.396l83.396,-83.396Z" style="fill:#fff;fill-opacity:0.24;"/><path d="M914.019,1250l-83.396,-83.396l-83.396,83.396l83.396,83.396l83.396,-83.396Z" style="fill:#fff;fill-opacity:0.24;"/><path d="M831.492,334.782l-83.396,-83.396l-83.396,83.396l83.396,83.396l83.396,-83.396Z" style="fill:#fff;fill-opacity:0.24;"/><path d="M1080.93,584.217l-83.396,-83.396l-83.396,83.396l83.396,83.396l83.396,-83.396Z" style="fill:#fff;fill-opacity:0.24;"/></g></svg>