<?xml version="1.0" encoding="UTF-8" standalone="no"?>
<!DOCTYPE svg PUBLIC "-//W3C//DTD SVG 1.1//EN" "http://www.w3.org/Graphics/SVG/1.1/DTD/svg11.dtd">
<svg width="100%" height="100%" viewBox="0 0 600 379" version="1.1" xmlns="http://www.w3.org/2000/svg" xmlns:xlink="http://www.w3.org/1999/xlink" xml:space="preserve" xmlns:serif="http://www.serif.com/" style="fill-rule:evenodd;clip-rule:evenodd;stroke-linejoin:round;stroke-miterlimit:2;"><g><path d="M75.835,253.088l-25.108,-25.107l-25.487,25.487l25.108,25.108l25.487,-25.488Z" style="fill:#3F98A6;fill-opacity:0.24;"/><path d="M150.931,328.185l-25.108,-25.108l-25.487,25.487l25.108,25.108l25.487,-25.487Z" style="fill:#3F98A6;fill-opacity:0.24;"/><path d="M203.076,125.847l-25.108,-25.107l-25.487,25.487l25.108,25.107l25.487,-25.487Z" style="fill:#3F98A6;fill-opacity:0.24;"/><path d="M278.172,200.944l-25.107,-25.108l-25.488,25.487l25.108,25.108l25.487,-25.487Z" style="fill:#3F98A6;fill-opacity:0.24;"/><path d="M353.269,276.04l-25.108,-25.107l-25.487,25.487l25.108,25.107l25.487,-25.487Z" style="fill:#3F98A6;fill-opacity:0.24;"/><path d="M101.704,177.456l-25.107,-25.107l-25.487,25.487l25.107,25.108l25.487,-25.488Z" style="fill:#3F98A6;fill-opacity:0.24;"/><path d="M176.801,252.553l-25.108,-25.108l-25.487,25.487l25.108,25.108l25.487,-25.487Z" style="fill:#3F98A6;fill-opacity:0.24;"/><path d="M228.945,50.215l-25.107,-25.107l-25.487,25.487l25.107,25.108l25.487,-25.488Z" style="fill:#3F98A6;fill-opacity:0.24;"/><path d="M77.244,101.468l-25.108,-25.108l-25.487,25.487l25.108,25.108l25.487,-25.487Z" style="fill:#3F98A6;fill-opacity:0.24;"/><path d="M100.81,328.544l-25.107,-25.108l-25.488,25.487l25.108,25.108l25.487,-25.487Z" style="fill:#3F98A6;fill-opacity:0.24;"/><path d="M573.694,292.427l-25.107,-25.108l-25.487,25.487l25.107,25.108l25.487,-25.487Z" style="fill:#3F98A6;fill-opacity:0.24;"/><path d="M152.955,126.206l-25.108,-25.108l-25.487,25.487l25.108,25.108l25.487,-25.487Z" style="fill:#3F98A6;fill-opacity:0.24;"/><path d="M228.051,201.303l-25.107,-25.108l-25.488,25.487l25.108,25.108l25.487,-25.487Z" style="fill:#3F98A6;fill-opacity:0.24;"/><path d="M303.148,276.399l-25.108,-25.108l-25.487,25.488l25.108,25.107l25.487,-25.487Z" style="fill:#3F98A6;fill-opacity:0.24;"/><path d="M51.02,177.925l-25.107,-25.108l-25.487,25.487l25.107,25.108l25.487,-25.487Z" style="fill:#3F98A6;fill-opacity:0.24;"/><path d="M126.117,253.021l-25.108,-25.107l-25.487,25.487l25.108,25.108l25.487,-25.488Z" style="fill:#3F98A6;fill-opacity:0.24;"/><path d="M201.213,328.118l-25.107,-25.108l-25.487,25.487l25.107,25.108l25.487,-25.487Z" style="fill:#3F98A6;fill-opacity:0.24;"/><path d="M178.261,50.684l-25.107,-25.108l-25.487,25.487l25.107,25.108l25.487,-25.487Z" style="fill:#3F98A6;fill-opacity:0.24;"/><path d="M328.455,200.877l-25.108,-25.108l-25.487,25.487l25.107,25.108l25.488,-25.487Z" style="fill:#3F98A6;fill-opacity:0.24;"/><path d="M152.349,176.574l-25.108,-25.107l-25.487,25.487l25.108,25.107l25.487,-25.487Z" style="fill:#3F98A6;fill-opacity:0.24;"/><path d="M227.445,251.671l-25.107,-25.108l-25.488,25.487l25.108,25.108l25.487,-25.487Z" style="fill:#3F98A6;fill-opacity:0.24;"/><path d="M302.542,326.767l-25.108,-25.107l-25.487,25.487l25.108,25.107l25.487,-25.487Z" style="fill:#3F98A6;fill-opacity:0.24;"/><path d="M279.59,49.333l-25.108,-25.107l-25.487,25.487l25.108,25.107l25.487,-25.487Z" style="fill:#3F98A6;fill-opacity:0.24;"/><path d="M102.727,75.985l-25.107,-25.108l-25.487,25.487l25.107,25.108l25.487,-25.487Z" style="fill:#3F98A6;fill-opacity:0.24;"/><path d="M75.703,303.436l-25.108,-25.108l-25.487,25.487l25.107,25.108l25.488,-25.487Z" style="fill:#3F98A6;fill-opacity:0.24;"/><path d="M548.587,267.319l-25.108,-25.107l-25.487,25.487l25.108,25.107l25.487,-25.487Z" style="fill:#3F98A6;fill-opacity:0.24;"/><path d="M127.838,101.089l-25.108,-25.107l-25.487,25.487l25.108,25.108l25.487,-25.488Z" style="fill:#3F98A6;fill-opacity:0.24;"/><path d="M202.944,176.195l-25.108,-25.108l-25.487,25.487l25.107,25.108l25.488,-25.487Z" style="fill:#3F98A6;fill-opacity:0.24;"/><path d="M176.106,303.01l-25.108,-25.107l-25.487,25.487l25.108,25.107l25.487,-25.487Z" style="fill:#3F98A6;fill-opacity:0.24;"/><path d="M228.25,100.673l-25.107,-25.108l-25.488,25.487l25.108,25.108l25.487,-25.487Z" style="fill:#3F98A6;fill-opacity:0.24;"/><path d="M127.468,151.692l-25.107,-25.107l-25.487,25.487l25.107,25.107l25.487,-25.487Z" style="fill:#3F98A6;fill-opacity:0.24;"/><path d="M202.565,226.789l-25.108,-25.108l-25.487,25.487l25.108,25.108l25.487,-25.487Z" style="fill:#3F98A6;fill-opacity:0.24;"/><path d="M277.661,301.885l-25.107,-25.107l-25.487,25.487l25.107,25.107l25.487,-25.487Z" style="fill:#3F98A6;fill-opacity:0.24;"/><path d="M329.806,99.548l-25.108,-25.108l-25.487,25.487l25.108,25.108l25.487,-25.487Z" style="fill:#3F98A6;fill-opacity:0.24;"/><path d="M404.903,174.644l-25.108,-25.107l-25.487,25.487l25.107,25.107l25.488,-25.487Z" style="fill:#3F98A6;fill-opacity:0.24;"/><path d="M50.954,228.207l-25.108,-25.107l-25.487,25.487l25.107,25.107l25.488,-25.487Z" style="fill:#3F98A6;fill-opacity:0.24;"/><path d="M126.05,303.304l-25.108,-25.108l-25.487,25.487l25.108,25.108l25.487,-25.487Z" style="fill:#3F98A6;fill-opacity:0.24;"/><path d="M253.291,176.063l-25.108,-25.108l-25.487,25.487l25.108,25.108l25.487,-25.487Z" style="fill:#3F98A6;fill-opacity:0.24;"/><path d="M76.597,152.349l-25.108,-25.108l-25.487,25.487l25.108,25.108l25.487,-25.487Z" style="fill:#3F98A6;fill-opacity:0.24;"/><path d="M151.693,227.445l-25.108,-25.107l-25.487,25.487l25.108,25.107l25.487,-25.487Z" style="fill:#3F98A6;fill-opacity:0.24;"/><path d="M226.79,302.542l-25.108,-25.108l-25.487,25.487l25.108,25.108l25.487,-25.487Z" style="fill:#3F98A6;fill-opacity:0.24;"/><path d="M278.934,100.204l-25.107,-25.107l-25.488,25.487l25.108,25.107l25.487,-25.487Z" style="fill:#3F98A6;fill-opacity:0.24;"/><path d="M102.361,126.585l-25.108,-25.108l-25.487,25.487l25.108,25.108l25.487,-25.487Z" style="fill:#3F98A6;fill-opacity:0.24;"/><path d="M252.554,276.778l-25.108,-25.108l-25.487,25.487l25.108,25.108l25.487,-25.487Z" style="fill:#3F98A6;fill-opacity:0.24;"/><path d="M77.62,50.877l-25.108,-25.108l-25.487,25.488l25.108,25.107l25.487,-25.487Z" style="fill:#3F98A6;fill-opacity:0.24;"/><path d="M153.065,75.88l-25.108,-25.107l-25.487,25.487l25.108,25.107l25.487,-25.487Z" style="fill:#3F98A6;fill-opacity:0.24;"/><path d="M228.183,150.955l-25.107,-25.108l-25.487,25.487l25.107,25.108l25.487,-25.487Z" style="fill:#3F98A6;fill-opacity:0.24;"/><path d="M303.28,226.052l-25.108,-25.108l-25.487,25.487l25.108,25.108l25.487,-25.487Z" style="fill:#3F98A6;fill-opacity:0.24;"/><path d="M126.585,202.338l-25.107,-25.108l-25.487,25.487l25.107,25.108l25.487,-25.487Z" style="fill:#3F98A6;fill-opacity:0.24;"/><path d="M253.827,75.097l-25.108,-25.108l-25.487,25.487l25.107,25.108l25.488,-25.487Z" style="fill:#3F98A6;fill-opacity:0.24;"/><path d="M328.923,150.193l-25.108,-25.108l-25.487,25.487l25.108,25.108l25.487,-25.487Z" style="fill:#3F98A6;fill-opacity:0.24;"/><path d="M404.02,225.29l-25.108,-25.108l-25.487,25.487l25.107,25.108l25.488,-25.487Z" style="fill:#3F98A6;fill-opacity:0.24;"/><path d="M480.396,199.129l-25.108,-25.108l-25.487,25.487l25.108,25.108l25.487,-25.487Z" style="fill:#3F98A6;fill-opacity:0.24;"/><path d="M50.595,278.328l-25.108,-25.107l-25.487,25.487l25.108,25.107l25.487,-25.487Z" style="fill:#3F98A6;fill-opacity:0.24;"/><path d="M125.691,353.425l-25.107,-25.108l-25.487,25.487l25.107,25.108l25.487,-25.487Z" style="fill:#3F98A6;fill-opacity:0.24;"/><path d="M252.932,226.184l-25.107,-25.108l-25.487,25.487l25.107,25.108l25.487,-25.487Z" style="fill:#3F98A6;fill-opacity:0.24;"/><path d="M76.128,203.033l-25.108,-25.108l-25.487,25.487l25.108,25.108l25.487,-25.487Z" style="fill:#3F98A6;fill-opacity:0.24;"/><path d="M151.225,278.129l-25.108,-25.108l-25.487,25.488l25.108,25.107l25.487,-25.487Z" style="fill:#3F98A6;fill-opacity:0.24;"/><path d="M226.321,353.226l-25.108,-25.108l-25.487,25.487l25.108,25.108l25.487,-25.487Z" style="fill:#3F98A6;fill-opacity:0.24;"/><path d="M203.369,75.792l-25.108,-25.108l-25.487,25.487l25.108,25.108l25.487,-25.487Z" style="fill:#3F98A6;fill-opacity:0.24;"/><path d="M278.466,150.888l-25.108,-25.108l-25.487,25.488l25.108,25.107l25.487,-25.487Z" style="fill:#3F98A6;fill-opacity:0.24;"/><path d="M127.96,50.775l-25.108,-25.107l-25.487,25.487l25.108,25.108l25.487,-25.488Z" style="fill:#3F98A6;fill-opacity:0.24;"/><path d="M599.604,266.518l-25.108,-25.108l-25.487,25.487l25.107,25.108l25.488,-25.487Z" style="fill:#3F98A6;fill-opacity:0.24;"/><path d="M203.838,25.108l-25.108,-25.108l-25.487,25.487l25.108,25.108l25.487,-25.487Z" style="fill:#3F98A6;fill-opacity:0.24;"/><path d="M598.575,317.308l-25.107,-25.108l-25.487,25.488l25.107,25.107l25.487,-25.487Z" style="fill:#3F98A6;fill-opacity:0.24;"/><path d="M571.602,31.264l-25.108,-25.108l-25.487,25.487l25.108,25.108l25.487,-25.487Z" style="fill:#3F98A6;fill-opacity:0.24;"/></g></svg>