<?xml version="1.0" encoding="UTF-8" standalone="no"?><!DOCTYPE svg PUBLIC "-//W3C//DTD SVG 1.1//EN" "http://www.w3.org/Graphics/SVG/1.1/DTD/svg11.dtd"><svg width="100%" height="100%" viewBox="0 0 5145 4176" version="1.1" xmlns="http://www.w3.org/2000/svg" xmlns:xlink="http://www.w3.org/1999/xlink" xml:space="preserve" xmlns:serif="http://www.serif.com/" style="fill-rule:evenodd;clip-rule:evenodd;stroke-linecap:round;stroke-linejoin:bevel;stroke-miterlimit:1.5;"><g><path d="M1097.27,2419.86l-220.279,-220.279l-220.279,220.279l220.279,220.279l220.279,-220.279Z" style="fill:#3e98a6;fill-opacity:0.24;"/><path d="M1756.12,3078.71l-220.279,-220.279l-220.279,220.279l220.279,220.279l220.279,-220.279Z" style="fill:#3e98a6;fill-opacity:0.24;"/><path d="M2414.97,3737.56l-220.279,-220.279l-220.279,220.279l220.279,220.279l220.279,-220.279Z" style="fill:#3e98a6;fill-opacity:0.24;"/><path d="M2196.98,1320.15l-220.279,-220.279l-220.279,220.279l220.279,220.279l220.279,-220.279Z" style="fill:#3e98a6;fill-opacity:0.24;"/><path d="M2855.83,1979l-220.279,-220.279l-220.279,220.279l220.279,220.279l220.279,-220.279Z" style="fill:#3e98a6;fill-opacity:0.24;"/><path d="M3514.68,2637.85l-220.279,-220.279l-220.279,220.279l220.279,220.279l220.279,-220.279Z" style="fill:#3e98a6;fill-opacity:0.24;"/><path d="M1317.61,1762.94l-220.279,-220.279l-220.279,220.279l220.279,220.278l220.279,-220.278Z" style="fill:#3e98a6;fill-opacity:0.24;"/><path d="M1976.46,2421.79l-220.279,-220.279l-220.279,220.279l220.279,220.279l220.279,-220.279Z" style="fill:#3e98a6;fill-opacity:0.24;"/><path d="M2417.32,663.231l-220.278,-220.279l-220.279,220.279l220.279,220.279l220.278,-220.279Z" style="fill:#3e98a6;fill-opacity:0.24;"/><path d="M660.837,2419.71l-220.279,-220.279l-220.279,220.279l220.279,220.279l220.279,-220.279Z" style="fill:#3e98a6;fill-opacity:0.24;"/><path d="M1319.69,3078.56l-220.279,-220.279l-220.279,220.279l220.279,220.279l220.279,-220.279Z" style="fill:#3e98a6;fill-opacity:0.24;"/><path d="M1978.54,3737.41l-220.279,-220.279l-220.279,220.279l220.279,220.279l220.279,-220.279Z" style="fill:#3e98a6;fill-opacity:0.24;"/><path d="M1760.55,1320l-220.279,-220.279l-220.279,220.279l220.279,220.279l220.279,-220.279Z" style="fill:#3e98a6;fill-opacity:0.24;"/><path d="M2419.4,1978.85l-220.279,-220.279l-220.279,220.279l220.279,220.279l220.279,-220.279Z" style="fill:#3e98a6;fill-opacity:0.24;"/><path d="M3078.25,2637.7l-220.279,-220.279l-220.279,220.279l220.279,220.279l220.279,-220.279Z" style="fill:#3e98a6;fill-opacity:0.24;"/><path d="M876.278,1763.71l-220.279,-220.279l-220.279,220.279l220.279,220.279l220.279,-220.279Z" style="fill:#3e98a6;fill-opacity:0.24;"/><path d="M1535.13,2422.56l-220.279,-220.279l-220.279,220.279l220.279,220.279l220.279,-220.279Z" style="fill:#3e98a6;fill-opacity:0.24;"/><path d="M2193.98,3081.41l-220.279,-220.279l-220.279,220.279l220.279,220.279l220.279,-220.279Z" style="fill:#3e98a6;fill-opacity:0.24;"/><path d="M1975.99,664.001l-220.278,-220.279l-220.279,220.279l220.279,220.279l220.278,-220.279Z" style="fill:#3e98a6;fill-opacity:0.24;"/><path d="M3293.69,1981.7l-220.279,-220.279l-220.279,220.279l220.279,220.279l220.279,-220.279Z" style="fill:#3e98a6;fill-opacity:0.24;"/><path d="M1758.56,1758.57l-220.279,-220.279l-220.279,220.279l220.279,220.279l220.279,-220.279Z" style="fill:#3e98a6;fill-opacity:0.24;"/><path d="M2417.41,2417.42l-220.279,-220.279l-220.279,220.279l220.279,220.279l220.279,-220.279Z" style="fill:#3e98a6;fill-opacity:0.24;"/><path d="M3076.26,3076.27l-220.279,-220.279l-220.279,220.279l220.279,220.279l220.279,-220.279Z" style="fill:#3e98a6;fill-opacity:0.24;"/><path d="M2858.28,658.856l-220.279,-220.279l-220.279,220.279l220.279,220.279l220.279,-220.279Z" style="fill:#3e98a6;fill-opacity:0.24;"/><path d="M440.558,2199.43l-220.279,-220.279l-220.279,220.279l220.279,220.279l220.279,-220.279Z" style="fill:#3e98a6;fill-opacity:0.24;"/><path d="M1099.41,2858.28l-220.279,-220.279l-220.279,220.279l220.279,220.279l220.279,-220.279Z" style="fill:#3e98a6;fill-opacity:0.24;"/><path d="M1758.26,3517.13l-220.279,-220.279l-220.279,220.279l220.279,220.279l220.279,-220.279Z" style="fill:#3e98a6;fill-opacity:0.24;"/><path d="M1540.27,1099.72l-220.279,-220.279l-220.279,220.279l220.279,220.279l220.279,-220.279Z" style="fill:#3e98a6;fill-opacity:0.24;"/><path d="M2199.12,1758.57l-220.279,-220.279l-220.279,220.279l220.279,220.279l220.279,-220.279Z" style="fill:#3e98a6;fill-opacity:0.24;"/><path d="M1973.7,2861.13l-220.279,-220.279l-220.279,220.279l220.279,220.279l220.279,-220.279Z" style="fill:#3e98a6;fill-opacity:0.24;"/><path d="M2414.56,1102.57l-220.279,-220.279l-220.279,220.279l220.279,220.279l220.279,-220.279Z" style="fill:#3e98a6;fill-opacity:0.24;"/><path d="M1540.28,1540.27l-220.279,-220.279l-220.279,220.279l220.279,220.279l220.279,-220.279Z" style="fill:#3e98a6;fill-opacity:0.24;"/><path d="M2199.13,2199.12l-220.279,-220.279l-220.279,220.279l220.279,220.279l220.279,-220.279Z" style="fill:#3e98a6;fill-opacity:0.24;"/><path d="M2857.98,2857.97l-220.279,-220.279l-220.279,220.279l220.279,220.279l220.279,-220.279Z" style="fill:#3e98a6;fill-opacity:0.24;"/><path d="M3298.84,1099.41l-220.279,-220.279l-220.279,220.279l220.279,220.279l220.279,-220.279Z" style="fill:#3e98a6;fill-opacity:0.24;"/><path d="M3957.69,1758.26l-220.279,-220.279l-220.279,220.279l220.279,220.279l220.279,-220.279Z" style="fill:#3e98a6;fill-opacity:0.24;"/><path d="M878.979,2201.57l-220.279,-220.279l-220.279,220.279l220.279,220.279l220.279,-220.279Z" style="fill:#3e98a6;fill-opacity:0.24;"/><path d="M1537.83,2860.42l-220.279,-220.279l-220.279,220.279l220.279,220.279l220.279,-220.279Z" style="fill:#3e98a6;fill-opacity:0.24;"/><path d="M2196.68,3519.27l-220.279,-220.279l-220.279,220.279l220.279,220.279l220.279,-220.279Z" style="fill:#3e98a6;fill-opacity:0.24;"/><path d="M2637.54,1760.71l-220.279,-220.279l-220.279,220.279l220.279,220.279l220.279,-220.279Z" style="fill:#3e98a6;fill-opacity:0.24;"/><path d="M1097.33,1542.66l-220.279,-220.279l-220.279,220.279l220.279,220.279l220.279,-220.279Z" style="fill:#3e98a6;fill-opacity:0.24;"/><path d="M1756.18,2201.51l-220.279,-220.279l-220.279,220.279l220.279,220.279l220.279,-220.279Z" style="fill:#3e98a6;fill-opacity:0.24;"/><path d="M2415.03,2860.36l-220.279,-220.279l-220.279,220.279l220.279,220.279l220.279,-220.279Z" style="fill:#3e98a6;fill-opacity:0.24;"/><path d="M2197.04,442.952l-220.279,-220.279l-220.279,220.279l220.279,220.279l220.279,-220.279Z" style="fill:#3e98a6;fill-opacity:0.24;"/><path d="M2855.89,1101.8l-220.279,-220.279l-220.279,220.279l220.279,220.279l220.279,-220.279Z" style="fill:#3e98a6;fill-opacity:0.24;"/><path d="M1320,1319.99l-220.279,-220.279l-220.279,220.279l220.279,220.279l220.279,-220.279Z" style="fill:#3e98a6;fill-opacity:0.24;"/><path d="M2637.7,2637.69l-220.279,-220.279l-220.279,220.279l220.279,220.279l220.279,-220.279Z" style="fill:#3e98a6;fill-opacity:0.24;"/><path d="M2419.71,220.279l-220.279,-220.279l-220.279,220.279l220.279,220.279l220.279,-220.279Z" style="fill:#3e98a6;fill-opacity:0.24;"/><path d="M658.7,1981.29l-220.279,-220.279l-220.279,220.279l220.279,220.279l220.279,-220.279Z" style="fill:#3e98a6;fill-opacity:0.24;"/><path d="M1758.41,881.579l-220.278,-220.279l-220.279,220.279l220.279,220.279l220.278,-220.279Z" style="fill:#3e98a6;fill-opacity:0.24;"/><path d="M2417.26,1540.43l-220.279,-220.279l-220.279,220.279l220.279,220.279l220.279,-220.279Z" style="fill:#3e98a6;fill-opacity:0.24;"/><path d="M3076.11,2199.28l-220.279,-220.279l-220.279,220.279l220.279,220.279l220.279,-220.279Z" style="fill:#3e98a6;fill-opacity:0.24;"/><path d="M1535.9,1981.24l-220.279,-220.279l-220.279,220.279l220.279,220.279l220.279,-220.279Z" style="fill:#3e98a6;fill-opacity:0.24;"/><path d="M2635.61,881.522l-220.279,-220.279l-220.279,220.279l220.279,220.279l220.279,-220.279Z" style="fill:#3e98a6;fill-opacity:0.24;"/><path d="M3294.46,1540.37l-220.279,-220.279l-220.279,220.279l220.279,220.279l220.279,-220.279Z" style="fill:#3e98a6;fill-opacity:0.24;"/><path d="M3953.31,2199.22l-220.279,-220.279l-220.279,220.279l220.279,220.279l220.279,-220.279Z" style="fill:#3e98a6;fill-opacity:0.24;"/><path d="M4616.69,1976.4l-220.279,-220.279l-220.279,220.279l220.279,220.279l220.279,-220.279Z" style="fill:#3e98a6;fill-opacity:0.24;"/><path d="M879.128,2638l-220.279,-220.279l-220.279,220.279l220.279,220.279l220.279,-220.279Z" style="fill:#3e98a6;fill-opacity:0.24;"/><path d="M1537.98,3296.85l-220.279,-220.279l-220.279,220.279l220.279,220.279l220.279,-220.279Z" style="fill:#3e98a6;fill-opacity:0.24;"/><path d="M2196.83,3955.7l-220.279,-220.279l-220.279,220.279l220.279,220.279l220.279,-220.279Z" style="fill:#3e98a6;fill-opacity:0.24;"/><path d="M2637.69,2197.14l-220.279,-220.279l-220.279,220.279l220.279,220.279l220.279,-220.279Z" style="fill:#3e98a6;fill-opacity:0.24;"/><path d="M1096.56,1983.99l-220.279,-220.279l-220.279,220.279l220.279,220.279l220.279,-220.279Z" style="fill:#3e98a6;fill-opacity:0.24;"/><path d="M1755.41,2642.84l-220.279,-220.279l-220.279,220.279l220.279,220.279l220.279,-220.279Z" style="fill:#3e98a6;fill-opacity:0.24;"/><path d="M2414.26,3301.69l-220.279,-220.279l-220.279,220.279l220.279,220.279l220.279,-220.279Z" style="fill:#3e98a6;fill-opacity:0.24;"/><path d="M2196.27,884.28l-220.279,-220.279l-220.278,220.279l220.278,220.279l220.279,-220.279Z" style="fill:#3e98a6;fill-opacity:0.24;"/><path d="M2855.12,1543.13l-220.279,-220.279l-220.279,220.279l220.279,220.279l220.279,-220.279Z" style="fill:#3e98a6;fill-opacity:0.24;"/></g><g><g><rect x="3962.3" y="579.229" width="142.288" height="142.288" style="fill:none;stroke:#dcddde;stroke-width:4.17px;"/><rect x="4104.63" y="579.229" width="142.288" height="142.288" style="fill:none;stroke:#dcddde;stroke-width:4.17px;"/><rect x="4247.45" y="579.229" width="142.288" height="142.288" style="fill:none;stroke:#dcddde;stroke-width:4.17px;"/><rect x="3962.3" y="721.845" width="142.288" height="142.288" style="fill:none;stroke:#dcddde;stroke-width:4.17px;"/><rect x="4104.63" y="721.845" width="142.288" height="142.288" style="fill:none;stroke:#dcddde;stroke-width:4.17px;"/><rect x="4247.45" y="721.845" width="142.288" height="142.288" style="fill:none;stroke:#dcddde;stroke-width:4.17px;"/><rect x="3962.3" y="864.461" width="142.288" height="142.288" style="fill:none;stroke:#dcddde;stroke-width:4.17px;"/><rect x="4104.63" y="864.461" width="142.288" height="142.288" style="fill:none;stroke:#dcddde;stroke-width:4.17px;"/><rect x="4247.45" y="864.461" width="142.288" height="142.288" style="fill:none;stroke:#dcddde;stroke-width:4.17px;"/></g><path d="M3938.86,576.246c3.463,-0.888 20.781,0 20.781,0c0,0 -0.888,-17.318 0,-20.782c0.441,-1.72 4.887,-1.72 5.329,0c0.888,3.464 0,20.782 0,20.782c0,0 17.317,-0.888 20.781,0c1.72,0.441 1.72,4.887 0,5.328c-3.464,0.888 -20.781,0 -20.781,0c0,0 0.888,17.318 0,20.782c-0.442,1.72 -4.888,1.72 -5.329,0c-0.888,-3.464 0,-20.782 0,-20.782c0,0 -17.318,0.888 -20.781,0c-1.721,-0.441 -1.721,-4.887 0,-5.328Z" style="fill:#8a8c8e;stroke:#dcddde;stroke-width:4.17px;"/><path d="M4081.41,575.791c3.464,-0.888 20.781,0 20.781,0c0,0 -0.888,-17.318 0,-20.781c0.442,-1.721 4.888,-1.721 5.329,0c0.888,3.463 0,20.781 0,20.781c0,0 17.318,-0.888 20.781,0c1.721,0.441 1.721,4.887 0,5.329c-3.463,0.888 -20.781,0 -20.781,0c0,0 0.888,17.317 0,20.781c-0.441,1.72 -4.887,1.72 -5.329,0c-0.888,-3.464 0,-20.781 0,-20.781c0,0 -17.317,0.888 -20.781,0c-1.72,-0.442 -1.72,-4.888 0,-5.329Z" style="fill:#8a8c8e;stroke:#dcddde;stroke-width:4.17px;"/><path d="M4224.41,576.018c3.464,-0.888 20.782,0 20.782,0c0,0 -0.888,-17.317 0,-20.781c0.441,-1.721 4.887,-1.721 5.328,0c0.888,3.464 0,20.781 0,20.781c0,0 17.318,-0.888 20.782,0c1.72,0.442 1.72,4.888 0,5.329c-3.464,0.888 -20.782,0 -20.782,0c0,0 0.888,17.318 0,20.781c-0.441,1.721 -4.887,1.721 -5.328,0c-0.888,-3.463 0,-20.781 0,-20.781c0,0 -17.318,0.888 -20.782,0c-1.72,-0.441 -1.72,-4.887 0,-5.329Z" style="fill:#8a8c8e;stroke:#dcddde;stroke-width:4.17px;"/><path d="M4366.51,576.7c3.464,-0.888 20.781,0 20.781,0c0,0 -0.888,-17.317 0,-20.781c0.442,-1.72 4.888,-1.72 5.329,0c0.888,3.464 0,20.781 0,20.781c0,0 17.318,-0.888 20.781,0c1.721,0.442 1.721,4.888 0,5.329c-3.463,0.888 -20.781,0 -20.781,0c0,0 0.888,17.318 0,20.781c-0.441,1.721 -4.887,1.721 -5.329,0c-0.888,-3.463 0,-20.781 0,-20.781c0,0 -17.317,0.888 -20.781,0c-1.721,-0.441 -1.721,-4.887 0,-5.329Z" style="fill:#8a8c8e;stroke:#dcddde;stroke-width:4.17px;"/><path d="M4366.97,719.25c3.463,-0.888 20.781,0 20.781,0c0,0 -0.888,-17.318 0,-20.781c0.441,-1.721 4.887,-1.721 5.329,0c0.888,3.463 0,20.781 0,20.781c0,0 17.317,-0.888 20.781,0c1.721,0.441 1.721,4.887 0,5.328c-3.464,0.889 -20.781,0 -20.781,0c0,0 0.888,17.318 0,20.782c-0.442,1.72 -4.888,1.72 -5.329,0c-0.888,-3.464 0,-20.782 0,-20.782c0,0 -17.318,0.889 -20.781,0c-1.721,-0.441 -1.721,-4.887 0,-5.328Z" style="fill:#8a8c8e;stroke:#dcddde;stroke-width:4.17px;"/><path d="M4224.64,719.023c3.463,-0.889 20.781,0 20.781,0c0,0 -0.888,-17.318 0,-20.782c0.441,-1.72 4.887,-1.72 5.328,0c0.889,3.464 0,20.782 0,20.782c0,0 17.318,-0.889 20.782,0c1.72,0.441 1.72,4.887 0,5.328c-3.464,0.888 -20.782,0 -20.782,0c0,0 0.889,17.318 0,20.781c-0.441,1.721 -4.887,1.721 -5.328,0c-0.888,-3.463 0,-20.781 0,-20.781c0,0 -17.318,0.888 -20.781,0c-1.721,-0.441 -1.721,-4.887 0,-5.328Z" style="fill:#8a8c8e;stroke:#dcddde;stroke-width:4.17px;"/><path d="M4081.41,719.023c3.464,-0.889 20.781,0 20.781,0c0,0 -0.888,-17.318 0,-20.782c0.442,-1.72 4.888,-1.72 5.329,0c0.888,3.464 0,20.782 0,20.782c0,0 17.318,-0.889 20.781,0c1.721,0.441 1.721,4.887 0,5.328c-3.463,0.888 -20.781,0 -20.781,0c0,0 0.888,17.318 0,20.781c-0.441,1.721 -4.887,1.721 -5.329,0c-0.888,-3.463 0,-20.781 0,-20.781c0,0 -17.317,0.888 -20.781,0c-1.72,-0.441 -1.72,-4.887 0,-5.328Z" style="fill:#8a8c8e;stroke:#dcddde;stroke-width:4.17px;"/><path d="M3938.41,719.023c3.463,-0.889 20.781,0 20.781,0c0,0 -0.888,-17.318 0,-20.782c0.441,-1.72 4.888,-1.72 5.329,0c0.888,3.464 0,20.782 0,20.782c0,0 17.318,-0.889 20.781,0c1.721,0.441 1.721,4.887 0,5.328c-3.463,0.888 -20.781,0 -20.781,0c0,0 0.888,17.318 0,20.781c-0.441,1.721 -4.888,1.721 -5.329,0c-0.888,-3.463 0,-20.781 0,-20.781c0,0 -17.318,0.888 -20.781,0c-1.721,-0.441 -1.721,-4.887 0,-5.328Z" style="fill:#8a8c8e;stroke:#dcddde;stroke-width:4.17px;"/><path d="M3938.85,862.893c3.464,-0.888 20.781,0 20.781,0c0,0 -0.888,-17.317 0,-20.781c0.441,-1.72 4.888,-1.72 5.329,0c0.888,3.464 0,20.781 0,20.781c0,0 17.318,-0.888 20.781,0c1.721,0.442 1.721,4.888 0,5.329c-3.463,0.888 -20.781,0 -20.781,0c0,0 0.888,17.318 0,20.781c-0.441,1.721 -4.888,1.721 -5.329,0c-0.888,-3.463 0,-20.781 0,-20.781c0,0 -17.317,0.888 -20.781,0c-1.721,-0.441 -1.721,-4.887 0,-5.329Z" style="fill:#8a8c8e;stroke:#dcddde;stroke-width:4.17px;"/><path d="M4081.39,861.117c3.463,-0.888 20.781,0 20.781,0c0,0 -0.888,-17.318 0,-20.781c0.441,-1.721 4.887,-1.721 5.329,0c0.888,3.463 0,20.781 0,20.781c0,0 17.317,-0.888 20.781,0c1.721,0.441 1.721,4.888 0,5.329c-3.464,0.888 -20.781,0 -20.781,0c0,0 0.888,17.318 0,20.781c-0.442,1.721 -4.888,1.721 -5.329,0c-0.888,-3.463 0,-20.781 0,-20.781c0,0 -17.318,0.888 -20.781,0c-1.721,-0.441 -1.721,-4.888 0,-5.329Z" style="fill:#8a8c8e;stroke:#dcddde;stroke-width:4.17px;"/><path d="M4223.93,861.561c3.463,-0.888 20.781,0 20.781,0c0,0 -0.888,-17.317 0,-20.781c0.441,-1.721 4.887,-1.721 5.328,0c0.889,3.464 0,20.781 0,20.781c0,0 17.318,-0.888 20.782,0c1.72,0.441 1.72,4.888 0,5.329c-3.464,0.888 -20.782,0 -20.782,0c0,0 0.889,17.318 0,20.781c-0.441,1.721 -4.887,1.721 -5.328,0c-0.888,-3.463 0,-20.781 0,-20.781c0,0 -17.318,0.888 -20.781,0c-1.721,-0.441 -1.721,-4.888 0,-5.329Z" style="fill:#8a8c8e;stroke:#dcddde;stroke-width:4.17px;"/><path d="M4366.47,861.117c3.464,-0.888 20.782,0 20.782,0c0,0 -0.888,-17.318 0,-20.781c0.441,-1.721 4.887,-1.721 5.328,0c0.888,3.463 0,20.781 0,20.781c0,0 17.318,-0.888 20.782,0c1.72,0.441 1.72,4.888 0,5.329c-3.464,0.888 -20.782,0 -20.782,0c0,0 0.888,17.318 0,20.781c-0.441,1.721 -4.887,1.721 -5.328,0c-0.888,-3.463 0,-20.781 0,-20.781c0,0 -17.318,0.888 -20.782,0c-1.72,-0.441 -1.72,-4.888 0,-5.329Z" style="fill:#8a8c8e;stroke:#dcddde;stroke-width:4.17px;"/><path d="M4366.47,1003.66c3.464,-0.888 20.782,0 20.782,0c0,0 -0.888,-17.318 0,-20.781c0.441,-1.721 4.887,-1.721 5.328,0c0.888,3.463 0,20.781 0,20.781c0,0 17.318,-0.888 20.782,0c1.72,0.441 1.72,4.887 0,5.329c-3.464,0.888 -20.782,0 -20.782,0c0,0 0.888,17.317 0,20.781c-0.441,1.721 -4.887,1.721 -5.328,0c-0.888,-3.464 0,-20.781 0,-20.781c0,0 -17.318,0.888 -20.782,0c-1.72,-0.442 -1.72,-4.888 0,-5.329Z" style="fill:#8a8c8e;stroke:#dcddde;stroke-width:4.17px;"/><path d="M4223.93,1004.1c3.463,-0.888 20.781,0 20.781,0c0,0 -0.888,-17.318 0,-20.781c0.441,-1.721 4.887,-1.721 5.328,0c0.889,3.463 0,20.781 0,20.781c0,0 17.318,-0.888 20.782,0c1.72,0.441 1.72,4.888 0,5.329c-3.464,0.888 -20.782,0 -20.782,0c0,0 0.889,17.318 0,20.781c-0.441,1.721 -4.887,1.721 -5.328,0c-0.888,-3.463 0,-20.781 0,-20.781c0,0 -17.318,0.888 -20.781,0c-1.721,-0.441 -1.721,-4.888 0,-5.329Z" style="fill:#8a8c8e;stroke:#dcddde;stroke-width:4.17px;"/><path d="M4081.39,1004.99c3.463,-0.888 20.781,0 20.781,0c0,0 -0.888,-17.318 0,-20.781c0.441,-1.721 4.887,-1.721 5.329,0c0.888,3.463 0,20.781 0,20.781c0,0 17.317,-0.888 20.781,0c1.721,0.441 1.721,4.888 0,5.329c-3.464,0.888 -20.781,0 -20.781,0c0,0 0.888,17.318 0,20.781c-0.442,1.721 -4.888,1.721 -5.329,0c-0.888,-3.463 0,-20.781 0,-20.781c0,0 -17.318,0.888 -20.781,0c-1.721,-0.441 -1.721,-4.888 0,-5.329Z" style="fill:#8a8c8e;stroke:#dcddde;stroke-width:4.17px;"/><path d="M3938.85,1004.1c3.464,-0.888 20.781,0 20.781,0c0,0 -0.888,-17.318 0,-20.781c0.441,-1.721 4.888,-1.721 5.329,0c0.888,3.463 0,20.781 0,20.781c0,0 17.318,-0.888 20.781,0c1.721,0.441 1.721,4.888 0,5.329c-3.463,0.888 -20.781,0 -20.781,0c0,0 0.888,17.318 0,20.781c-0.441,1.721 -4.888,1.721 -5.329,0c-0.888,-3.463 0,-20.781 0,-20.781c0,0 -17.317,0.888 -20.781,0c-1.721,-0.441 -1.721,-4.888 0,-5.329Z" style="fill:#8a8c8e;stroke:#dcddde;stroke-width:4.17px;"/></g><g><g><path d="M4699.37,1751.95c-19.658,0 -35.617,15.959 -35.617,35.617c0,19.658 15.959,35.618 35.617,35.618c19.658,0 35.618,-15.96 35.618,-35.618c0,-19.658 -15.96,-35.617 -35.618,-35.617Zm0,4.166c17.358,0 31.451,14.093 31.451,31.451c0,17.358 -14.093,31.451 -31.451,31.451c-17.358,0 -31.451,-14.093 -31.451,-31.451c0,-17.358 14.093,-31.451 31.451,-31.451Z" style="fill:#17687d;fill-opacity:0.5;"/><path d="M4801.67,1751.95c-19.658,0 -35.617,15.959 -35.617,35.617c0,19.658 15.959,35.618 35.617,35.618c19.658,0 35.618,-15.96 35.618,-35.618c0,-19.658 -15.96,-35.617 -35.618,-35.617Zm0,4.166c17.358,0 31.451,14.093 31.451,31.451c0,17.358 -14.093,31.451 -31.451,31.451c-17.358,0 -31.451,-14.093 -31.451,-31.451c0,-17.358 14.093,-31.451 31.451,-31.451Z" style="fill:#17687d;fill-opacity:0.5;"/><path d="M4903.96,1751.95c-19.658,0 -35.617,15.959 -35.617,35.617c0,19.658 15.959,35.618 35.617,35.618c19.658,0 35.618,-15.96 35.618,-35.618c0,-19.658 -15.96,-35.617 -35.618,-35.617Zm0,4.166c17.359,0 31.451,14.093 31.451,31.451c0,17.358 -14.092,31.451 -31.451,31.451c-17.358,0 -31.451,-14.093 -31.451,-31.451c0,-17.358 14.093,-31.451 31.451,-31.451Z" style="fill:#17687d;fill-opacity:0.5;"/><path d="M5006.26,1751.95c-19.658,0 -35.617,15.959 -35.617,35.617c0,19.658 15.959,35.618 35.617,35.618c19.658,0 35.618,-15.96 35.618,-35.618c0,-19.658 -15.96,-35.617 -35.618,-35.617Zm0,4.166c17.359,0 31.451,14.093 31.451,31.451c0,17.358 -14.092,31.451 -31.451,31.451c-17.358,0 -31.451,-14.093 -31.451,-31.451c0,-17.358 14.093,-31.451 31.451,-31.451Z" style="fill:#17687d;fill-opacity:0.5;"/><path d="M5108.55,1751.95c-19.657,0 -35.617,15.959 -35.617,35.617c0,19.658 15.96,35.618 35.617,35.618c19.658,0 35.618,-15.96 35.618,-35.618c0,-19.658 -15.96,-35.617 -35.618,-35.617Zm0,4.166c17.359,0 31.451,14.093 31.451,31.451c0,17.358 -14.092,31.451 -31.451,31.451c-17.358,0 -31.45,-14.093 -31.45,-31.451c0,-17.358 14.092,-31.451 31.45,-31.451Z" style="fill:#17687d;fill-opacity:0.5;"/></g><g><path d="M4699.37,1842.56c-19.658,0 -35.617,15.959 -35.617,35.617c0,19.658 15.959,35.618 35.617,35.618c19.658,0 35.618,-15.96 35.618,-35.618c0,-19.658 -15.96,-35.617 -35.618,-35.617Zm0,4.166c17.358,0 31.451,14.093 31.451,31.451c0,17.359 -14.093,31.451 -31.451,31.451c-17.358,0 -31.451,-14.092 -31.451,-31.451c0,-17.358 14.093,-31.451 31.451,-31.451Z" style="fill:#17687d;fill-opacity:0.5;"/><path d="M4801.67,1842.56c-19.658,0 -35.617,15.959 -35.617,35.617c0,19.658 15.959,35.618 35.617,35.618c19.658,0 35.618,-15.96 35.618,-35.618c0,-19.658 -15.96,-35.617 -35.618,-35.617Zm0,4.166c17.358,0 31.451,14.093 31.451,31.451c0,17.359 -14.093,31.451 -31.451,31.451c-17.358,0 -31.451,-14.092 -31.451,-31.451c0,-17.358 14.093,-31.451 31.451,-31.451Z" style="fill:#17687d;fill-opacity:0.5;"/><path d="M4903.96,1842.56c-19.658,0 -35.617,15.959 -35.617,35.617c0,19.658 15.959,35.618 35.617,35.618c19.658,0 35.618,-15.96 35.618,-35.618c0,-19.658 -15.96,-35.617 -35.618,-35.617Zm0,4.166c17.359,0 31.451,14.093 31.451,31.451c0,17.359 -14.092,31.451 -31.451,31.451c-17.358,0 -31.451,-14.092 -31.451,-31.451c0,-17.358 14.093,-31.451 31.451,-31.451Z" style="fill:#17687d;fill-opacity:0.5;"/><path d="M5006.26,1842.56c-19.658,0 -35.617,15.959 -35.617,35.617c0,19.658 15.959,35.618 35.617,35.618c19.658,0 35.618,-15.96 35.618,-35.618c0,-19.658 -15.96,-35.617 -35.618,-35.617Zm0,4.166c17.359,0 31.451,14.093 31.451,31.451c0,17.359 -14.092,31.451 -31.451,31.451c-17.358,0 -31.451,-14.092 -31.451,-31.451c0,-17.358 14.093,-31.451 31.451,-31.451Z" style="fill:#17687d;fill-opacity:0.5;"/><path d="M5108.55,1842.56c-19.657,0 -35.617,15.959 -35.617,35.617c0,19.658 15.96,35.618 35.617,35.618c19.658,0 35.618,-15.96 35.618,-35.618c0,-19.658 -15.96,-35.617 -35.618,-35.617Zm0,4.166c17.359,0 31.451,14.093 31.451,31.451c0,17.359 -14.092,31.451 -31.451,31.451c-17.358,0 -31.45,-14.092 -31.45,-31.451c0,-17.358 14.092,-31.451 31.45,-31.451Z" style="fill:#17687d;fill-opacity:0.5;"/></g><g><path d="M4699.37,1933.17c-19.658,0 -35.617,15.96 -35.617,35.617c0,19.658 15.959,35.618 35.617,35.618c19.658,0 35.618,-15.96 35.618,-35.618c0,-19.657 -15.96,-35.617 -35.618,-35.617Zm0,4.166c17.358,0 31.451,14.093 31.451,31.451c0,17.359 -14.093,31.451 -31.451,31.451c-17.358,0 -31.451,-14.092 -31.451,-31.451c0,-17.358 14.093,-31.451 31.451,-31.451Z" style="fill:#17687d;fill-opacity:0.5;"/><path d="M4801.67,1933.17c-19.658,0 -35.617,15.96 -35.617,35.617c0,19.658 15.959,35.618 35.617,35.618c19.658,0 35.618,-15.96 35.618,-35.618c0,-19.657 -15.96,-35.617 -35.618,-35.617Zm0,4.166c17.358,0 31.451,14.093 31.451,31.451c0,17.359 -14.093,31.451 -31.451,31.451c-17.358,0 -31.451,-14.092 -31.451,-31.451c0,-17.358 14.093,-31.451 31.451,-31.451Z" style="fill:#17687d;fill-opacity:0.5;"/><path d="M4903.96,1933.17c-19.658,0 -35.617,15.96 -35.617,35.617c0,19.658 15.959,35.618 35.617,35.618c19.658,0 35.618,-15.96 35.618,-35.618c0,-19.657 -15.96,-35.617 -35.618,-35.617Zm0,4.166c17.359,0 31.451,14.093 31.451,31.451c0,17.359 -14.092,31.451 -31.451,31.451c-17.358,0 -31.451,-14.092 -31.451,-31.451c0,-17.358 14.093,-31.451 31.451,-31.451Z" style="fill:#17687d;fill-opacity:0.5;"/><path d="M5006.26,1933.17c-19.658,0 -35.617,15.96 -35.617,35.617c0,19.658 15.959,35.618 35.617,35.618c19.658,0 35.618,-15.96 35.618,-35.618c0,-19.657 -15.96,-35.617 -35.618,-35.617Zm0,4.166c17.359,0 31.451,14.093 31.451,31.451c0,17.359 -14.092,31.451 -31.451,31.451c-17.358,0 -31.451,-14.092 -31.451,-31.451c0,-17.358 14.093,-31.451 31.451,-31.451Z" style="fill:#17687d;fill-opacity:0.5;"/><path d="M5108.55,1933.17c-19.657,0 -35.617,15.96 -35.617,35.617c0,19.658 15.96,35.618 35.617,35.618c19.658,0 35.618,-15.96 35.618,-35.618c0,-19.657 -15.96,-35.617 -35.618,-35.617Zm0,4.166c17.359,0 31.451,14.093 31.451,31.451c0,17.359 -14.092,31.451 -31.451,31.451c-17.358,0 -31.45,-14.092 -31.45,-31.451c0,-17.358 14.092,-31.451 31.45,-31.451Z" style="fill:#17687d;fill-opacity:0.5;"/></g><g><path d="M4699.37,2023.78c-19.658,0 -35.617,15.96 -35.617,35.618c0,19.657 15.959,35.617 35.617,35.617c19.658,0 35.618,-15.96 35.618,-35.617c0,-19.658 -15.96,-35.618 -35.618,-35.618Zm0,4.167c17.358,0 31.451,14.092 31.451,31.451c0,17.358 -14.093,31.451 -31.451,31.451c-17.358,0 -31.451,-14.093 -31.451,-31.451c0,-17.359 14.093,-31.451 31.451,-31.451Z" style="fill:#17687d;fill-opacity:0.5;"/><path d="M4801.67,2023.78c-19.658,0 -35.617,15.96 -35.617,35.618c0,19.657 15.959,35.617 35.617,35.617c19.658,0 35.618,-15.96 35.618,-35.617c0,-19.658 -15.96,-35.618 -35.618,-35.618Zm0,4.167c17.358,0 31.451,14.092 31.451,31.451c0,17.358 -14.093,31.451 -31.451,31.451c-17.358,0 -31.451,-14.093 -31.451,-31.451c0,-17.359 14.093,-31.451 31.451,-31.451Z" style="fill:#17687d;fill-opacity:0.5;"/><path d="M4903.96,2023.78c-19.658,0 -35.617,15.96 -35.617,35.618c0,19.657 15.959,35.617 35.617,35.617c19.658,0 35.618,-15.96 35.618,-35.617c0,-19.658 -15.96,-35.618 -35.618,-35.618Zm0,4.167c17.359,0 31.451,14.092 31.451,31.451c0,17.358 -14.092,31.451 -31.451,31.451c-17.358,0 -31.451,-14.093 -31.451,-31.451c0,-17.359 14.093,-31.451 31.451,-31.451Z" style="fill:#17687d;fill-opacity:0.5;"/><path d="M5006.26,2023.78c-19.658,0 -35.617,15.96 -35.617,35.618c0,19.657 15.959,35.617 35.617,35.617c19.658,0 35.618,-15.96 35.618,-35.617c0,-19.658 -15.96,-35.618 -35.618,-35.618Zm0,4.167c17.359,0 31.451,14.092 31.451,31.451c0,17.358 -14.092,31.451 -31.451,31.451c-17.358,0 -31.451,-14.093 -31.451,-31.451c0,-17.359 14.093,-31.451 31.451,-31.451Z" style="fill:#17687d;fill-opacity:0.5;"/><path d="M5108.55,2023.78c-19.657,0 -35.617,15.96 -35.617,35.618c0,19.657 15.96,35.617 35.617,35.617c19.658,0 35.618,-15.96 35.618,-35.617c0,-19.658 -15.96,-35.618 -35.618,-35.618Zm0,4.167c17.359,0 31.451,14.092 31.451,31.451c0,17.358 -14.092,31.451 -31.451,31.451c-17.358,0 -31.45,-14.093 -31.45,-31.451c0,-17.359 14.092,-31.451 31.45,-31.451Z" style="fill:#17687d;fill-opacity:0.5;"/></g><g><path d="M4699.37,2114.38c-19.658,0 -35.617,15.96 -35.617,35.618c0,19.658 15.959,35.617 35.617,35.617c19.658,0 35.618,-15.959 35.618,-35.617c0,-19.658 -15.96,-35.618 -35.618,-35.618Zm0,4.167c17.358,0 31.451,14.093 31.451,31.451c0,17.358 -14.093,31.451 -31.451,31.451c-17.358,0 -31.451,-14.093 -31.451,-31.451c0,-17.358 14.093,-31.451 31.451,-31.451Z" style="fill:#17687d;fill-opacity:0.5;"/><path d="M4801.67,2114.38c-19.658,0 -35.617,15.96 -35.617,35.618c0,19.658 15.959,35.617 35.617,35.617c19.658,0 35.618,-15.959 35.618,-35.617c0,-19.658 -15.96,-35.618 -35.618,-35.618Zm0,4.167c17.358,0 31.451,14.093 31.451,31.451c0,17.358 -14.093,31.451 -31.451,31.451c-17.358,0 -31.451,-14.093 -31.451,-31.451c0,-17.358 14.093,-31.451 31.451,-31.451Z" style="fill:#17687d;fill-opacity:0.5;"/><path d="M4903.96,2114.38c-19.658,0 -35.617,15.96 -35.617,35.618c0,19.658 15.959,35.617 35.617,35.617c19.658,0 35.618,-15.959 35.618,-35.617c0,-19.658 -15.96,-35.618 -35.618,-35.618Zm0,4.167c17.359,0 31.451,14.093 31.451,31.451c0,17.358 -14.092,31.451 -31.451,31.451c-17.358,0 -31.451,-14.093 -31.451,-31.451c0,-17.358 14.093,-31.451 31.451,-31.451Z" style="fill:#17687d;fill-opacity:0.5;"/><path d="M5006.26,2114.38c-19.658,0 -35.617,15.96 -35.617,35.618c0,19.658 15.959,35.617 35.617,35.617c19.658,0 35.618,-15.959 35.618,-35.617c0,-19.658 -15.96,-35.618 -35.618,-35.618Zm0,4.167c17.359,0 31.451,14.093 31.451,31.451c0,17.358 -14.092,31.451 -31.451,31.451c-17.358,0 -31.451,-14.093 -31.451,-31.451c0,-17.358 14.093,-31.451 31.451,-31.451Z" style="fill:#17687d;fill-opacity:0.5;"/><path d="M5108.55,2114.38c-19.657,0 -35.617,15.96 -35.617,35.618c0,19.658 15.96,35.617 35.617,35.617c19.658,0 35.618,-15.959 35.618,-35.617c0,-19.658 -15.96,-35.618 -35.618,-35.618Zm0,4.167c17.359,0 31.451,14.093 31.451,31.451c0,17.358 -14.092,31.451 -31.451,31.451c-17.358,0 -31.45,-14.093 -31.45,-31.451c0,-17.358 14.092,-31.451 31.45,-31.451Z" style="fill:#17687d;fill-opacity:0.5;"/></g><g><path d="M4699.37,2204.99c-19.658,0 -35.617,15.96 -35.617,35.618c0,19.658 15.959,35.618 35.617,35.618c19.658,0 35.618,-15.96 35.618,-35.618c0,-19.658 -15.96,-35.618 -35.618,-35.618Zm0,4.167c17.358,0 31.451,14.093 31.451,31.451c0,17.358 -14.093,31.451 -31.451,31.451c-17.358,0 -31.451,-14.093 -31.451,-31.451c0,-17.358 14.093,-31.451 31.451,-31.451Z" style="fill:#17687d;fill-opacity:0.5;"/><path d="M4801.67,2204.99c-19.658,0 -35.617,15.96 -35.617,35.618c0,19.658 15.959,35.618 35.617,35.618c19.658,0 35.618,-15.96 35.618,-35.618c0,-19.658 -15.96,-35.618 -35.618,-35.618Zm0,4.167c17.358,0 31.451,14.093 31.451,31.451c0,17.358 -14.093,31.451 -31.451,31.451c-17.358,0 -31.451,-14.093 -31.451,-31.451c0,-17.358 14.093,-31.451 31.451,-31.451Z" style="fill:#17687d;fill-opacity:0.5;"/><path d="M4903.96,2204.99c-19.658,0 -35.617,15.96 -35.617,35.618c0,19.658 15.959,35.618 35.617,35.618c19.658,0 35.618,-15.96 35.618,-35.618c0,-19.658 -15.96,-35.618 -35.618,-35.618Zm0,4.167c17.359,0 31.451,14.093 31.451,31.451c0,17.358 -14.092,31.451 -31.451,31.451c-17.358,0 -31.451,-14.093 -31.451,-31.451c0,-17.358 14.093,-31.451 31.451,-31.451Z" style="fill:#17687d;fill-opacity:0.5;"/><path d="M5006.26,2204.99c-19.658,0 -35.617,15.96 -35.617,35.618c0,19.658 15.959,35.618 35.617,35.618c19.658,0 35.618,-15.96 35.618,-35.618c0,-19.658 -15.96,-35.618 -35.618,-35.618Zm0,4.167c17.359,0 31.451,14.093 31.451,31.451c0,17.358 -14.092,31.451 -31.451,31.451c-17.358,0 -31.451,-14.093 -31.451,-31.451c0,-17.358 14.093,-31.451 31.451,-31.451Z" style="fill:#17687d;fill-opacity:0.5;"/><path d="M5108.55,2204.99c-19.657,0 -35.617,15.96 -35.617,35.618c0,19.658 15.96,35.618 35.617,35.618c19.658,0 35.618,-15.96 35.618,-35.618c0,-19.658 -15.96,-35.618 -35.618,-35.618Zm0,4.167c17.359,0 31.451,14.093 31.451,31.451c0,17.358 -14.092,31.451 -31.451,31.451c-17.358,0 -31.45,-14.093 -31.45,-31.451c0,-17.358 14.092,-31.451 31.45,-31.451Z" style="fill:#17687d;fill-opacity:0.5;"/></g><g><path d="M4699.37,2295.6c-19.658,0 -35.617,15.96 -35.617,35.618c0,19.658 15.959,35.618 35.617,35.618c19.658,0 35.618,-15.96 35.618,-35.618c0,-19.658 -15.96,-35.618 -35.618,-35.618Zm0,4.167c17.358,0 31.451,14.093 31.451,31.451c0,17.358 -14.093,31.451 -31.451,31.451c-17.358,0 -31.451,-14.093 -31.451,-31.451c0,-17.358 14.093,-31.451 31.451,-31.451Z" style="fill:#17687d;fill-opacity:0.5;"/><path d="M4801.67,2295.6c-19.658,0 -35.617,15.96 -35.617,35.618c0,19.658 15.959,35.618 35.617,35.618c19.658,0 35.618,-15.96 35.618,-35.618c0,-19.658 -15.96,-35.618 -35.618,-35.618Zm0,4.167c17.358,0 31.451,14.093 31.451,31.451c0,17.358 -14.093,31.451 -31.451,31.451c-17.358,0 -31.451,-14.093 -31.451,-31.451c0,-17.358 14.093,-31.451 31.451,-31.451Z" style="fill:#17687d;fill-opacity:0.5;"/><path d="M4903.96,2295.6c-19.658,0 -35.617,15.96 -35.617,35.618c0,19.658 15.959,35.618 35.617,35.618c19.658,0 35.618,-15.96 35.618,-35.618c0,-19.658 -15.96,-35.618 -35.618,-35.618Zm0,4.167c17.359,0 31.451,14.093 31.451,31.451c0,17.358 -14.092,31.451 -31.451,31.451c-17.358,0 -31.451,-14.093 -31.451,-31.451c0,-17.358 14.093,-31.451 31.451,-31.451Z" style="fill:#17687d;fill-opacity:0.5;"/><path d="M5006.26,2295.6c-19.658,0 -35.617,15.96 -35.617,35.618c0,19.658 15.959,35.618 35.617,35.618c19.658,0 35.618,-15.96 35.618,-35.618c0,-19.658 -15.96,-35.618 -35.618,-35.618Zm0,4.167c17.359,0 31.451,14.093 31.451,31.451c0,17.358 -14.092,31.451 -31.451,31.451c-17.358,0 -31.451,-14.093 -31.451,-31.451c0,-17.358 14.093,-31.451 31.451,-31.451Z" style="fill:#17687d;fill-opacity:0.5;"/><path d="M5108.55,2295.6c-19.657,0 -35.617,15.96 -35.617,35.618c0,19.658 15.96,35.618 35.617,35.618c19.658,0 35.618,-15.96 35.618,-35.618c0,-19.658 -15.96,-35.618 -35.618,-35.618Zm0,4.167c17.359,0 31.451,14.093 31.451,31.451c0,17.358 -14.092,31.451 -31.451,31.451c-17.358,0 -31.45,-14.093 -31.45,-31.451c0,-17.358 14.092,-31.451 31.45,-31.451Z" style="fill:#17687d;fill-opacity:0.5;"/></g><g><path d="M4699.37,2386.21c-19.658,0 -35.617,15.959 -35.617,35.617c0,19.658 15.959,35.618 35.617,35.618c19.658,0 35.618,-15.96 35.618,-35.618c0,-19.658 -15.96,-35.617 -35.618,-35.617Zm0,4.166c17.358,0 31.451,14.093 31.451,31.451c0,17.358 -14.093,31.451 -31.451,31.451c-17.358,0 -31.451,-14.093 -31.451,-31.451c0,-17.358 14.093,-31.451 31.451,-31.451Z" style="fill:#17687d;fill-opacity:0.5;"/><path d="M4801.67,2386.21c-19.658,0 -35.617,15.959 -35.617,35.617c0,19.658 15.959,35.618 35.617,35.618c19.658,0 35.618,-15.96 35.618,-35.618c0,-19.658 -15.96,-35.617 -35.618,-35.617Zm0,4.166c17.358,0 31.451,14.093 31.451,31.451c0,17.358 -14.093,31.451 -31.451,31.451c-17.358,0 -31.451,-14.093 -31.451,-31.451c0,-17.358 14.093,-31.451 31.451,-31.451Z" style="fill:#17687d;fill-opacity:0.5;"/><path d="M4903.96,2386.21c-19.658,0 -35.617,15.959 -35.617,35.617c0,19.658 15.959,35.618 35.617,35.618c19.658,0 35.618,-15.96 35.618,-35.618c0,-19.658 -15.96,-35.617 -35.618,-35.617Zm0,4.166c17.359,0 31.451,14.093 31.451,31.451c0,17.358 -14.092,31.451 -31.451,31.451c-17.358,0 -31.451,-14.093 -31.451,-31.451c0,-17.358 14.093,-31.451 31.451,-31.451Z" style="fill:#17687d;fill-opacity:0.5;"/><path d="M5006.26,2386.21c-19.658,0 -35.617,15.959 -35.617,35.617c0,19.658 15.959,35.618 35.617,35.618c19.658,0 35.618,-15.96 35.618,-35.618c0,-19.658 -15.96,-35.617 -35.618,-35.617Zm0,4.166c17.359,0 31.451,14.093 31.451,31.451c0,17.358 -14.092,31.451 -31.451,31.451c-17.358,0 -31.451,-14.093 -31.451,-31.451c0,-17.358 14.093,-31.451 31.451,-31.451Z" style="fill:#17687d;fill-opacity:0.5;"/><path d="M5108.55,2386.21c-19.657,0 -35.617,15.959 -35.617,35.617c0,19.658 15.96,35.618 35.617,35.618c19.658,0 35.618,-15.96 35.618,-35.618c0,-19.658 -15.96,-35.617 -35.618,-35.617Zm0,4.166c17.359,0 31.451,14.093 31.451,31.451c0,17.358 -14.092,31.451 -31.451,31.451c-17.358,0 -31.45,-14.093 -31.45,-31.451c0,-17.358 14.092,-31.451 31.45,-31.451Z" style="fill:#17687d;fill-opacity:0.5;"/></g><g><path d="M4699.37,2476.82c-19.658,0 -35.617,15.96 -35.617,35.617c0,19.658 15.959,35.618 35.617,35.618c19.658,0 35.618,-15.96 35.618,-35.618c0,-19.657 -15.96,-35.617 -35.618,-35.617Zm0,4.166c17.358,0 31.451,14.093 31.451,31.451c0,17.359 -14.093,31.451 -31.451,31.451c-17.358,0 -31.451,-14.092 -31.451,-31.451c0,-17.358 14.093,-31.451 31.451,-31.451Z" style="fill:#17687d;fill-opacity:0.5;"/><path d="M4801.67,2476.82c-19.658,0 -35.617,15.96 -35.617,35.617c0,19.658 15.959,35.618 35.617,35.618c19.658,0 35.618,-15.96 35.618,-35.618c0,-19.657 -15.96,-35.617 -35.618,-35.617Zm0,4.166c17.358,0 31.451,14.093 31.451,31.451c0,17.359 -14.093,31.451 -31.451,31.451c-17.358,0 -31.451,-14.092 -31.451,-31.451c0,-17.358 14.093,-31.451 31.451,-31.451Z" style="fill:#17687d;fill-opacity:0.5;"/><path d="M4903.96,2476.82c-19.658,0 -35.617,15.96 -35.617,35.617c0,19.658 15.959,35.618 35.617,35.618c19.658,0 35.618,-15.96 35.618,-35.618c0,-19.657 -15.96,-35.617 -35.618,-35.617Zm0,4.166c17.359,0 31.451,14.093 31.451,31.451c0,17.359 -14.092,31.451 -31.451,31.451c-17.358,0 -31.451,-14.092 -31.451,-31.451c0,-17.358 14.093,-31.451 31.451,-31.451Z" style="fill:#17687d;fill-opacity:0.5;"/><path d="M5006.26,2476.82c-19.658,0 -35.617,15.96 -35.617,35.617c0,19.658 15.959,35.618 35.617,35.618c19.658,0 35.618,-15.96 35.618,-35.618c0,-19.657 -15.96,-35.617 -35.618,-35.617Zm0,4.166c17.359,0 31.451,14.093 31.451,31.451c0,17.359 -14.092,31.451 -31.451,31.451c-17.358,0 -31.451,-14.092 -31.451,-31.451c0,-17.358 14.093,-31.451 31.451,-31.451Z" style="fill:#17687d;fill-opacity:0.5;"/><path d="M5108.55,2476.82c-19.657,0 -35.617,15.96 -35.617,35.617c0,19.658 15.96,35.618 35.617,35.618c19.658,0 35.618,-15.96 35.618,-35.618c0,-19.657 -15.96,-35.617 -35.618,-35.617Zm0,4.166c17.359,0 31.451,14.093 31.451,31.451c0,17.359 -14.092,31.451 -31.451,31.451c-17.358,0 -31.45,-14.092 -31.45,-31.451c0,-17.358 14.092,-31.451 31.45,-31.451Z" style="fill:#17687d;fill-opacity:0.5;"/></g><g><path d="M4699.37,2567.42c-19.658,0 -35.617,15.96 -35.617,35.618c0,19.657 15.959,35.617 35.617,35.617c19.658,0 35.618,-15.96 35.618,-35.617c0,-19.658 -15.96,-35.618 -35.618,-35.618Zm0,4.167c17.358,0 31.451,14.092 31.451,31.451c0,17.358 -14.093,31.451 -31.451,31.451c-17.358,0 -31.451,-14.093 -31.451,-31.451c0,-17.359 14.093,-31.451 31.451,-31.451Z" style="fill:#17687d;fill-opacity:0.5;"/><path d="M4801.67,2567.42c-19.658,0 -35.617,15.96 -35.617,35.618c0,19.657 15.959,35.617 35.617,35.617c19.658,0 35.618,-15.96 35.618,-35.617c0,-19.658 -15.96,-35.618 -35.618,-35.618Zm0,4.167c17.358,0 31.451,14.092 31.451,31.451c0,17.358 -14.093,31.451 -31.451,31.451c-17.358,0 -31.451,-14.093 -31.451,-31.451c0,-17.359 14.093,-31.451 31.451,-31.451Z" style="fill:#17687d;fill-opacity:0.5;"/><path d="M4903.96,2567.42c-19.658,0 -35.617,15.96 -35.617,35.618c0,19.657 15.959,35.617 35.617,35.617c19.658,0 35.618,-15.96 35.618,-35.617c0,-19.658 -15.96,-35.618 -35.618,-35.618Zm0,4.167c17.359,0 31.451,14.092 31.451,31.451c0,17.358 -14.092,31.451 -31.451,31.451c-17.358,0 -31.451,-14.093 -31.451,-31.451c0,-17.359 14.093,-31.451 31.451,-31.451Z" style="fill:#17687d;fill-opacity:0.5;"/><path d="M5006.26,2567.42c-19.658,0 -35.617,15.96 -35.617,35.618c0,19.657 15.959,35.617 35.617,35.617c19.658,0 35.618,-15.96 35.618,-35.617c0,-19.658 -15.96,-35.618 -35.618,-35.618Zm0,4.167c17.359,0 31.451,14.092 31.451,31.451c0,17.358 -14.092,31.451 -31.451,31.451c-17.358,0 -31.451,-14.093 -31.451,-31.451c0,-17.359 14.093,-31.451 31.451,-31.451Z" style="fill:#17687d;fill-opacity:0.5;"/><path d="M5108.55,2567.42c-19.657,0 -35.617,15.96 -35.617,35.618c0,19.657 15.96,35.617 35.617,35.617c19.658,0 35.618,-15.96 35.618,-35.617c0,-19.658 -15.96,-35.618 -35.618,-35.618Zm0,4.167c17.359,0 31.451,14.092 31.451,31.451c0,17.358 -14.092,31.451 -31.451,31.451c-17.358,0 -31.45,-14.093 -31.45,-31.451c0,-17.359 14.092,-31.451 31.45,-31.451Z" style="fill:#17687d;fill-opacity:0.5;"/></g><g><path d="M4699.37,2658.03c-19.658,0 -35.617,15.96 -35.617,35.618c0,19.658 15.959,35.617 35.617,35.617c19.658,0 35.618,-15.959 35.618,-35.617c0,-19.658 -15.96,-35.618 -35.618,-35.618Zm0,4.167c17.358,0 31.451,14.092 31.451,31.451c0,17.358 -14.093,31.451 -31.451,31.451c-17.358,0 -31.451,-14.093 -31.451,-31.451c0,-17.359 14.093,-31.451 31.451,-31.451Z" style="fill:#17687d;fill-opacity:0.5;"/><path d="M4801.67,2658.03c-19.658,0 -35.617,15.96 -35.617,35.618c0,19.658 15.959,35.617 35.617,35.617c19.658,0 35.618,-15.959 35.618,-35.617c0,-19.658 -15.96,-35.618 -35.618,-35.618Zm0,4.167c17.358,0 31.451,14.092 31.451,31.451c0,17.358 -14.093,31.451 -31.451,31.451c-17.358,0 -31.451,-14.093 -31.451,-31.451c0,-17.359 14.093,-31.451 31.451,-31.451Z" style="fill:#17687d;fill-opacity:0.5;"/><path d="M4903.96,2658.03c-19.658,0 -35.617,15.96 -35.617,35.618c0,19.658 15.959,35.617 35.617,35.617c19.658,0 35.618,-15.959 35.618,-35.617c0,-19.658 -15.96,-35.618 -35.618,-35.618Zm0,4.167c17.359,0 31.451,14.092 31.451,31.451c0,17.358 -14.092,31.451 -31.451,31.451c-17.358,0 -31.451,-14.093 -31.451,-31.451c0,-17.359 14.093,-31.451 31.451,-31.451Z" style="fill:#17687d;fill-opacity:0.5;"/><path d="M5006.26,2658.03c-19.658,0 -35.617,15.96 -35.617,35.618c0,19.658 15.959,35.617 35.617,35.617c19.658,0 35.618,-15.959 35.618,-35.617c0,-19.658 -15.96,-35.618 -35.618,-35.618Zm0,4.167c17.359,0 31.451,14.092 31.451,31.451c0,17.358 -14.092,31.451 -31.451,31.451c-17.358,0 -31.451,-14.093 -31.451,-31.451c0,-17.359 14.093,-31.451 31.451,-31.451Z" style="fill:#17687d;fill-opacity:0.5;"/><path d="M5108.55,2658.03c-19.657,0 -35.617,15.96 -35.617,35.618c0,19.658 15.96,35.617 35.617,35.617c19.658,0 35.618,-15.959 35.618,-35.617c0,-19.658 -15.96,-35.618 -35.618,-35.618Zm0,4.167c17.359,0 31.451,14.092 31.451,31.451c0,17.358 -14.092,31.451 -31.451,31.451c-17.358,0 -31.45,-14.093 -31.45,-31.451c0,-17.359 14.092,-31.451 31.45,-31.451Z" style="fill:#17687d;fill-opacity:0.5;"/></g><g><path d="M4699.37,2748.64c-19.658,0 -35.617,15.96 -35.617,35.618c0,19.658 15.959,35.618 35.617,35.618c19.658,0 35.618,-15.96 35.618,-35.618c0,-19.658 -15.96,-35.618 -35.618,-35.618Zm0,4.167c17.358,0 31.451,14.093 31.451,31.451c0,17.358 -14.093,31.451 -31.451,31.451c-17.358,0 -31.451,-14.093 -31.451,-31.451c0,-17.358 14.093,-31.451 31.451,-31.451Z" style="fill:#17687d;fill-opacity:0.5;"/><path d="M4801.67,2748.64c-19.658,0 -35.617,15.96 -35.617,35.618c0,19.658 15.959,35.618 35.617,35.618c19.658,0 35.618,-15.96 35.618,-35.618c0,-19.658 -15.96,-35.618 -35.618,-35.618Zm0,4.167c17.358,0 31.451,14.093 31.451,31.451c0,17.358 -14.093,31.451 -31.451,31.451c-17.358,0 -31.451,-14.093 -31.451,-31.451c0,-17.358 14.093,-31.451 31.451,-31.451Z" style="fill:#17687d;fill-opacity:0.5;"/><path d="M4903.96,2748.64c-19.658,0 -35.617,15.96 -35.617,35.618c0,19.658 15.959,35.618 35.617,35.618c19.658,0 35.618,-15.96 35.618,-35.618c0,-19.658 -15.96,-35.618 -35.618,-35.618Zm0,4.167c17.359,0 31.451,14.093 31.451,31.451c0,17.358 -14.092,31.451 -31.451,31.451c-17.358,0 -31.451,-14.093 -31.451,-31.451c0,-17.358 14.093,-31.451 31.451,-31.451Z" style="fill:#17687d;fill-opacity:0.5;"/><path d="M5006.26,2748.64c-19.658,0 -35.617,15.96 -35.617,35.618c0,19.658 15.959,35.618 35.617,35.618c19.658,0 35.618,-15.96 35.618,-35.618c0,-19.658 -15.96,-35.618 -35.618,-35.618Zm0,4.167c17.359,0 31.451,14.093 31.451,31.451c0,17.358 -14.092,31.451 -31.451,31.451c-17.358,0 -31.451,-14.093 -31.451,-31.451c0,-17.358 14.093,-31.451 31.451,-31.451Z" style="fill:#17687d;fill-opacity:0.5;"/><path d="M5108.55,2748.64c-19.657,0 -35.617,15.96 -35.617,35.618c0,19.658 15.96,35.618 35.617,35.618c19.658,0 35.618,-15.96 35.618,-35.618c0,-19.658 -15.96,-35.618 -35.618,-35.618Zm0,4.167c17.359,0 31.451,14.093 31.451,31.451c0,17.358 -14.092,31.451 -31.451,31.451c-17.358,0 -31.45,-14.093 -31.45,-31.451c0,-17.358 14.092,-31.451 31.45,-31.451Z" style="fill:#17687d;fill-opacity:0.5;"/></g></g></svg>