<?xml version="1.0" encoding="UTF-8" standalone="no"?><!DOCTYPE svg PUBLIC "-//W3C//DTD SVG 1.1//EN" "http://www.w3.org/Graphics/SVG/1.1/DTD/svg11.dtd">
<svg width="100%" height="100%" viewBox="0 0 750 371" version="1.1" xmlns="http://www.w3.org/2000/svg" xmlns:xlink="http://www.w3.org/1999/xlink" xml:space="preserve" xmlns:serif="http://www.serif.com/" style="fill-rule:evenodd;clip-rule:evenodd;stroke-linejoin:round;stroke-miterlimit:2;"><g><path d="M224.676,95.708c-5.304,0 -9.861,-0.807 -13.673,-2.423c-3.812,-1.616 -6.733,-3.481 -8.763,-5.594c-2.03,-2.113 -3.045,-3.915 -3.045,-5.407c0,-0.662 0.186,-1.367 0.559,-2.113c0.373,-0.745 0.85,-1.346 1.43,-1.802c0.58,-0.456 1.16,-0.684 1.74,-0.684c0.829,0 1.678,0.518 2.548,1.554c0.87,1.036 2.03,2.238 3.48,3.605c1.45,1.367 3.377,2.569 5.78,3.604c2.403,1.036 5.552,1.554 9.447,1.554c3.894,0 7.23,-0.642 10.006,-1.927c2.775,-1.284 4.889,-3.19 6.339,-5.717c1.45,-2.528 2.175,-5.697 2.175,-9.509c0,-3.977 -0.746,-7.188 -2.238,-9.633c-1.491,-2.444 -3.459,-4.433 -5.904,-5.966c-2.444,-1.533 -5.116,-2.859 -8.017,-3.978c-2.9,-1.118 -5.821,-2.237 -8.763,-3.356c-2.941,-1.118 -5.634,-2.527 -8.079,-4.226c-2.444,-1.698 -4.433,-3.936 -5.966,-6.712c-1.533,-2.776 -2.3,-6.318 -2.3,-10.627c0,-4.558 0.829,-8.287 2.486,-11.187c1.658,-2.9 3.791,-5.179 6.402,-6.836c2.61,-1.657 5.448,-2.838 8.514,-3.543c3.066,-0.704 6.049,-1.056 8.949,-1.056c2.32,0 4.703,0.186 7.147,0.559c2.445,0.373 4.703,0.891 6.774,1.554c2.072,0.663 3.75,1.45 5.034,2.362c1.285,0.911 1.927,1.947 1.927,3.107c0,0.58 -0.145,1.222 -0.435,1.927c-0.29,0.704 -0.684,1.325 -1.181,1.864c-0.497,0.539 -1.16,0.808 -1.989,0.808c-0.745,0 -1.781,-0.394 -3.107,-1.181c-1.326,-0.787 -3.128,-1.574 -5.407,-2.361c-2.279,-0.788 -5.241,-1.181 -8.887,-1.181c-2.983,0 -5.863,0.435 -8.639,1.305c-2.776,0.87 -5.034,2.341 -6.774,4.412c-1.74,2.072 -2.61,4.972 -2.61,8.701c0,3.315 0.766,5.987 2.299,8.017c1.533,2.03 3.522,3.667 5.967,4.91c2.444,1.243 5.117,2.382 8.017,3.418c2.9,1.036 5.821,2.196 8.763,3.48c2.941,1.285 5.634,2.901 8.079,4.848c2.444,1.947 4.413,4.495 5.904,7.644c1.492,3.149 2.237,7.209 2.237,12.181c0,5.884 -1.118,10.711 -3.356,14.481c-2.237,3.77 -5.324,6.567 -9.26,8.39c-3.936,1.823 -8.473,2.734 -13.61,2.734Z" style="fill:#3F98A6;fill-rule:nonzero;"/><path d="M283.344,94.838c-6.381,0 -11.27,-1.45 -14.667,-4.35c-3.398,-2.9 -5.096,-7.541 -5.096,-13.921l0,-65.505c0,-0.911 0.435,-1.636 1.305,-2.175c0.87,-0.538 1.761,-0.808 2.672,-0.808c1.077,0 2.03,0.27 2.859,0.808c0.829,0.539 1.243,1.264 1.243,2.175l0,24.984l16.159,0c0.828,0 1.491,0.332 1.988,0.994c0.497,0.663 0.746,1.451 0.746,2.362c0,0.912 -0.249,1.699 -0.746,2.362c-0.497,0.663 -1.16,0.994 -1.988,0.994l-16.159,0l0,33.809c0,4.06 0.87,6.898 2.61,8.514c1.74,1.616 4.765,2.424 9.074,2.424l3.48,0c1.16,0 2.051,0.352 2.673,1.056c0.621,0.705 0.932,1.554 0.932,2.549c0,0.994 -0.311,1.864 -0.932,2.61c-0.622,0.746 -1.513,1.118 -2.673,1.118l-3.48,0Z" style="fill:#3F98A6;fill-rule:nonzero;"/><path d="M323.74,95.708c-4.392,0 -8.369,-1.077 -11.932,-3.231c-3.563,-2.155 -6.422,-5.034 -8.577,-8.639c-2.154,-3.604 -3.231,-7.437 -3.231,-11.497l0,-33.188c0,-0.745 0.414,-1.45 1.243,-2.113c0.828,-0.662 1.781,-0.994 2.858,-0.994c1.078,0 2.01,0.332 2.797,0.994c0.787,0.663 1.181,1.368 1.181,2.113l0,33.188c0,2.734 0.704,5.303 2.113,7.706c1.409,2.403 3.273,4.371 5.593,5.904c2.321,1.533 4.931,2.3 7.831,2.3c2.983,0 5.635,-0.746 7.955,-2.238c2.32,-1.491 4.164,-3.459 5.531,-5.904c1.367,-2.444 2.051,-5.034 2.051,-7.768l0,-33.312c0,-0.828 0.414,-1.533 1.243,-2.113c0.829,-0.58 1.782,-0.87 2.859,-0.87c1.243,0 2.217,0.29 2.921,0.87c0.704,0.58 1.056,1.285 1.056,2.113l0,33.312c0,4.226 -1.056,8.1 -3.169,11.621c-2.113,3.522 -4.972,6.36 -8.577,8.515c-3.604,2.154 -7.52,3.231 -11.746,3.231Z" style="fill:#3F98A6;fill-rule:nonzero;"/><path d="M382.035,95.708c-3.894,0 -7.54,-1.097 -10.938,-3.293c-3.397,-2.196 -6.09,-5.117 -8.079,-8.763c-1.989,-3.646 -2.983,-7.5 -2.983,-11.56l0,-13.548c0,-4.309 0.994,-8.204 2.983,-11.684c1.989,-3.48 4.682,-6.277 8.079,-8.39c3.398,-2.113 7.127,-3.17 11.187,-3.17c4.06,0 7.479,0.974 10.255,2.921c2.775,1.948 4.826,4.123 6.152,6.526l0,-41.764c0,-0.911 0.415,-1.636 1.243,-2.175c0.829,-0.539 1.782,-0.808 2.859,-0.808c1.243,0 2.217,0.269 2.921,0.808c0.704,0.539 1.057,1.264 1.057,2.175l0,88.624c0,0.828 -0.353,1.574 -1.057,2.237c-0.704,0.663 -1.678,0.994 -2.921,0.994c-0.994,0 -1.864,-0.331 -2.61,-0.994c-0.746,-0.663 -1.119,-1.409 -1.119,-2.237l0,-5.469c-1.326,2.568 -3.542,4.806 -6.65,6.712c-3.107,1.906 -6.567,2.858 -10.379,2.858Zm1.368,-7.457c2.983,0 5.614,-0.767 7.893,-2.3c2.278,-1.533 4.081,-3.273 5.406,-5.22c1.326,-1.948 1.989,-3.543 1.989,-4.786l0,-17.401c0,-3.315 -0.746,-6.132 -2.237,-8.452c-1.492,-2.321 -3.398,-4.123 -5.718,-5.407c-2.32,-1.285 -4.723,-1.927 -7.209,-1.927c-2.817,0 -5.386,0.767 -7.706,2.3c-2.321,1.533 -4.185,3.501 -5.594,5.904c-1.408,2.403 -2.113,4.93 -2.113,7.582l0,13.548c0,2.735 0.705,5.345 2.113,7.831c1.409,2.486 3.273,4.495 5.594,6.028c2.32,1.533 4.847,2.3 7.582,2.3Z" style="fill:#3F98A6;fill-rule:nonzero;"/><path d="M426.285,94.838c-1.077,0 -2.009,-0.331 -2.797,-0.994c-0.787,-0.663 -1.18,-1.409 -1.18,-2.237l0,-52.578c0,-0.911 0.393,-1.636 1.18,-2.175c0.788,-0.539 1.72,-0.808 2.797,-0.808c1.16,0 2.134,0.269 2.921,0.808c0.787,0.539 1.181,1.264 1.181,2.175l0,52.578c0,0.828 -0.394,1.574 -1.181,2.237c-0.787,0.663 -1.761,0.994 -2.921,0.994Zm0,-76.193c-1.491,0 -2.776,-0.518 -3.853,-1.554c-1.077,-1.036 -1.616,-2.258 -1.616,-3.667c0,-1.409 0.539,-2.61 1.616,-3.605c1.077,-0.994 2.362,-1.491 3.853,-1.491c1.575,0 2.88,0.497 3.915,1.491c1.036,0.995 1.554,2.196 1.554,3.605c0,1.409 -0.518,2.631 -1.554,3.667c-1.035,1.036 -2.34,1.554 -3.915,1.554Z" style="fill:#3F98A6;fill-rule:nonzero;"/><path d="M467.179,95.708c-4.226,0 -8.121,-1.097 -11.684,-3.293c-3.563,-2.196 -6.443,-5.097 -8.639,-8.701c-2.196,-3.605 -3.294,-7.479 -3.294,-11.622l0,-13.548c0,-4.143 1.078,-7.976 3.232,-11.498c2.155,-3.521 5.013,-6.36 8.577,-8.514c3.563,-2.154 7.499,-3.232 11.808,-3.232c4.226,0 8.141,1.057 11.746,3.17c3.604,2.113 6.484,4.91 8.638,8.39c2.155,3.48 3.232,7.375 3.232,11.684l0,13.548c0,4.06 -1.077,7.914 -3.232,11.56c-2.154,3.646 -5.034,6.567 -8.638,8.763c-3.605,2.196 -7.52,3.293 -11.746,3.293Zm0,-7.457c2.9,0 5.51,-0.767 7.83,-2.3c2.321,-1.533 4.185,-3.542 5.594,-6.028c1.408,-2.486 2.113,-5.096 2.113,-7.831l0,-13.548c0,-2.652 -0.684,-5.179 -2.051,-7.582c-1.367,-2.403 -3.232,-4.371 -5.593,-5.904c-2.362,-1.533 -4.993,-2.3 -7.893,-2.3c-2.901,0 -5.511,0.767 -7.831,2.3c-2.32,1.533 -4.185,3.501 -5.593,5.904c-1.409,2.403 -2.113,4.93 -2.113,7.582l0,13.548c0,2.735 0.704,5.345 2.113,7.831c1.408,2.486 3.294,4.495 5.655,6.028c2.362,1.533 4.951,2.3 7.769,2.3Z" style="fill:#3F98A6;fill-rule:nonzero;"/><path d="M13.106,370.459c-3.909,0 -7.071,-0.977 -9.485,-2.931c-2.414,-1.955 -3.621,-4.311 -3.621,-7.071l0,-232.106c0,-2.759 1.207,-5.116 3.621,-7.07c2.414,-1.954 5.576,-2.931 9.485,-2.931l61.044,0c14.025,0 26.671,2.471 37.937,7.415c11.266,4.943 20.176,12.875 26.728,23.797c6.553,10.921 9.83,25.578 9.83,43.972l0,101.741c0,18.393 -3.277,33.051 -9.83,43.972c-6.552,10.921 -15.462,18.854 -26.728,23.797c-11.266,4.943 -23.912,7.415 -37.937,7.415l-61.044,0Zm15.864,-26.211l45.18,0c14.255,0 25.406,-3.966 33.453,-11.898c8.048,-7.933 12.071,-20.291 12.071,-37.075l0,-101.741c0,-16.784 -4.023,-29.142 -12.071,-37.075c-8.047,-7.932 -19.198,-11.898 -33.453,-11.898l-45.18,0l0,199.687Z" style="fill:#232f32;fill-rule:nonzero;"/><path d="M209.689,370.459c-3.449,0 -6.725,-0.862 -9.829,-2.587c-3.104,-1.724 -4.656,-4.311 -4.656,-7.759l0,-227.623c0,-5.288 1.552,-8.967 4.656,-11.036c3.104,-2.07 6.38,-3.104 9.829,-3.104c3.679,0 6.84,0.689 9.484,2.069c2.644,1.379 5.058,3.391 7.243,6.035c2.184,2.644 4.311,6.036 6.38,10.174l54.492,103.81l54.491,-103.81c2.299,-4.138 4.541,-7.53 6.725,-10.174c2.185,-2.644 4.599,-4.656 7.243,-6.035c2.644,-1.38 5.69,-2.069 9.139,-2.069c3.909,0 7.3,1.034 10.174,3.104c2.874,2.069 4.311,5.748 4.311,11.036l0,227.623c0,3.448 -1.494,6.035 -4.483,7.759c-2.989,1.725 -6.323,2.587 -10.002,2.587c-3.679,0 -7.012,-0.862 -10.001,-2.587c-2.989,-1.724 -4.484,-4.311 -4.484,-7.759l0,-181.064l-52.422,97.947c-1.61,2.759 -3.334,4.771 -5.173,6.035c-1.84,1.265 -3.794,1.897 -5.863,1.897c-1.61,0 -3.392,-0.575 -5.346,-1.724c-1.954,-1.15 -3.736,-3.219 -5.346,-6.208l-52.077,-99.326l0,182.443c0,3.448 -1.495,6.035 -4.484,7.759c-2.989,1.725 -6.322,2.587 -10.001,2.587Z" style="fill:#232f32;fill-rule:nonzero;"/><path d="M441.795,370.459c-3.219,0 -6.208,-0.862 -8.967,-2.587c-2.759,-1.724 -4.138,-4.311 -4.138,-7.759l0,-231.762c0,-3.449 1.552,-5.978 4.655,-7.587c3.104,-1.61 6.381,-2.414 9.83,-2.414c3.678,0 7.012,0.804 10.001,2.414c2.989,1.609 4.484,4.138 4.484,7.587l0,215.897l94.498,0c3.219,0 5.575,1.322 7.07,3.966c1.494,2.644 2.241,5.691 2.241,9.14c0,3.218 -0.747,6.207 -2.241,8.966c-1.495,2.76 -3.851,4.139 -7.07,4.139l-110.363,0Z" style="fill:#232f32;fill-rule:nonzero;"/><path d="M588.715,370.459c-2.299,0 -4.886,-0.517 -7.76,-1.552c-2.874,-1.035 -5.173,-2.472 -6.897,-4.311c-1.725,-1.839 -2.587,-3.909 -2.587,-6.208c0,-0.92 0.115,-1.839 0.345,-2.759l70.701,-229.347c0.92,-3.449 3.104,-5.978 6.553,-7.587c3.449,-1.61 7.127,-2.415 11.036,-2.415c4.139,0 7.932,0.863 11.381,2.587c3.449,1.724 5.633,4.196 6.553,7.415l70.356,229.347c0.46,0.92 0.69,1.725 0.69,2.414c0,2.3 -0.977,4.369 -2.932,6.208c-1.954,1.84 -4.311,3.334 -7.07,4.484c-2.759,1.149 -5.403,1.724 -7.932,1.724c-2.529,0 -4.713,-0.517 -6.553,-1.552c-1.839,-1.035 -3.104,-2.701 -3.794,-5.001l-15.519,-51.387l-90.705,0l-14.83,51.387c-0.689,2.3 -2.011,3.966 -3.966,5.001c-1.954,1.035 -4.311,1.552 -7.07,1.552Zm32.764,-81.737l77.254,0l-38.627,-129.676l-38.627,129.676Z" style="fill:#232f32;fill-rule:nonzero;"/><rect x="0.848" y="65.105" width="156.634" height="26.575" style="fill:#005f68;"/><rect x="532.509" y="64.744" width="217.029" height="26.575" style="fill:#005f68;"/></g></svg>