<?xml version="1.0" standalone="no"?>
<!DOCTYPE svg PUBLIC "-//W3C//DTD SVG 20010904//EN"
 "http://www.w3.org/TR/2001/REC-SVG-20010904/DTD/svg10.dtd">
<svg version="1.0" xmlns="http://www.w3.org/2000/svg"
 width="700.000000pt" height="700.000000pt" viewBox="0 0 700.000000 700.000000"
 preserveAspectRatio="xMidYMid meet">
<metadata>
Created by potrace 1.11, written by Peter Selinger 2001-2013
</metadata>
<g transform="translate(0.000000,700.000000) scale(0.100000,-0.100000)"
fill="#000000" stroke="none">
<path d="M3215 6989 c-1004 -86 -1899 -579 -2513 -1387 -373 -489 -613 -1100
-684 -1737 -17 -154 -17 -585 0 -730 44 -370 129 -694 269 -1020 276 -645 764
-1212 1365 -1586 447 -278 924 -443 1483 -511 130 -16 600 -16 730 0 451 55
818 163 1195 351 729 364 1312 973 1639 1714 144 325 238 675 283 1052 16 139
16 595 0 730 -108 889 -477 1619 -1122 2217 -507 471 -1171 785 -1865 882
-249 35 -546 45 -780 25z m-1740 -2603 c93 -26 162 -64 219 -120 142 -143 193
-368 183 -816 -5 -244 -19 -356 -58 -480 -61 -193 -182 -311 -365 -357 -58
-14 -124 -17 -419 -17 l-350 -1 -3 895 c-1 492 0 901 3 909 8 21 707 10 790
-13z m1291 -436 c141 -696 167 -820 170 -817 2 2 60 280 129 618 69 338 127
624 130 637 l5 22 270 0 270 0 0 -910 0 -910 -167 2 -168 3 -5 712 -5 712
-154 -692 c-85 -381 -158 -702 -162 -714 -8 -22 -13 -23 -144 -23 -131 0 -136
1 -144 23 -4 12 -77 334 -162 715 l-154 694 -5 -714 -5 -713 -165 0 -165 0 -3
908 -2 907 272 -2 272 -3 92 -455z m1602 -302 l2 -758 320 0 320 0 0 -150 0
-150 -505 0 -505 0 0 910 0 910 183 -2 182 -3 3 -757z m1612 760 c0 -2 108
-408 239 -903 131 -495 237 -903 234 -907 -2 -5 -87 -8 -189 -8 -101 0 -184 3
-185 8 0 4 -19 90 -42 192 l-42 185 -241 3 -240 2 -28 -127 c-15 -71 -34 -158
-43 -195 l-15 -68 -189 0 c-104 0 -189 2 -189 4 0 5 468 1773 476 1799 5 15
25 17 230 17 123 0 224 -1 224 -2z"/>
<path d="M1050 3500 l0 -642 123 4 c140 5 192 22 243 81 75 85 97 211 97 557
0 342 -20 463 -93 552 -51 61 -102 79 -245 86 l-125 5 0 -643z"/>
<path d="M5750 4088 c0 -3 -38 -184 -85 -402 -47 -218 -85 -398 -85 -401 0 -3
79 -5 175 -5 96 0 175 2 175 4 0 3 -39 184 -86 403 -74 342 -94 428 -94 401z"/>
</g>
</svg>
