<svg width="189" height="38" viewBox="0 0 189 38" fill="none" xmlns="http://www.w3.org/2000/svg">
<path d="M18.1 0.900391C8.1 0.900391 0 9.00039 0 19.0004C0 29.0004 8.1 37.1004 18.1 37.1004C28.1 37.1004 36.2 29.0004 36.2 19.0004C36.2 9.00039 28.1 0.900391 18.1 0.900391ZM21.5 28.5004C21.5 29.2004 21.1 29.7004 20.4 29.7004C18.9 29.7004 17.4 29.8004 15.9 29.7004C15.1 29.7004 14.7 29.1004 14.7 28.4004C14.7 26.8004 14.7 25.1004 14.7 23.5004C14.7 21.9004 14.7 20.3004 14.7 18.7004C14.7 18.3004 14.8 17.9004 15.2 17.7004C15.5 17.5004 15.9 17.2004 16.2 16.9004C16.6 16.6004 16.6 16.4004 16.2 16.1004C15.8 15.8004 15.4 15.5004 15.1 15.2004C14.9 15.0004 14.8 14.8004 14.8 14.5004C14.8 12.8004 14.8 11.1004 14.8 9.40039C14.8 8.80039 15.2 8.30039 15.9 8.20039C16.6 8.10039 17.3 8.10039 18 8.10039C18.7 8.10039 19.4 8.10039 20.2 8.10039C21.3 8.10039 21.7 8.50039 21.8 9.60039C21.8 12.8004 21.8 16.1004 21.8 19.3004C21.8 19.6004 21.7 19.9004 21.4 20.1004C21 20.4004 20.7 20.7004 20.3 21.0004C20 21.2004 20 21.4004 20.3 21.7004C20.7 22.0004 21 22.3004 21.4 22.6004C21.7 22.8004 21.9 23.1004 21.9 23.5004C21.6 25.3004 21.6 26.9004 21.5 28.5004ZM188.4 8.30039C187.3 8.30039 186.2 8.30039 185.2 8.30039C184.7 8.30039 184.6 8.30039 184.6 8.90039C184.6 11.0004 184.6 13.0004 184.6 15.1004C184.6 15.2004 184.6 15.4004 184.6 15.5004C184.4 15.4004 184.3 15.3004 184.3 15.2004C183.9 14.6004 183.3 14.1004 182.7 13.7004C181.2 12.9004 179.6 12.8004 178 13.2004C176 13.7004 174.5 15.0004 173.6 16.8004C172 20.0004 172 23.3004 173.7 26.6004C175 29.1004 177.5 30.5004 180.3 30.2004C182.2 30.0004 183.6 29.2004 184.4 27.5004C184.5 27.4004 184.5 27.2004 184.7 27.0004C184.7 27.2004 184.7 27.3004 184.7 27.4004C184.7 28.0004 184.7 28.7004 184.7 29.3004C184.7 29.7004 184.8 29.8004 185.2 29.8004C186.3 29.8004 187.4 29.8004 188.6 29.8004C188.8 29.8004 188.9 29.7004 189.1 29.6004C189.1 22.5004 189.1 15.4004 189.1 8.40039C188.8 8.40039 188.6 8.30039 188.4 8.30039ZM184 23.9004C183 26.9004 179.7 26.9004 178.2 25.3004C177.5 24.5004 177.2 23.5004 177.1 22.5004C177.1 22.3004 177.1 22.0004 177.1 21.8004C177.1 20.6004 177.2 19.5004 177.9 18.4004C178.7 17.2004 179.8 16.7004 181.2 16.8004C182.7 17.0004 183.6 17.9004 184.1 19.2004C184.5 20.8004 184.5 22.4004 184 23.9004ZM141.8 13.4004C140.8 13.4004 139.7 13.4004 138.7 13.4004C138.3 13.4004 138.2 13.5004 138.1 13.9004C137.4 17.2004 136.7 20.5004 136.1 23.8004C135.9 24.5004 135.8 25.3004 135.6 26.0004H135.5C135.3 25.2004 135.1 24.4004 134.9 23.6004C134.1 20.4004 133.3 17.2004 132.5 14.0004C132.3 13.4004 132.3 13.4004 131.7 13.4004C130.5 13.4004 129.4 13.4004 128.2 13.4004C127.8 13.4004 127.7 13.5004 127.6 13.9004C126.9 17.0004 126.1 20.1004 125.4 23.2004C125.2 24.1004 124.9 25.1004 124.7 26.1004C124.6 25.9004 124.6 25.8004 124.6 25.8004C124.3 24.4004 124 23.0004 123.7 21.6004C123.2 19.0004 122.6 16.5004 122.1 13.9004C122.1 13.7004 122 13.5004 121.7 13.5004C120.5 13.5004 119.3 13.5004 118.1 13.5004C117.8 13.5004 117.7 13.7004 117.8 13.9004C117.9 14.2004 117.9 14.4004 118 14.7004C119.2 19.6004 120.4 24.5004 121.6 29.3004C121.7 29.7004 121.9 29.8004 122.3 29.8004C123.8 29.8004 125.3 29.8004 126.9 29.8004C127.3 29.8004 127.5 29.7004 127.6 29.3004C128.4 26.0004 129.1 22.7004 129.9 19.4004C130 19.1004 130 18.9004 130.1 18.6004C130.2 18.7004 130.2 18.7004 130.2 18.8004C131 22.3004 131.8 25.8004 132.7 29.2004C132.8 29.6004 133 29.8004 133.4 29.8004C135 29.8004 136.5 29.8004 138.1 29.8004C138.5 29.8004 138.7 29.7004 138.7 29.3004C139.1 27.7004 139.5 26.1004 139.9 24.4004C140.7 21.0004 141.6 17.5004 142.4 14.1004C142.5 13.5004 142.4 13.4004 141.8 13.4004ZM67.6 9.20039C66.3 8.50039 64.9 8.20039 63.5 8.20039C60.8 8.20039 58.2 8.20039 55.5 8.20039C54.9 8.20039 54.8 8.20039 54.8 8.90039C54.8 12.3004 54.8 15.6004 54.8 19.0004C54.8 22.4004 54.8 25.8004 54.8 29.2004C54.8 29.8004 54.8 29.9004 55.5 29.9004C56.6 29.9004 57.7 29.9004 58.9 29.9004C59.6 29.9004 59.6 29.9004 59.6 29.2004C59.6 27.3004 59.6 25.4004 59.6 23.5004C59.6 22.8004 59.6 22.8004 60.3 22.8004C61.8 22.8004 63.2 22.8004 64.7 22.7004C66.4 22.6004 67.9 21.9004 69.1 20.7004C70.8 19.0004 71.3 16.9004 71.1 14.6004C70.8 12.2004 69.7 10.4004 67.6 9.20039ZM65.7 17.6004C65.1 18.4004 64.3 18.7004 63.4 18.7004C62.2 18.7004 61.1 18.7004 59.9 18.7004C59.6 18.7004 59.5 18.6004 59.5 18.3004C59.5 17.4004 59.5 16.4004 59.5 15.5004C59.5 14.6004 59.5 13.7004 59.5 12.8004C59.5 12.5004 59.6 12.4004 59.9 12.4004C61.1 12.4004 62.3 12.4004 63.5 12.5004C65.1 12.6004 66 13.4004 66.2 15.0004C66.4 15.8004 66.3 16.8004 65.7 17.6004ZM86.6 18.4004C86.2 16.0004 84.9 14.2004 82.5 13.4004C81 12.9004 79.5 12.8004 78 13.1004C75.4 13.6004 73.6 15.0004 72.6 17.5004C72.4 17.9004 72.5 18.0004 72.9 18.2004C73.9 18.5004 75 18.7004 76 19.0004C76.4 19.1004 76.6 19.0004 76.7 18.6004C77.2 17.4004 78.1 16.7004 79.4 16.7004C81.1 16.6004 82.2 17.8004 82.2 19.6004C82.2 20.3004 82 20.4004 81.4 20.4004C80.2 20.4004 79.1 20.4004 77.9 20.4004C77 20.4004 76 20.5004 75.1 20.7004C73.4 21.1004 72.2 22.2004 71.8 24.0004C71.4 25.9004 71.9 27.6004 73.4 28.9004C75.2 30.3004 77.2 30.4004 79.4 29.9004C80.3 29.7004 81 29.2004 81.6 28.6004C81.8 28.5004 82.1 28.3004 82.2 28.4004C82.3 28.5004 82.4 28.8004 82.5 29.0004C82.5 29.1004 82.5 29.2004 82.5 29.3004C82.5 29.8004 82.5 29.9004 83 29.9004C84 29.9004 85.1 29.9004 86.1 29.9004C86.6 29.9004 86.7 29.8004 86.7 29.3004C86.7 27.7004 86.7 26.2004 86.7 24.6004C86.7 23.2004 86.7 21.9004 86.7 20.5004C86.7 19.8004 86.7 19.1004 86.6 18.4004ZM80.7 26.2004C79.6 26.9004 78.4 27.1004 77.1 26.5004C76.4 26.2004 76.1 25.6004 76.2 24.8004C76.2 24.1004 76.6 23.7004 77.3 23.5004C77.5 23.4004 77.7 23.4004 77.8 23.4004C78.9 23.4004 79.9 23.4004 81 23.4004C81.3 23.4004 81.7 23.4004 82.1 23.4004C82.2 24.6004 81.8 25.6004 80.7 26.2004ZM155.9 14.4004C154.6 13.5004 153 13.1004 151.4 13.0004C148.5 13.0004 146.2 14.0004 144.5 16.4004C143 18.5004 142.6 20.8004 143 23.3004C143.7 27.4004 147.2 30.3004 151.3 30.2004C154.2 30.1004 156.5 29.0004 158.1 26.6004C159.5 24.5004 159.9 22.2004 159.4 19.7004C158.9 17.5004 157.8 15.7004 155.9 14.4004ZM154.1 24.6004C152.7 26.9004 149.5 26.9004 148.2 24.6004C147.1 22.6004 147.1 20.5004 148.3 18.5004C149 17.4004 150.1 16.8004 151.4 16.9004C152.7 17.0004 153.6 17.7004 154.2 18.9004C154.7 19.8004 154.8 20.7004 154.8 21.7004C154.9 22.7004 154.7 23.7004 154.1 24.6004ZM99.7 20.9004C98.5 20.4004 97.2 20.2004 96 19.8004C95.2 19.5004 94.3 19.3004 93.5 18.9004C92.7 18.5004 92.6 17.5004 93.2 16.9004C93.4 16.6004 93.8 16.4004 94.1 16.3004C95.7 15.8004 97.3 16.4004 98.1 18.0004C98.2 18.3004 98.4 18.5004 98.8 18.4004C99.8 18.2004 100.9 18.0004 101.9 17.8004C102.2 17.7004 102.3 17.6004 102.2 17.3004C101.6 15.6004 100.5 14.3004 98.9 13.6004C97.8 13.1004 96.7 13.0004 95.5 13.0004C93.7 13.0004 92 13.3004 90.5 14.4004C88 16.2004 87.7 20.8004 91.3 22.3004C92.3 22.7004 93.4 23.0004 94.4 23.3004C95.4 23.6004 96.4 23.8004 97.4 24.2004C97.7 24.3004 98 24.7004 98.2 25.0004C98.5 25.6004 98 26.4004 97.2 26.7004C95.9 27.2004 93.3 27.0004 92.4 25.2004C92.3 24.9004 92.1 24.9004 91.8 24.9004C90.8 25.2004 89.8 25.4004 88.7 25.7004C88.4 25.8004 88.3 26.0004 88.4 26.3004C88.8 27.3004 89.3 28.2004 90.2 28.8004C91.8 29.9004 93.6 30.3004 95.5 30.3004C95.7 30.3004 95.8 30.3004 96 30.3004C97.9 30.2004 99.6 29.8004 101 28.5004C102.9 26.6004 103.3 22.3004 99.7 20.9004ZM115.1 21.2004C114.2 20.8004 113.3 20.5004 112.3 20.2004C111.1 19.8004 109.9 19.6004 108.8 19.2004C108.2 19.0004 107.8 18.6004 107.7 17.9004C107.7 17.1004 108.3 16.5004 109.2 16.3004C110.9 16.0004 112.1 16.6004 112.9 18.2004C113 18.5004 113.2 18.6004 113.5 18.5004C114.5 18.3004 115.6 18.1004 116.6 17.9004C116.9 17.8004 117 17.7004 116.9 17.4004C116.5 16.2004 115.9 15.2004 114.9 14.5004C113.5 13.4004 111.8 13.1004 110 13.1004C108.9 13.1004 107.7 13.3004 106.5 13.7004C104.2 14.7004 103.1 16.6004 103.4 19.0004C103.6 20.5004 104.5 21.6004 105.8 22.2004C106.9 22.7004 108 23.0004 109.1 23.3004C110.1 23.6004 111.2 23.8004 112.2 24.2004C113.1 24.6004 113.2 25.6004 112.5 26.3004C112 26.7004 111.5 26.8004 110.9 26.9004C109.3 27.0004 107.9 26.6004 107.1 25.1004C107 24.8004 106.8 24.8004 106.5 24.9004C105.5 25.2004 104.5 25.4004 103.5 25.7004C103.2 25.8004 103.1 26.0004 103.2 26.3004C103.8 28.1004 105.2 29.2004 106.9 29.8004C109 30.5004 111.2 30.5004 113.3 29.9004C115 29.4004 116.3 28.4004 117 26.7004C117.6 24.8004 117.4 22.3004 115.1 21.2004ZM50.4 8.00039C49.8 8.00039 49.2 8.00039 48.7 8.00039C48 8.00039 47.5 8.10039 46.9 8.70039C46.1 9.60039 44.9 9.80039 43.7 9.90039C43.2 9.90039 43.1 10.0004 43.1 10.5004C43.1 11.4004 43.1 12.3004 43.1 13.2004C43.1 13.5004 43.2 13.7004 43.6 13.7004C44.3 13.7004 44.9 13.7004 45.6 13.7004C46.3 13.7004 46.3 13.7004 46.3 14.4004C46.3 19.4004 46.3 24.3004 46.3 29.3004C46.3 29.9004 46.3 29.9004 46.9 29.9004C48.1 29.9004 49.2 29.9004 50.4 29.9004C51 29.9004 51 29.9004 51 29.3004C51 25.9004 51 22.4004 51 19.0004C51 15.6004 51 12.2004 51 8.80039C51.1 8.00039 51.1 8.00039 50.4 8.00039ZM171.6 13.1004C169.4 12.6004 167.2 13.4004 166.1 15.9004C166 16.1004 165.9 16.4004 165.8 16.6004H165.7C165.7 16.5004 165.7 16.3004 165.7 16.2004C165.7 15.4004 165.7 14.7004 165.7 13.9004C165.7 13.5004 165.6 13.3004 165.2 13.3004C164.1 13.3004 163.1 13.3004 162 13.3004C161.6 13.3004 161.5 13.4004 161.5 13.8004C161.5 18.9004 161.5 24.1004 161.5 29.2004C161.5 29.6004 161.6 29.7004 162 29.7004C163.2 29.7004 164.4 29.7004 165.5 29.7004C166 29.7004 166 29.7004 166 29.1004C166 26.4004 166 23.8004 166 21.1004C166 20.8004 166 20.5004 166 20.1004C166.1 18.7004 166.9 17.8004 168.1 17.6004C169 17.4004 169.9 17.4004 170.7 17.6004C171 17.7004 171.2 17.6004 171.3 17.2004C171.5 16.0004 171.7 14.9004 171.9 13.7004C172.2 13.4004 172.1 13.3004 171.6 13.1004Z" fill="#1A285F"/>
</svg>
