<svg width="195" height="195" viewBox="0 0 195 195" fill="none" xmlns="http://www.w3.org/2000/svg">
<path d="M10.56 139.77C10.77 139.77 10.99 139.72 11.2 139.63C11.95 139.28 12.27 138.38 11.92 137.63C6 125.03 3 111.53 3 97.49C3 45.39 45.39 3 97.5 3C149.61 3 192 45.39 192 97.5C192 111.46 189.03 124.9 183.17 137.45C182.82 138.2 183.14 139.09 183.89 139.44C184.64 139.79 185.53 139.47 185.88 138.72C191.93 125.77 195 111.91 195 97.5C195 43.74 151.26 0 97.5 0C43.74 0 0 43.74 0 97.5C0 111.98 3.1 125.91 9.21 138.91C9.46 139.45 10 139.77 10.57 139.77H10.56ZM170.19 157.88C152.16 179.56 125.66 192 97.49 192C69.32 192 42.82 179.57 24.79 157.88C24.26 157.24 23.32 157.15 22.68 157.69C22.04 158.22 21.96 159.17 22.49 159.8C41.09 182.17 68.43 195 97.49 195C126.55 195 153.89 182.17 172.49 159.8C173.02 159.16 172.93 158.22 172.3 157.69C171.66 157.16 170.72 157.25 170.19 157.88ZM95.4 106.31L98.39 106.29L98.36 102.6C98.79 103.49 99.01 104.4 99.01 105.31C99.01 111.38 89.18 116.5 77.56 116.5C65.94 116.5 56.1 111.37 56.1 105.31C56.1 102.41 58.25 100.22 60.08 98.87C59.93 98.98 59.73 99.03 59.55 99C59.36 98.97 59.18 98.87 59.07 98.71L61.41 97C61.43 98.81 61.45 100.32 61.47 101.18V102.44L77.66 112.54L93.83 102.16V82.48L77.53 73.54L61.42 83.06L61.38 83.86C61.37 84.12 61.36 84.39 61.36 84.66V84.69C61.35 85.57 61.35 86.59 61.35 87.68C61.35 90.61 61.38 94.07 61.41 96.85C61.05 96.41 60.55 96.13 59.99 96.05C59.39 95.96 58.79 96.12 58.33 96.47C54.93 98.96 53.13 102.02 53.13 105.32C53.13 113.27 63.87 119.5 77.57 119.5C91.27 119.5 102.01 113.27 102.01 105.32C102.01 103.97 101.69 102.63 101.08 101.35L103.86 101.97L104.52 99.05L95.35 96.99L95.42 106.32L95.4 106.31ZM90.83 98.84L83.74 95.03L82.32 97.66L89.37 101.45L78.8 108.24V93.72L90.82 86V98.84H90.83ZM76.05 77.87V86.16H79.04V77.78L89.33 83.42L77.3 91.14L65.77 83.95L76.05 77.88V77.87ZM64.33 86.56L75.82 93.73V107.87L66.29 101.92L72.53 99.53L71.46 96.74L64.43 99.44C64.39 96.53 64.34 91.62 64.34 87.67C64.34 87.29 64.34 86.92 64.34 86.56H64.33ZM149.37 51.83H153.39V48.84H149.37V51.83ZM157.42 51.83H160.88V48.84H157.42V51.83ZM141.33 51.83H145.35V48.84H141.33V51.83ZM172.08 47.24C172.08 42.85 168.71 39.41 164.42 39.41H30.56C26.26 39.41 22.9 42.85 22.9 47.24V142.12H5.4V147.76C5.4 152.07 8.83 155.58 13.05 155.58H181.94C186.17 155.58 189.6 152.07 189.6 147.76V142.12H172.08V47.24ZM25.88 47.24C25.88 44.53 27.93 42.4 30.56 42.4H164.42C167.04 42.4 169.1 44.52 169.1 47.24V142.12H25.89V47.24H25.88ZM186.61 145.11V147.76C186.61 150.43 184.51 152.6 181.93 152.6H13.05C10.48 152.6 8.39 150.43 8.39 147.76V145.11H186.62H186.61ZM122.02 81.99H113.93V84.68H111.46V87.67H113.93V90.34H122.02V87.67H144.09V84.68H122.02V81.99ZM119.03 87.36H116.92V84.98H119.03V87.36ZM127.38 102.11H119.29V104.8H111.45V107.79H119.29V110.46H127.38V107.79H144.09V104.8H127.38V102.11ZM124.39 107.47H122.28V105.09H124.39V107.47ZM135.43 91.37H127.34V94.06H111.45V97.05H127.34V99.72H135.43V97.05H144.09V94.06H135.43V91.37ZM132.44 96.74H130.33V94.36H132.44V96.74Z" fill="#F1F0F0"/>
</svg>
