<svg width="64" height="64" viewBox="0 0 64 64" fill="none" xmlns="http://www.w3.org/2000/svg">
<path d="M12.2197 62C17.7738 62 22.2763 57.4975 22.2763 51.9433C22.2763 46.3892 17.7738 41.8867 12.2197 41.8867C6.66559 41.8867 2.16309 46.3892 2.16309 51.9433C2.16309 57.4975 6.66559 62 12.2197 62Z" stroke="#00484E" stroke-width="2.1" stroke-miterlimit="10"/>
<path d="M12.0566 22.1133C17.6107 22.1133 22.1133 17.6107 22.1133 12.0566C22.1133 6.5025 17.6107 2 12.0566 2C6.5025 2 2 6.5025 2 12.0566C2 17.6107 6.5025 22.1133 12.0566 22.1133Z" stroke="#00484E" stroke-width="2.1" stroke-miterlimit="10"/>
<path d="M51.9434 62C57.4975 62 62 57.4975 62 51.9433C62 46.3892 57.4975 41.8867 51.9434 41.8867C46.3893 41.8867 41.8868 46.3892 41.8868 51.9433C41.8868 57.4975 46.3893 62 51.9434 62Z" stroke="#00484E" stroke-width="2.1" stroke-miterlimit="10"/>
<path d="M51.9434 22.3847C57.4975 22.3847 62 17.8822 62 12.3281C62 6.77399 57.4975 2.27148 51.9434 2.27148C46.3893 2.27148 41.8868 6.77399 41.8868 12.3281C41.8868 17.8822 46.3893 22.3847 51.9434 22.3847Z" stroke="#00484E" stroke-width="2.1" stroke-miterlimit="10"/>
</svg>
