<svg width="64" height="103" viewBox="0 0 64 103" fill="none" xmlns="http://www.w3.org/2000/svg">
<path d="M12.2197 101.887C17.7738 101.887 22.2763 97.3842 22.2763 91.8301C22.2763 86.2759 17.7738 81.7734 12.2197 81.7734C6.66559 81.7734 2.16309 86.2759 2.16309 91.8301C2.16309 97.3842 6.66559 101.887 12.2197 101.887Z" stroke="#6FB2BC" stroke-width="2.1" stroke-miterlimit="10"/>
<path d="M12.0566 62C17.6107 62 22.1133 57.4975 22.1133 51.9433C22.1133 46.3892 17.6107 41.8867 12.0566 41.8867C6.5025 41.8867 2 46.3892 2 51.9433C2 57.4975 6.5025 62 12.0566 62Z" stroke="#6FB2BC" stroke-width="2.1" stroke-miterlimit="10"/>
<path d="M12.2197 22.1133C17.7738 22.1133 22.2763 17.6107 22.2763 12.0566C22.2763 6.5025 17.7738 2 12.2197 2C6.66559 2 2.16309 6.5025 2.16309 12.0566C2.16309 17.6107 6.66559 22.1133 12.2197 22.1133Z" stroke="#6FB2BC" stroke-width="2.1" stroke-miterlimit="10"/>
<path d="M51.9434 101.887C57.4975 101.887 62 97.3842 62 91.8301C62 86.2759 57.4975 81.7734 51.9434 81.7734C46.3893 81.7734 41.8867 86.2759 41.8867 91.8301C41.8867 97.3842 46.3893 101.887 51.9434 101.887Z" stroke="#6FB2BC" stroke-width="2.1" stroke-miterlimit="10"/>
<path d="M51.9434 62.2715C57.4975 62.2715 62 57.769 62 52.2148C62 46.6607 57.4975 42.1582 51.9434 42.1582C46.3893 42.1582 41.8867 46.6607 41.8867 52.2148C41.8867 57.769 46.3893 62.2715 51.9434 62.2715Z" stroke="#6FB2BC" stroke-width="2.1" stroke-miterlimit="10"/>
<path d="M51.9434 22.1133C57.4975 22.1133 62 17.6107 62 12.0566C62 6.5025 57.4975 2 51.9434 2C46.3893 2 41.8867 6.5025 41.8867 12.0566C41.8867 17.6107 46.3893 22.1133 51.9434 22.1133Z" stroke="#6FB2BC" stroke-width="2.1" stroke-miterlimit="10"/>
</svg>
