<svg width="241" height="60" viewBox="0 0 241 60" fill="none" xmlns="http://www.w3.org/2000/svg">
<path d="M123.9 2.3499C123.8 1.3499 123.2 0.749902 122.2 0.649902C121.3 0.649902 120.4 0.649902 119.5 0.649902C118.3 0.649902 117.7 1.3499 117.6 2.5499C117.6 2.6499 117.6 2.7499 117.6 2.8499C117.6 16.9499 117.6 30.9499 117.6 45.0499C117.6 45.2499 117.6 45.4499 117.6 45.5499C117.7 46.6499 118.3 47.2499 119.4 47.2499C120.3 47.2499 121.2 47.2499 122.2 47.2499C123.2 47.2499 123.8 46.6499 123.9 45.6499C123.9 45.4499 123.9 45.2499 123.9 45.1499C123.9 38.0499 123.9 9.9499 123.9 2.8499C123.9 2.7499 123.9 2.5499 123.9 2.3499ZM110.7 23.8499C110.7 20.3499 109.3 17.4499 106.2 15.4499C104.2 14.1499 101.9 13.5499 99.5 13.4499C96.3 13.3499 93.1 13.6499 90.1 14.8499C88.8 15.3499 87.5 16.0499 86.4 16.9499C85.6 17.5499 84.9 18.2499 84.1 18.9499C84.1 18.8499 84.1 18.7499 84.1 18.5499C84.1 17.6499 84.1 16.7499 84.1 15.8499C84.1 14.9499 83.7 14.4499 82.8 14.4499C81.8 14.3499 80.8 14.4499 79.9 14.4499C79.1 14.4499 78.8 14.9499 78.8 15.8499C78.8 16.1499 78.8 35.6499 78.8 45.4499C78.8 46.6499 79.5 47.3499 80.6 47.3499C81.3 47.3499 82 47.3499 82.7 47.3499C84.5 47.3499 85 46.8499 85 45.0499C85 38.9499 85 32.8499 85 26.7499C85 26.3499 85 25.9499 85.1 25.6499C85.4 23.6499 86.5 22.0499 88.1 20.8499C91.8 18.1499 96.7 17.7499 100.2 18.6499C102.6 19.2499 103.7 20.6499 104.1 22.8499C104.3 23.7499 104.4 24.6499 104.4 25.5499C104.4 32.0499 104.4 38.5499 104.4 45.1499C104.4 45.3499 104.4 45.5499 104.4 45.7499C104.5 46.7499 105.1 47.4499 106.1 47.4499C107.1 47.4499 108 47.4499 109 47.4499C109.9 47.4499 110.5 46.8499 110.6 46.0499C110.6 45.8499 110.7 45.6499 110.7 45.4499C110.7 38.1499 110.8 30.9499 110.7 23.8499ZM147.2 45.4499C145.9 44.0499 144.5 42.6499 143.1 41.2499C139.7 37.7499 136.4 34.2499 133 30.7499C132.4 30.1499 132.5 29.7499 133 29.1499C133.8 28.3499 134.7 27.5499 135.5 26.7499C138.5 23.8499 141.5 21.0499 144.5 18.1499C145.3 17.3499 146.1 16.6499 146.9 15.8499C147.2 15.5499 147.3 15.2499 147.1 14.8499C147 14.5499 146.7 14.3499 146.4 14.3499C144.8 14.3499 143.3 14.3499 141.7 14.3499C141.1 14.3499 140.7 14.5499 140.3 14.9499C138.7 16.4499 137.1 18.0499 135.5 19.5499C132.8 22.0499 130.3 24.6499 127.5 27.0499C126 28.3499 125.9 31.1499 127.3 32.5499C128.7 33.9499 130 35.3499 131.3 36.7499C134.5 40.0499 137.6 43.3499 140.8 46.7499C141.2 47.1499 141.6 47.3499 142.1 47.3499C142.9 47.3499 143.7 47.3499 144.5 47.3499C145.3 47.3499 146.1 47.3499 146.9 47.3499C147.6 47.3499 147.9 46.8499 147.6 46.2499C147.6 45.9499 147.4 45.7499 147.2 45.4499ZM156.9 0.649902C156.3 0.649902 155.7 0.749902 155 1.0499C153.4 1.8499 152.7 3.8499 153.5 5.7499C154 6.8499 154.7 7.8499 155.6 8.7499C156.3 9.5499 157.6 9.5499 158.4 8.7499C159.4 7.7499 160.3 6.5499 160.7 5.1499C161 4.0499 160.9 3.0499 160.3 2.1499C159.4 1.0499 158.3 0.649902 156.9 0.649902ZM160.1 15.9499C160 15.1499 159.5 14.5499 158.7 14.5499C157.6 14.4499 156.5 14.4499 155.4 14.5499C154.7 14.5499 154.2 15.0499 154.1 15.8499C154 16.1499 154 16.5499 154 16.8499C154 21.5499 154 40.3499 154 45.0499C154 45.2499 154 45.4499 154 45.6499C154.1 46.6499 154.6 47.3499 155.6 47.3499C156.6 47.3499 157.6 47.3499 158.5 47.3499C159.5 47.3499 160 46.7499 160.2 45.8499C160.2 45.6499 160.2 45.4499 160.2 45.2499C160.2 35.7499 160.2 26.2499 160.2 16.8499C160.2 16.4499 160.2 16.1499 160.1 15.9499ZM238.6 16.4499C234.5 14.4499 230.2 13.4499 225.7 13.3499C222.7 13.2499 219.8 13.5499 217 14.5499C213.2 15.8499 210.1 18.0499 208 21.5499C207.2 22.8499 206.7 24.3499 206.3 25.7499C205.5 28.9499 205.4 32.2499 205.9 35.5499C206.3 37.8499 207.1 39.9499 208.5 41.8499C210.8 44.9499 213.9 46.7499 217.7 47.4499C220.1 47.9499 222.6 47.8499 225 47.6499C228.4 47.2499 231.2 45.8499 233.5 43.3499C233.6 43.2499 233.8 43.0499 233.9 42.9499C233.9 43.0499 234 43.0499 234 43.0499C234 45.0499 233.8 46.9499 233.2 48.8499C232.4 51.4499 230.7 53.1499 228 53.9499C226.8 54.2499 225.6 54.4499 224.4 54.4499C220.5 54.4499 216.7 53.9499 213.2 52.1499C212.7 51.9499 212.5 51.9499 212.2 52.4499C211.7 53.2499 211.2 54.1499 210.7 54.9499C210.4 55.4499 210.4 55.8499 210.9 56.2499C211.3 56.5499 211.8 56.8499 212.3 57.0499C215 58.2499 217.9 58.6499 220.8 58.9499C221.4 59.0499 222 59.0499 222.7 59.1499C223.8 59.1499 224.9 59.1499 226 59.1499C226.8 59.0499 227.6 58.9499 228.4 58.8499C230.9 58.4499 233.3 57.5499 235.2 55.8499C236.8 54.4499 237.9 52.8499 238.7 50.9499C239.6 48.8499 240.2 45.1499 240.2 43.0499C240.2 42.9499 240.2 26.3499 240.2 17.5499C239.6 17.0499 239.1 16.7499 238.6 16.4499ZM233.9 34.1499C233.8 37.8499 232 40.3499 228.7 41.9499C226.6 42.9499 224.4 43.1499 222.2 43.0499C220.8 42.9499 219.5 42.7499 218.2 42.3499C215.2 41.3499 213.3 39.2499 212.4 36.2499C211.4 32.6499 211.4 29.0499 212.7 25.4499C213.8 22.3499 216 20.2499 219.1 19.1499C221.6 18.2499 224.2 18.1499 226.8 18.2499C228.8 18.3499 230.8 18.6499 232.8 19.3499C234 19.7499 234 19.7499 234 20.9499C234 23.0499 234 25.2499 234 27.3499C233.9 29.5499 233.9 31.8499 233.9 34.1499ZM32.5 20.3499C30.2 16.3499 26.6 14.2499 22.1 13.6499C19.2 13.2499 16.4 13.3499 13.5 13.8499C11 14.3499 8.7 15.2499 6.7 16.8499C6.6 16.9499 6.4 17.0499 6.2 17.2499C6.2 17.0499 6.2 16.9499 6.2 16.7499C6.2 12.1499 6.2 7.5499 6.2 2.9499C6.2 2.7499 6.2 2.5499 6.2 2.4499C6.1 1.3499 5.5 0.849902 4.5 0.749902C3.6 0.749902 2.6 0.749902 1.7 0.749902C0.800001 0.749902 0 1.4499 0 2.4499C0 2.5499 0 30.1499 0 44.1499C1.1 44.9499 2.2 45.5499 3.5 46.1499C8.9 48.4499 14.6 49.0499 20.4 48.1499C22.9 47.7499 25.2 46.9499 27.3 45.5499C30.8 43.2499 32.9 39.8499 33.8 35.8499C34.5 32.8499 34.7 29.8499 34.3 26.7499C34.2 24.4499 33.6 22.3499 32.5 20.3499ZM27.6 36.0499C26.4 39.8499 23.9 42.2499 20 43.1499C15.9 44.1499 11.9 43.8499 8 42.3499C7.5 42.1499 7.1 41.8499 6.6 41.6499C6.4 41.5499 6.3 41.4499 6.3 41.2499C6.3 36.1499 6.3 31.0499 6.3 25.8499C6.3 23.2499 7.5 21.2499 9.8 19.9499C12 18.6499 14.4 18.1499 16.9 18.1499C18.7 18.1499 20.5 18.3499 22.3 18.8499C25.1 19.7499 26.8 21.6499 27.6 24.3499C28.2 26.1499 28.3 28.0499 28.3 29.9499C28.4 32.0499 28.2 34.0499 27.6 36.0499ZM68 25.2499C67.9 24.4499 67.3 23.8499 66.5 23.8499C65.9 23.8499 65.2 23.8499 64.6 23.8499C63.8 23.9499 63.3 24.4499 63.1 25.2499C63.1 25.4499 63.1 25.7499 63.1 25.9499C63.1 29.2499 63.1 37.6499 63.1 38.5499C63 40.4499 62.1 41.9499 60.4 42.9499C59.5 43.4499 58.5 43.7499 57.5 43.8499C56.1 44.0499 54.6 43.9499 53.3 43.5499C50.6 42.8499 49 40.8499 49 37.9499C49 34.2499 49 26.0499 49 25.6499C49 24.4499 48.3 23.8499 47.2 23.7499C46.8 23.7499 46.4 23.7499 45.9 23.7499C44.6 23.7499 44 24.4499 44 25.7499C44 29.7499 44 33.8499 44 37.8499C44 41.8499 45.9 44.8499 49.5 46.7499C51.5 47.7499 53.7 48.1499 55.9 48.1499C58.4 48.1499 60.9 47.7499 63.1 46.5499C66.1 44.8499 67.9 42.2499 68.1 38.7499C68.2 36.6499 68.2 28.1499 68.2 25.9499C68 25.7499 68 25.4499 68 25.2499ZM200 23.8499C200 20.3499 198.6 17.4499 195.5 15.4499C193.5 14.1499 191.2 13.5499 188.8 13.4499C185.6 13.3499 182.4 13.6499 179.4 14.8499C178.1 15.3499 176.8 16.0499 175.7 16.9499C174.9 17.5499 174.2 18.2499 173.4 18.9499C173.4 18.8499 173.4 18.7499 173.4 18.5499C173.4 17.6499 173.4 16.7499 173.4 15.8499C173.4 14.9499 173 14.4499 172.1 14.4499C171.1 14.3499 170.1 14.4499 169.2 14.4499C168.4 14.4499 168.1 14.9499 168.1 15.8499C168.1 16.1499 168.1 35.6499 168.1 45.4499C168.1 46.6499 168.8 47.3499 169.9 47.3499C170.6 47.3499 171.3 47.3499 172 47.3499C173.8 47.3499 174.3 46.8499 174.3 45.0499C174.3 38.9499 174.3 32.8499 174.3 26.7499C174.3 26.3499 174.3 25.9499 174.4 25.6499C174.7 23.6499 175.8 22.0499 177.4 20.8499C181.1 18.1499 186 17.7499 189.5 18.6499C191.9 19.2499 193 20.6499 193.4 22.8499C193.6 23.7499 193.7 24.6499 193.7 25.5499C193.7 32.0499 193.7 38.5499 193.7 45.1499C193.7 45.3499 193.7 45.5499 193.7 45.7499C193.8 46.7499 194.4 47.4499 195.4 47.4499C196.4 47.4499 197.3 47.4499 198.3 47.4499C199.2 47.4499 199.8 46.8499 199.9 46.0499C199.9 45.8499 200 45.6499 200 45.4499C200 38.1499 200 30.9499 200 23.8499Z" fill="black"/>
<path d="M72.2 19.1501C72.2 18.1501 71.8 17.6501 71.3 17.2501C66.6 13.7501 62 10.2501 57.4 6.6501C56.2 5.7501 55.3 5.7501 54.1 6.6501C51.5 8.7501 48.8 10.8501 46.2 12.8501C44.3 14.3501 42.5 15.7501 40.6 17.2501C39.7 17.9501 39.6 19.1501 40.2 20.0501C40.9 20.8501 42.1 21.0501 43.1 20.4501C47.2 17.8501 51.3 15.2501 55.4 12.5501C55.7 12.3501 55.8 12.3501 56.1 12.5501C58.8 14.2501 61.6 15.9501 64.3 17.6501C65.9 18.6501 67.5 19.5501 69.1 20.5501C69.8 20.9501 70.5 21.0501 71.3 20.6501C71.9 20.2501 72.2 19.6501 72.2 19.1501Z" fill="#124263"/>
</svg>
