<svg width="107" height="201" viewBox="0 0 107 201" fill="none" xmlns="http://www.w3.org/2000/svg">
<g clip-path="url(#clip0_1236_1018)">
<mask id="mask0_1236_1018" style="mask-type:luminance" maskUnits="userSpaceOnUse" x="1" y="0" width="106" height="72">
<path d="M11.14 72H106.14V0H1.14001V62L11.14 72Z" fill="white"/>
</mask>
<g mask="url(#mask0_1236_1018)">
<path d="M1.14001 -1H27.39L28.4516 0.102747H78.8284L79.89 -1H106.14V72.7838H79.9865L78.9249 71.681H28.4516L27.39 72.7838H1.14001V-1Z" fill="#D52B1E"/>
<path d="M26.6805 -1H81.3166V72.7838H26.6805V-1ZM55.0512 57.6461L54.55 47.8216C54.55 47.2201 54.951 46.7189 55.5525 46.7189C55.6527 46.7189 55.753 46.7189 55.753 46.7189L65.5774 48.4231L64.2742 44.8141C64.1739 44.5134 64.2742 44.2126 64.4747 44.0121L75.2014 35.3906L72.7954 34.2879C72.4946 34.0874 72.2942 33.7866 72.3944 33.3856L74.4996 26.8694L68.2842 28.1727C67.9834 28.2729 67.5824 28.0724 67.4822 27.7717L66.2792 24.9647L61.4672 30.1777C61.1664 30.4784 60.7654 30.4784 60.4647 30.1777C60.2642 29.9772 60.1639 29.7767 60.2642 29.4759L62.5699 17.3457L58.8607 19.4509C58.4597 19.6514 58.0587 19.5512 57.8582 19.1502L54.0487 11.7317L50.2392 19.1502C50.0387 19.5512 49.6377 19.6514 49.2367 19.4509L45.5275 17.3457L47.8332 29.2754C47.9335 29.6764 47.6327 30.0774 47.2317 30.1777C47.0312 30.1777 46.7305 30.1777 46.53 29.9772L41.718 24.7642L40.515 27.5712C40.4147 27.8719 40.0138 28.0724 39.713 27.9722L33.4975 26.7692L35.6028 33.2854C35.703 33.6864 35.6028 33.9871 35.2018 34.1876L32.7958 35.2904L43.5225 43.9119C43.723 44.1124 43.8232 44.4131 43.723 44.7139L42.4197 48.3228L52.2442 46.6186C52.8457 46.5184 53.347 46.9194 53.4472 47.5209C53.4472 47.6211 53.4472 47.7214 53.4472 47.7214L52.946 57.5458H55.0512V57.6461Z" fill="white"/>
</g>
</g>
<g clip-path="url(#clip1_1236_1018)">
<path d="M11.31 199.37C17.1256 199.37 21.84 194.656 21.84 188.84C21.84 183.024 17.1256 178.31 11.31 178.31C5.49447 178.31 0.780029 183.024 0.780029 188.84C0.780029 194.656 5.49447 199.37 11.31 199.37Z" stroke="#63ACB7" stroke-width="1.57" stroke-miterlimit="10"/>
<path d="M11.31 157.6C17.1256 157.6 21.84 152.886 21.84 147.07C21.84 141.254 17.1256 136.54 11.31 136.54C5.49447 136.54 0.780029 141.254 0.780029 147.07C0.780029 152.886 5.49447 157.6 11.31 157.6Z" stroke="#63ACB7" stroke-width="1.57" stroke-miterlimit="10"/>
<path d="M11.31 115.84C17.1256 115.84 21.84 111.126 21.84 105.31C21.84 99.4945 17.1256 94.78 11.31 94.78C5.49447 94.78 0.780029 99.4945 0.780029 105.31C0.780029 111.126 5.49447 115.84 11.31 115.84Z" stroke="#63ACB7" stroke-width="1.57" stroke-miterlimit="10"/>
<path d="M53.07 199.37C58.8855 199.37 63.6 194.656 63.6 188.84C63.6 183.024 58.8855 178.31 53.07 178.31C47.2544 178.31 42.54 183.024 42.54 188.84C42.54 194.656 47.2544 199.37 53.07 199.37Z" stroke="#63ACB7" stroke-width="1.57" stroke-miterlimit="10"/>
<path d="M53.07 157.6C58.8855 157.6 63.6 152.886 63.6 147.07C63.6 141.254 58.8855 136.54 53.07 136.54C47.2544 136.54 42.54 141.254 42.54 147.07C42.54 152.886 47.2544 157.6 53.07 157.6Z" stroke="#63ACB7" stroke-width="1.57" stroke-miterlimit="10"/>
<path d="M53.07 115.84C58.8855 115.84 63.6 111.126 63.6 105.31C63.6 99.4945 58.8855 94.78 53.07 94.78C47.2544 94.78 42.54 99.4945 42.54 105.31C42.54 111.126 47.2544 115.84 53.07 115.84Z" stroke="#63ACB7" stroke-width="1.57" stroke-miterlimit="10"/>
<path d="M94.83 199.37C100.646 199.37 105.36 194.656 105.36 188.84C105.36 183.024 100.646 178.31 94.83 178.31C89.0144 178.31 84.3 183.024 84.3 188.84C84.3 194.656 89.0144 199.37 94.83 199.37Z" stroke="#63ACB7" stroke-width="1.57" stroke-miterlimit="10"/>
<path d="M94.83 157.6C100.646 157.6 105.36 152.886 105.36 147.07C105.36 141.254 100.646 136.54 94.83 136.54C89.0144 136.54 84.3 141.254 84.3 147.07C84.3 152.886 89.0144 157.6 94.83 157.6Z" stroke="#63ACB7" stroke-width="1.57" stroke-miterlimit="10"/>
<path d="M94.83 115.84C100.646 115.84 105.36 111.126 105.36 105.31C105.36 99.4945 100.646 94.78 94.83 94.78C89.0144 94.78 84.3 99.4945 84.3 105.31C84.3 111.126 89.0144 115.84 94.83 115.84Z" stroke="#63ACB7" stroke-width="1.57" stroke-miterlimit="10"/>
</g>
<defs>
<clipPath id="clip0_1236_1018">
<rect width="105" height="72" fill="white" transform="translate(1.14001)"/>
</clipPath>
<clipPath id="clip1_1236_1018">
<rect width="106.14" height="106.15" fill="white" transform="translate(0 94)"/>
</clipPath>
</defs>
</svg>
