<svg width="174" height="95" viewBox="0 0 174 95" fill="none" xmlns="http://www.w3.org/2000/svg">
<g clip-path="url(#clip0_799_7902)">
<path d="M73.52 59.35H113.79L158.42 76.35L151.42 59.35H166.06C169.87 59.35 172.96 56.26 172.96 52.45V7.65C172.96 3.84 169.87 0.75 166.06 0.75H73.52C69.71 0.75 66.62 3.84 66.62 7.65V52.45C66.62 56.26 69.71 59.35 73.52 59.35Z" stroke="#307D85" stroke-width="1.5" stroke-miterlimit="10"/>
<path d="M107.09 57.2196V24.9996C107.09 21.1896 104 18.0996 100.19 18.0996H69.88" stroke="#307D85" stroke-width="1.5" stroke-miterlimit="10"/>
<path d="M63.66 18.0996H7.65C3.84 18.0996 0.75 21.1896 0.75 24.9996V69.7996C0.75 73.6096 3.84 76.6996 7.65 76.6996H22.28L15.28 93.6996L59.92 76.6996H100.19C104 76.6996 107.09 73.6096 107.09 69.7996V61.4696" stroke="#307D85" stroke-width="1.5" stroke-miterlimit="10"/>
</g>
<defs>
<clipPath id="clip0_799_7902">
<rect width="173.71" height="95.01" fill="white"/>
</clipPath>
</defs>
</svg>
