<svg width="157" height="40" viewBox="0 0 157 40" fill="none" xmlns="http://www.w3.org/2000/svg">
<path fill-rule="evenodd" clip-rule="evenodd" d="M17.4 12.1996L24 5.59961L25.9 7.49961L19.3 14.0996L17.4 12.1996ZM14.8 18.9996C13.5 18.9996 12.5 17.9996 12.5 16.6996C12.5 15.3996 13.5 14.3996 14.8 14.3996C16.1 14.3996 17.1 15.4996 17.1 16.6996C17.1 17.8996 16.1 18.9996 14.8 18.9996ZM26 25.7996L24.1 27.6996L17.5 21.0996L19.4 19.1996L26 25.7996Z" fill="#222222"/>
<path fill-rule="evenodd" clip-rule="evenodd" d="M146.3 34.7998C145.7 36.1998 144.8 37.1998 143.7 37.9998C142.6 38.7998 141.3 39.1998 139.9 39.1998C138 39.1998 136.2 38.4998 134.7 37.0998L136.7 33.4998C137.6 34.3998 138.6 34.7998 139.6 34.7998C140.6 34.7998 141.4 34.3998 142 33.6998C142.6 32.9998 142.9 32.1998 142.9 31.3998C142.9 30.9998 140.1 23.7998 134.4 9.7998H139.1L145.4 25.2998L151.7 9.7998H156.4L146.3 34.7998ZM130 4.7998C129.1 4.7998 128.3 5.09981 127.8 5.69981C127.3 6.29981 127 7.09981 127 8.09981V9.7998H132.5V13.3998H127V30.8998H122.6V13.2998H120V9.69981H122.6V8.09981C122.6 5.89981 123.3 4.0998 124.6 2.7998C125.9 1.4998 127.5 0.799805 129.4 0.799805C131.3 0.799805 133 1.49981 134.6 2.89981L132.8 5.99981C131.9 5.19981 131 4.7998 130 4.7998ZM113.1 6.39981C112.3 6.39981 111.7 6.09981 111.1 5.59981C110.5 4.99981 110.3 4.39981 110.3 3.59981C110.3 2.79981 110.6 2.19981 111.1 1.59981C111.7 0.999806 112.3 0.799805 113.1 0.799805C113.9 0.799805 114.5 1.09981 115.1 1.59981C115.7 2.19981 115.9 2.79981 115.9 3.59981C115.9 4.39981 115.6 4.99981 115.1 5.59981C114.5 6.19981 113.8 6.39981 113.1 6.39981ZM101.6 30.7998L95.4 21.5998L92.2 24.7998V30.7998H87.8V1.49981H92.2V18.6998L100.7 9.7998H106.4L98.4 18.0998L107 30.7998H101.6ZM77 27.0998C78 27.0998 79.1 26.7998 80 26.2998L82.8 29.0998C80.8 30.3998 78.6 31.0998 76.2 31.0998C73.3 31.0998 70.8 30.0998 68.7 28.0998C66.6 26.0998 65.5 23.4998 65.5 20.2998C65.5 17.0998 66.6 14.4998 68.8 12.4998C71 10.4998 73.7 9.49981 76.8 9.49981C78.9 9.49981 80.9 9.99981 82.6 10.9998L79.4 14.1998C78.5 13.7998 77.6 13.5998 76.7 13.5998C74.9 13.5998 73.3 14.1998 71.9 15.3998C70.5 16.5998 69.9 18.1998 69.9 20.0998C69.9 21.9998 70.6 23.6998 71.9 24.9998C73.4 26.3998 75.1 27.0998 77 27.0998ZM51 31.0998C47.8 31.0998 45.2 30.0998 43.1 27.9998C41 25.8998 40 23.2998 40 20.2998C40 17.2998 41.1 14.6998 43.2 12.5998C45.3 10.4998 47.9 9.49981 51.1 9.49981C54.3 9.49981 56.9 10.4998 59 12.5998C61.1 14.6998 62.2 17.2998 62.2 20.2998C62.2 23.2998 61.1 25.8998 59 27.9998C56.8 30.0998 54.2 31.0998 51 31.0998ZM55.8 15.2998C54.5 13.9998 53 13.3998 51 13.3998C49 13.3998 47.5 13.9998 46.2 15.2998C44.9 16.5998 44.3 18.1998 44.3 20.2998C44.3 22.2998 44.9 23.9998 46.2 25.2998C47.4 26.5998 49 27.1998 51 27.1998C53 27.1998 54.5 26.5998 55.8 25.2998C57 23.9998 57.7 22.3998 57.7 20.2998C57.7 18.2998 57 16.5998 55.8 15.2998ZM30.9 1.49981H35.3V30.7998H30.9V1.49981ZM14.8 26.7998C16.1 26.7998 17.4 26.4998 18.6 26.0998L21.8 29.2998C19.7 30.4998 17.4 31.0998 14.8 31.0998C6.9 31.0998 0.5 24.6998 0.5 16.7998C0.5 8.89981 6.9 2.49981 14.8 2.49981C17.3 2.49981 19.7 3.0998 21.7 4.2998L18.5 7.49981C17.3 6.99981 16.1 6.7998 14.8 6.7998C9.3 6.7998 4.8 11.2998 4.8 16.8998C4.8 22.2998 9.3 26.7998 14.8 26.7998ZM115.2 30.7998H110.8V9.7998H115.2V30.7998Z" fill="#03A9F4"/>
</svg>
