<svg width="195" height="195" viewBox="0 0 195 195" fill="none" xmlns="http://www.w3.org/2000/svg">
<path d="M97.5 0C43.74 0 0 43.74 0 97.5C0 151.26 43.74 195 97.5 195C151.26 195 195 151.26 195 97.5C195 43.74 151.26 0 97.5 0ZM97.5 192C45.39 192 3 149.61 3 97.5C3 45.39 45.39 3 97.5 3C149.61 3 192 45.39 192 97.5C192 149.61 149.61 192 97.5 192ZM172.47 94.07C172.47 88.99 168.04 84.56 162.97 84.57H154.85C152.06 84.57 149.59 82.83 148.72 80.27C147.94 77.94 146.99 75.66 145.91 73.49C144.7 71.04 145.21 68.07 147.19 66.1L152.94 60.35C156.65 56.64 156.65 50.61 152.94 46.9L148.1 42.06C144.39 38.35 138.36 38.35 134.65 42.06L128.9 47.81C126.92 49.79 123.95 50.3 121.51 49.09C119.34 48.01 117.05 47.07 114.73 46.29C112.16 45.42 110.43 42.96 110.42 40.16V32.04C110.42 26.8 106.16 22.53 100.91 22.53H94.06C88.82 22.53 84.55 26.79 84.56 32.03V40.15C84.56 42.95 82.83 45.41 80.26 46.27C77.97 47.04 75.69 47.99 73.48 49.08C71.03 50.29 68.06 49.78 66.09 47.81L60.34 42.06C56.63 38.35 50.6 38.35 46.89 42.06L42.05 46.9C38.34 50.61 38.34 56.64 42.05 60.35L47.8 66.1C49.77 68.07 50.29 71.04 49.08 73.49C47.99 75.68 47.05 77.96 46.27 80.27C45.41 82.84 42.95 84.57 40.15 84.57H32.03C26.79 84.57 22.53 88.84 22.52 94.08V100.93C22.52 106.17 26.78 110.44 32.03 110.44H40.15C42.95 110.44 45.42 112.18 46.27 114.74C47.05 117.04 47.99 119.32 49.07 121.51C50.28 123.96 49.77 126.93 47.79 128.9L42.04 134.65C38.33 138.36 38.33 144.39 42.04 148.1L46.88 152.94C50.59 156.65 56.62 156.65 60.33 152.94L66.08 147.19C68.05 145.22 71.02 144.7 73.48 145.92C75.68 147.01 77.96 147.95 80.25 148.73C82.83 149.59 84.55 152.05 84.55 154.85V162.97C84.55 168.21 88.8 172.47 94.05 172.47H100.9C106.14 172.47 110.4 168.21 110.41 162.97V154.85C110.41 152.05 112.14 149.59 114.71 148.72C117.04 147.94 119.32 146.99 121.49 145.92C123.93 144.71 126.9 145.22 128.88 147.2L134.63 152.95C138.34 156.66 144.37 156.66 148.08 152.95L152.92 148.11C156.63 144.4 156.63 138.37 152.92 134.66L147.17 128.91C145.19 126.93 144.68 123.96 145.9 121.52C146.98 119.34 147.92 117.06 148.7 114.74C149.56 112.17 152.02 110.44 154.82 110.44H162.95C165.49 110.44 167.88 109.46 169.67 107.66C171.46 105.87 172.45 103.48 172.45 100.94V94.09L172.47 94.07ZM162.97 107.43H154.84C150.76 107.43 147.15 109.98 145.88 113.77C145.15 115.95 144.25 118.1 143.23 120.16C141.44 123.76 142.18 128.12 145.07 131.01L150.82 136.76C153.36 139.3 153.36 143.43 150.82 145.97L145.98 150.81C143.44 153.35 139.31 153.35 136.77 150.81L131.02 145.06C128.13 142.17 123.77 141.43 120.17 143.22C118.12 144.24 115.97 145.13 113.77 145.87C109.98 147.15 107.43 150.75 107.43 154.83V162.96C107.43 166.55 104.51 169.47 100.92 169.47H94.07C90.48 169.47 87.57 166.55 87.56 162.96V154.84C87.56 150.74 85.02 147.14 81.22 145.87C79.06 145.14 76.91 144.25 74.83 143.22C71.22 141.43 66.87 142.17 63.98 145.06L58.23 150.81C55.69 153.35 51.56 153.35 49.02 150.81L44.18 145.97C41.64 143.43 41.64 139.3 44.18 136.76L49.93 131.01C52.82 128.12 53.56 123.76 51.77 120.16C50.74 118.09 49.85 115.94 49.12 113.77C48.66 112.39 47.89 111.18 46.9 110.19C45.17 108.46 42.76 107.42 40.15 107.42H32.03C28.44 107.42 25.53 104.5 25.52 100.91V94.06C25.52 90.47 28.45 87.55 32.03 87.55H40.15C44.24 87.55 47.84 85 49.12 81.21C49.85 79.04 50.74 76.89 51.77 74.82C53.55 71.22 52.81 66.86 49.92 63.98L44.17 58.23C41.63 55.69 41.63 51.56 44.17 49.02L49.01 44.18C51.55 41.64 55.68 41.64 58.22 44.18L63.97 49.93C66.86 52.82 71.21 53.56 74.82 51.77C76.9 50.73 79.05 49.84 81.21 49.12C85 47.85 87.55 44.24 87.55 40.15V32.03C87.55 28.44 90.47 25.53 94.06 25.52H100.91C104.5 25.52 107.42 28.44 107.42 32.03V40.16C107.42 44.24 109.97 47.83 113.76 49.12C115.95 49.86 118.11 50.75 120.15 51.77C123.75 53.56 128.11 52.82 131 49.93L136.75 44.18C139.29 41.64 143.42 41.64 145.96 44.18L150.8 49.02C153.34 51.56 153.34 55.69 150.8 58.23L145.05 63.98C142.16 66.87 141.42 71.23 143.21 74.83C144.23 76.88 145.12 79.03 145.86 81.22C147.14 85.01 150.73 87.57 154.82 87.56H162.94C166.41 87.56 169.45 90.59 169.45 94.07V100.92C169.45 104.51 166.53 107.43 162.95 107.43H162.97ZM97.5 52.75C72.83 52.75 52.76 72.82 52.76 97.49C52.76 109.83 57.78 121.01 65.88 129.12C73.98 137.22 85.17 142.24 97.5 142.24C122.17 142.24 142.24 122.17 142.24 97.5C142.24 72.82 122.17 52.75 97.5 52.76V52.75ZM97.5 139.24C74.47 139.24 55.76 120.5 55.75 97.49C55.75 74.47 74.48 55.74 97.5 55.74C109.01 55.74 119.45 60.42 127.01 67.98C134.57 75.54 139.25 85.98 139.25 97.49C139.25 120.51 120.52 139.24 97.5 139.24ZM119.85 72.23C118.37 70.92 116.76 69.73 115.06 68.69C114.35 68.26 113.43 68.48 113 69.18C112.57 69.89 112.81 70.8 113.49 71.24C115.04 72.19 116.51 73.28 117.86 74.47C124.39 80.32 128.23 88.71 128.23 97.49C128.23 105.7 125.03 113.42 119.23 119.22C113.43 125.02 105.71 128.22 97.5 128.22C80.56 128.22 66.77 114.43 66.77 97.49C66.77 83.99 75.8 71.87 88.72 68.03C89.51 67.79 89.97 66.96 89.73 66.17C89.5 65.37 88.66 64.92 87.87 65.16C73.68 69.38 63.77 82.68 63.77 97.5C63.77 106.8 67.55 115.23 73.66 121.34C79.77 127.45 88.2 131.23 97.5 131.23C116.1 131.23 131.23 116.1 131.23 97.5C131.23 87.85 127.1 78.53 119.85 72.24V72.23ZM97.51 66.77C100.54 66.77 103.53 67.21 106.42 68.08C107.21 68.32 108.05 67.87 108.29 67.08C108.53 66.29 108.09 65.46 107.29 65.21C104.12 64.25 100.83 63.77 97.5 63.77C96.67 63.77 96 64.44 96 65.27C96 65.68 96.17 66.05 96.44 66.33C96.71 66.6 97.09 66.77 97.5 66.77H97.51ZM90.13 102.74L85.51 107.36C84.93 107.94 84.93 108.9 85.51 109.48C86.09 110.06 87.05 110.06 87.63 109.48L92.25 104.86C93.77 105.95 95.59 106.54 97.5 106.54C99.92 106.54 102.19 105.6 103.9 103.89C105.61 102.18 106.55 99.91 106.55 97.49C106.55 95.59 105.9 93.79 104.81 92.3L115.62 81.49C116.2 80.91 116.2 79.95 115.62 79.37C115.04 78.79 114.08 78.79 113.5 79.37L102.69 90.18C101.2 89.1 99.4 88.44 97.5 88.44C95.08 88.44 92.81 89.38 91.1 91.09C89.39 92.8 88.45 95.07 88.45 97.49C88.45 99.4 89.04 101.21 90.13 102.74ZM97.5 91.44C99.12 91.44 100.64 92.07 101.78 93.21C102.92 94.35 103.55 95.87 103.55 97.49C103.55 99.11 102.92 100.63 101.78 101.77C100.64 102.91 99.12 103.54 97.5 103.54C94.16 103.54 91.45 100.82 91.45 97.49C91.45 94.16 94.17 91.44 97.5 91.44Z" fill="#F1F0F0"/>
</svg>
