<svg width="195" height="195" viewBox="0 0 195 195" fill="none" xmlns="http://www.w3.org/2000/svg">
<path d="M163.42 25.67C162.81 25.11 161.86 25.15 161.3 25.76C160.74 26.37 160.78 27.32 161.39 27.88C180.84 45.74 191.99 71.12 191.99 97.51C191.99 149.62 149.6 192.01 97.49 192.01C45.38 192.01 3 149.61 3 97.5C3 45.39 45.39 3 97.5 3C111.31 3 124.62 5.91 137.06 11.66C137.81 12.01 138.7 11.68 139.05 10.93C139.4 10.18 139.07 9.29 138.32 8.94C125.48 3 111.75 0 97.5 0C43.74 0 0 43.74 0 97.5C0 151.26 43.74 195 97.5 195C151.26 195 195 151.26 195 97.5C195 70.27 183.49 44.09 163.42 25.67ZM70.69 34.83C70.69 32.97 69.18 31.46 67.32 31.46C65.46 31.46 63.95 32.97 63.95 34.83C63.95 36.69 65.46 38.2 67.32 38.2C69.18 38.2 70.69 36.69 70.69 34.83ZM88.29 34.83C88.29 32.97 86.78 31.46 84.92 31.46C83.06 31.46 81.55 32.97 81.55 34.83C81.55 36.69 83.06 38.2 84.92 38.2C86.78 38.2 88.29 36.69 88.29 34.83ZM105.89 34.83C105.89 32.97 104.38 31.46 102.52 31.46C100.66 31.46 99.15 32.97 99.15 34.83C99.15 36.69 100.66 38.2 102.52 38.2C104.38 38.2 105.89 36.69 105.89 34.83ZM36.96 113.47C37.84 113.47 38.56 112.76 38.56 111.88V99.91C38.56 99.03 37.85 98.31 36.96 98.31C36.07 98.31 35.36 99.02 35.36 99.91V111.88C35.36 112.76 36.07 113.47 36.96 113.47ZM32.28 57.09C28.27 57.09 25.01 60.35 25.01 64.36V147.42C25.01 151.43 28.27 154.69 32.28 154.69H162.72C166.73 154.69 169.99 151.43 169.99 147.42V64.36C169.99 60.35 166.73 57.09 162.72 57.09H139.73L158.5 24.59C159.85 22.25 160.21 19.53 159.51 16.92C158.81 14.31 157.14 12.14 154.8 10.79C149.98 8 143.79 9.66 141 14.49L116.4 57.09H32.28ZM45.55 151.49H32.28C30.03 151.49 28.2 149.66 28.2 147.41V64.35C28.2 62.1 30.03 60.27 32.28 60.27H45.55V151.48V151.49ZM162.72 60.28C164.97 60.28 166.8 62.11 166.8 64.36V147.42C166.8 149.67 164.97 151.5 162.72 151.5H48.74V60.28H114.56L95.09 94.01C94.87 94.39 94.82 94.84 94.94 95.26L98.05 105.9L94.61 111.86C94.17 112.62 94.43 113.6 95.19 114.04C95.44 114.19 95.72 114.25 95.99 114.25C96.54 114.25 97.08 113.96 97.37 113.45L100.81 107.49L111.58 104.86C112 104.76 112.37 104.49 112.58 104.11L137.89 60.28H162.73H162.72ZM105.86 81.72L117.83 88.63L110.15 101.93L100.86 104.19L98.18 95.01L105.86 81.71V81.72ZM143.76 16.08C145.67 12.78 149.9 11.64 153.2 13.55C154.8 14.47 155.94 15.96 156.42 17.75C156.9 19.53 156.65 21.4 155.73 22.99L150.39 32.24L138.42 25.33L143.76 16.08ZM148.8 35L119.43 85.87L107.46 78.96L136.83 28.09L148.8 35ZM70.04 71.27H61.33C60.45 71.27 59.73 71.98 59.73 72.87V81.58C59.73 82.46 60.44 83.18 61.33 83.18C62.22 83.18 62.93 82.47 62.93 81.58V74.46H70.05C70.93 74.46 71.65 73.75 71.65 72.86C71.65 71.97 70.94 71.26 70.05 71.26L70.04 71.27ZM70.04 137.32H62.92V130.2C62.92 129.32 62.21 128.6 61.32 128.6C60.43 128.6 59.72 129.31 59.72 130.2V138.91C59.72 139.79 60.43 140.51 61.32 140.51H70.03C70.91 140.51 71.63 139.8 71.63 138.91C71.63 138.02 70.92 137.32 70.03 137.32H70.04ZM145.81 74.46H152.93V81.58C152.93 82.46 153.64 83.18 154.53 83.18C155.42 83.18 156.13 82.47 156.13 81.58V72.87C156.13 71.99 155.42 71.27 154.53 71.27H145.82C144.94 71.27 144.22 71.98 144.22 72.87C144.22 73.76 144.93 74.47 145.82 74.47L145.81 74.46ZM145.81 140.51H154.52C155.4 140.51 156.12 139.8 156.12 138.91V130.2C156.12 129.32 155.41 128.6 154.52 128.6C153.63 128.6 152.92 129.31 152.92 130.2V137.32H145.8C144.92 137.32 144.2 138.03 144.2 138.91C144.2 139.79 144.91 140.51 145.8 140.51H145.81Z" fill="#F1F0F0"/>
</svg>
