<svg xmlns="http://www.w3.org/2000/svg" width="306" height="345" fill="none" xmlns:v="https://vecta.io/nano"><g clip-path="url(#A)"><path fill-rule="evenodd" d="M176.4 340.5a2.22 2.22 0 0 0-2.2 2.2 2.22 2.22 0 0 0 2.2 2.2 2.22 2.22 0 0 0 2.2-2.2 2.22 2.22 0 0 0-2.2-2.2zm-6.7 0a2.22 2.22 0 0 0-2.2 2.2 2.22 2.22 0 0 0 2.2 2.2 2.22 2.22 0 0 0 2.2-2.2 2.22 2.22 0 0 0-2.2-2.2zm0-6.6a2.22 2.22 0 0 0-2.2 2.2 2.22 2.22 0 0 0 2.2 2.2 2.22 2.22 0 0 0 2.2-2.2c0-1.3-1-2.2-2.2-2.2zm-6.7 0a2.22 2.22 0 0 0-2.2 2.2 2.22 2.22 0 0 0 2.2 2.2 2.22 2.22 0 0 0 2.2-2.2c0-1.3-1-2.2-2.2-2.2zm6.7-6.7a2.22 2.22 0 0 0-2.2 2.2 2.22 2.22 0 0 0 2.2 2.2 2.22 2.22 0 0 0 2.2-2.2 2.22 2.22 0 0 0-2.2-2.2zm-6.7 0a2.22 2.22 0 0 0-2.2 2.2 2.22 2.22 0 0 0 2.2 2.2 2.22 2.22 0 0 0 2.2-2.2 2.22 2.22 0 0 0-2.2-2.2zm6.7-6.7a2.22 2.22 0 0 0-2.2 2.2 2.22 2.22 0 0 0 2.2 2.2 2.22 2.22 0 0 0 2.2-2.2 2.22 2.22 0 0 0-2.2-2.2zm-6.7 0a2.22 2.22 0 0 0-2.2 2.2 2.22 2.22 0 0 0 2.2 2.2 2.22 2.22 0 0 0 2.2-2.2 2.22 2.22 0 0 0-2.2-2.2zm-6.7 0a2.22 2.22 0 0 0-2.2 2.2 2.22 2.22 0 0 0 2.2 2.2 2.22 2.22 0 0 0 2.2-2.2 2.22 2.22 0 0 0-2.2-2.2zm13.4-6.7a2.22 2.22 0 0 0-2.2 2.2 2.22 2.22 0 0 0 2.2 2.2 2.22 2.22 0 0 0 2.2-2.2 2.22 2.22 0 0 0-2.2-2.2zm-6.7 0a2.22 2.22 0 0 0-2.2 2.2 2.22 2.22 0 0 0 2.2 2.2 2.22 2.22 0 0 0 2.2-2.2 2.22 2.22 0 0 0-2.2-2.2zm-6.7 0a2.22 2.22 0 0 0-2.2 2.2 2.22 2.22 0 0 0 2.2 2.2 2.22 2.22 0 0 0 2.2-2.2 2.22 2.22 0 0 0-2.2-2.2zm20.1-6.6a2.22 2.22 0 0 0-2.2 2.2 2.22 2.22 0 0 0 2.2 2.2 2.22 2.22 0 0 0 2.2-2.2c0-1.3-1-2.2-2.2-2.2zm-6.7 0a2.22 2.22 0 0 0-2.2 2.2 2.22 2.22 0 0 0 2.2 2.2 2.22 2.22 0 0 0 2.2-2.2c0-1.3-1-2.2-2.2-2.2zm-6.7 0a2.22 2.22 0 0 0-2.2 2.2 2.22 2.22 0 0 0 2.2 2.2 2.22 2.22 0 0 0 2.2-2.2c0-1.3-1-2.2-2.2-2.2zm-6.7 0a2.22 2.22 0 0 0-2.2 2.2 2.22 2.22 0 0 0 2.2 2.2 2.22 2.22 0 0 0 2.2-2.2c0-1.3-1-2.2-2.2-2.2zm26.8-6.7a2.22 2.22 0 0 0-2.2 2.2 2.22 2.22 0 0 0 2.2 2.2 2.22 2.22 0 0 0 2.2-2.2c-.1-1.2-1-2.2-2.2-2.2zm-6.7 0a2.22 2.22 0 0 0-2.2 2.2 2.22 2.22 0 0 0 2.2 2.2 2.22 2.22 0 0 0 2.2-2.2 2.22 2.22 0 0 0-2.2-2.2zm-6.7 0a2.22 2.22 0 0 0-2.2 2.2 2.22 2.22 0 0 0 2.2 2.2 2.22 2.22 0 0 0 2.2-2.2 2.22 2.22 0 0 0-2.2-2.2zm-6.7 0a2.22 2.22 0 0 0-2.2 2.2 2.22 2.22 0 0 0 2.2 2.2 2.22 2.22 0 0 0 2.2-2.2 2.22 2.22 0 0 0-2.2-2.2zm-6.7 0a2.22 2.22 0 0 0-2.2 2.2 2.22 2.22 0 0 0 2.2 2.2 2.22 2.22 0 0 0 2.2-2.2 2.22 2.22 0 0 0-2.2-2.2zm33.5-6.7a2.22 2.22 0 0 0-2.2 2.2 2.22 2.22 0 0 0 2.2 2.2 2.22 2.22 0 0 0 2.2-2.2 2.22 2.22 0 0 0-2.2-2.2zm-6.7 0a2.22 2.22 0 0 0-2.2 2.2 2.22 2.22 0 0 0 2.2 2.2 2.22 2.22 0 0 0 2.2-2.2 2.22 2.22 0 0 0-2.2-2.2zm-6.7 0a2.22 2.22 0 0 0-2.2 2.2 2.22 2.22 0 0 0 2.2 2.2 2.22 2.22 0 0 0 2.2-2.2 2.22 2.22 0 0 0-2.2-2.2zm-6.7 0a2.22 2.22 0 0 0-2.2 2.2 2.22 2.22 0 0 0 2.2 2.2 2.22 2.22 0 0 0 2.2-2.2 2.22 2.22 0 0 0-2.2-2.2zm-6.7 0a2.22 2.22 0 0 0-2.2 2.2 2.22 2.22 0 0 0 2.2 2.2 2.22 2.22 0 0 0 2.2-2.2 2.22 2.22 0 0 0-2.2-2.2zm-6.7 0a2.22 2.22 0 0 0-2.2 2.2 2.22 2.22 0 0 0 2.2 2.2 2.22 2.22 0 0 0 2.2-2.2 2.22 2.22 0 0 0-2.2-2.2zm33.5-6.7a2.22 2.22 0 0 0-2.2 2.2 2.22 2.22 0 0 0 2.2 2.2 2.22 2.22 0 0 0 2.2-2.2c-.1-1.2-1-2.2-2.2-2.2zm-6.7 0a2.22 2.22 0 0 0-2.2 2.2 2.22 2.22 0 0 0 2.2 2.2 2.22 2.22 0 0 0 2.2-2.2c-.1-1.2-1-2.2-2.2-2.2zm-6.7 0a2.22 2.22 0 0 0-2.2 2.2 2.22 2.22 0 0 0 2.2 2.2 2.22 2.22 0 0 0 2.2-2.2 2.22 2.22 0 0 0-2.2-2.2zm-6.7 0a2.22 2.22 0 0 0-2.2 2.2 2.22 2.22 0 0 0 2.2 2.2 2.22 2.22 0 0 0 2.2-2.2 2.22 2.22 0 0 0-2.2-2.2zm-6.7 0a2.22 2.22 0 0 0-2.2 2.2 2.22 2.22 0 0 0 2.2 2.2 2.22 2.22 0 0 0 2.2-2.2 2.22 2.22 0 0 0-2.2-2.2zm-6.7 0a2.22 2.22 0 0 0-2.2 2.2 2.22 2.22 0 0 0 2.2 2.2 2.22 2.22 0 0 0 2.2-2.2 2.22 2.22 0 0 0-2.2-2.2zm40.1-6.6a2.22 2.22 0 0 0-2.2 2.2 2.22 2.22 0 0 0 2.2 2.2 2.22 2.22 0 0 0 2.2-2.2c0-1.3-1-2.2-2.2-2.2zm-6.6 0a2.22 2.22 0 0 0-2.2 2.2 2.22 2.22 0 0 0 2.2 2.2 2.22 2.22 0 0 0 2.2-2.2c-.1-1.3-1-2.2-2.2-2.2zm-6.7 0a2.22 2.22 0 0 0-2.2 2.2 2.22 2.22 0 0 0 2.2 2.2 2.22 2.22 0 0 0 2.2-2.2c-.1-1.3-1-2.2-2.2-2.2zm-6.7 0a2.22 2.22 0 0 0-2.2 2.2 2.22 2.22 0 0 0 2.2 2.2 2.22 2.22 0 0 0 2.2-2.2c0-1.3-1-2.2-2.2-2.2zm-6.7 0a2.22 2.22 0 0 0-2.2 2.2 2.22 2.22 0 0 0 2.2 2.2 2.22 2.22 0 0 0 2.2-2.2c0-1.3-1-2.2-2.2-2.2zm-6.7 0a2.22 2.22 0 0 0-2.2 2.2 2.22 2.22 0 0 0 2.2 2.2 2.22 2.22 0 0 0 2.2-2.2c0-1.3-1-2.2-2.2-2.2zm-6.7 0a2.22 2.22 0 0 0-2.2 2.2 2.22 2.22 0 0 0 2.2 2.2 2.22 2.22 0 0 0 2.2-2.2c0-1.3-1-2.2-2.2-2.2zm-6.6 0a2.22 2.22 0 0 0-2.2 2.2 2.22 2.22 0 0 0 2.2 2.2 2.22 2.22 0 0 0 2.2-2.2c-.1-1.3-1-2.2-2.2-2.2zm46.7-6.7a2.22 2.22 0 0 0-2.2 2.2 2.22 2.22 0 0 0 2.2 2.2 2.22 2.22 0 0 0 2.2-2.2 2.22 2.22 0 0 0-2.2-2.2zm-6.6 0a2.22 2.22 0 0 0-2.2 2.2 2.22 2.22 0 0 0 2.2 2.2 2.22 2.22 0 0 0 2.2-2.2c-.1-1.2-1-2.2-2.2-2.2zm-6.7 0a2.22 2.22 0 0 0-2.2 2.2 2.22 2.22 0 0 0 2.2 2.2 2.22 2.22 0 0 0 2.2-2.2c-.1-1.2-1-2.2-2.2-2.2zm-6.7 0a2.22 2.22 0 0 0-2.2 2.2 2.22 2.22 0 0 0 2.2 2.2 2.22 2.22 0 0 0 2.2-2.2 2.22 2.22 0 0 0-2.2-2.2zm-6.7 0a2.22 2.22 0 0 0-2.2 2.2 2.22 2.22 0 0 0 2.2 2.2 2.22 2.22 0 0 0 2.2-2.2 2.22 2.22 0 0 0-2.2-2.2zm-6.7 0a2.22 2.22 0 0 0-2.2 2.2 2.22 2.22 0 0 0 2.2 2.2 2.22 2.22 0 0 0 2.2-2.2 2.22 2.22 0 0 0-2.2-2.2zm-6.7 0a2.22 2.22 0 0 0-2.2 2.2 2.22 2.22 0 0 0 2.2 2.2 2.22 2.22 0 0 0 2.2-2.2 2.22 2.22 0 0 0-2.2-2.2zm-6.6 0a2.22 2.22 0 0 0-2.2 2.2 2.22 2.22 0 0 0 2.2 2.2 2.22 2.22 0 0 0 2.2-2.2c-.1-1.2-1-2.2-2.2-2.2zm46.7-6.7a2.22 2.22 0 0 0-2.2 2.2 2.22 2.22 0 0 0 2.2 2.2 2.22 2.22 0 0 0 2.2-2.2 2.22 2.22 0 0 0-2.2-2.2zm-6.6 0a2.22 2.22 0 0 0-2.2 2.2 2.22 2.22 0 0 0 2.2 2.2 2.22 2.22 0 0 0 2.2-2.2c-.1-1.2-1-2.2-2.2-2.2zm-6.7 0a2.22 2.22 0 0 0-2.2 2.2 2.22 2.22 0 0 0 2.2 2.2 2.22 2.22 0 0 0 2.2-2.2c-.1-1.2-1-2.2-2.2-2.2zm-6.7 0a2.22 2.22 0 0 0-2.2 2.2 2.22 2.22 0 0 0 2.2 2.2 2.22 2.22 0 0 0 2.2-2.2 2.22 2.22 0 0 0-2.2-2.2zm-6.7 0a2.22 2.22 0 0 0-2.2 2.2 2.22 2.22 0 0 0 2.2 2.2 2.22 2.22 0 0 0 2.2-2.2 2.22 2.22 0 0 0-2.2-2.2zm-6.7 0a2.22 2.22 0 0 0-2.2 2.2 2.22 2.22 0 0 0 2.2 2.2 2.22 2.22 0 0 0 2.2-2.2 2.22 2.22 0 0 0-2.2-2.2zm-6.7 0a2.22 2.22 0 0 0-2.2 2.2 2.22 2.22 0 0 0 2.2 2.2 2.22 2.22 0 0 0 2.2-2.2 2.22 2.22 0 0 0-2.2-2.2zm-6.6 0a2.22 2.22 0 0 0-2.2 2.2 2.22 2.22 0 0 0 2.2 2.2 2.22 2.22 0 0 0 2.2-2.2c-.1-1.2-1-2.2-2.2-2.2zm66.8-6.7a2.22 2.22 0 0 0-2.2 2.2 2.22 2.22 0 0 0 2.2 2.2 2.22 2.22 0 0 0 2.2-2.2 2.22 2.22 0 0 0-2.2-2.2zm-6.7 0a2.22 2.22 0 0 0-2.2 2.2 2.22 2.22 0 0 0 2.2 2.2 2.22 2.22 0 0 0 2.2-2.2 2.22 2.22 0 0 0-2.2-2.2zm-6.7 0a2.22 2.22 0 0 0-2.2 2.2 2.22 2.22 0 0 0 2.2 2.2 2.22 2.22 0 0 0 2.2-2.2 2.22 2.22 0 0 0-2.2-2.2zm-6.7 0a2.22 2.22 0 0 0-2.2 2.2 2.22 2.22 0 0 0 2.2 2.2 2.22 2.22 0 0 0 2.2-2.2 2.22 2.22 0 0 0-2.2-2.2zm-6.6 0a2.22 2.22 0 0 0-2.2 2.2 2.22 2.22 0 0 0 2.2 2.2 2.22 2.22 0 0 0 2.2-2.2c-.1-1.2-1-2.2-2.2-2.2zm-6.7 0a2.22 2.22 0 0 0-2.2 2.2 2.22 2.22 0 0 0 2.2 2.2 2.22 2.22 0 0 0 2.2-2.2c-.1-1.2-1-2.2-2.2-2.2zm-6.7 0a2.22 2.22 0 0 0-2.2 2.2 2.22 2.22 0 0 0 2.2 2.2 2.22 2.22 0 0 0 2.2-2.2 2.22 2.22 0 0 0-2.2-2.2zm-6.7 0a2.22 2.22 0 0 0-2.2 2.2 2.22 2.22 0 0 0 2.2 2.2 2.22 2.22 0 0 0 2.2-2.2 2.22 2.22 0 0 0-2.2-2.2zm-6.7 0a2.22 2.22 0 0 0-2.2 2.2 2.22 2.22 0 0 0 2.2 2.2 2.22 2.22 0 0 0 2.2-2.2 2.22 2.22 0 0 0-2.2-2.2zm-6.7 0a2.22 2.22 0 0 0-2.2 2.2 2.22 2.22 0 0 0 2.2 2.2 2.22 2.22 0 0 0 2.2-2.2 2.22 2.22 0 0 0-2.2-2.2zm-6.6 0a2.22 2.22 0 0 0-2.2 2.2 2.22 2.22 0 0 0 2.2 2.2 2.22 2.22 0 0 0 2.2-2.2c-.1-1.2-1-2.2-2.2-2.2zm66.8-6.6a2.22 2.22 0 0 0-2.2 2.2 2.22 2.22 0 0 0 2.2 2.2 2.22 2.22 0 0 0 2.2-2.2c0-1.3-1-2.2-2.2-2.2zm-6.7 0a2.22 2.22 0 0 0-2.2 2.2 2.22 2.22 0 0 0 2.2 2.2 2.22 2.22 0 0 0 2.2-2.2c0-1.3-1-2.2-2.2-2.2zm-6.7 0a2.22 2.22 0 0 0-2.2 2.2 2.22 2.22 0 0 0 2.2 2.2 2.22 2.22 0 0 0 2.2-2.2c0-1.3-1-2.2-2.2-2.2zm-6.7 0a2.22 2.22 0 0 0-2.2 2.2 2.22 2.22 0 0 0 2.2 2.2 2.22 2.22 0 0 0 2.2-2.2c0-1.3-1-2.2-2.2-2.2zm-6.6 0a2.22 2.22 0 0 0-2.2 2.2 2.22 2.22 0 0 0 2.2 2.2 2.22 2.22 0 0 0 2.2-2.2c-.1-1.3-1-2.2-2.2-2.2zm-6.7 0a2.22 2.22 0 0 0-2.2 2.2 2.22 2.22 0 0 0 2.2 2.2 2.22 2.22 0 0 0 2.2-2.2c-.1-1.3-1-2.2-2.2-2.2zm-6.7 0a2.22 2.22 0 0 0-2.2 2.2 2.22 2.22 0 0 0 2.2 2.2 2.22 2.22 0 0 0 2.2-2.2c0-1.3-1-2.2-2.2-2.2zm-6.7 0a2.22 2.22 0 0 0-2.2 2.2 2.22 2.22 0 0 0 2.2 2.2 2.22 2.22 0 0 0 2.2-2.2c0-1.3-1-2.2-2.2-2.2zm-6.7 0a2.22 2.22 0 0 0-2.2 2.2 2.22 2.22 0 0 0 2.2 2.2 2.22 2.22 0 0 0 2.2-2.2c0-1.3-1-2.2-2.2-2.2zm-6.7 0a2.22 2.22 0 0 0-2.2 2.2 2.22 2.22 0 0 0 2.2 2.2 2.22 2.22 0 0 0 2.2-2.2c0-1.3-1-2.2-2.2-2.2zm-6.6 0a2.22 2.22 0 0 0-2.2 2.2 2.22 2.22 0 0 0 2.2 2.2 2.22 2.22 0 0 0 2.2-2.2c-.1-1.3-1-2.2-2.2-2.2zm66.8-6.7a2.22 2.22 0 0 0-2.2 2.2 2.22 2.22 0 0 0 2.2 2.2 2.22 2.22 0 0 0 2.2-2.2 2.22 2.22 0 0 0-2.2-2.2zm-6.7 0a2.22 2.22 0 0 0-2.2 2.2 2.22 2.22 0 0 0 2.2 2.2 2.22 2.22 0 0 0 2.2-2.2 2.22 2.22 0 0 0-2.2-2.2zm-6.7 0a2.22 2.22 0 0 0-2.2 2.2 2.22 2.22 0 0 0 2.2 2.2 2.22 2.22 0 0 0 2.2-2.2 2.22 2.22 0 0 0-2.2-2.2zm-6.7 0a2.22 2.22 0 0 0-2.2 2.2 2.22 2.22 0 0 0 2.2 2.2 2.22 2.22 0 0 0 2.2-2.2 2.22 2.22 0 0 0-2.2-2.2zm-6.6 0a2.22 2.22 0 0 0-2.2 2.2 2.22 2.22 0 0 0 2.2 2.2 2.22 2.22 0 0 0 2.2-2.2c-.1-1.2-1-2.2-2.2-2.2zm-6.7 0a2.22 2.22 0 0 0-2.2 2.2 2.22 2.22 0 0 0 2.2 2.2 2.22 2.22 0 0 0 2.2-2.2c-.1-1.2-1-2.2-2.2-2.2zm-6.7 0a2.22 2.22 0 0 0-2.2 2.2 2.22 2.22 0 0 0 2.2 2.2 2.22 2.22 0 0 0 2.2-2.2 2.22 2.22 0 0 0-2.2-2.2zm-6.7 0a2.22 2.22 0 0 0-2.2 2.2 2.22 2.22 0 0 0 2.2 2.2 2.22 2.22 0 0 0 2.2-2.2 2.22 2.22 0 0 0-2.2-2.2zm-6.7 0a2.22 2.22 0 0 0-2.2 2.2 2.22 2.22 0 0 0 2.2 2.2 2.22 2.22 0 0 0 2.2-2.2 2.22 2.22 0 0 0-2.2-2.2zm-6.7 0a2.22 2.22 0 0 0-2.2 2.2 2.22 2.22 0 0 0 2.2 2.2 2.22 2.22 0 0 0 2.2-2.2 2.22 2.22 0 0 0-2.2-2.2zm-6.6 0a2.22 2.22 0 0 0-2.2 2.2 2.22 2.22 0 0 0 2.2 2.2 2.22 2.22 0 0 0 2.2-2.2c-.1-1.2-1-2.2-2.2-2.2zm73.5-6.7a2.22 2.22 0 0 0-2.2 2.2 2.22 2.22 0 0 0 2.2 2.2 2.22 2.22 0 0 0 2.2-2.2c-.1-1.2-1-2.2-2.2-2.2zm-6.7 0a2.22 2.22 0 0 0-2.2 2.2 2.22 2.22 0 0 0 2.2 2.2 2.22 2.22 0 0 0 2.2-2.2 2.22 2.22 0 0 0-2.2-2.2zm-6.7 0a2.22 2.22 0 0 0-2.2 2.2 2.22 2.22 0 0 0 2.2 2.2 2.22 2.22 0 0 0 2.2-2.2 2.22 2.22 0 0 0-2.2-2.2zm-6.7 0a2.22 2.22 0 0 0-2.2 2.2 2.22 2.22 0 0 0 2.2 2.2 2.22 2.22 0 0 0 2.2-2.2 2.22 2.22 0 0 0-2.2-2.2zm-6.7 0a2.22 2.22 0 0 0-2.2 2.2 2.22 2.22 0 0 0 2.2 2.2 2.22 2.22 0 0 0 2.2-2.2 2.22 2.22 0 0 0-2.2-2.2zm-6.6 0a2.22 2.22 0 0 0-2.2 2.2 2.22 2.22 0 0 0 2.2 2.2 2.22 2.22 0 0 0 2.2-2.2c-.1-1.2-1-2.2-2.2-2.2zm-6.7 0a2.22 2.22 0 0 0-2.2 2.2 2.22 2.22 0 0 0 2.2 2.2 2.22 2.22 0 0 0 2.2-2.2c-.1-1.2-1-2.2-2.2-2.2zm-6.7 0a2.22 2.22 0 0 0-2.2 2.2 2.22 2.22 0 0 0 2.2 2.2 2.22 2.22 0 0 0 2.2-2.2 2.22 2.22 0 0 0-2.2-2.2zm-6.7 0a2.22 2.22 0 0 0-2.2 2.2 2.22 2.22 0 0 0 2.2 2.2 2.22 2.22 0 0 0 2.2-2.2 2.22 2.22 0 0 0-2.2-2.2zm-6.7 0a2.22 2.22 0 0 0-2.2 2.2 2.22 2.22 0 0 0 2.2 2.2 2.22 2.22 0 0 0 2.2-2.2 2.22 2.22 0 0 0-2.2-2.2zm-6.7 0a2.22 2.22 0 0 0-2.2 2.2 2.22 2.22 0 0 0 2.2 2.2 2.22 2.22 0 0 0 2.2-2.2 2.22 2.22 0 0 0-2.2-2.2zm-6.6 0a2.22 2.22 0 0 0-2.2 2.2 2.22 2.22 0 0 0 2.2 2.2 2.22 2.22 0 0 0 2.2-2.2c-.1-1.2-1-2.2-2.2-2.2zm-6.7 0a2.22 2.22 0 0 0-2.2 2.2 2.22 2.22 0 0 0 2.2 2.2 2.22 2.22 0 0 0 2.2-2.2 2.22 2.22 0 0 0-2.2-2.2zm-6.7 0a2.22 2.22 0 0 0-2.2 2.2 2.22 2.22 0 0 0 2.2 2.2 2.22 2.22 0 0 0 2.2-2.2 2.22 2.22 0 0 0-2.2-2.2zm86.9-6.7a2.22 2.22 0 0 0-2.2 2.2 2.22 2.22 0 0 0 2.2 2.2 2.22 2.22 0 0 0 2.2-2.2c-.1-1.2-1-2.2-2.2-2.2zm-6.7 0a2.22 2.22 0 0 0-2.2 2.2 2.22 2.22 0 0 0 2.2 2.2 2.22 2.22 0 0 0 2.2-2.2 2.22 2.22 0 0 0-2.2-2.2zm-6.7 0a2.22 2.22 0 0 0-2.2 2.2 2.22 2.22 0 0 0 2.2 2.2 2.22 2.22 0 0 0 2.2-2.2 2.22 2.22 0 0 0-2.2-2.2zm-6.7 0a2.22 2.22 0 0 0-2.2 2.2 2.22 2.22 0 0 0 2.2 2.2 2.22 2.22 0 0 0 2.2-2.2 2.22 2.22 0 0 0-2.2-2.2zm-6.7 0a2.22 2.22 0 0 0-2.2 2.2 2.22 2.22 0 0 0 2.2 2.2 2.22 2.22 0 0 0 2.2-2.2 2.22 2.22 0 0 0-2.2-2.2zm-6.6 0a2.22 2.22 0 0 0-2.2 2.2 2.22 2.22 0 0 0 2.2 2.2 2.22 2.22 0 0 0 2.2-2.2c-.1-1.2-1-2.2-2.2-2.2zm-6.7 0a2.22 2.22 0 0 0-2.2 2.2 2.22 2.22 0 0 0 2.2 2.2 2.22 2.22 0 0 0 2.2-2.2c-.1-1.2-1-2.2-2.2-2.2zm-6.7 0a2.22 2.22 0 0 0-2.2 2.2 2.22 2.22 0 0 0 2.2 2.2 2.22 2.22 0 0 0 2.2-2.2 2.22 2.22 0 0 0-2.2-2.2zm-6.7 0a2.22 2.22 0 0 0-2.2 2.2 2.22 2.22 0 0 0 2.2 2.2 2.22 2.22 0 0 0 2.2-2.2 2.22 2.22 0 0 0-2.2-2.2zm-6.7 0a2.22 2.22 0 0 0-2.2 2.2 2.22 2.22 0 0 0 2.2 2.2 2.22 2.22 0 0 0 2.2-2.2 2.22 2.22 0 0 0-2.2-2.2zm-6.7 0a2.22 2.22 0 0 0-2.2 2.2 2.22 2.22 0 0 0 2.2 2.2 2.22 2.22 0 0 0 2.2-2.2 2.22 2.22 0 0 0-2.2-2.2zm-6.6 0a2.22 2.22 0 0 0-2.2 2.2 2.22 2.22 0 0 0 2.2 2.2 2.22 2.22 0 0 0 2.2-2.2c-.1-1.2-1-2.2-2.2-2.2zm-6.7 0a2.22 2.22 0 0 0-2.2 2.2 2.22 2.22 0 0 0 2.2 2.2 2.22 2.22 0 0 0 2.2-2.2 2.22 2.22 0 0 0-2.2-2.2zm-6.7 0a2.22 2.22 0 0 0-2.2 2.2 2.22 2.22 0 0 0 2.2 2.2 2.22 2.22 0 0 0 2.2-2.2 2.22 2.22 0 0 0-2.2-2.2zm-6.7 0a2.22 2.22 0 0 0-2.2 2.2 2.22 2.22 0 0 0 2.2 2.2 2.22 2.22 0 0 0 2.2-2.2 2.22 2.22 0 0 0-2.2-2.2zm93.6-6.6a2.22 2.22 0 0 0-2.2 2.2 2.22 2.22 0 0 0 2.2 2.2 2.22 2.22 0 0 0 2.2-2.2c-.1-1.3-1-2.2-2.2-2.2zm-6.7 0a2.22 2.22 0 0 0-2.2 2.2 2.22 2.22 0 0 0 2.2 2.2 2.22 2.22 0 0 0 2.2-2.2c0-1.3-1-2.2-2.2-2.2zm-6.7 0a2.22 2.22 0 0 0-2.2 2.2 2.22 2.22 0 0 0 2.2 2.2 2.22 2.22 0 0 0 2.2-2.2c0-1.3-1-2.2-2.2-2.2zm-6.7 0a2.22 2.22 0 0 0-2.2 2.2 2.22 2.22 0 0 0 2.2 2.2 2.22 2.22 0 0 0 2.2-2.2c0-1.3-1-2.2-2.2-2.2zm-6.7 0a2.22 2.22 0 0 0-2.2 2.2 2.22 2.22 0 0 0 2.2 2.2 2.22 2.22 0 0 0 2.2-2.2c0-1.3-1-2.2-2.2-2.2zm-6.6 0a2.22 2.22 0 0 0-2.2 2.2 2.22 2.22 0 0 0 2.2 2.2 2.22 2.22 0 0 0 2.2-2.2c-.1-1.3-1-2.2-2.2-2.2zm-6.7 0a2.22 2.22 0 0 0-2.2 2.2 2.22 2.22 0 0 0 2.2 2.2 2.22 2.22 0 0 0 2.2-2.2c-.1-1.3-1-2.2-2.2-2.2zm-6.7 0a2.22 2.22 0 0 0-2.2 2.2 2.22 2.22 0 0 0 2.2 2.2 2.22 2.22 0 0 0 2.2-2.2c0-1.3-1-2.2-2.2-2.2zm-6.7 0a2.22 2.22 0 0 0-2.2 2.2 2.22 2.22 0 0 0 2.2 2.2 2.22 2.22 0 0 0 2.2-2.2c0-1.3-1-2.2-2.2-2.2zm-6.7 0a2.22 2.22 0 0 0-2.2 2.2 2.22 2.22 0 0 0 2.2 2.2 2.22 2.22 0 0 0 2.2-2.2c0-1.3-1-2.2-2.2-2.2zm-6.7 0a2.22 2.22 0 0 0-2.2 2.2 2.22 2.22 0 0 0 2.2 2.2 2.22 2.22 0 0 0 2.2-2.2c0-1.3-1-2.2-2.2-2.2zm-6.6 0a2.22 2.22 0 0 0-2.2 2.2 2.22 2.22 0 0 0 2.2 2.2 2.22 2.22 0 0 0 2.2-2.2c-.1-1.3-1-2.2-2.2-2.2zm-6.7 0a2.22 2.22 0 0 0-2.2 2.2 2.22 2.22 0 0 0 2.2 2.2 2.22 2.22 0 0 0 2.2-2.2c0-1.3-1-2.2-2.2-2.2zm-6.7 0a2.22 2.22 0 0 0-2.2 2.2 2.22 2.22 0 0 0 2.2 2.2 2.22 2.22 0 0 0 2.2-2.2c0-1.3-1-2.2-2.2-2.2zm-6.7 0a2.22 2.22 0 0 0-2.2 2.2 2.22 2.22 0 0 0 2.2 2.2 2.22 2.22 0 0 0 2.2-2.2c0-1.3-1-2.2-2.2-2.2zm100.2-6.7a2.22 2.22 0 0 0-2.2 2.2 2.22 2.22 0 0 0 2.2 2.2 2.22 2.22 0 0 0 2.2-2.2 2.22 2.22 0 0 0-2.2-2.2zm-6.6 0a2.22 2.22 0 0 0-2.2 2.2 2.22 2.22 0 0 0 2.2 2.2 2.22 2.22 0 0 0 2.2-2.2c-.1-1.2-1-2.2-2.2-2.2zm-6.7 0a2.22 2.22 0 0 0-2.2 2.2 2.22 2.22 0 0 0 2.2 2.2 2.22 2.22 0 0 0 2.2-2.2 2.22 2.22 0 0 0-2.2-2.2zm-6.7 0a2.22 2.22 0 0 0-2.2 2.2 2.22 2.22 0 0 0 2.2 2.2 2.22 2.22 0 0 0 2.2-2.2 2.22 2.22 0 0 0-2.2-2.2zm-6.7 0a2.22 2.22 0 0 0-2.2 2.2 2.22 2.22 0 0 0 2.2 2.2 2.22 2.22 0 0 0 2.2-2.2 2.22 2.22 0 0 0-2.2-2.2zm-6.7 0a2.22 2.22 0 0 0-2.2 2.2 2.22 2.22 0 0 0 2.2 2.2 2.22 2.22 0 0 0 2.2-2.2 2.22 2.22 0 0 0-2.2-2.2zm-6.6 0a2.22 2.22 0 0 0-2.2 2.2 2.22 2.22 0 0 0 2.2 2.2 2.22 2.22 0 0 0 2.2-2.2c-.1-1.2-1-2.2-2.2-2.2zm-6.7 0a2.22 2.22 0 0 0-2.2 2.2 2.22 2.22 0 0 0 2.2 2.2 2.22 2.22 0 0 0 2.2-2.2c-.1-1.2-1-2.2-2.2-2.2zm-6.7 0a2.22 2.22 0 0 0-2.2 2.2 2.22 2.22 0 0 0 2.2 2.2 2.22 2.22 0 0 0 2.2-2.2 2.22 2.22 0 0 0-2.2-2.2zm-6.7 0a2.22 2.22 0 0 0-2.2 2.2 2.22 2.22 0 0 0 2.2 2.2 2.22 2.22 0 0 0 2.2-2.2 2.22 2.22 0 0 0-2.2-2.2zm-6.7 0a2.22 2.22 0 0 0-2.2 2.2 2.22 2.22 0 0 0 2.2 2.2 2.22 2.22 0 0 0 2.2-2.2 2.22 2.22 0 0 0-2.2-2.2zm-6.7 0a2.22 2.22 0 0 0-2.2 2.2 2.22 2.22 0 0 0 2.2 2.2 2.22 2.22 0 0 0 2.2-2.2 2.22 2.22 0 0 0-2.2-2.2zm-6.6 0a2.22 2.22 0 0 0-2.2 2.2 2.22 2.22 0 0 0 2.2 2.2 2.22 2.22 0 0 0 2.2-2.2c-.1-1.2-1-2.2-2.2-2.2zm-6.7 0a2.22 2.22 0 0 0-2.2 2.2 2.22 2.22 0 0 0 2.2 2.2 2.22 2.22 0 0 0 2.2-2.2 2.22 2.22 0 0 0-2.2-2.2zm-6.7 0a2.22 2.22 0 0 0-2.2 2.2 2.22 2.22 0 0 0 2.2 2.2 2.22 2.22 0 0 0 2.2-2.2 2.22 2.22 0 0 0-2.2-2.2zm-6.7 0a2.22 2.22 0 0 0-2.2 2.2 2.22 2.22 0 0 0 2.2 2.2 2.22 2.22 0 0 0 2.2-2.2 2.22 2.22 0 0 0-2.2-2.2zm-6.7 0a2.22 2.22 0 0 0-2.2 2.2 2.22 2.22 0 0 0 2.2 2.2 2.22 2.22 0 0 0 2.2-2.2 2.22 2.22 0 0 0-2.2-2.2zm100.3-6.7a2.22 2.22 0 0 0-2.2 2.2 2.22 2.22 0 0 0 2.2 2.2 2.22 2.22 0 0 0 2.2-2.2c-.1-1.2-1-2.2-2.2-2.2zm-6.7 0a2.22 2.22 0 0 0-2.2 2.2 2.22 2.22 0 0 0 2.2 2.2 2.22 2.22 0 0 0 2.2-2.2 2.22 2.22 0 0 0-2.2-2.2zm-6.7 0a2.22 2.22 0 0 0-2.2 2.2 2.22 2.22 0 0 0 2.2 2.2 2.22 2.22 0 0 0 2.2-2.2 2.22 2.22 0 0 0-2.2-2.2zm-6.7 0a2.22 2.22 0 0 0-2.2 2.2 2.22 2.22 0 0 0 2.2 2.2 2.22 2.22 0 0 0 2.2-2.2 2.22 2.22 0 0 0-2.2-2.2zm-6.7 0a2.22 2.22 0 0 0-2.2 2.2 2.22 2.22 0 0 0 2.2 2.2 2.22 2.22 0 0 0 2.2-2.2 2.22 2.22 0 0 0-2.2-2.2zm-6.6 0a2.22 2.22 0 0 0-2.2 2.2 2.22 2.22 0 0 0 2.2 2.2 2.22 2.22 0 0 0 2.2-2.2c-.1-1.2-1-2.2-2.2-2.2zm-6.7 0a2.22 2.22 0 0 0-2.2 2.2 2.22 2.22 0 0 0 2.2 2.2 2.22 2.22 0 0 0 2.2-2.2c-.1-1.2-1-2.2-2.2-2.2zm-6.7 0a2.22 2.22 0 0 0-2.2 2.2 2.22 2.22 0 0 0 2.2 2.2 2.22 2.22 0 0 0 2.2-2.2 2.22 2.22 0 0 0-2.2-2.2zm-6.7 0a2.22 2.22 0 0 0-2.2 2.2 2.22 2.22 0 0 0 2.2 2.2 2.22 2.22 0 0 0 2.2-2.2 2.22 2.22 0 0 0-2.2-2.2zm-6.7 0a2.22 2.22 0 0 0-2.2 2.2 2.22 2.22 0 0 0 2.2 2.2 2.22 2.22 0 0 0 2.2-2.2 2.22 2.22 0 0 0-2.2-2.2zm-6.7 0a2.22 2.22 0 0 0-2.2 2.2 2.22 2.22 0 0 0 2.2 2.2 2.22 2.22 0 0 0 2.2-2.2 2.22 2.22 0 0 0-2.2-2.2zm-6.6 0a2.22 2.22 0 0 0-2.2 2.2 2.22 2.22 0 0 0 2.2 2.2 2.22 2.22 0 0 0 2.2-2.2c-.1-1.2-1-2.2-2.2-2.2zm-6.7 0a2.22 2.22 0 0 0-2.2 2.2 2.22 2.22 0 0 0 2.2 2.2 2.22 2.22 0 0 0 2.2-2.2 2.22 2.22 0 0 0-2.2-2.2zm-6.7 0a2.22 2.22 0 0 0-2.2 2.2 2.22 2.22 0 0 0 2.2 2.2 2.22 2.22 0 0 0 2.2-2.2 2.22 2.22 0 0 0-2.2-2.2zm-6.7 0a2.22 2.22 0 0 0-2.2 2.2 2.22 2.22 0 0 0 2.2 2.2 2.22 2.22 0 0 0 2.2-2.2 2.22 2.22 0 0 0-2.2-2.2zm-6.7 0a2.22 2.22 0 0 0-2.2 2.2 2.22 2.22 0 0 0 2.2 2.2 2.22 2.22 0 0 0 2.2-2.2 2.22 2.22 0 0 0-2.2-2.2zm93.6-6.7a2.22 2.22 0 0 0-2.2 2.2 2.22 2.22 0 0 0 2.2 2.2 2.22 2.22 0 0 0 2.2-2.2 2.22 2.22 0 0 0-2.2-2.2zm-6.7 0a2.22 2.22 0 0 0-2.2 2.2 2.22 2.22 0 0 0 2.2 2.2 2.22 2.22 0 0 0 2.2-2.2 2.22 2.22 0 0 0-2.2-2.2zm-6.7 0a2.22 2.22 0 0 0-2.2 2.2 2.22 2.22 0 0 0 2.2 2.2 2.22 2.22 0 0 0 2.2-2.2 2.22 2.22 0 0 0-2.2-2.2zm-6.7 0a2.22 2.22 0 0 0-2.2 2.2 2.22 2.22 0 0 0 2.2 2.2 2.22 2.22 0 0 0 2.2-2.2 2.22 2.22 0 0 0-2.2-2.2zm-6.6 0a2.22 2.22 0 0 0-2.2 2.2 2.22 2.22 0 0 0 2.2 2.2 2.22 2.22 0 0 0 2.2-2.2 2.22 2.22 0 0 0-2.2-2.2zm-6.7 0a2.22 2.22 0 0 0-2.2 2.2 2.22 2.22 0 0 0 2.2 2.2 2.22 2.22 0 0 0 2.2-2.2 2.22 2.22 0 0 0-2.2-2.2zm-6.7 0a2.22 2.22 0 0 0-2.2 2.2 2.22 2.22 0 0 0 2.2 2.2 2.22 2.22 0 0 0 2.2-2.2 2.22 2.22 0 0 0-2.2-2.2zm-6.7 0a2.22 2.22 0 0 0-2.2 2.2 2.22 2.22 0 0 0 2.2 2.2 2.22 2.22 0 0 0 2.2-2.2 2.22 2.22 0 0 0-2.2-2.2zm-6.7 0a2.22 2.22 0 0 0-2.2 2.2 2.22 2.22 0 0 0 2.2 2.2 2.22 2.22 0 0 0 2.2-2.2 2.22 2.22 0 0 0-2.2-2.2zm-6.7 0a2.22 2.22 0 0 0-2.2 2.2 2.22 2.22 0 0 0 2.2 2.2 2.22 2.22 0 0 0 2.2-2.2 2.22 2.22 0 0 0-2.2-2.2zm-6.6 0a2.22 2.22 0 0 0-2.2 2.2 2.22 2.22 0 0 0 2.2 2.2 2.22 2.22 0 0 0 2.2-2.2 2.22 2.22 0 0 0-2.2-2.2zm-6.7 0a2.22 2.22 0 0 0-2.2 2.2 2.22 2.22 0 0 0 2.2 2.2 2.22 2.22 0 0 0 2.2-2.2 2.22 2.22 0 0 0-2.2-2.2zm-6.7 0a2.22 2.22 0 0 0-2.2 2.2 2.22 2.22 0 0 0 2.2 2.2 2.22 2.22 0 0 0 2.2-2.2 2.22 2.22 0 0 0-2.2-2.2zm-6.7 0a2.22 2.22 0 0 0-2.2 2.2 2.22 2.22 0 0 0 2.2 2.2 2.22 2.22 0 0 0 2.2-2.2 2.22 2.22 0 0 0-2.2-2.2zm-6.7 0a2.22 2.22 0 0 0-2.2 2.2 2.22 2.22 0 0 0 2.2 2.2 2.22 2.22 0 0 0 2.2-2.2 2.22 2.22 0 0 0-2.2-2.2zm73.5-6.6a2.22 2.22 0 0 0-2.2 2.2 2.22 2.22 0 0 0 2.2 2.2 2.22 2.22 0 0 0 2.2-2.2c0-1.3-1-2.2-2.2-2.2zm-6.6 0a2.22 2.22 0 0 0-2.2 2.2 2.22 2.22 0 0 0 2.2 2.2 2.22 2.22 0 0 0 2.2-2.2c-.1-1.3-1-2.2-2.2-2.2zm-6.7 0a2.22 2.22 0 0 0-2.2 2.2 2.22 2.22 0 0 0 2.2 2.2 2.22 2.22 0 0 0 2.2-2.2c-.1-1.3-1-2.2-2.2-2.2zm-6.7 0a2.22 2.22 0 0 0-2.2 2.2 2.22 2.22 0 0 0 2.2 2.2 2.22 2.22 0 0 0 2.2-2.2c0-1.3-1-2.2-2.2-2.2zm-6.7 0a2.22 2.22 0 0 0-2.2 2.2 2.22 2.22 0 0 0 2.2 2.2 2.22 2.22 0 0 0 2.2-2.2c0-1.3-1-2.2-2.2-2.2zm-6.7 0a2.22 2.22 0 0 0-2.2 2.2 2.22 2.22 0 0 0 2.2 2.2 2.22 2.22 0 0 0 2.2-2.2c0-1.3-1-2.2-2.2-2.2zm-6.7 0a2.22 2.22 0 0 0-2.2 2.2 2.22 2.22 0 0 0 2.2 2.2 2.22 2.22 0 0 0 2.2-2.2c0-1.3-1-2.2-2.2-2.2zm-6.6 0a2.22 2.22 0 0 0-2.2 2.2 2.22 2.22 0 0 0 2.2 2.2 2.22 2.22 0 0 0 2.2-2.2c-.1-1.3-1-2.2-2.2-2.2zm-6.7 0a2.22 2.22 0 0 0-2.2 2.2 2.22 2.22 0 0 0 2.2 2.2 2.22 2.22 0 0 0 2.2-2.2c0-1.3-1-2.2-2.2-2.2zm-6.7 0a2.22 2.22 0 0 0-2.2 2.2 2.22 2.22 0 0 0 2.2 2.2 2.22 2.22 0 0 0 2.2-2.2c0-1.3-1-2.2-2.2-2.2zm-6.7 0a2.22 2.22 0 0 0-2.2 2.2 2.22 2.22 0 0 0 2.2 2.2 2.22 2.22 0 0 0 2.2-2.2c0-1.3-1-2.2-2.2-2.2zm-6.7 0a2.22 2.22 0 0 0-2.2 2.2 2.22 2.22 0 0 0 2.2 2.2 2.22 2.22 0 0 0 2.2-2.2c0-1.3-1-2.2-2.2-2.2zm66.9-6.7a2.22 2.22 0 0 0-2.2 2.2 2.22 2.22 0 0 0 2.2 2.2 2.22 2.22 0 0 0 2.2-2.2c-.1-1.2-1-2.2-2.2-2.2zm-6.7 0a2.22 2.22 0 0 0-2.2 2.2 2.22 2.22 0 0 0 2.2 2.2 2.22 2.22 0 0 0 2.2-2.2c-.1-1.2-1-2.2-2.2-2.2zm-6.7 0a2.22 2.22 0 0 0-2.2 2.2 2.22 2.22 0 0 0 2.2 2.2 2.22 2.22 0 0 0 2.2-2.2 2.22 2.22 0 0 0-2.2-2.2zm-6.7 0a2.22 2.22 0 0 0-2.2 2.2 2.22 2.22 0 0 0 2.2 2.2 2.22 2.22 0 0 0 2.2-2.2 2.22 2.22 0 0 0-2.2-2.2zm-6.7 0a2.22 2.22 0 0 0-2.2 2.2 2.22 2.22 0 0 0 2.2 2.2 2.22 2.22 0 0 0 2.2-2.2 2.22 2.22 0 0 0-2.2-2.2zm-6.7 0a2.22 2.22 0 0 0-2.2 2.2 2.22 2.22 0 0 0 2.2 2.2 2.22 2.22 0 0 0 2.2-2.2 2.22 2.22 0 0 0-2.2-2.2zm-6.6 0a2.22 2.22 0 0 0-2.2 2.2 2.22 2.22 0 0 0 2.2 2.2 2.22 2.22 0 0 0 2.2-2.2c-.1-1.2-1-2.2-2.2-2.2zm-6.7 0a2.22 2.22 0 0 0-2.2 2.2 2.22 2.22 0 0 0 2.2 2.2 2.22 2.22 0 0 0 2.2-2.2 2.22 2.22 0 0 0-2.2-2.2zm-6.7 0a2.22 2.22 0 0 0-2.2 2.2 2.22 2.22 0 0 0 2.2 2.2 2.22 2.22 0 0 0 2.2-2.2 2.22 2.22 0 0 0-2.2-2.2zm-6.7 0a2.22 2.22 0 0 0-2.2 2.2 2.22 2.22 0 0 0 2.2 2.2 2.22 2.22 0 0 0 2.2-2.2 2.22 2.22 0 0 0-2.2-2.2zm53.5-6.7a2.22 2.22 0 0 0-2.2 2.2 2.22 2.22 0 0 0 2.2 2.2 2.22 2.22 0 0 0 2.2-2.2c-.1-1.2-1-2.2-2.2-2.2zm-6.7 0a2.22 2.22 0 0 0-2.2 2.2 2.22 2.22 0 0 0 2.2 2.2 2.22 2.22 0 0 0 2.2-2.2 2.22 2.22 0 0 0-2.2-2.2zm-6.7 0a2.22 2.22 0 0 0-2.2 2.2 2.22 2.22 0 0 0 2.2 2.2 2.22 2.22 0 0 0 2.2-2.2 2.22 2.22 0 0 0-2.2-2.2zm-6.7 0a2.22 2.22 0 0 0-2.2 2.2 2.22 2.22 0 0 0 2.2 2.2 2.22 2.22 0 0 0 2.2-2.2 2.22 2.22 0 0 0-2.2-2.2zm-6.7 0a2.22 2.22 0 0 0-2.2 2.2 2.22 2.22 0 0 0 2.2 2.2 2.22 2.22 0 0 0 2.2-2.2 2.22 2.22 0 0 0-2.2-2.2zm-6.6 0a2.22 2.22 0 0 0-2.2 2.2 2.22 2.22 0 0 0 2.2 2.2 2.22 2.22 0 0 0 2.2-2.2c-.1-1.2-1-2.2-2.2-2.2zm-6.7 0a2.22 2.22 0 0 0-2.2 2.2 2.22 2.22 0 0 0 2.2 2.2 2.22 2.22 0 0 0 2.2-2.2 2.22 2.22 0 0 0-2.2-2.2zm-6.7 0a2.22 2.22 0 0 0-2.2 2.2 2.22 2.22 0 0 0 2.2 2.2 2.22 2.22 0 0 0 2.2-2.2 2.22 2.22 0 0 0-2.2-2.2zm-6.7 0a2.22 2.22 0 0 0-2.2 2.2 2.22 2.22 0 0 0 2.2 2.2 2.22 2.22 0 0 0 2.2-2.2 2.22 2.22 0 0 0-2.2-2.2zm40.1-6.7a2.22 2.22 0 0 0-2.2 2.2 2.22 2.22 0 0 0 2.2 2.2 2.22 2.22 0 0 0 2.2-2.2 2.22 2.22 0 0 0-2.2-2.2zm-6.7 0a2.22 2.22 0 0 0-2.2 2.2 2.22 2.22 0 0 0 2.2 2.2 2.22 2.22 0 0 0 2.2-2.2 2.22 2.22 0 0 0-2.2-2.2zm-6.7 0a2.22 2.22 0 0 0-2.2 2.2 2.22 2.22 0 0 0 2.2 2.2 2.22 2.22 0 0 0 2.2-2.2 2.22 2.22 0 0 0-2.2-2.2zm-6.6 0a2.22 2.22 0 0 0-2.2 2.2 2.22 2.22 0 0 0 2.2 2.2 2.22 2.22 0 0 0 2.2-2.2c-.1-1.2-1-2.2-2.2-2.2zm-6.7 0a2.22 2.22 0 0 0-2.2 2.2 2.22 2.22 0 0 0 2.2 2.2 2.22 2.22 0 0 0 2.2-2.2 2.22 2.22 0 0 0-2.2-2.2zm-6.7 0a2.22 2.22 0 0 0-2.2 2.2 2.22 2.22 0 0 0 2.2 2.2 2.22 2.22 0 0 0 2.2-2.2 2.22 2.22 0 0 0-2.2-2.2zm-6.7 0a2.22 2.22 0 0 0-2.2 2.2 2.22 2.22 0 0 0 2.2 2.2 2.22 2.22 0 0 0 2.2-2.2 2.22 2.22 0 0 0-2.2-2.2zm-13.3 0a2.22 2.22 0 0 0-2.2 2.2 2.22 2.22 0 0 0 2.2 2.2 2.22 2.22 0 0 0 2.2-2.2c-.1-1.2-1-2.2-2.2-2.2zm53.4-6.6a2.22 2.22 0 0 0-2.2 2.2 2.22 2.22 0 0 0 2.2 2.2 2.22 2.22 0 0 0 2.2-2.2c0-1.3-1-2.2-2.2-2.2zm-6.7 0a2.22 2.22 0 0 0-2.2 2.2 2.22 2.22 0 0 0 2.2 2.2 2.22 2.22 0 0 0 2.2-2.2c0-1.3-1-2.2-2.2-2.2zm-6.7 0a2.22 2.22 0 0 0-2.2 2.2 2.22 2.22 0 0 0 2.2 2.2 2.22 2.22 0 0 0 2.2-2.2c0-1.3-1-2.2-2.2-2.2zm-6.6 0a2.22 2.22 0 0 0-2.2 2.2 2.22 2.22 0 0 0 2.2 2.2 2.22 2.22 0 0 0 2.2-2.2c-.1-1.3-1-2.2-2.2-2.2zm-6.7 0a2.22 2.22 0 0 0-2.2 2.2 2.22 2.22 0 0 0 2.2 2.2 2.22 2.22 0 0 0 2.2-2.2c0-1.3-1-2.2-2.2-2.2zm-6.7 0a2.22 2.22 0 0 0-2.2 2.2 2.22 2.22 0 0 0 2.2 2.2 2.22 2.22 0 0 0 2.2-2.2c0-1.3-1-2.2-2.2-2.2zm-26.7 0a2.22 2.22 0 0 0-2.2 2.2 2.22 2.22 0 0 0 2.2 2.2 2.22 2.22 0 0 0 2.2-2.2c-.1-1.3-1-2.2-2.2-2.2zm40.1-6.7a2.22 2.22 0 0 0-2.2 2.2 2.22 2.22 0 0 0 2.2 2.2 2.22 2.22 0 0 0 2.2-2.2c-.1-1.2-1-2.2-2.2-2.2zm-6.7 0a2.22 2.22 0 0 0-2.2 2.2 2.22 2.22 0 0 0 2.2 2.2 2.22 2.22 0 0 0 2.2-2.2 2.22 2.22 0 0 0-2.2-2.2zm-33.4 0a2.22 2.22 0 0 0-2.2 2.2 2.22 2.22 0 0 0 2.2 2.2 2.22 2.22 0 0 0 2.2-2.2c-.1-1.2-1-2.2-2.2-2.2zm60.1-6.7a2.22 2.22 0 0 0-2.2 2.2 2.22 2.22 0 0 0 2.2 2.2 2.22 2.22 0 0 0 2.2-2.2 2.22 2.22 0 0 0-2.2-2.2zm-53.4 0a2.22 2.22 0 0 0-2.2 2.2 2.22 2.22 0 0 0 2.2 2.2 2.22 2.22 0 0 0 2.2-2.2c-.1-1.2-1-2.2-2.2-2.2zm-6.7 0a2.22 2.22 0 0 0-2.2 2.2 2.22 2.22 0 0 0 2.2 2.2 2.22 2.22 0 0 0 2.2-2.2c-.1-1.2-1-2.2-2.2-2.2zm-6.7 0a2.22 2.22 0 0 0-2.2 2.2 2.22 2.22 0 0 0 2.2 2.2 2.22 2.22 0 0 0 2.2-2.2 2.22 2.22 0 0 0-2.2-2.2zm-6.7 0a2.22 2.22 0 0 0-2.2 2.2 2.22 2.22 0 0 0 2.2 2.2 2.22 2.22 0 0 0 2.2-2.2 2.22 2.22 0 0 0-2.2-2.2zm-13.4 0a2.22 2.22 0 0 0-2.2 2.2 2.22 2.22 0 0 0 2.2 2.2 2.22 2.22 0 0 0 2.2-2.2 2.22 2.22 0 0 0-2.2-2.2zm86.9-6.7a2.22 2.22 0 0 0-2.2 2.2 2.22 2.22 0 0 0 2.2 2.2 2.22 2.22 0 0 0 2.2-2.2 2.22 2.22 0 0 0-2.2-2.2zm-6.7 0a2.22 2.22 0 0 0-2.2 2.2 2.22 2.22 0 0 0 2.2 2.2 2.22 2.22 0 0 0 2.2-2.2 2.22 2.22 0 0 0-2.2-2.2zm-6.7 0a2.22 2.22 0 0 0-2.2 2.2 2.22 2.22 0 0 0 2.2 2.2 2.22 2.22 0 0 0 2.2-2.2 2.22 2.22 0 0 0-2.2-2.2zm-6.6 0a2.22 2.22 0 0 0-2.2 2.2 2.22 2.22 0 0 0 2.2 2.2 2.22 2.22 0 0 0 2.2-2.2c-.1-1.2-1-2.2-2.2-2.2zm-6.7 0a2.22 2.22 0 0 0-2.2 2.2 2.22 2.22 0 0 0 2.2 2.2 2.22 2.22 0 0 0 2.2-2.2 2.22 2.22 0 0 0-2.2-2.2zm-13.4 0a2.22 2.22 0 0 0-2.2 2.2 2.22 2.22 0 0 0 2.2 2.2 2.22 2.22 0 0 0 2.2-2.2 2.22 2.22 0 0 0-2.2-2.2zm-26.7 0a2.22 2.22 0 0 0-2.2 2.2 2.22 2.22 0 0 0 2.2 2.2 2.22 2.22 0 0 0 2.2-2.2 2.22 2.22 0 0 0-2.2-2.2zm-6.7 0a2.22 2.22 0 0 0-2.2 2.2 2.22 2.22 0 0 0 2.2 2.2 2.22 2.22 0 0 0 2.2-2.2 2.22 2.22 0 0 0-2.2-2.2zm-6.7 0a2.22 2.22 0 0 0-2.2 2.2 2.22 2.22 0 0 0 2.2 2.2 2.22 2.22 0 0 0 2.2-2.2 2.22 2.22 0 0 0-2.2-2.2zm-6.7 0a2.22 2.22 0 0 0-2.2 2.2 2.22 2.22 0 0 0 2.2 2.2 2.22 2.22 0 0 0 2.2-2.2 2.22 2.22 0 0 0-2.2-2.2zm-6.6 0a2.22 2.22 0 0 0-2.2 2.2 2.22 2.22 0 0 0 2.2 2.2 2.22 2.22 0 0 0 2.2-2.2c-.1-1.2-1-2.2-2.2-2.2zm-6.7 0a2.22 2.22 0 0 0-2.2 2.2 2.22 2.22 0 0 0 2.2 2.2 2.22 2.22 0 0 0 2.2-2.2 2.22 2.22 0 0 0-2.2-2.2zm66.8-6.6a2.22 2.22 0 0 0-2.2 2.2 2.22 2.22 0 0 0 2.2 2.2 2.22 2.22 0 0 0 2.2-2.2c0-1.3-1-2.2-2.2-2.2zm-6.7 0a2.22 2.22 0 0 0-2.2 2.2 2.22 2.22 0 0 0 2.2 2.2 2.22 2.22 0 0 0 2.2-2.2c0-1.3-1-2.2-2.2-2.2zm-20 0a2.22 2.22 0 0 0-2.2 2.2 2.22 2.22 0 0 0 2.2 2.2 2.22 2.22 0 0 0 2.2-2.2c-.1-1.3-1-2.2-2.2-2.2zm-6.7 0a2.22 2.22 0 0 0-2.2 2.2 2.22 2.22 0 0 0 2.2 2.2 2.22 2.22 0 0 0 2.2-2.2c0-1.3-1-2.2-2.2-2.2zm-20.1 0a2.22 2.22 0 0 0-2.2 2.2 2.22 2.22 0 0 0 2.2 2.2 2.22 2.22 0 0 0 2.2-2.2c0-1.3-1-2.2-2.2-2.2zm-6.6 0a2.22 2.22 0 0 0-2.2 2.2 2.22 2.22 0 0 0 2.2 2.2 2.22 2.22 0 0 0 2.2-2.2c-.1-1.3-1-2.2-2.2-2.2zm-6.7 0a2.22 2.22 0 0 0-2.2 2.2 2.22 2.22 0 0 0 2.2 2.2 2.22 2.22 0 0 0 2.2-2.2c0-1.3-1-2.2-2.2-2.2zm73.5-6.7a2.22 2.22 0 0 0-2.2 2.2 2.22 2.22 0 0 0 2.2 2.2 2.22 2.22 0 0 0 2.2-2.2 2.22 2.22 0 0 0-2.2-2.2zm-20.1 0a2.22 2.22 0 0 0-2.2 2.2 2.22 2.22 0 0 0 2.2 2.2 2.22 2.22 0 0 0 2.2-2.2 2.22 2.22 0 0 0-2.2-2.2zm-40.1 0a2.22 2.22 0 0 0-2.2 2.2 2.22 2.22 0 0 0 2.2 2.2 2.22 2.22 0 0 0 2.2-2.2 2.22 2.22 0 0 0-2.2-2.2zm-6.6 0a2.22 2.22 0 0 0-2.2 2.2 2.22 2.22 0 0 0 2.2 2.2 2.22 2.22 0 0 0 2.2-2.2c-.1-1.2-1-2.2-2.2-2.2zm-6.7 0a2.22 2.22 0 0 0-2.2 2.2 2.22 2.22 0 0 0 2.2 2.2 2.22 2.22 0 0 0 2.2-2.2 2.22 2.22 0 0 0-2.2-2.2zm-13.4 0a2.22 2.22 0 0 0-2.2 2.2 2.22 2.22 0 0 0 2.2 2.2 2.22 2.22 0 0 0 2.2-2.2 2.22 2.22 0 0 0-2.2-2.2zm80.2-6.7a2.22 2.22 0 0 0-2.2 2.2 2.22 2.22 0 0 0 2.2 2.2 2.22 2.22 0 0 0 2.2-2.2 2.22 2.22 0 0 0-2.2-2.2zm-6.7 0a2.22 2.22 0 0 0-2.2 2.2 2.22 2.22 0 0 0 2.2 2.2 2.22 2.22 0 0 0 2.2-2.2 2.22 2.22 0 0 0-2.2-2.2zm-6.7 0a2.22 2.22 0 0 0-2.2 2.2 2.22 2.22 0 0 0 2.2 2.2 2.22 2.22 0 0 0 2.2-2.2 2.22 2.22 0 0 0-2.2-2.2zm-40.1 0a2.22 2.22 0 0 0-2.2 2.2 2.22 2.22 0 0 0 2.2 2.2 2.22 2.22 0 0 0 2.2-2.2 2.22 2.22 0 0 0-2.2-2.2zm-6.6 0a2.22 2.22 0 0 0-2.2 2.2 2.22 2.22 0 0 0 2.2 2.2 2.22 2.22 0 0 0 2.2-2.2c-.1-1.2-1-2.2-2.2-2.2zm-6.7 0a2.22 2.22 0 0 0-2.2 2.2 2.22 2.22 0 0 0 2.2 2.2 2.22 2.22 0 0 0 2.2-2.2 2.22 2.22 0 0 0-2.2-2.2zm-6.7 0a2.22 2.22 0 0 0-2.2 2.2 2.22 2.22 0 0 0 2.2 2.2 2.22 2.22 0 0 0 2.2-2.2 2.22 2.22 0 0 0-2.2-2.2zm-6.7 0a2.22 2.22 0 0 0-2.2 2.2 2.22 2.22 0 0 0 2.2 2.2 2.22 2.22 0 0 0 2.2-2.2 2.22 2.22 0 0 0-2.2-2.2zm66.8-6.7a2.22 2.22 0 0 0-2.2 2.2 2.22 2.22 0 0 0 2.2 2.2 2.22 2.22 0 0 0 2.2-2.2 2.22 2.22 0 0 0-2.2-2.2zm-33.4 0a2.22 2.22 0 0 0-2.2 2.2 2.22 2.22 0 0 0 2.2 2.2 2.22 2.22 0 0 0 2.2-2.2 2.22 2.22 0 0 0-2.2-2.2zm-6.7 0a2.22 2.22 0 0 0-2.2 2.2 2.22 2.22 0 0 0 2.2 2.2 2.22 2.22 0 0 0 2.2-2.2 2.22 2.22 0 0 0-2.2-2.2zm-6.6 0a2.22 2.22 0 0 0-2.2 2.2 2.22 2.22 0 0 0 2.2 2.2 2.22 2.22 0 0 0 2.2-2.2c-.1-1.2-1-2.2-2.2-2.2zm-6.7 0a2.22 2.22 0 0 0-2.2 2.2 2.22 2.22 0 0 0 2.2 2.2 2.22 2.22 0 0 0 2.2-2.2 2.22 2.22 0 0 0-2.2-2.2zm-6.7 0a2.22 2.22 0 0 0-2.2 2.2 2.22 2.22 0 0 0 2.2 2.2 2.22 2.22 0 0 0 2.2-2.2 2.22 2.22 0 0 0-2.2-2.2zm-6.7 0a2.22 2.22 0 0 0-2.2 2.2 2.22 2.22 0 0 0 2.2 2.2 2.22 2.22 0 0 0 2.2-2.2 2.22 2.22 0 0 0-2.2-2.2zm-6.7 0a2.22 2.22 0 0 0-2.2 2.2 2.22 2.22 0 0 0 2.2 2.2 2.22 2.22 0 0 0 2.2-2.2 2.22 2.22 0 0 0-2.2-2.2zm73.5-6.6a2.22 2.22 0 0 0-2.2 2.2 2.22 2.22 0 0 0 2.2 2.2 2.22 2.22 0 0 0 2.2-2.2c0-1.3-1-2.2-2.2-2.2zm-6.6 0a2.22 2.22 0 0 0-2.2 2.2 2.22 2.22 0 0 0 2.2 2.2 2.22 2.22 0 0 0 2.2-2.2c-.1-1.3-1-2.2-2.2-2.2zm-6.7 0a2.22 2.22 0 0 0-2.2 2.2 2.22 2.22 0 0 0 2.2 2.2 2.22 2.22 0 0 0 2.2-2.2c-.1-1.3-1-2.2-2.2-2.2zm-6.7 0a2.22 2.22 0 0 0-2.2 2.2 2.22 2.22 0 0 0 2.2 2.2 2.22 2.22 0 0 0 2.2-2.2c0-1.3-1-2.2-2.2-2.2zm-6.7 0a2.22 2.22 0 0 0-2.2 2.2 2.22 2.22 0 0 0 2.2 2.2 2.22 2.22 0 0 0 2.2-2.2c0-1.3-1-2.2-2.2-2.2zm-6.7 0a2.22 2.22 0 0 0-2.2 2.2 2.22 2.22 0 0 0 2.2 2.2 2.22 2.22 0 0 0 2.2-2.2c0-1.3-1-2.2-2.2-2.2zm-6.7 0a2.22 2.22 0 0 0-2.2 2.2 2.22 2.22 0 0 0 2.2 2.2 2.22 2.22 0 0 0 2.2-2.2c0-1.3-1-2.2-2.2-2.2zm-6.6 0a2.22 2.22 0 0 0-2.2 2.2 2.22 2.22 0 0 0 2.2 2.2 2.22 2.22 0 0 0 2.2-2.2c-.1-1.3-1-2.2-2.2-2.2zm-6.7 0a2.22 2.22 0 0 0-2.2 2.2 2.22 2.22 0 0 0 2.2 2.2 2.22 2.22 0 0 0 2.2-2.2c0-1.3-1-2.2-2.2-2.2zm-6.7 0a2.22 2.22 0 0 0-2.2 2.2 2.22 2.22 0 0 0 2.2 2.2 2.22 2.22 0 0 0 2.2-2.2c0-1.3-1-2.2-2.2-2.2zm-6.7 0a2.22 2.22 0 0 0-2.2 2.2 2.22 2.22 0 0 0 2.2 2.2 2.22 2.22 0 0 0 2.2-2.2c0-1.3-1-2.2-2.2-2.2zm-6.7 0a2.22 2.22 0 0 0-2.2 2.2 2.22 2.22 0 0 0 2.2 2.2 2.22 2.22 0 0 0 2.2-2.2c0-1.3-1-2.2-2.2-2.2zm86.9-6.7a2.22 2.22 0 0 0-2.2 2.2 2.22 2.22 0 0 0 2.2 2.2 2.22 2.22 0 0 0 2.2-2.2 2.22 2.22 0 0 0-2.2-2.2zm-6.7 0a2.22 2.22 0 0 0-2.2 2.2 2.22 2.22 0 0 0 2.2 2.2 2.22 2.22 0 0 0 2.2-2.2 2.22 2.22 0 0 0-2.2-2.2zm-6.7 0a2.22 2.22 0 0 0-2.2 2.2 2.22 2.22 0 0 0 2.2 2.2 2.22 2.22 0 0 0 2.2-2.2 2.22 2.22 0 0 0-2.2-2.2zm-6.6 0a2.22 2.22 0 0 0-2.2 2.2 2.22 2.22 0 0 0 2.2 2.2 2.22 2.22 0 0 0 2.2-2.2 2.22 2.22 0 0 0-2.2-2.2zm-6.7 0a2.22 2.22 0 0 0-2.2 2.2 2.22 2.22 0 0 0 2.2 2.2 2.22 2.22 0 0 0 2.2-2.2 2.22 2.22 0 0 0-2.2-2.2zm-6.7 0a2.22 2.22 0 0 0-2.2 2.2 2.22 2.22 0 0 0 2.2 2.2 2.22 2.22 0 0 0 2.2-2.2 2.22 2.22 0 0 0-2.2-2.2zm-6.7 0a2.22 2.22 0 0 0-2.2 2.2 2.22 2.22 0 0 0 2.2 2.2 2.22 2.22 0 0 0 2.2-2.2 2.22 2.22 0 0 0-2.2-2.2zm-6.7 0a2.22 2.22 0 0 0-2.2 2.2 2.22 2.22 0 0 0 2.2 2.2 2.22 2.22 0 0 0 2.2-2.2 2.22 2.22 0 0 0-2.2-2.2zm-6.7 0a2.22 2.22 0 0 0-2.2 2.2 2.22 2.22 0 0 0 2.2 2.2 2.22 2.22 0 0 0 2.2-2.2 2.22 2.22 0 0 0-2.2-2.2zm-6.6 0a2.22 2.22 0 0 0-2.2 2.2 2.22 2.22 0 0 0 2.2 2.2 2.22 2.22 0 0 0 2.2-2.2 2.22 2.22 0 0 0-2.2-2.2zm-6.7 0a2.22 2.22 0 0 0-2.2 2.2 2.22 2.22 0 0 0 2.2 2.2 2.22 2.22 0 0 0 2.2-2.2 2.22 2.22 0 0 0-2.2-2.2zm-6.7 0a2.22 2.22 0 0 0-2.2 2.2 2.22 2.22 0 0 0 2.2 2.2 2.22 2.22 0 0 0 2.2-2.2 2.22 2.22 0 0 0-2.2-2.2zm-6.7 0a2.22 2.22 0 0 0-2.2 2.2 2.22 2.22 0 0 0 2.2 2.2 2.22 2.22 0 0 0 2.2-2.2 2.22 2.22 0 0 0-2.2-2.2zm-6.7 0a2.22 2.22 0 0 0-2.2 2.2 2.22 2.22 0 0 0 2.2 2.2 2.22 2.22 0 0 0 2.2-2.2 2.22 2.22 0 0 0-2.2-2.2zm93.6-6.7a2.22 2.22 0 0 0-2.2 2.2 2.22 2.22 0 0 0 2.2 2.2 2.22 2.22 0 0 0 2.2-2.2 2.22 2.22 0 0 0-2.2-2.2zm-6.7 0a2.22 2.22 0 0 0-2.2 2.2 2.22 2.22 0 0 0 2.2 2.2 2.22 2.22 0 0 0 2.2-2.2 2.22 2.22 0 0 0-2.2-2.2zm-6.7 0a2.22 2.22 0 0 0-2.2 2.2 2.22 2.22 0 0 0 2.2 2.2 2.22 2.22 0 0 0 2.2-2.2 2.22 2.22 0 0 0-2.2-2.2zm-6.7 0a2.22 2.22 0 0 0-2.2 2.2 2.22 2.22 0 0 0 2.2 2.2 2.22 2.22 0 0 0 2.2-2.2 2.22 2.22 0 0 0-2.2-2.2zm-6.6 0a2.22 2.22 0 0 0-2.2 2.2 2.22 2.22 0 0 0 2.2 2.2 2.22 2.22 0 0 0 2.2-2.2c-.1-1.2-1-2.2-2.2-2.2zm-6.7 0a2.22 2.22 0 0 0-2.2 2.2 2.22 2.22 0 0 0 2.2 2.2 2.22 2.22 0 0 0 2.2-2.2c-.1-1.2-1-2.2-2.2-2.2zm-6.7 0a2.22 2.22 0 0 0-2.2 2.2 2.22 2.22 0 0 0 2.2 2.2 2.22 2.22 0 0 0 2.2-2.2 2.22 2.22 0 0 0-2.2-2.2zm-6.7 0a2.22 2.22 0 0 0-2.2 2.2 2.22 2.22 0 0 0 2.2 2.2 2.22 2.22 0 0 0 2.2-2.2 2.22 2.22 0 0 0-2.2-2.2zm-6.7 0a2.22 2.22 0 0 0-2.2 2.2 2.22 2.22 0 0 0 2.2 2.2 2.22 2.22 0 0 0 2.2-2.2 2.22 2.22 0 0 0-2.2-2.2zm-6.7 0a2.22 2.22 0 0 0-2.2 2.2 2.22 2.22 0 0 0 2.2 2.2 2.22 2.22 0 0 0 2.2-2.2 2.22 2.22 0 0 0-2.2-2.2zm-6.6 0a2.22 2.22 0 0 0-2.2 2.2 2.22 2.22 0 0 0 2.2 2.2 2.22 2.22 0 0 0 2.2-2.2c-.1-1.2-1-2.2-2.2-2.2zm-6.7 0a2.22 2.22 0 0 0-2.2 2.2 2.22 2.22 0 0 0 2.2 2.2 2.22 2.22 0 0 0 2.2-2.2 2.22 2.22 0 0 0-2.2-2.2zm-6.7 0a2.22 2.22 0 0 0-2.2 2.2 2.22 2.22 0 0 0 2.2 2.2 2.22 2.22 0 0 0 2.2-2.2 2.22 2.22 0 0 0-2.2-2.2zm-6.7 0a2.22 2.22 0 0 0-2.2 2.2 2.22 2.22 0 0 0 2.2 2.2 2.22 2.22 0 0 0 2.2-2.2 2.22 2.22 0 0 0-2.2-2.2zm-6.7 0a2.22 2.22 0 0 0-2.2 2.2 2.22 2.22 0 0 0 2.2 2.2 2.22 2.22 0 0 0 2.2-2.2 2.22 2.22 0 0 0-2.2-2.2zm-6.7 0a2.22 2.22 0 0 0-2.2 2.2 2.22 2.22 0 0 0 2.2 2.2 2.22 2.22 0 0 0 2.2-2.2c0-1.2-.9-2.2-2.2-2.2zm107-6.7a2.22 2.22 0 0 0-2.2 2.2 2.22 2.22 0 0 0 2.2 2.2 2.22 2.22 0 0 0 2.2-2.2c-.1-1.2-1-2.2-2.2-2.2zm-6.7 0a2.22 2.22 0 0 0-2.2 2.2 2.22 2.22 0 0 0 2.2 2.2 2.22 2.22 0 0 0 2.2-2.2 2.22 2.22 0 0 0-2.2-2.2zm-6.7 0a2.22 2.22 0 0 0-2.2 2.2 2.22 2.22 0 0 0 2.2 2.2 2.22 2.22 0 0 0 2.2-2.2 2.22 2.22 0 0 0-2.2-2.2zm-6.7 0a2.22 2.22 0 0 0-2.2 2.2 2.22 2.22 0 0 0 2.2 2.2 2.22 2.22 0 0 0 2.2-2.2 2.22 2.22 0 0 0-2.2-2.2zm-6.7 0a2.22 2.22 0 0 0-2.2 2.2 2.22 2.22 0 0 0 2.2 2.2 2.22 2.22 0 0 0 2.2-2.2 2.22 2.22 0 0 0-2.2-2.2zm-6.6 0a2.22 2.22 0 0 0-2.2 2.2 2.22 2.22 0 0 0 2.2 2.2 2.22 2.22 0 0 0 2.2-2.2c-.1-1.2-1-2.2-2.2-2.2zm-6.7 0a2.22 2.22 0 0 0-2.2 2.2 2.22 2.22 0 0 0 2.2 2.2 2.22 2.22 0 0 0 2.2-2.2c-.1-1.2-1-2.2-2.2-2.2zm-6.7 0a2.22 2.22 0 0 0-2.2 2.2 2.22 2.22 0 0 0 2.2 2.2 2.22 2.22 0 0 0 2.2-2.2 2.22 2.22 0 0 0-2.2-2.2zm-6.7 0a2.22 2.22 0 0 0-2.2 2.2 2.22 2.22 0 0 0 2.2 2.2 2.22 2.22 0 0 0 2.2-2.2 2.22 2.22 0 0 0-2.2-2.2zm-6.7 0a2.22 2.22 0 0 0-2.2 2.2 2.22 2.22 0 0 0 2.2 2.2 2.22 2.22 0 0 0 2.2-2.2 2.22 2.22 0 0 0-2.2-2.2zm-6.7 0a2.22 2.22 0 0 0-2.2 2.2 2.22 2.22 0 0 0 2.2 2.2 2.22 2.22 0 0 0 2.2-2.2 2.22 2.22 0 0 0-2.2-2.2zm-6.6 0a2.22 2.22 0 0 0-2.2 2.2 2.22 2.22 0 0 0 2.2 2.2 2.22 2.22 0 0 0 2.2-2.2c-.1-1.2-1-2.2-2.2-2.2zm-6.7 0a2.22 2.22 0 0 0-2.2 2.2 2.22 2.22 0 0 0 2.2 2.2 2.22 2.22 0 0 0 2.2-2.2 2.22 2.22 0 0 0-2.2-2.2zm-6.7 0a2.22 2.22 0 0 0-2.2 2.2 2.22 2.22 0 0 0 2.2 2.2 2.22 2.22 0 0 0 2.2-2.2 2.22 2.22 0 0 0-2.2-2.2zm-6.7 0a2.22 2.22 0 0 0-2.2 2.2 2.22 2.22 0 0 0 2.2 2.2 2.22 2.22 0 0 0 2.2-2.2 2.22 2.22 0 0 0-2.2-2.2zm-6.7 0a2.22 2.22 0 0 0-2.2 2.2 2.22 2.22 0 0 0 2.2 2.2 2.22 2.22 0 0 0 2.2-2.2 2.22 2.22 0 0 0-2.2-2.2zm-6.7 0a2.22 2.22 0 0 0-2.2 2.2 2.22 2.22 0 0 0 2.2 2.2 2.22 2.22 0 0 0 2.2-2.2c0-1.2-.9-2.2-2.2-2.2zm113.6-6.6a2.22 2.22 0 0 0-2.2 2.2 2.22 2.22 0 0 0 2.2 2.2 2.22 2.22 0 0 0 2.2-2.2 2.22 2.22 0 0 0-2.2-2.2zm-6.6 0a2.22 2.22 0 0 0-2.2 2.2 2.22 2.22 0 0 0 2.2 2.2 2.22 2.22 0 0 0 2.2-2.2 2.22 2.22 0 0 0-2.2-2.2zm-6.7 0a2.22 2.22 0 0 0-2.2 2.2A2.22 2.22 0 0 0 143 98a2.22 2.22 0 0 0 2.2-2.2 2.22 2.22 0 0 0-2.2-2.2zm-6.7 0a2.22 2.22 0 0 0-2.2 2.2 2.22 2.22 0 0 0 2.2 2.2 2.22 2.22 0 0 0 2.2-2.2 2.22 2.22 0 0 0-2.2-2.2zm-6.7 0a2.22 2.22 0 0 0-2.2 2.2 2.22 2.22 0 0 0 2.2 2.2 2.22 2.22 0 0 0 2.2-2.2 2.22 2.22 0 0 0-2.2-2.2zm-6.7 0a2.22 2.22 0 0 0-2.2 2.2 2.22 2.22 0 0 0 2.2 2.2 2.22 2.22 0 0 0 2.2-2.2 2.22 2.22 0 0 0-2.2-2.2zm-6.6 0a2.22 2.22 0 0 0-2.2 2.2 2.22 2.22 0 0 0 2.2 2.2 2.22 2.22 0 0 0 2.2-2.2 2.22 2.22 0 0 0-2.2-2.2zm-6.7 0a2.22 2.22 0 0 0-2.2 2.2 2.22 2.22 0 0 0 2.2 2.2 2.22 2.22 0 0 0 2.2-2.2 2.22 2.22 0 0 0-2.2-2.2zm-6.7 0a2.22 2.22 0 0 0-2.2 2.2 2.22 2.22 0 0 0 2.2 2.2 2.22 2.22 0 0 0 2.2-2.2 2.22 2.22 0 0 0-2.2-2.2zm-6.7 0a2.22 2.22 0 0 0-2.2 2.2 2.22 2.22 0 0 0 2.2 2.2 2.22 2.22 0 0 0 2.2-2.2 2.22 2.22 0 0 0-2.2-2.2zm-6.7 0a2.22 2.22 0 0 0-2.2 2.2 2.22 2.22 0 0 0 2.2 2.2 2.22 2.22 0 0 0 2.2-2.2 2.22 2.22 0 0 0-2.2-2.2zm-6.7 0a2.22 2.22 0 0 0-2.2 2.2 2.22 2.22 0 0 0 2.2 2.2 2.22 2.22 0 0 0 2.2-2.2 2.22 2.22 0 0 0-2.2-2.2zm-6.6 0a2.22 2.22 0 0 0-2.2 2.2 2.22 2.22 0 0 0 2.2 2.2 2.22 2.22 0 0 0 2.2-2.2 2.22 2.22 0 0 0-2.2-2.2zm-6.7 0a2.22 2.22 0 0 0-2.2 2.2 2.22 2.22 0 0 0 2.2 2.2 2.22 2.22 0 0 0 2.2-2.2 2.22 2.22 0 0 0-2.2-2.2zm-6.7 0a2.22 2.22 0 0 0-2.2 2.2 2.22 2.22 0 0 0 2.2 2.2 2.22 2.22 0 0 0 2.2-2.2 2.22 2.22 0 0 0-2.2-2.2zm-6.7 0a2.22 2.22 0 0 0-2.2 2.2 2.22 2.22 0 0 0 2.2 2.2 2.22 2.22 0 0 0 2.2-2.2 2.22 2.22 0 0 0-2.2-2.2zm-6.7 0a2.22 2.22 0 0 0-2.2 2.2 2.22 2.22 0 0 0 2.2 2.2 2.22 2.22 0 0 0 2.2-2.2 2.22 2.22 0 0 0-2.2-2.2zm-6.7 0a2.22 2.22 0 0 0-2.2 2.2 2.22 2.22 0 0 0 2.2 2.2 2.22 2.22 0 0 0 2.2-2.2c0-1.2-.9-2.2-2.2-2.2zM163 86.9a2.22 2.22 0 0 0-2.2 2.2 2.22 2.22 0 0 0 2.2 2.2 2.22 2.22 0 0 0 2.2-2.2 2.22 2.22 0 0 0-2.2-2.2zm-6.7 0a2.22 2.22 0 0 0-2.2 2.2 2.22 2.22 0 0 0 2.2 2.2 2.22 2.22 0 0 0 2.2-2.2 2.22 2.22 0 0 0-2.2-2.2zm-6.6 0a2.22 2.22 0 0 0-2.2 2.2 2.22 2.22 0 0 0 2.2 2.2 2.22 2.22 0 0 0 2.2-2.2c-.1-1.2-1-2.2-2.2-2.2zm-6.7 0a2.22 2.22 0 0 0-2.2 2.2 2.22 2.22 0 0 0 2.2 2.2 2.22 2.22 0 0 0 2.2-2.2 2.22 2.22 0 0 0-2.2-2.2zm-6.7 0a2.22 2.22 0 0 0-2.2 2.2 2.22 2.22 0 0 0 2.2 2.2 2.22 2.22 0 0 0 2.2-2.2 2.22 2.22 0 0 0-2.2-2.2zm-6.7 0a2.22 2.22 0 0 0-2.2 2.2 2.22 2.22 0 0 0 2.2 2.2 2.22 2.22 0 0 0 2.2-2.2 2.22 2.22 0 0 0-2.2-2.2zm-6.7 0a2.22 2.22 0 0 0-2.2 2.2 2.22 2.22 0 0 0 2.2 2.2 2.22 2.22 0 0 0 2.2-2.2 2.22 2.22 0 0 0-2.2-2.2zm-6.6 0a2.22 2.22 0 0 0-2.2 2.2 2.22 2.22 0 0 0 2.2 2.2 2.22 2.22 0 0 0 2.2-2.2c-.1-1.2-1-2.2-2.2-2.2zm-6.7 0a2.22 2.22 0 0 0-2.2 2.2 2.22 2.22 0 0 0 2.2 2.2 2.22 2.22 0 0 0 2.2-2.2c-.1-1.2-1-2.2-2.2-2.2zm-6.7 0a2.22 2.22 0 0 0-2.2 2.2 2.22 2.22 0 0 0 2.2 2.2 2.22 2.22 0 0 0 2.2-2.2 2.22 2.22 0 0 0-2.2-2.2zm-6.7 0a2.22 2.22 0 0 0-2.2 2.2 2.22 2.22 0 0 0 2.2 2.2 2.22 2.22 0 0 0 2.2-2.2 2.22 2.22 0 0 0-2.2-2.2zm-6.7 0a2.22 2.22 0 0 0-2.2 2.2 2.22 2.22 0 0 0 2.2 2.2 2.22 2.22 0 0 0 2.2-2.2 2.22 2.22 0 0 0-2.2-2.2zm-6.7 0a2.22 2.22 0 0 0-2.2 2.2 2.22 2.22 0 0 0 2.2 2.2 2.22 2.22 0 0 0 2.2-2.2 2.22 2.22 0 0 0-2.2-2.2zm-6.6 0a2.22 2.22 0 0 0-2.2 2.2 2.22 2.22 0 0 0 2.2 2.2 2.22 2.22 0 0 0 2.2-2.2c-.1-1.2-1-2.2-2.2-2.2zm-6.7 0a2.22 2.22 0 0 0-2.2 2.2 2.22 2.22 0 0 0 2.2 2.2 2.22 2.22 0 0 0 2.2-2.2 2.22 2.22 0 0 0-2.2-2.2zm-6.7 0a2.22 2.22 0 0 0-2.2 2.2 2.22 2.22 0 0 0 2.2 2.2 2.22 2.22 0 0 0 2.2-2.2 2.22 2.22 0 0 0-2.2-2.2zm-6.7 0a2.22 2.22 0 0 0-2.2 2.2 2.22 2.22 0 0 0 2.2 2.2 2.22 2.22 0 0 0 2.2-2.2 2.22 2.22 0 0 0-2.2-2.2zm-6.7 0a2.22 2.22 0 0 0-2.2 2.2 2.22 2.22 0 0 0 2.2 2.2 2.22 2.22 0 0 0 2.2-2.2 2.22 2.22 0 0 0-2.2-2.2zm153.7-6.7a2.22 2.22 0 0 0-2.2 2.2 2.22 2.22 0 0 0 2.2 2.2 2.22 2.22 0 0 0 2.2-2.2 2.22 2.22 0 0 0-2.2-2.2zm-20 0a2.22 2.22 0 0 0-2.2 2.2 2.22 2.22 0 0 0 2.2 2.2 2.22 2.22 0 0 0 2.2-2.2c-.1-1.2-1-2.2-2.2-2.2zm-6.7 0a2.22 2.22 0 0 0-2.2 2.2 2.22 2.22 0 0 0 2.2 2.2 2.22 2.22 0 0 0 2.2-2.2 2.22 2.22 0 0 0-2.2-2.2zm-6.7 0a2.22 2.22 0 0 0-2.2 2.2 2.22 2.22 0 0 0 2.2 2.2 2.22 2.22 0 0 0 2.2-2.2 2.22 2.22 0 0 0-2.2-2.2zm-6.7 0a2.22 2.22 0 0 0-2.2 2.2 2.22 2.22 0 0 0 2.2 2.2 2.22 2.22 0 0 0 2.2-2.2 2.22 2.22 0 0 0-2.2-2.2zm-6.7 0a2.22 2.22 0 0 0-2.2 2.2 2.22 2.22 0 0 0 2.2 2.2 2.22 2.22 0 0 0 2.2-2.2 2.22 2.22 0 0 0-2.2-2.2zm-6.6 0a2.22 2.22 0 0 0-2.2 2.2 2.22 2.22 0 0 0 2.2 2.2 2.22 2.22 0 0 0 2.2-2.2c-.1-1.2-1-2.2-2.2-2.2zm-6.7 0a2.22 2.22 0 0 0-2.2 2.2 2.22 2.22 0 0 0 2.2 2.2 2.22 2.22 0 0 0 2.2-2.2 2.22 2.22 0 0 0-2.2-2.2zm-6.7 0a2.22 2.22 0 0 0-2.2 2.2 2.22 2.22 0 0 0 2.2 2.2 2.22 2.22 0 0 0 2.2-2.2 2.22 2.22 0 0 0-2.2-2.2zm-6.7 0a2.22 2.22 0 0 0-2.2 2.2 2.22 2.22 0 0 0 2.2 2.2 2.22 2.22 0 0 0 2.2-2.2 2.22 2.22 0 0 0-2.2-2.2zm-6.7 0a2.22 2.22 0 0 0-2.2 2.2 2.22 2.22 0 0 0 2.2 2.2 2.22 2.22 0 0 0 2.2-2.2 2.22 2.22 0 0 0-2.2-2.2zm-6.6 0a2.22 2.22 0 0 0-2.2 2.2 2.22 2.22 0 0 0 2.2 2.2 2.22 2.22 0 0 0 2.2-2.2c-.1-1.2-1-2.2-2.2-2.2zm-6.7 0a2.22 2.22 0 0 0-2.2 2.2 2.22 2.22 0 0 0 2.2 2.2 2.22 2.22 0 0 0 2.2-2.2c-.1-1.2-1-2.2-2.2-2.2zm-6.7 0a2.22 2.22 0 0 0-2.2 2.2 2.22 2.22 0 0 0 2.2 2.2 2.22 2.22 0 0 0 2.2-2.2 2.22 2.22 0 0 0-2.2-2.2zm-6.7 0a2.22 2.22 0 0 0-2.2 2.2 2.22 2.22 0 0 0 2.2 2.2 2.22 2.22 0 0 0 2.2-2.2 2.22 2.22 0 0 0-2.2-2.2zm-6.7 0a2.22 2.22 0 0 0-2.2 2.2 2.22 2.22 0 0 0 2.2 2.2 2.22 2.22 0 0 0 2.2-2.2 2.22 2.22 0 0 0-2.2-2.2zm-6.7 0a2.22 2.22 0 0 0-2.2 2.2 2.22 2.22 0 0 0 2.2 2.2 2.22 2.22 0 0 0 2.2-2.2 2.22 2.22 0 0 0-2.2-2.2zm-6.6 0a2.22 2.22 0 0 0-2.2 2.2 2.22 2.22 0 0 0 2.2 2.2 2.22 2.22 0 0 0 2.2-2.2c-.1-1.2-1-2.2-2.2-2.2zm-6.7 0a2.22 2.22 0 0 0-2.2 2.2 2.22 2.22 0 0 0 2.2 2.2 2.22 2.22 0 0 0 2.2-2.2 2.22 2.22 0 0 0-2.2-2.2zm-6.7 0a2.22 2.22 0 0 0-2.2 2.2 2.22 2.22 0 0 0 2.2 2.2 2.22 2.22 0 0 0 2.2-2.2 2.22 2.22 0 0 0-2.2-2.2zm-6.7 0a2.22 2.22 0 0 0-2.2 2.2 2.22 2.22 0 0 0 2.2 2.2 2.22 2.22 0 0 0 2.2-2.2 2.22 2.22 0 0 0-2.2-2.2zm-6.7 0a2.22 2.22 0 0 0-2.2 2.2 2.22 2.22 0 0 0 2.2 2.2 2.22 2.22 0 0 0 2.2-2.2 2.22 2.22 0 0 0-2.2-2.2zm153.7-6.7a2.22 2.22 0 0 0-2.2 2.2 2.22 2.22 0 0 0 2.2 2.2 2.22 2.22 0 0 0 2.2-2.2 2.22 2.22 0 0 0-2.2-2.2zm-6.7 0a2.22 2.22 0 0 0-2.2 2.2 2.22 2.22 0 0 0 2.2 2.2 2.22 2.22 0 0 0 2.2-2.2 2.22 2.22 0 0 0-2.2-2.2zm-13.3 0a2.22 2.22 0 0 0-2.2 2.2 2.22 2.22 0 0 0 2.2 2.2 2.22 2.22 0 0 0 2.2-2.2c-.1-1.2-1-2.2-2.2-2.2zm-6.7 0a2.22 2.22 0 0 0-2.2 2.2 2.22 2.22 0 0 0 2.2 2.2 2.22 2.22 0 0 0 2.2-2.2 2.22 2.22 0 0 0-2.2-2.2zm-6.7 0a2.22 2.22 0 0 0-2.2 2.2 2.22 2.22 0 0 0 2.2 2.2 2.22 2.22 0 0 0 2.2-2.2 2.22 2.22 0 0 0-2.2-2.2zm-6.7 0a2.22 2.22 0 0 0-2.2 2.2 2.22 2.22 0 0 0 2.2 2.2 2.22 2.22 0 0 0 2.2-2.2 2.22 2.22 0 0 0-2.2-2.2zm-6.7 0a2.22 2.22 0 0 0-2.2 2.2 2.22 2.22 0 0 0 2.2 2.2 2.22 2.22 0 0 0 2.2-2.2 2.22 2.22 0 0 0-2.2-2.2zm-6.6 0a2.22 2.22 0 0 0-2.2 2.2 2.22 2.22 0 0 0 2.2 2.2 2.22 2.22 0 0 0 2.2-2.2c-.1-1.2-1-2.2-2.2-2.2zm-6.7 0a2.22 2.22 0 0 0-2.2 2.2 2.22 2.22 0 0 0 2.2 2.2 2.22 2.22 0 0 0 2.2-2.2 2.22 2.22 0 0 0-2.2-2.2zm-6.7 0a2.22 2.22 0 0 0-2.2 2.2 2.22 2.22 0 0 0 2.2 2.2 2.22 2.22 0 0 0 2.2-2.2 2.22 2.22 0 0 0-2.2-2.2zm-6.7 0a2.22 2.22 0 0 0-2.2 2.2 2.22 2.22 0 0 0 2.2 2.2 2.22 2.22 0 0 0 2.2-2.2 2.22 2.22 0 0 0-2.2-2.2zm-6.7 0a2.22 2.22 0 0 0-2.2 2.2 2.22 2.22 0 0 0 2.2 2.2 2.22 2.22 0 0 0 2.2-2.2 2.22 2.22 0 0 0-2.2-2.2zm-6.6 0a2.22 2.22 0 0 0-2.2 2.2 2.22 2.22 0 0 0 2.2 2.2 2.22 2.22 0 0 0 2.2-2.2c-.1-1.2-1-2.2-2.2-2.2zm-6.7 0a2.22 2.22 0 0 0-2.2 2.2 2.22 2.22 0 0 0 2.2 2.2 2.22 2.22 0 0 0 2.2-2.2c-.1-1.2-1-2.2-2.2-2.2zm-6.7 0a2.22 2.22 0 0 0-2.2 2.2 2.22 2.22 0 0 0 2.2 2.2 2.22 2.22 0 0 0 2.2-2.2 2.22 2.22 0 0 0-2.2-2.2zm-6.7 0a2.22 2.22 0 0 0-2.2 2.2 2.22 2.22 0 0 0 2.2 2.2 2.22 2.22 0 0 0 2.2-2.2 2.22 2.22 0 0 0-2.2-2.2zm-6.7 0a2.22 2.22 0 0 0-2.2 2.2 2.22 2.22 0 0 0 2.2 2.2 2.22 2.22 0 0 0 2.2-2.2 2.22 2.22 0 0 0-2.2-2.2zm-6.7 0a2.22 2.22 0 0 0-2.2 2.2 2.22 2.22 0 0 0 2.2 2.2 2.22 2.22 0 0 0 2.2-2.2 2.22 2.22 0 0 0-2.2-2.2zm-6.6 0a2.22 2.22 0 0 0-2.2 2.2 2.22 2.22 0 0 0 2.2 2.2 2.22 2.22 0 0 0 2.2-2.2c-.1-1.2-1-2.2-2.2-2.2zm-6.7 0a2.22 2.22 0 0 0-2.2 2.2 2.22 2.22 0 0 0 2.2 2.2 2.22 2.22 0 0 0 2.2-2.2 2.22 2.22 0 0 0-2.2-2.2zm-6.7 0a2.22 2.22 0 0 0-2.2 2.2 2.22 2.22 0 0 0 2.2 2.2 2.22 2.22 0 0 0 2.2-2.2 2.22 2.22 0 0 0-2.2-2.2zm-6.7 0a2.22 2.22 0 0 0-2.2 2.2 2.22 2.22 0 0 0 2.2 2.2 2.22 2.22 0 0 0 2.2-2.2 2.22 2.22 0 0 0-2.2-2.2zm140.3-6.6a2.22 2.22 0 0 0-2.2 2.2 2.22 2.22 0 0 0 2.2 2.2 2.22 2.22 0 0 0 2.2-2.2c0-1.3-1-2.2-2.2-2.2zm-6.6 0a2.22 2.22 0 0 0-2.2 2.2 2.22 2.22 0 0 0 2.2 2.2 2.22 2.22 0 0 0 2.2-2.2c-.1-1.3-1-2.2-2.2-2.2zm-6.7 0a2.22 2.22 0 0 0-2.2 2.2 2.22 2.22 0 0 0 2.2 2.2 2.22 2.22 0 0 0 2.2-2.2c-.1-1.3-1-2.2-2.2-2.2zm-6.7 0a2.22 2.22 0 0 0-2.2 2.2 2.22 2.22 0 0 0 2.2 2.2 2.22 2.22 0 0 0 2.2-2.2c0-1.3-1-2.2-2.2-2.2zm-6.7 0a2.22 2.22 0 0 0-2.2 2.2 2.22 2.22 0 0 0 2.2 2.2 2.22 2.22 0 0 0 2.2-2.2c0-1.3-1-2.2-2.2-2.2zm-6.7 0a2.22 2.22 0 0 0-2.2 2.2 2.22 2.22 0 0 0 2.2 2.2 2.22 2.22 0 0 0 2.2-2.2c0-1.3-1-2.2-2.2-2.2zm-6.7 0a2.22 2.22 0 0 0-2.2 2.2 2.22 2.22 0 0 0 2.2 2.2 2.22 2.22 0 0 0 2.2-2.2c0-1.3-1-2.2-2.2-2.2zm-6.6 0a2.22 2.22 0 0 0-2.2 2.2 2.22 2.22 0 0 0 2.2 2.2 2.22 2.22 0 0 0 2.2-2.2c-.1-1.3-1-2.2-2.2-2.2zm-6.7 0a2.22 2.22 0 0 0-2.2 2.2 2.22 2.22 0 0 0 2.2 2.2 2.22 2.22 0 0 0 2.2-2.2c0-1.3-1-2.2-2.2-2.2zm-6.7 0a2.22 2.22 0 0 0-2.2 2.2 2.22 2.22 0 0 0 2.2 2.2 2.22 2.22 0 0 0 2.2-2.2c0-1.3-1-2.2-2.2-2.2zm-6.7 0a2.22 2.22 0 0 0-2.2 2.2 2.22 2.22 0 0 0 2.2 2.2 2.22 2.22 0 0 0 2.2-2.2c0-1.3-1-2.2-2.2-2.2zm-6.7 0a2.22 2.22 0 0 0-2.2 2.2 2.22 2.22 0 0 0 2.2 2.2 2.22 2.22 0 0 0 2.2-2.2c0-1.3-1-2.2-2.2-2.2zm-6.6 0a2.22 2.22 0 0 0-2.2 2.2 2.22 2.22 0 0 0 2.2 2.2 2.22 2.22 0 0 0 2.2-2.2c-.1-1.3-1-2.2-2.2-2.2zm-6.7 0a2.22 2.22 0 0 0-2.2 2.2 2.22 2.22 0 0 0 2.2 2.2 2.22 2.22 0 0 0 2.2-2.2c-.1-1.3-1-2.2-2.2-2.2zm-6.7 0a2.22 2.22 0 0 0-2.2 2.2 2.22 2.22 0 0 0 2.2 2.2 2.22 2.22 0 0 0 2.2-2.2c0-1.3-1-2.2-2.2-2.2zm-6.7 0a2.22 2.22 0 0 0-2.2 2.2 2.22 2.22 0 0 0 2.2 2.2 2.22 2.22 0 0 0 2.2-2.2c0-1.3-1-2.2-2.2-2.2zm-6.7 0a2.22 2.22 0 0 0-2.2 2.2 2.22 2.22 0 0 0 2.2 2.2 2.22 2.22 0 0 0 2.2-2.2c0-1.3-1-2.2-2.2-2.2zm-6.7 0a2.22 2.22 0 0 0-2.2 2.2 2.22 2.22 0 0 0 2.2 2.2 2.22 2.22 0 0 0 2.2-2.2c0-1.3-1-2.2-2.2-2.2zm-6.6 0a2.22 2.22 0 0 0-2.2 2.2 2.22 2.22 0 0 0 2.2 2.2 2.22 2.22 0 0 0 2.2-2.2c-.1-1.3-1-2.2-2.2-2.2zm-6.7 0a2.22 2.22 0 0 0-2.2 2.2 2.22 2.22 0 0 0 2.2 2.2 2.22 2.22 0 0 0 2.2-2.2c0-1.3-1-2.2-2.2-2.2zm-6.7 0a2.22 2.22 0 0 0-2.2 2.2 2.22 2.22 0 0 0 2.2 2.2 2.22 2.22 0 0 0 2.2-2.2c0-1.3-1-2.2-2.2-2.2zm-6.7 0a2.22 2.22 0 0 0-2.2 2.2 2.22 2.22 0 0 0 2.2 2.2 2.22 2.22 0 0 0 2.2-2.2c0-1.3-1-2.2-2.2-2.2zm140.3-6.7a2.22 2.22 0 0 0-2.2 2.2 2.22 2.22 0 0 0 2.2 2.2 2.22 2.22 0 0 0 2.2-2.2 2.22 2.22 0 0 0-2.2-2.2zm-6.6 0a2.22 2.22 0 0 0-2.2 2.2 2.22 2.22 0 0 0 2.2 2.2 2.22 2.22 0 0 0 2.2-2.2c-.1-1.2-1-2.2-2.2-2.2zm-6.7 0a2.22 2.22 0 0 0-2.2 2.2 2.22 2.22 0 0 0 2.2 2.2 2.22 2.22 0 0 0 2.2-2.2c-.1-1.2-1-2.2-2.2-2.2zm-6.7 0a2.22 2.22 0 0 0-2.2 2.2 2.22 2.22 0 0 0 2.2 2.2 2.22 2.22 0 0 0 2.2-2.2 2.22 2.22 0 0 0-2.2-2.2zm-6.7 0a2.22 2.22 0 0 0-2.2 2.2 2.22 2.22 0 0 0 2.2 2.2 2.22 2.22 0 0 0 2.2-2.2 2.22 2.22 0 0 0-2.2-2.2zm-6.7 0a2.22 2.22 0 0 0-2.2 2.2 2.22 2.22 0 0 0 2.2 2.2 2.22 2.22 0 0 0 2.2-2.2 2.22 2.22 0 0 0-2.2-2.2zm-6.7 0a2.22 2.22 0 0 0-2.2 2.2 2.22 2.22 0 0 0 2.2 2.2 2.22 2.22 0 0 0 2.2-2.2 2.22 2.22 0 0 0-2.2-2.2zm-6.6 0a2.22 2.22 0 0 0-2.2 2.2 2.22 2.22 0 0 0 2.2 2.2 2.22 2.22 0 0 0 2.2-2.2c-.1-1.2-1-2.2-2.2-2.2zm-6.7 0a2.22 2.22 0 0 0-2.2 2.2 2.22 2.22 0 0 0 2.2 2.2 2.22 2.22 0 0 0 2.2-2.2 2.22 2.22 0 0 0-2.2-2.2zm-6.7 0a2.22 2.22 0 0 0-2.2 2.2 2.22 2.22 0 0 0 2.2 2.2 2.22 2.22 0 0 0 2.2-2.2 2.22 2.22 0 0 0-2.2-2.2zm-6.7 0a2.22 2.22 0 0 0-2.2 2.2 2.22 2.22 0 0 0 2.2 2.2 2.22 2.22 0 0 0 2.2-2.2 2.22 2.22 0 0 0-2.2-2.2zm-6.7 0a2.22 2.22 0 0 0-2.2 2.2 2.22 2.22 0 0 0 2.2 2.2 2.22 2.22 0 0 0 2.2-2.2 2.22 2.22 0 0 0-2.2-2.2zm-6.6 0a2.22 2.22 0 0 0-2.2 2.2 2.22 2.22 0 0 0 2.2 2.2 2.22 2.22 0 0 0 2.2-2.2c-.1-1.2-1-2.2-2.2-2.2zm-6.7 0a2.22 2.22 0 0 0-2.2 2.2 2.22 2.22 0 0 0 2.2 2.2 2.22 2.22 0 0 0 2.2-2.2c-.1-1.2-1-2.2-2.2-2.2zm-6.7 0a2.22 2.22 0 0 0-2.2 2.2 2.22 2.22 0 0 0 2.2 2.2 2.22 2.22 0 0 0 2.2-2.2 2.22 2.22 0 0 0-2.2-2.2zm-6.7 0a2.22 2.22 0 0 0-2.2 2.2 2.22 2.22 0 0 0 2.2 2.2 2.22 2.22 0 0 0 2.2-2.2 2.22 2.22 0 0 0-2.2-2.2zm-6.7 0a2.22 2.22 0 0 0-2.2 2.2 2.22 2.22 0 0 0 2.2 2.2 2.22 2.22 0 0 0 2.2-2.2 2.22 2.22 0 0 0-2.2-2.2zm-6.7 0a2.22 2.22 0 0 0-2.2 2.2 2.22 2.22 0 0 0 2.2 2.2 2.22 2.22 0 0 0 2.2-2.2 2.22 2.22 0 0 0-2.2-2.2zm-6.6 0a2.22 2.22 0 0 0-2.2 2.2 2.22 2.22 0 0 0 2.2 2.2 2.22 2.22 0 0 0 2.2-2.2c-.1-1.2-1-2.2-2.2-2.2zm-6.7 0a2.22 2.22 0 0 0-2.2 2.2 2.22 2.22 0 0 0 2.2 2.2 2.22 2.22 0 0 0 2.2-2.2 2.22 2.22 0 0 0-2.2-2.2zm-6.7 0a2.22 2.22 0 0 0-2.2 2.2 2.22 2.22 0 0 0 2.2 2.2 2.22 2.22 0 0 0 2.2-2.2 2.22 2.22 0 0 0-2.2-2.2zm-6.7 0a2.22 2.22 0 0 0-2.2 2.2 2.22 2.22 0 0 0 2.2 2.2 2.22 2.22 0 0 0 2.2-2.2 2.22 2.22 0 0 0-2.2-2.2zm-6.7 0a2.22 2.22 0 0 0-2.2 2.2 2.22 2.22 0 0 0 2.2 2.2 2.22 2.22 0 0 0 2.2-2.2 2.22 2.22 0 0 0-2.2-2.2zm147-6.7a2.22 2.22 0 0 0-2.2 2.2 2.22 2.22 0 0 0 2.2 2.2 2.22 2.22 0 0 0 2.2-2.2 2.22 2.22 0 0 0-2.2-2.2zm-6.6 0a2.22 2.22 0 0 0-2.2 2.2 2.22 2.22 0 0 0 2.2 2.2 2.22 2.22 0 0 0 2.2-2.2c-.1-1.2-1-2.2-2.2-2.2zm-6.7 0a2.22 2.22 0 0 0-2.2 2.2 2.22 2.22 0 0 0 2.2 2.2 2.22 2.22 0 0 0 2.2-2.2c-.1-1.2-1-2.2-2.2-2.2zm-6.7 0a2.22 2.22 0 0 0-2.2 2.2 2.22 2.22 0 0 0 2.2 2.2 2.22 2.22 0 0 0 2.2-2.2 2.22 2.22 0 0 0-2.2-2.2zm-6.7 0a2.22 2.22 0 0 0-2.2 2.2 2.22 2.22 0 0 0 2.2 2.2 2.22 2.22 0 0 0 2.2-2.2 2.22 2.22 0 0 0-2.2-2.2zm-33.4 0a2.22 2.22 0 0 0-2.2 2.2 2.22 2.22 0 0 0 2.2 2.2 2.22 2.22 0 0 0 2.2-2.2 2.22 2.22 0 0 0-2.2-2.2zm-6.7 0a2.22 2.22 0 0 0-2.2 2.2 2.22 2.22 0 0 0 2.2 2.2 2.22 2.22 0 0 0 2.2-2.2 2.22 2.22 0 0 0-2.2-2.2zm-6.7 0a2.22 2.22 0 0 0-2.2 2.2 2.22 2.22 0 0 0 2.2 2.2 2.22 2.22 0 0 0 2.2-2.2 2.22 2.22 0 0 0-2.2-2.2zm-6.6 0a2.22 2.22 0 0 0-2.2 2.2 2.22 2.22 0 0 0 2.2 2.2 2.22 2.22 0 0 0 2.2-2.2c-.1-1.2-1-2.2-2.2-2.2zm-6.7 0a2.22 2.22 0 0 0-2.2 2.2 2.22 2.22 0 0 0 2.2 2.2 2.22 2.22 0 0 0 2.2-2.2c-.1-1.2-1-2.2-2.2-2.2zm-6.7 0a2.22 2.22 0 0 0-2.2 2.2 2.22 2.22 0 0 0 2.2 2.2 2.22 2.22 0 0 0 2.2-2.2 2.22 2.22 0 0 0-2.2-2.2zm-6.7 0a2.22 2.22 0 0 0-2.2 2.2 2.22 2.22 0 0 0 2.2 2.2 2.22 2.22 0 0 0 2.2-2.2 2.22 2.22 0 0 0-2.2-2.2zm-6.7 0a2.22 2.22 0 0 0-2.2 2.2 2.22 2.22 0 0 0 2.2 2.2 2.22 2.22 0 0 0 2.2-2.2 2.22 2.22 0 0 0-2.2-2.2zm-6.7 0a2.22 2.22 0 0 0-2.2 2.2 2.22 2.22 0 0 0 2.2 2.2 2.22 2.22 0 0 0 2.2-2.2 2.22 2.22 0 0 0-2.2-2.2zm-6.6 0a2.22 2.22 0 0 0-2.2 2.2 2.22 2.22 0 0 0 2.2 2.2 2.22 2.22 0 0 0 2.2-2.2c-.1-1.2-1-2.2-2.2-2.2zm-6.7 0a2.22 2.22 0 0 0-2.2 2.2 2.22 2.22 0 0 0 2.2 2.2 2.22 2.22 0 0 0 2.2-2.2 2.22 2.22 0 0 0-2.2-2.2zm-6.7 0a2.22 2.22 0 0 0-2.2 2.2 2.22 2.22 0 0 0 2.2 2.2 2.22 2.22 0 0 0 2.2-2.2 2.22 2.22 0 0 0-2.2-2.2zm-6.7 0a2.22 2.22 0 0 0-2.2 2.2 2.22 2.22 0 0 0 2.2 2.2 2.22 2.22 0 0 0 2.2-2.2 2.22 2.22 0 0 0-2.2-2.2zm-6.7 0a2.22 2.22 0 0 0-2.2 2.2 2.22 2.22 0 0 0 2.2 2.2 2.22 2.22 0 0 0 2.2-2.2 2.22 2.22 0 0 0-2.2-2.2zm-33.4 0a2.22 2.22 0 0 0-2.2 2.2 2.22 2.22 0 0 0 2.2 2.2 2.22 2.22 0 0 0 2.2-2.2 2.22 2.22 0 0 0-2.2-2.2zm-6.7 0a2.22 2.22 0 0 0-2.2 2.2 2.22 2.22 0 0 0 2.2 2.2 2.22 2.22 0 0 0 2.2-2.2 2.22 2.22 0 0 0-2.2-2.2zm-6.6 0a2.22 2.22 0 0 0-2.2 2.2 2.22 2.22 0 0 0 2.2 2.2 2.22 2.22 0 0 0 2.2-2.2c-.1-1.2-1-2.2-2.2-2.2zm180.4-6.7a2.22 2.22 0 0 0-2.2 2.2 2.22 2.22 0 0 0 2.2 2.2 2.22 2.22 0 0 0 2.2-2.2 2.22 2.22 0 0 0-2.2-2.2zm-6.7 0a2.22 2.22 0 0 0-2.2 2.2 2.22 2.22 0 0 0 2.2 2.2 2.22 2.22 0 0 0 2.2-2.2 2.22 2.22 0 0 0-2.2-2.2zm-6.7 0a2.22 2.22 0 0 0-2.2 2.2 2.22 2.22 0 0 0 2.2 2.2 2.22 2.22 0 0 0 2.2-2.2 2.22 2.22 0 0 0-2.2-2.2zm-33.4 0a2.22 2.22 0 0 0-2.2 2.2 2.22 2.22 0 0 0 2.2 2.2 2.22 2.22 0 0 0 2.2-2.2 2.22 2.22 0 0 0-2.2-2.2zm-6.7 0a2.22 2.22 0 0 0-2.2 2.2 2.22 2.22 0 0 0 2.2 2.2 2.22 2.22 0 0 0 2.2-2.2 2.22 2.22 0 0 0-2.2-2.2zm-6.7 0a2.22 2.22 0 0 0-2.2 2.2 2.22 2.22 0 0 0 2.2 2.2 2.22 2.22 0 0 0 2.2-2.2 2.22 2.22 0 0 0-2.2-2.2zm-6.6 0a2.22 2.22 0 0 0-2.2 2.2 2.22 2.22 0 0 0 2.2 2.2 2.22 2.22 0 0 0 2.2-2.2 2.22 2.22 0 0 0-2.2-2.2zm-6.7 0a2.22 2.22 0 0 0-2.2 2.2 2.22 2.22 0 0 0 2.2 2.2 2.22 2.22 0 0 0 2.2-2.2 2.22 2.22 0 0 0-2.2-2.2zm-6.7 0a2.22 2.22 0 0 0-2.2 2.2 2.22 2.22 0 0 0 2.2 2.2 2.22 2.22 0 0 0 2.2-2.2 2.22 2.22 0 0 0-2.2-2.2zm-6.7 0A2.22 2.22 0 0 0 94 49a2.22 2.22 0 0 0 2.2 2.2 2.22 2.22 0 0 0 2.2-2.2 2.22 2.22 0 0 0-2.2-2.2zm-6.7 0a2.22 2.22 0 0 0-2.2 2.2 2.22 2.22 0 0 0 2.2 2.2 2.22 2.22 0 0 0 2.2-2.2 2.22 2.22 0 0 0-2.2-2.2zm-6.7 0a2.22 2.22 0 0 0-2.2 2.2 2.22 2.22 0 0 0 2.2 2.2A2.22 2.22 0 0 0 85 49a2.22 2.22 0 0 0-2.2-2.2zm-6.6 0A2.22 2.22 0 0 0 74 49a2.22 2.22 0 0 0 2.2 2.2 2.22 2.22 0 0 0 2.2-2.2 2.22 2.22 0 0 0-2.2-2.2zm-6.7 0a2.22 2.22 0 0 0-2.2 2.2 2.22 2.22 0 0 0 2.2 2.2 2.22 2.22 0 0 0 2.2-2.2 2.22 2.22 0 0 0-2.2-2.2zm-6.7 0a2.22 2.22 0 0 0-2.2 2.2 2.22 2.22 0 0 0 2.2 2.2A2.22 2.22 0 0 0 65 49a2.22 2.22 0 0 0-2.2-2.2zm-6.7 0a2.22 2.22 0 0 0-2.2 2.2 2.22 2.22 0 0 0 2.2 2.2 2.22 2.22 0 0 0 2.2-2.2 2.22 2.22 0 0 0-2.2-2.2zm-6.7 0a2.22 2.22 0 0 0-2.2 2.2 2.22 2.22 0 0 0 2.2 2.2 2.22 2.22 0 0 0 2.2-2.2 2.22 2.22 0 0 0-2.2-2.2zm-20 0a2.22 2.22 0 0 0-2.2 2.2 2.22 2.22 0 0 0 2.2 2.2 2.22 2.22 0 0 0 2.2-2.2 2.22 2.22 0 0 0-2.2-2.2zm-6.7 0a2.22 2.22 0 0 0-2.2 2.2 2.22 2.22 0 0 0 2.2 2.2 2.22 2.22 0 0 0 2.2-2.2 2.22 2.22 0 0 0-2.2-2.2zm-6.7 0a2.22 2.22 0 0 0-2.2 2.2 2.22 2.22 0 0 0 2.2 2.2 2.22 2.22 0 0 0 2.2-2.2 2.22 2.22 0 0 0-2.2-2.2zm-6.7 0A2.22 2.22 0 0 0 7.1 49a2.22 2.22 0 0 0 2.2 2.2 2.22 2.22 0 0 0 2.2-2.2 2.22 2.22 0 0 0-2.2-2.2zm227.2-6.6a2.22 2.22 0 0 0-2.2 2.2 2.22 2.22 0 0 0 2.2 2.2 2.22 2.22 0 0 0 2.2-2.2c0-1.3-1-2.2-2.2-2.2zm-6.7 0a2.22 2.22 0 0 0-2.2 2.2 2.22 2.22 0 0 0 2.2 2.2 2.22 2.22 0 0 0 2.2-2.2c0-1.3-1-2.2-2.2-2.2zm-40 0a2.22 2.22 0 0 0-2.2 2.2 2.22 2.22 0 0 0 2.2 2.2 2.22 2.22 0 0 0 2.2-2.2c-.1-1.3-1-2.2-2.2-2.2zm-13.4 0a2.22 2.22 0 0 0-2.2 2.2 2.22 2.22 0 0 0 2.2 2.2 2.22 2.22 0 0 0 2.2-2.2c0-1.3-1-2.2-2.2-2.2zm-13.4 0a2.22 2.22 0 0 0-2.2 2.2 2.22 2.22 0 0 0 2.2 2.2 2.22 2.22 0 0 0 2.2-2.2c0-1.3-1-2.2-2.2-2.2zm-20 0a2.22 2.22 0 0 0-2.2 2.2 2.22 2.22 0 0 0 2.2 2.2 2.22 2.22 0 0 0 2.2-2.2c0-1.3-1-2.2-2.2-2.2zm-6.7 0a2.22 2.22 0 0 0-2.2 2.2 2.22 2.22 0 0 0 2.2 2.2 2.22 2.22 0 0 0 2.2-2.2c0-1.3-1-2.2-2.2-2.2zm-6.7 0a2.22 2.22 0 0 0-2.2 2.2 2.22 2.22 0 0 0 2.2 2.2 2.22 2.22 0 0 0 2.2-2.2c0-1.3-1-2.2-2.2-2.2zm-6.7 0a2.22 2.22 0 0 0-2.2 2.2 2.22 2.22 0 0 0 2.2 2.2 2.22 2.22 0 0 0 2.2-2.2c0-1.3-1-2.2-2.2-2.2zm-6.6 0a2.22 2.22 0 0 0-2.2 2.2 2.22 2.22 0 0 0 2.2 2.2 2.22 2.22 0 0 0 2.2-2.2c-.1-1.3-1-2.2-2.2-2.2zm-6.7 0a2.22 2.22 0 0 0-2.2 2.2 2.22 2.22 0 0 0 2.2 2.2 2.22 2.22 0 0 0 2.2-2.2c-.1-1.3-1-2.2-2.2-2.2zm-6.7 0a2.22 2.22 0 0 0-2.2 2.2 2.22 2.22 0 0 0 2.2 2.2 2.22 2.22 0 0 0 2.2-2.2c0-1.3-1-2.2-2.2-2.2zm-6.7 0a2.22 2.22 0 0 0-2.2 2.2 2.22 2.22 0 0 0 2.2 2.2 2.22 2.22 0 0 0 2.2-2.2c0-1.3-1-2.2-2.2-2.2zm-6.7 0a2.22 2.22 0 0 0-2.2 2.2 2.22 2.22 0 0 0 2.2 2.2 2.22 2.22 0 0 0 2.2-2.2c0-1.3-1-2.2-2.2-2.2zm-6.7 0a2.22 2.22 0 0 0-2.2 2.2 2.22 2.22 0 0 0 2.2 2.2 2.22 2.22 0 0 0 2.2-2.2c0-1.3-1-2.2-2.2-2.2zm-6.6 0a2.22 2.22 0 0 0-2.2 2.2 2.22 2.22 0 0 0 2.2 2.2 2.22 2.22 0 0 0 2.2-2.2c-.1-1.3-1-2.2-2.2-2.2zm-6.7 0a2.22 2.22 0 0 0-2.2 2.2 2.22 2.22 0 0 0 2.2 2.2 2.22 2.22 0 0 0 2.2-2.2c0-1.3-1-2.2-2.2-2.2zm-6.7 0a2.22 2.22 0 0 0-2.2 2.2 2.22 2.22 0 0 0 2.2 2.2 2.22 2.22 0 0 0 2.2-2.2c0-1.3-1-2.2-2.2-2.2zm-6.7 0a2.22 2.22 0 0 0-2.2 2.2 2.22 2.22 0 0 0 2.2 2.2 2.22 2.22 0 0 0 2.2-2.2c0-1.3-1-2.2-2.2-2.2zm-6.7 0a2.22 2.22 0 0 0-2.2 2.2 2.22 2.22 0 0 0 2.2 2.2 2.22 2.22 0 0 0 2.2-2.2c0-1.3-1-2.2-2.2-2.2zm-6.7 0a2.22 2.22 0 0 0-2.2 2.2 2.22 2.22 0 0 0 2.2 2.2 2.22 2.22 0 0 0 2.2-2.2c0-1.3-.9-2.2-2.2-2.2zm-6.6 0a2.22 2.22 0 0 0-2.2 2.2 2.22 2.22 0 0 0 2.2 2.2 2.22 2.22 0 0 0 2.2-2.2c-.1-1.3-1-2.2-2.2-2.2zm-6.7 0a2.22 2.22 0 0 0-2.2 2.2 2.22 2.22 0 0 0 2.2 2.2 2.22 2.22 0 0 0 2.2-2.2c0-1.3-1-2.2-2.2-2.2zm-6.7 0a2.22 2.22 0 0 0-2.2 2.2 2.22 2.22 0 0 0 2.2 2.2 2.22 2.22 0 0 0 2.2-2.2c0-1.3-1-2.2-2.2-2.2zm-6.7 0a2.22 2.22 0 0 0-2.2 2.2 2.22 2.22 0 0 0 2.2 2.2 2.22 2.22 0 0 0 2.2-2.2c0-1.3-1-2.2-2.2-2.2zm-6.7 0a2.22 2.22 0 0 0-2.2 2.2 2.22 2.22 0 0 0 2.2 2.2 2.22 2.22 0 0 0 2.2-2.2c0-1.3-1-2.2-2.2-2.2zm233.9-6.7a2.22 2.22 0 0 0-2.2 2.2 2.22 2.22 0 0 0 2.2 2.2 2.22 2.22 0 0 0 2.2-2.2 2.22 2.22 0 0 0-2.2-2.2zm-6.7 0a2.22 2.22 0 0 0-2.2 2.2 2.22 2.22 0 0 0 2.2 2.2 2.22 2.22 0 0 0 2.2-2.2 2.22 2.22 0 0 0-2.2-2.2zm-6.7 0a2.22 2.22 0 0 0-2.2 2.2 2.22 2.22 0 0 0 2.2 2.2 2.22 2.22 0 0 0 2.2-2.2 2.22 2.22 0 0 0-2.2-2.2zm-26.7 0a2.22 2.22 0 0 0-2.2 2.2 2.22 2.22 0 0 0 2.2 2.2 2.22 2.22 0 0 0 2.2-2.2 2.22 2.22 0 0 0-2.2-2.2zm-6.7 0a2.22 2.22 0 0 0-2.2 2.2 2.22 2.22 0 0 0 2.2 2.2 2.22 2.22 0 0 0 2.2-2.2 2.22 2.22 0 0 0-2.2-2.2zm-6.6 0a2.22 2.22 0 0 0-2.2 2.2 2.22 2.22 0 0 0 2.2 2.2 2.22 2.22 0 0 0 2.2-2.2c-.1-1.2-1-2.2-2.2-2.2zm-6.7 0a2.22 2.22 0 0 0-2.2 2.2 2.22 2.22 0 0 0 2.2 2.2 2.22 2.22 0 0 0 2.2-2.2c-.1-1.2-1-2.2-2.2-2.2zm-6.7 0a2.22 2.22 0 0 0-2.2 2.2 2.22 2.22 0 0 0 2.2 2.2 2.22 2.22 0 0 0 2.2-2.2 2.22 2.22 0 0 0-2.2-2.2zm-13.4 0a2.22 2.22 0 0 0-2.2 2.2 2.22 2.22 0 0 0 2.2 2.2 2.22 2.22 0 0 0 2.2-2.2 2.22 2.22 0 0 0-2.2-2.2zm-6.7 0a2.22 2.22 0 0 0-2.2 2.2 2.22 2.22 0 0 0 2.2 2.2 2.22 2.22 0 0 0 2.2-2.2 2.22 2.22 0 0 0-2.2-2.2zm-6.6 0a2.22 2.22 0 0 0-2.2 2.2 2.22 2.22 0 0 0 2.2 2.2 2.22 2.22 0 0 0 2.2-2.2c-.1-1.2-1-2.2-2.2-2.2zm-6.7 0a2.22 2.22 0 0 0-2.2 2.2 2.22 2.22 0 0 0 2.2 2.2 2.22 2.22 0 0 0 2.2-2.2 2.22 2.22 0 0 0-2.2-2.2zm-6.7 0a2.22 2.22 0 0 0-2.2 2.2 2.22 2.22 0 0 0 2.2 2.2 2.22 2.22 0 0 0 2.2-2.2 2.22 2.22 0 0 0-2.2-2.2zm-6.7 0a2.22 2.22 0 0 0-2.2 2.2 2.22 2.22 0 0 0 2.2 2.2 2.22 2.22 0 0 0 2.2-2.2 2.22 2.22 0 0 0-2.2-2.2zm-6.7 0a2.22 2.22 0 0 0-2.2 2.2 2.22 2.22 0 0 0 2.2 2.2 2.22 2.22 0 0 0 2.2-2.2 2.22 2.22 0 0 0-2.2-2.2zm-6.6 0a2.22 2.22 0 0 0-2.2 2.2 2.22 2.22 0 0 0 2.2 2.2 2.22 2.22 0 0 0 2.2-2.2c-.1-1.2-1-2.2-2.2-2.2zm-6.7 0a2.22 2.22 0 0 0-2.2 2.2 2.22 2.22 0 0 0 2.2 2.2 2.22 2.22 0 0 0 2.2-2.2c-.1-1.2-1-2.2-2.2-2.2zm-6.7 0a2.22 2.22 0 0 0-2.2 2.2 2.22 2.22 0 0 0 2.2 2.2 2.22 2.22 0 0 0 2.2-2.2 2.22 2.22 0 0 0-2.2-2.2zm-6.7 0a2.22 2.22 0 0 0-2.2 2.2 2.22 2.22 0 0 0 2.2 2.2 2.22 2.22 0 0 0 2.2-2.2 2.22 2.22 0 0 0-2.2-2.2zm-6.7 0a2.22 2.22 0 0 0-2.2 2.2 2.22 2.22 0 0 0 2.2 2.2 2.22 2.22 0 0 0 2.2-2.2 2.22 2.22 0 0 0-2.2-2.2zm-6.7 0a2.22 2.22 0 0 0-2.2 2.2 2.22 2.22 0 0 0 2.2 2.2 2.22 2.22 0 0 0 2.2-2.2 2.22 2.22 0 0 0-2.2-2.2zm-6.6 0a2.22 2.22 0 0 0-2.2 2.2 2.22 2.22 0 0 0 2.2 2.2 2.22 2.22 0 0 0 2.2-2.2c-.1-1.2-1-2.2-2.2-2.2zm-6.7 0a2.22 2.22 0 0 0-2.2 2.2 2.22 2.22 0 0 0 2.2 2.2 2.22 2.22 0 0 0 2.2-2.2 2.22 2.22 0 0 0-2.2-2.2zm-6.7 0a2.22 2.22 0 0 0-2.2 2.2 2.22 2.22 0 0 0 2.2 2.2 2.22 2.22 0 0 0 2.2-2.2 2.22 2.22 0 0 0-2.2-2.2zm-6.7 0a2.22 2.22 0 0 0-2.2 2.2 2.22 2.22 0 0 0 2.2 2.2 2.22 2.22 0 0 0 2.2-2.2 2.22 2.22 0 0 0-2.2-2.2zm-6.7 0a2.22 2.22 0 0 0-2.2 2.2 2.22 2.22 0 0 0 2.2 2.2 2.22 2.22 0 0 0 2.2-2.2 2.22 2.22 0 0 0-2.2-2.2zm-6.7 0a2.22 2.22 0 0 0-2.2 2.2 2.22 2.22 0 0 0 2.2 2.2 2.22 2.22 0 0 0 2.2-2.2c0-1.2-.9-2.2-2.2-2.2zm-6.6 0a2.22 2.22 0 0 0-2.2 2.2 2.22 2.22 0 0 0 2.2 2.2 2.22 2.22 0 0 0 2.2-2.2c-.1-1.2-1-2.2-2.2-2.2zm-6.7 0a2.22 2.22 0 0 0-2.2 2.2 2.22 2.22 0 0 0 2.2 2.2 2.22 2.22 0 0 0 2.2-2.2 2.22 2.22 0 0 0-2.2-2.2zm-6.7 0a2.22 2.22 0 0 0-2.2 2.2 2.22 2.22 0 0 0 2.2 2.2 2.22 2.22 0 0 0 2.2-2.2 2.22 2.22 0 0 0-2.2-2.2zm-6.7 0a2.22 2.22 0 0 0-2.2 2.2 2.22 2.22 0 0 0 2.2 2.2 2.22 2.22 0 0 0 2.2-2.2 2.22 2.22 0 0 0-2.2-2.2zm253.9-6.7a2.22 2.22 0 0 0-2.2 2.2 2.22 2.22 0 0 0 2.2 2.2 2.22 2.22 0 0 0 2.2-2.2 2.22 2.22 0 0 0-2.2-2.2zm-6.7 0A2.22 2.22 0 0 0 261 29a2.22 2.22 0 0 0 2.2 2.2 2.22 2.22 0 0 0 2.2-2.2c0-1.2-.9-2.2-2.2-2.2zm-6.6 0a2.22 2.22 0 0 0-2.2 2.2 2.22 2.22 0 0 0 2.2 2.2 2.22 2.22 0 0 0 2.2-2.2 2.22 2.22 0 0 0-2.2-2.2zm-6.7 0a2.22 2.22 0 0 0-2.2 2.2 2.22 2.22 0 0 0 2.2 2.2 2.22 2.22 0 0 0 2.2-2.2 2.22 2.22 0 0 0-2.2-2.2zm-6.7 0A2.22 2.22 0 0 0 241 29a2.22 2.22 0 0 0 2.2 2.2 2.22 2.22 0 0 0 2.2-2.2 2.22 2.22 0 0 0-2.2-2.2zm-6.7 0a2.22 2.22 0 0 0-2.2 2.2 2.22 2.22 0 0 0 2.2 2.2 2.22 2.22 0 0 0 2.2-2.2 2.22 2.22 0 0 0-2.2-2.2zm-6.7 0a2.22 2.22 0 0 0-2.2 2.2 2.22 2.22 0 0 0 2.2 2.2A2.22 2.22 0 0 0 232 29a2.22 2.22 0 0 0-2.2-2.2zm-33.4 0a2.22 2.22 0 0 0-2.2 2.2 2.22 2.22 0 0 0 2.2 2.2 2.22 2.22 0 0 0 2.2-2.2 2.22 2.22 0 0 0-2.2-2.2zm-6.6 0a2.22 2.22 0 0 0-2.2 2.2 2.22 2.22 0 0 0 2.2 2.2A2.22 2.22 0 0 0 192 29a2.22 2.22 0 0 0-2.2-2.2zm-20.1 0a2.22 2.22 0 0 0-2.2 2.2 2.22 2.22 0 0 0 2.2 2.2 2.22 2.22 0 0 0 2.2-2.2 2.22 2.22 0 0 0-2.2-2.2zm-6.7 0a2.22 2.22 0 0 0-2.2 2.2 2.22 2.22 0 0 0 2.2 2.2 2.22 2.22 0 0 0 2.2-2.2 2.22 2.22 0 0 0-2.2-2.2zm-6.7 0a2.22 2.22 0 0 0-2.2 2.2 2.22 2.22 0 0 0 2.2 2.2 2.22 2.22 0 0 0 2.2-2.2 2.22 2.22 0 0 0-2.2-2.2zm-6.6 0a2.22 2.22 0 0 0-2.2 2.2 2.22 2.22 0 0 0 2.2 2.2 2.22 2.22 0 0 0 2.2-2.2 2.22 2.22 0 0 0-2.2-2.2zm-6.7 0a2.22 2.22 0 0 0-2.2 2.2 2.22 2.22 0 0 0 2.2 2.2 2.22 2.22 0 0 0 2.2-2.2 2.22 2.22 0 0 0-2.2-2.2zm-6.7 0a2.22 2.22 0 0 0-2.2 2.2 2.22 2.22 0 0 0 2.2 2.2 2.22 2.22 0 0 0 2.2-2.2 2.22 2.22 0 0 0-2.2-2.2zm-6.7 0a2.22 2.22 0 0 0-2.2 2.2 2.22 2.22 0 0 0 2.2 2.2 2.22 2.22 0 0 0 2.2-2.2 2.22 2.22 0 0 0-2.2-2.2zm-6.7 0a2.22 2.22 0 0 0-2.2 2.2 2.22 2.22 0 0 0 2.2 2.2 2.22 2.22 0 0 0 2.2-2.2 2.22 2.22 0 0 0-2.2-2.2zm-6.6 0a2.22 2.22 0 0 0-2.2 2.2 2.22 2.22 0 0 0 2.2 2.2 2.22 2.22 0 0 0 2.2-2.2 2.22 2.22 0 0 0-2.2-2.2zm-6.7 0a2.22 2.22 0 0 0-2.2 2.2 2.22 2.22 0 0 0 2.2 2.2 2.22 2.22 0 0 0 2.2-2.2 2.22 2.22 0 0 0-2.2-2.2zm-6.7 0a2.22 2.22 0 0 0-2.2 2.2 2.22 2.22 0 0 0 2.2 2.2 2.22 2.22 0 0 0 2.2-2.2 2.22 2.22 0 0 0-2.2-2.2zm-6.7 0A2.22 2.22 0 0 0 94 29a2.22 2.22 0 0 0 2.2 2.2 2.22 2.22 0 0 0 2.2-2.2 2.22 2.22 0 0 0-2.2-2.2zm-6.7 0a2.22 2.22 0 0 0-2.2 2.2 2.22 2.22 0 0 0 2.2 2.2 2.22 2.22 0 0 0 2.2-2.2 2.22 2.22 0 0 0-2.2-2.2zm-6.7 0a2.22 2.22 0 0 0-2.2 2.2 2.22 2.22 0 0 0 2.2 2.2A2.22 2.22 0 0 0 85 29a2.22 2.22 0 0 0-2.2-2.2zm-6.6 0A2.22 2.22 0 0 0 74 29a2.22 2.22 0 0 0 2.2 2.2 2.22 2.22 0 0 0 2.2-2.2 2.22 2.22 0 0 0-2.2-2.2zm-6.7 0a2.22 2.22 0 0 0-2.2 2.2 2.22 2.22 0 0 0 2.2 2.2 2.22 2.22 0 0 0 2.2-2.2 2.22 2.22 0 0 0-2.2-2.2zm-6.7 0a2.22 2.22 0 0 0-2.2 2.2 2.22 2.22 0 0 0 2.2 2.2A2.22 2.22 0 0 0 65 29a2.22 2.22 0 0 0-2.2-2.2zm-6.7 0a2.22 2.22 0 0 0-2.2 2.2 2.22 2.22 0 0 0 2.2 2.2 2.22 2.22 0 0 0 2.2-2.2 2.22 2.22 0 0 0-2.2-2.2zm-6.7 0a2.22 2.22 0 0 0-2.2 2.2 2.22 2.22 0 0 0 2.2 2.2 2.22 2.22 0 0 0 2.2-2.2 2.22 2.22 0 0 0-2.2-2.2zm-6.7 0a2.22 2.22 0 0 0-2.2 2.2 2.22 2.22 0 0 0 2.2 2.2 2.22 2.22 0 0 0 2.2-2.2c0-1.2-.9-2.2-2.2-2.2zm-6.6 0a2.22 2.22 0 0 0-2.2 2.2 2.22 2.22 0 0 0 2.2 2.2 2.22 2.22 0 0 0 2.2-2.2 2.22 2.22 0 0 0-2.2-2.2zm-6.7 0a2.22 2.22 0 0 0-2.2 2.2 2.22 2.22 0 0 0 2.2 2.2 2.22 2.22 0 0 0 2.2-2.2 2.22 2.22 0 0 0-2.2-2.2zm253.9-6.7a2.22 2.22 0 0 0-2.2 2.2 2.22 2.22 0 0 0 2.2 2.2 2.22 2.22 0 0 0 2.2-2.2 2.22 2.22 0 0 0-2.2-2.2zm-6.7 0a2.22 2.22 0 0 0-2.2 2.2 2.22 2.22 0 0 0 2.2 2.2 2.22 2.22 0 0 0 2.2-2.2 2.22 2.22 0 0 0-2.2-2.2zm-6.7 0a2.22 2.22 0 0 0-2.2 2.2 2.22 2.22 0 0 0 2.2 2.2 2.22 2.22 0 0 0 2.2-2.2 2.22 2.22 0 0 0-2.2-2.2zm-6.7 0a2.22 2.22 0 0 0-2.2 2.2 2.22 2.22 0 0 0 2.2 2.2 2.22 2.22 0 0 0 2.2-2.2c0-1.2-.9-2.2-2.2-2.2zm-6.6 0a2.22 2.22 0 0 0-2.2 2.2 2.22 2.22 0 0 0 2.2 2.2 2.22 2.22 0 0 0 2.2-2.2c-.1-1.2-1-2.2-2.2-2.2zm-6.7 0a2.22 2.22 0 0 0-2.2 2.2 2.22 2.22 0 0 0 2.2 2.2 2.22 2.22 0 0 0 2.2-2.2 2.22 2.22 0 0 0-2.2-2.2zm-6.7 0a2.22 2.22 0 0 0-2.2 2.2 2.22 2.22 0 0 0 2.2 2.2 2.22 2.22 0 0 0 2.2-2.2 2.22 2.22 0 0 0-2.2-2.2zm-6.7 0a2.22 2.22 0 0 0-2.2 2.2 2.22 2.22 0 0 0 2.2 2.2 2.22 2.22 0 0 0 2.2-2.2 2.22 2.22 0 0 0-2.2-2.2zm-6.7 0a2.22 2.22 0 0 0-2.2 2.2 2.22 2.22 0 0 0 2.2 2.2 2.22 2.22 0 0 0 2.2-2.2 2.22 2.22 0 0 0-2.2-2.2zm-40 0a2.22 2.22 0 0 0-2.2 2.2 2.22 2.22 0 0 0 2.2 2.2 2.22 2.22 0 0 0 2.2-2.2c-.1-1.2-1-2.2-2.2-2.2zm-6.7 0a2.22 2.22 0 0 0-2.2 2.2 2.22 2.22 0 0 0 2.2 2.2 2.22 2.22 0 0 0 2.2-2.2c-.1-1.2-1-2.2-2.2-2.2zm-6.7 0a2.22 2.22 0 0 0-2.2 2.2 2.22 2.22 0 0 0 2.2 2.2 2.22 2.22 0 0 0 2.2-2.2 2.22 2.22 0 0 0-2.2-2.2zm-6.7 0a2.22 2.22 0 0 0-2.2 2.2 2.22 2.22 0 0 0 2.2 2.2 2.22 2.22 0 0 0 2.2-2.2 2.22 2.22 0 0 0-2.2-2.2zm-13.4 0a2.22 2.22 0 0 0-2.2 2.2 2.22 2.22 0 0 0 2.2 2.2 2.22 2.22 0 0 0 2.2-2.2 2.22 2.22 0 0 0-2.2-2.2zm-13.3 0a2.22 2.22 0 0 0-2.2 2.2 2.22 2.22 0 0 0 2.2 2.2 2.22 2.22 0 0 0 2.2-2.2 2.22 2.22 0 0 0-2.2-2.2zm-6.7 0a2.22 2.22 0 0 0-2.2 2.2 2.22 2.22 0 0 0 2.2 2.2 2.22 2.22 0 0 0 2.2-2.2 2.22 2.22 0 0 0-2.2-2.2zm-6.7 0a2.22 2.22 0 0 0-2.2 2.2 2.22 2.22 0 0 0 2.2 2.2 2.22 2.22 0 0 0 2.2-2.2 2.22 2.22 0 0 0-2.2-2.2zm-6.7 0a2.22 2.22 0 0 0-2.2 2.2 2.22 2.22 0 0 0 2.2 2.2 2.22 2.22 0 0 0 2.2-2.2 2.22 2.22 0 0 0-2.2-2.2zm-6.6 0a2.22 2.22 0 0 0-2.2 2.2 2.22 2.22 0 0 0 2.2 2.2 2.22 2.22 0 0 0 2.2-2.2c-.1-1.2-1-2.2-2.2-2.2zm-6.7 0a2.22 2.22 0 0 0-2.2 2.2 2.22 2.22 0 0 0 2.2 2.2 2.22 2.22 0 0 0 2.2-2.2c-.1-1.2-1-2.2-2.2-2.2zm173.7-6.6a2.22 2.22 0 0 0-2.2 2.2 2.22 2.22 0 0 0 2.2 2.2 2.22 2.22 0 0 0 2.2-2.2c0-1.3-1-2.2-2.2-2.2zm-6.7 0a2.22 2.22 0 0 0-2.2 2.2 2.22 2.22 0 0 0 2.2 2.2 2.22 2.22 0 0 0 2.2-2.2c0-1.3-1-2.2-2.2-2.2zm-6.7 0a2.22 2.22 0 0 0-2.2 2.2 2.22 2.22 0 0 0 2.2 2.2 2.22 2.22 0 0 0 2.2-2.2c0-1.3-1-2.2-2.2-2.2zm-6.7 0a2.22 2.22 0 0 0-2.2 2.2 2.22 2.22 0 0 0 2.2 2.2 2.22 2.22 0 0 0 2.2-2.2c0-1.3-.9-2.2-2.2-2.2zm-6.6 0a2.22 2.22 0 0 0-2.2 2.2 2.22 2.22 0 0 0 2.2 2.2 2.22 2.22 0 0 0 2.2-2.2c-.1-1.3-1-2.2-2.2-2.2zm-6.7 0a2.22 2.22 0 0 0-2.2 2.2 2.22 2.22 0 0 0 2.2 2.2 2.22 2.22 0 0 0 2.2-2.2c0-1.3-1-2.2-2.2-2.2zm-6.7 0a2.22 2.22 0 0 0-2.2 2.2 2.22 2.22 0 0 0 2.2 2.2 2.22 2.22 0 0 0 2.2-2.2c0-1.3-1-2.2-2.2-2.2zm-6.7 0a2.22 2.22 0 0 0-2.2 2.2 2.22 2.22 0 0 0 2.2 2.2 2.22 2.22 0 0 0 2.2-2.2c0-1.3-1-2.2-2.2-2.2zm-6.7 0a2.22 2.22 0 0 0-2.2 2.2 2.22 2.22 0 0 0 2.2 2.2 2.22 2.22 0 0 0 2.2-2.2c0-1.3-1-2.2-2.2-2.2zm-40 0a2.22 2.22 0 0 0-2.2 2.2 2.22 2.22 0 0 0 2.2 2.2 2.22 2.22 0 0 0 2.2-2.2c-.1-1.3-1-2.2-2.2-2.2zm-6.7 0a2.22 2.22 0 0 0-2.2 2.2 2.22 2.22 0 0 0 2.2 2.2 2.22 2.22 0 0 0 2.2-2.2c-.1-1.3-1-2.2-2.2-2.2zm-6.7 0a2.22 2.22 0 0 0-2.2 2.2 2.22 2.22 0 0 0 2.2 2.2 2.22 2.22 0 0 0 2.2-2.2c0-1.3-1-2.2-2.2-2.2zm-6.7 0a2.22 2.22 0 0 0-2.2 2.2 2.22 2.22 0 0 0 2.2 2.2 2.22 2.22 0 0 0 2.2-2.2c0-1.3-1-2.2-2.2-2.2zm-6.7 0a2.22 2.22 0 0 0-2.2 2.2 2.22 2.22 0 0 0 2.2 2.2 2.22 2.22 0 0 0 2.2-2.2c0-1.3-1-2.2-2.2-2.2zm-13.3 0a2.22 2.22 0 0 0-2.2 2.2 2.22 2.22 0 0 0 2.2 2.2 2.22 2.22 0 0 0 2.2-2.2c-.1-1.3-1-2.2-2.2-2.2zm-6.7 0a2.22 2.22 0 0 0-2.2 2.2 2.22 2.22 0 0 0 2.2 2.2 2.22 2.22 0 0 0 2.2-2.2c0-1.3-1-2.2-2.2-2.2zm-6.7 0a2.22 2.22 0 0 0-2.2 2.2 2.22 2.22 0 0 0 2.2 2.2 2.22 2.22 0 0 0 2.2-2.2c0-1.3-1-2.2-2.2-2.2zm-13.4 0a2.22 2.22 0 0 0-2.2 2.2 2.22 2.22 0 0 0 2.2 2.2 2.22 2.22 0 0 0 2.2-2.2c0-1.3-1-2.2-2.2-2.2zM290 6.8a2.22 2.22 0 0 0-2.2 2.2 2.22 2.22 0 0 0 2.2 2.2 2.22 2.22 0 0 0 2.2-2.2 2.22 2.22 0 0 0-2.2-2.2zm-6.7 0a2.22 2.22 0 0 0-2.2 2.2 2.22 2.22 0 0 0 2.2 2.2 2.22 2.22 0 0 0 2.2-2.2 2.22 2.22 0 0 0-2.2-2.2zm-6.7 0a2.22 2.22 0 0 0-2.2 2.2 2.22 2.22 0 0 0 2.2 2.2 2.22 2.22 0 0 0 2.2-2.2 2.22 2.22 0 0 0-2.2-2.2zm-6.7 0a2.22 2.22 0 0 0-2.2 2.2 2.22 2.22 0 0 0 2.2 2.2 2.22 2.22 0 0 0 2.2-2.2 2.22 2.22 0 0 0-2.2-2.2zm-6.7 0A2.22 2.22 0 0 0 261 9a2.22 2.22 0 0 0 2.2 2.2 2.22 2.22 0 0 0 2.2-2.2c0-1.2-.9-2.2-2.2-2.2zm-6.6 0a2.22 2.22 0 0 0-2.2 2.2 2.22 2.22 0 0 0 2.2 2.2 2.22 2.22 0 0 0 2.2-2.2 2.22 2.22 0 0 0-2.2-2.2zm-6.7 0a2.22 2.22 0 0 0-2.2 2.2 2.22 2.22 0 0 0 2.2 2.2 2.22 2.22 0 0 0 2.2-2.2 2.22 2.22 0 0 0-2.2-2.2zm-6.7 0A2.22 2.22 0 0 0 241 9a2.22 2.22 0 0 0 2.2 2.2 2.22 2.22 0 0 0 2.2-2.2 2.22 2.22 0 0 0-2.2-2.2zm-6.7 0a2.22 2.22 0 0 0-2.2 2.2 2.22 2.22 0 0 0 2.2 2.2 2.22 2.22 0 0 0 2.2-2.2 2.22 2.22 0 0 0-2.2-2.2zm-6.7 0a2.22 2.22 0 0 0-2.2 2.2 2.22 2.22 0 0 0 2.2 2.2A2.22 2.22 0 0 0 232 9a2.22 2.22 0 0 0-2.2-2.2zm-6.6 0A2.22 2.22 0 0 0 221 9a2.22 2.22 0 0 0 2.2 2.2 2.22 2.22 0 0 0 2.2-2.2 2.22 2.22 0 0 0-2.2-2.2zm-6.7 0a2.22 2.22 0 0 0-2.2 2.2 2.22 2.22 0 0 0 2.2 2.2 2.22 2.22 0 0 0 2.2-2.2 2.22 2.22 0 0 0-2.2-2.2zm-13.4 0a2.22 2.22 0 0 0-2.2 2.2 2.22 2.22 0 0 0 2.2 2.2 2.22 2.22 0 0 0 2.2-2.2 2.22 2.22 0 0 0-2.2-2.2zm-6.7 0a2.22 2.22 0 0 0-2.2 2.2 2.22 2.22 0 0 0 2.2 2.2 2.22 2.22 0 0 0 2.2-2.2 2.22 2.22 0 0 0-2.2-2.2zm-6.6 0a2.22 2.22 0 0 0-2.2 2.2 2.22 2.22 0 0 0 2.2 2.2A2.22 2.22 0 0 0 192 9a2.22 2.22 0 0 0-2.2-2.2zm-6.7 0a2.22 2.22 0 0 0-2.2 2.2 2.22 2.22 0 0 0 2.2 2.2 2.22 2.22 0 0 0 2.2-2.2 2.22 2.22 0 0 0-2.2-2.2zm-6.7 0a2.22 2.22 0 0 0-2.2 2.2 2.22 2.22 0 0 0 2.2 2.2 2.22 2.22 0 0 0 2.2-2.2 2.22 2.22 0 0 0-2.2-2.2zm-6.7 0a2.22 2.22 0 0 0-2.2 2.2 2.22 2.22 0 0 0 2.2 2.2 2.22 2.22 0 0 0 2.2-2.2 2.22 2.22 0 0 0-2.2-2.2zm-6.7 0a2.22 2.22 0 0 0-2.2 2.2 2.22 2.22 0 0 0 2.2 2.2 2.22 2.22 0 0 0 2.2-2.2 2.22 2.22 0 0 0-2.2-2.2zm-13.3 0a2.22 2.22 0 0 0-2.2 2.2 2.22 2.22 0 0 0 2.2 2.2 2.22 2.22 0 0 0 2.2-2.2 2.22 2.22 0 0 0-2.2-2.2zm-6.7 0a2.22 2.22 0 0 0-2.2 2.2 2.22 2.22 0 0 0 2.2 2.2 2.22 2.22 0 0 0 2.2-2.2 2.22 2.22 0 0 0-2.2-2.2zM303.3.1a2.22 2.22 0 0 0-2.2 2.2 2.22 2.22 0 0 0 2.2 2.2 2.22 2.22 0 0 0 2.2-2.2 2.22 2.22 0 0 0-2.2-2.2zm-6.6 0a2.22 2.22 0 0 0-2.2 2.2 2.22 2.22 0 0 0 2.2 2.2 2.22 2.22 0 0 0 2.2-2.2c-.1-1.2-1-2.2-2.2-2.2zm-6.7 0a2.22 2.22 0 0 0-2.2 2.2 2.22 2.22 0 0 0 2.2 2.2 2.22 2.22 0 0 0 2.2-2.2A2.22 2.22 0 0 0 290 .1zm-6.7 0a2.22 2.22 0 0 0-2.2 2.2 2.22 2.22 0 0 0 2.2 2.2 2.22 2.22 0 0 0 2.2-2.2 2.22 2.22 0 0 0-2.2-2.2zm-6.7 0a2.22 2.22 0 0 0-2.2 2.2 2.22 2.22 0 0 0 2.2 2.2 2.22 2.22 0 0 0 2.2-2.2 2.22 2.22 0 0 0-2.2-2.2zm-6.7 0a2.22 2.22 0 0 0-2.2 2.2 2.22 2.22 0 0 0 2.2 2.2 2.22 2.22 0 0 0 2.2-2.2 2.22 2.22 0 0 0-2.2-2.2zm-6.7 0a2.22 2.22 0 0 0-2.2 2.2 2.22 2.22 0 0 0 2.2 2.2 2.22 2.22 0 0 0 2.2-2.2c0-1.2-.9-2.2-2.2-2.2zm-6.6 0a2.22 2.22 0 0 0-2.2 2.2 2.22 2.22 0 0 0 2.2 2.2 2.22 2.22 0 0 0 2.2-2.2c-.1-1.2-1-2.2-2.2-2.2zm-6.7 0a2.22 2.22 0 0 0-2.2 2.2 2.22 2.22 0 0 0 2.2 2.2 2.22 2.22 0 0 0 2.2-2.2 2.22 2.22 0 0 0-2.2-2.2zm-6.7 0a2.22 2.22 0 0 0-2.2 2.2 2.22 2.22 0 0 0 2.2 2.2 2.22 2.22 0 0 0 2.2-2.2 2.22 2.22 0 0 0-2.2-2.2zm-6.7 0a2.22 2.22 0 0 0-2.2 2.2 2.22 2.22 0 0 0 2.2 2.2 2.22 2.22 0 0 0 2.2-2.2 2.22 2.22 0 0 0-2.2-2.2zm-6.7 0a2.22 2.22 0 0 0-2.2 2.2 2.22 2.22 0 0 0 2.2 2.2 2.22 2.22 0 0 0 2.2-2.2 2.22 2.22 0 0 0-2.2-2.2zm-6.6 0a2.22 2.22 0 0 0-2.2 2.2 2.22 2.22 0 0 0 2.2 2.2 2.22 2.22 0 0 0 2.2-2.2c-.1-1.2-1-2.2-2.2-2.2zm-6.7 0a2.22 2.22 0 0 0-2.2 2.2 2.22 2.22 0 0 0 2.2 2.2 2.22 2.22 0 0 0 2.2-2.2 2.22 2.22 0 0 0-2.2-2.2zm-6.7 0a2.22 2.22 0 0 0-2.2 2.2 2.22 2.22 0 0 0 2.2 2.2 2.22 2.22 0 0 0 2.2-2.2 2.22 2.22 0 0 0-2.2-2.2zm-6.7 0a2.22 2.22 0 0 0-2.2 2.2 2.22 2.22 0 0 0 2.2 2.2 2.22 2.22 0 0 0 2.2-2.2 2.22 2.22 0 0 0-2.2-2.2zm-6.7 0a2.22 2.22 0 0 0-2.2 2.2 2.22 2.22 0 0 0 2.2 2.2 2.22 2.22 0 0 0 2.2-2.2 2.22 2.22 0 0 0-2.2-2.2zm-6.6 0a2.22 2.22 0 0 0-2.2 2.2 2.22 2.22 0 0 0 2.2 2.2 2.22 2.22 0 0 0 2.2-2.2c-.1-1.2-1-2.2-2.2-2.2zm-6.7 0a2.22 2.22 0 0 0-2.2 2.2 2.22 2.22 0 0 0 2.2 2.2 2.22 2.22 0 0 0 2.2-2.2c-.1-1.2-1-2.2-2.2-2.2z" fill="#6eb2bc"/><path d="M67.1 129.5h8.6c2.9 0 5.1-.9 6.8-2.8s2.6-4.4 2.6-7.5V101c0-3.1-.9-5.7-2.6-7.5-1.7-1.9-4-2.8-6.8-2.8h-8.6c-.4 0-.6.2-.6.6V129c0 .3.2.5.6.5zm3.4-35.2c0-.1.1-.2.2-.2h4.9c1.7 0 3 .6 4 1.9s1.4 3 1.4 5.2V119c0 2.1-.5 3.9-1.5 5.1-1 1.3-2.3 1.9-3.9 1.9l-4.9.1c-.1 0-.2-.1-.2-.2V94.3zm24 35.1c.9 0 1.6-.3 2.2-.9s.9-1.3.9-2.2-.3-1.7-.9-2.2c-.6-.6-1.3-.9-2.2-.9s-1.7.3-2.2.9c-.6.6-.9 1.3-.9 2.2s.3 1.6.9 2.2c.5.6 1.3.9 2.2.9zm44.2-38.8h-2.9c-.3 0-.6.1-.7.4l-6.3 12.8c0 .1-.1.1-.2.1s-.1 0-.2-.1L122.2 91c-.1-.3-.3-.4-.7-.4h-2.9c-.4 0-.6.2-.6.6V129c0 .4.2.6.6.6h2.8c.4 0 .6-.2.6-.6V99.3c0-.1 0-.2.1-.2s.1 0 .2.1l5.8 11.9c.1.3.3.4.6.4s.4-.1.6-.4l5.8-12c.1-.1.1-.1.2-.1s.1.1.1.2V129c0 .4.2.6.6.6h2.8c.4 0 .6-.2.6-.6V91.2c-.1-.4-.3-.6-.7-.6zm11.4 32.6c-.9 0-1.7.3-2.2.9-.6.6-.9 1.3-.9 2.2s.3 1.6.9 2.2 1.3.9 2.2.9 1.6-.3 2.2-.9.9-1.3.9-2.2-.3-1.7-.9-2.2c-.6-.6-1.3-.9-2.2-.9zm40.6 2.9H178c-.1 0-.2-.1-.2-.2V91.2c0-.4-.2-.6-.6-.6h-2.8c-.4 0-.6.2-.6.6V129c0 .4.2.6.6.6h16.3c.4 0 .6-.2.6-.6v-2.3c-.1-.4-.2-.6-.6-.6zm8.8-2.9c-.9 0-1.7.3-2.2.9-.6.6-.9 1.3-.9 2.2s.3 1.6.9 2.2 1.3.9 2.2.9 1.6-.3 2.2-.9.9-1.3.9-2.2-.3-1.7-.9-2.2c-.6-.6-1.3-.9-2.2-.9zm32.7-32.6h-3.3c-.3 0-.5.2-.6.5l-8.3 37.8c0 .2 0 .3.1.4s.2.2.4.2h2.8c.4 0 .6-.2.6-.5l1.4-6.9c0-.1 0-.1.1-.2.1 0 .1-.1.2-.1h10.1c.1 0 .1 0 .2.1.1 0 .1.1.1.2l1.4 6.9c.1.3.3.5.6.5h2.9a.47.47 0 0 0 .5-.5v-.1L233 91.1c-.2-.3-.4-.5-.8-.5zm2.7 28.1h-8.8c-.1 0-.2-.1-.2-.2l4.4-21.8c0-.1.1-.2.1-.2s.1.1.1.2l4.4 21.8c.2.1.2.2 0 .2zm14 10.7c.9 0 1.6-.3 2.2-.9s.9-1.3.9-2.2-.3-1.7-.9-2.2c-.6-.6-1.3-.9-2.2-.9s-1.7.3-2.2.9c-.6.6-.9 1.3-.9 2.2s.3 1.6.9 2.2 1.3.9 2.2.9zm-140.8 101C53.5 230.4 9 185.9 9 131.3c0-25.7 9.8-50 27.5-68.5.4-.4.4-.9.1-1.4-.3-.4-.9-.6-1.3-.3L2.2 76.9c-.5.3-.8.9-.5 1.4s.9.8 1.4.5l28.3-13.5c-15.8 18.4-24.5 41.6-24.5 66 0 55.8 45.4 101.2 101.2 101.2a1.11 1.11 0 0 0 1.1-1.1c0-.6-.5-1-1.1-1zm175.1-17.7l-32.6 4.2c29.2-18.5 47.2-50.8 47.2-85.6 0-33.9-16.9-65.4-45.2-84.3-.5-.3-1.1-.2-1.5.3-.3.5-.2 1.1.3 1.5 27.7 18.4 44.2 49.3 44.2 82.5 0 35.7-19.4 68.8-50.5 86.4-.4.2-.6.8-.5 1.3.1.4.6.7 1 .7h.1l37.6-4.9c.6-.1 1-.6.9-1.2.1-.6-.5-1-1-.9z" fill="#f1f0f0"/></g><defs><clipPath id="A"><path fill="#fff" d="M0 0h306v345H0z"/></clipPath></defs></svg>