<svg width="78" height="78" viewBox="0 0 78 78" fill="none" xmlns="http://www.w3.org/2000/svg">
<g clip-path="url(#clip0_1236_2521)">
<path d="M94.42 0H-17.21V78.14H94.42V0Z" fill="#009B3A"/>
<path d="M-7.72 39.0702L38.61 68.6502L84.94 39.0702L38.61 9.49023L-7.72 39.0702Z" fill="#FEDF00"/>
<path d="M38.61 58.6098C49.4017 58.6098 58.15 49.8614 58.15 39.0698C58.15 28.2781 49.4017 19.5298 38.61 19.5298C27.8184 19.5298 19.07 28.2781 19.07 39.0698C19.07 49.8614 27.8184 58.6098 38.61 58.6098Z" fill="#002776"/>
<mask id="mask0_1236_2521" style="mask-type:luminance" maskUnits="userSpaceOnUse" x="19" y="19" width="40" height="40">
<path d="M38.61 58.6098C49.4017 58.6098 58.15 49.8614 58.15 39.0698C58.15 28.2781 49.4017 19.5298 38.61 19.5298C27.8184 19.5298 19.07 28.2781 19.07 39.0698C19.07 49.8614 27.8184 58.6098 38.61 58.6098Z" fill="white"/>
</mask>
<g mask="url(#mask0_1236_2521)">
<path d="M-20 78.1397C-20 51.9397 1.24 30.6997 27.44 30.6997C53.64 30.6997 74.88 51.9397 74.88 78.1397H72.09C72.09 53.4797 52.1 33.4897 27.44 33.4897C2.78 33.4897 -17.21 53.4797 -17.21 78.1397H-20Z" fill="white"/>
</g>
<path fill-rule="evenodd" clip-rule="evenodd" d="M21.94 33.36C22.4 33.3 22.72 32.84 22.66 32.33C22.6 31.82 22.17 31.45 21.72 31.51C21.27 31.57 20.94 32.03 21 32.54C21.06 33.05 21.49 33.42 21.94 33.36ZM21.9 33.02C22.17 32.99 22.36 32.7 22.32 32.38C22.28 32.06 22.03 31.83 21.76 31.86C21.49 31.89 21.3 32.18 21.34 32.5C21.38 32.82 21.63 33.05 21.9 33.02Z" fill="#009B3A"/>
<path fill-rule="evenodd" clip-rule="evenodd" d="M23.46 33.19L23.8 33.17L23.75 32.48L24.49 32.43C24.81 32.41 25.06 32.13 25.03 31.81C25 31.49 24.73 31.24 24.41 31.27L23.35 31.34L23.45 33.2L23.46 33.19ZM23.73 32.13L24.45 32.08C24.58 32.08 24.68 31.96 24.67 31.82C24.66 31.68 24.55 31.59 24.41 31.6L23.69 31.65L23.72 32.13H23.73Z" fill="#009B3A"/>
<path d="M25.04 33.0799C25.02 32.8099 24.98 32.2299 24.58 32.2599L24.08 32.2999C24.66 32.2599 24.7 32.8399 24.72 33.1099" fill="#009B3A"/>
<path fill-rule="evenodd" clip-rule="evenodd" d="M25.82 33.0501L26.7 33.0301C27.14 33.0301 27.49 32.6601 27.48 32.2201V31.9501C27.47 31.5101 27.1 31.1601 26.66 31.1701L25.78 31.1901L25.81 33.0501H25.82ZM26.16 32.7001H26.66C26.94 32.6901 27.16 32.4601 27.16 32.1801V32.0201C27.16 31.7401 26.92 31.5201 26.64 31.5201H26.14L26.16 32.7001Z" fill="#009B3A"/>
<path d="M28.18 33.0201L29.85 33.0801V32.7301L28.51 32.6801L28.53 32.2001L29.59 32.2401V31.9201L28.54 31.8801V31.5101L29.83 31.5501V31.2001L28.25 31.1401L28.19 33.0001L28.18 33.0201Z" fill="#009B3A"/>
<path d="M30.54 33.12L30.86 33.15L30.97 31.88L31.23 33.18L31.52 33.21L32 31.97L31.89 33.24L32.21 33.27L32.37 31.42L31.91 31.38L31.43 32.62L31.17 31.32L30.71 31.28L30.55 33.13L30.54 33.12Z" fill="#009B3A"/>
<path d="M34.4 33.5602L35.78 33.8002L35.83 33.4902L34.77 33.3102L34.84 32.8902L35.7 33.0402L35.75 32.7302L34.89 32.5802L34.94 32.2902L35.97 32.4702L36.02 32.1602L34.68 31.9302L34.4 33.5802V33.5602Z" fill="#009B3A"/>
<path fill-rule="evenodd" clip-rule="evenodd" d="M37.93 34.2502L38.26 34.3402L38.43 33.6702L39.15 33.8602C39.46 33.9402 39.78 33.7502 39.86 33.4402C39.94 33.1302 39.75 32.8102 39.44 32.7302L38.41 32.4602L37.92 34.2502H37.93ZM38.52 33.3302L39.21 33.5102C39.34 33.5402 39.47 33.4702 39.5 33.3402C39.53 33.2102 39.46 33.0802 39.33 33.0502L38.64 32.8702L38.52 33.3302Z" fill="#009B3A"/>
<path fill-rule="evenodd" clip-rule="evenodd" d="M40.21 34.8601L40.54 34.9601L40.75 34.3001L41.46 34.5201C41.77 34.6201 42.1 34.4501 42.19 34.1401C42.28 33.8301 42.12 33.5001 41.81 33.4101L40.8 33.0901L40.22 34.8601H40.21ZM40.85 33.9801L41.53 34.2001C41.66 34.2401 41.79 34.1701 41.83 34.0401C41.87 33.9101 41.8 33.7801 41.67 33.7401L40.99 33.5201L40.85 33.9801Z" fill="#009B3A"/>
<path d="M41.72 35.34C41.8 35.09 41.98 34.53 41.6 34.41L41.12 34.26C41.68 34.44 41.5 34.99 41.42 35.25" fill="#009B3A"/>
<path fill-rule="evenodd" clip-rule="evenodd" d="M43.24 35.8802C43.67 36.0402 44.17 35.7802 44.35 35.3002C44.53 34.8202 44.32 34.3002 43.89 34.1402C43.46 33.9802 42.96 34.2402 42.78 34.7202C42.6 35.2002 42.81 35.7202 43.24 35.8802ZM43.36 35.5602C43.61 35.6602 43.91 35.4902 44.03 35.1802C44.15 34.8702 44.03 34.5602 43.77 34.4602C43.51 34.3602 43.22 34.5302 43.1 34.8402C42.98 35.1502 43.1 35.4602 43.36 35.5602Z" fill="#009B3A"/>
<mask id="mask1_1236_2521" style="mask-type:luminance" maskUnits="userSpaceOnUse" x="44" y="34" width="3" height="4">
<path d="M44.67 36.4302L45.41 34.7202L46.95 35.3902L46.21 37.1002L44.67 36.4302ZM45.94 35.6202L45.81 35.9102L46.58 36.2402L46.71 35.9502L45.94 35.6202Z" fill="white"/>
</mask>
<g mask="url(#mask1_1236_2521)">
<path fill-rule="evenodd" clip-rule="evenodd" d="M45.43 36.7702C45.85 36.9502 46.36 36.7202 46.57 36.2502C46.78 35.7802 46.6 35.2502 46.17 35.0602C45.74 34.8702 45.24 35.1102 45.03 35.5802C44.82 36.0502 45 36.5802 45.43 36.7702ZM45.57 36.4502C45.82 36.5602 46.13 36.4102 46.25 36.1102C46.37 35.8102 46.28 35.4902 46.03 35.3802C45.78 35.2702 45.47 35.4202 45.35 35.7202C45.23 36.0202 45.32 36.3402 45.57 36.4502Z" fill="#009B3A"/>
</g>
<path d="M45.9331 35.9687L45.8255 36.2163L46.4674 36.4954L46.5751 36.2478L45.9331 35.9687Z" fill="#009B3A"/>
<path d="M46.332 36.1452L45.9612 36.998L46.2088 37.1057L46.5797 36.2528L46.332 36.1452Z" fill="#009B3A"/>
<path fill-rule="evenodd" clip-rule="evenodd" d="M46.82 37.3902L47.13 37.5402L47.44 36.9202L48.11 37.2502C48.4 37.3902 48.75 37.2802 48.89 36.9902C49.03 36.7002 48.92 36.3502 48.63 36.2102L47.68 35.7402L46.83 37.3902H46.82ZM47.59 36.6202L48.23 36.9402C48.35 37.0002 48.49 36.9502 48.55 36.8302C48.61 36.7102 48.56 36.5702 48.44 36.5102L47.8 36.1902L47.59 36.6202Z" fill="#009B3A"/>
<path d="M48.24 38.1002C48.36 37.8602 48.62 37.3402 48.26 37.1602L47.81 36.9302C48.33 37.1902 48.07 37.7102 47.95 37.9502" fill="#009B3A"/>
<path d="M48.93 38.4601L50.39 39.2801L50.56 38.9801L49.38 38.3101L49.62 37.8901L50.55 38.4101L50.71 38.1301L49.78 37.6101L49.96 37.2901L51.07 37.9201L51.24 37.6201L49.85 36.8301L48.93 38.4501V38.4601Z" fill="#009B3A"/>
<path d="M51.65 39.3702C51.55 39.5302 51.65 39.7002 51.88 39.8402C52.11 39.9802 52.26 39.9802 52.32 39.8802C52.52 39.5602 51.35 39.0902 51.71 38.5402C52.02 38.0602 52.56 38.4302 52.76 38.5602C52.96 38.6902 53.29 39.0202 53.03 39.4002L52.69 39.1802C52.8 39.0102 52.68 38.8502 52.5 38.7402C52.32 38.6302 52.19 38.5802 52.08 38.7402C51.91 39.0002 53.06 39.4902 52.71 40.0402C52.45 40.4502 52 40.2702 51.69 40.0802C51.43 39.9202 51.05 39.5302 51.3 39.1402L51.65 39.3602V39.3702Z" fill="#009B3A"/>
<path d="M53.64 40.69C53.53 40.84 53.62 41.02 53.84 41.18C54.06 41.34 54.21 41.34 54.28 41.24C54.5 40.93 53.35 40.4 53.74 39.87C54.08 39.41 54.59 39.81 54.79 39.95C54.99 40.09 55.29 40.44 55.02 40.81L54.69 40.57C54.81 40.41 54.69 40.24 54.52 40.12C54.35 40 54.21 39.94 54.1 40.1C53.91 40.35 55.04 40.9 54.66 41.44C54.38 41.83 53.93 41.63 53.64 41.42C53.39 41.24 53.03 40.84 53.3 40.46L53.64 40.7V40.69Z" fill="#009B3A"/>
<path fill-rule="evenodd" clip-rule="evenodd" d="M55.53 42.8302C55.89 43.1202 56.44 43.0302 56.76 42.6202C57.08 42.2102 57.05 41.6602 56.68 41.3702C56.31 41.0802 55.77 41.1702 55.45 41.5802C55.13 41.9902 55.16 42.5402 55.53 42.8302ZM55.75 42.5602C55.96 42.7302 56.3 42.6602 56.5 42.4102C56.7 42.1602 56.69 41.8202 56.48 41.6502C56.27 41.4802 55.93 41.5502 55.73 41.8002C55.53 42.0502 55.54 42.3902 55.75 42.5602Z" fill="#009B3A"/>
<path d="M22.66 34.7202L22.4 35.5202L22.8 35.6502" fill="white"/>
<path d="M22.66 34.7202L22.92 35.5202L22.52 35.6502" fill="white"/>
<path d="M23.45 35.3003H22.61V35.7203" fill="white"/>
<path d="M23.45 35.3003L22.77 35.7903L22.52 35.4503" fill="white"/>
<path d="M21.86 35.3003L22.54 35.7903L22.79 35.4503" fill="white"/>
<path d="M21.86 35.3003H22.7V35.7203" fill="white"/>
<path d="M23.15 36.2402L22.89 35.4402L22.49 35.5702" fill="white"/>
<path d="M23.15 36.2402L22.47 35.7502L22.72 35.4102" fill="white"/>
<path d="M22.17 36.2402L22.85 35.7502L22.6 35.4102" fill="white"/>
<path d="M22.17 36.2402L22.43 35.4402L22.83 35.5702" fill="white"/>
<path d="M24.39 42.9399L24.13 43.7399L24.53 43.8699" fill="white"/>
<path d="M24.39 42.9399L24.65 43.7399L24.25 43.8699" fill="white"/>
<path d="M25.18 43.52H24.34V43.94" fill="white"/>
<path d="M25.18 43.52L24.5 44.01L24.25 43.67" fill="white"/>
<path d="M23.59 43.52L24.27 44.01L24.52 43.67" fill="white"/>
<path d="M23.59 43.52H24.43V43.94" fill="white"/>
<path d="M24.88 44.4499L24.62 43.6499L24.22 43.7799" fill="white"/>
<path d="M24.88 44.4499L24.2 43.9599L24.45 43.6199" fill="white"/>
<path d="M23.89 44.4499L24.57 43.9599L24.32 43.6199" fill="white"/>
<path d="M23.89 44.4499L24.15 43.6499L24.55 43.7799" fill="white"/>
<path d="M21.99 44.8301L21.77 45.4901L22.1 45.6001" fill="white"/>
<path d="M21.99 44.8301L22.21 45.4901L21.88 45.6001" fill="white"/>
<path d="M22.66 45.3101H21.96V45.6601" fill="white"/>
<path d="M22.66 45.3101L22.1 45.7201L21.89 45.4401" fill="white"/>
<path d="M21.33 45.3101L21.89 45.7201L22.1 45.4401" fill="white"/>
<path d="M21.33 45.3101H22.03V45.6601" fill="white"/>
<path d="M22.4 46.0902L22.18 45.4302L21.85 45.5402" fill="white"/>
<path d="M22.4 46.0901L21.84 45.6801L22.05 45.4001" fill="white"/>
<path d="M21.58 46.0901L22.14 45.6801L21.93 45.4001" fill="white"/>
<path d="M21.58 46.0902L21.8 45.4302L22.13 45.5402" fill="white"/>
<path d="M26.3 42.1802L26.18 42.5602L26.37 42.6202" fill="white"/>
<path d="M26.3 42.1802L26.42 42.5602L26.23 42.6202" fill="white"/>
<path d="M26.68 42.4602H26.28V42.6602" fill="white"/>
<path d="M26.68 42.4602L26.36 42.6902L26.24 42.5302" fill="white"/>
<path d="M25.92 42.4602L26.24 42.6902L26.36 42.5302" fill="white"/>
<path d="M25.92 42.4602H26.32V42.6602" fill="white"/>
<path d="M26.53 42.9003L26.41 42.5203L26.22 42.5803" fill="white"/>
<path d="M26.53 42.9003L26.21 42.6703L26.33 42.5103" fill="white"/>
<path d="M26.07 42.9003L26.39 42.6703L26.27 42.5103" fill="white"/>
<path d="M26.07 42.9003L26.19 42.5203L26.38 42.5803" fill="white"/>
<path d="M28.45 45.02L28.23 45.68L28.56 45.79" fill="white"/>
<path d="M28.45 45.02L28.67 45.68L28.34 45.79" fill="white"/>
<path d="M29.12 45.5H28.42V45.85" fill="white"/>
<path d="M29.12 45.5L28.56 45.91L28.35 45.63" fill="white"/>
<path d="M27.79 45.5L28.35 45.91L28.56 45.63" fill="white"/>
<path d="M27.79 45.5H28.49V45.85" fill="white"/>
<path d="M28.86 46.2801L28.64 45.6201L28.31 45.7301" fill="white"/>
<path d="M28.86 46.2801L28.3 45.8701L28.51 45.5901" fill="white"/>
<path d="M28.04 46.2801L28.6 45.8701L28.39 45.5901" fill="white"/>
<path d="M28.04 46.2801L28.26 45.6201L28.59 45.7301" fill="white"/>
<path d="M27.87 47.1001L27.7 47.6301L27.97 47.7201" fill="white"/>
<path d="M27.87 47.1001L28.04 47.6301L27.77 47.7201" fill="white"/>
<path d="M28.4 47.48H27.84V47.76" fill="white"/>
<path d="M28.4 47.48L27.95 47.81L27.79 47.58" fill="white"/>
<path d="M27.34 47.48L27.79 47.81L27.95 47.58" fill="white"/>
<path d="M27.34 47.48H27.9V47.76" fill="white"/>
<path d="M28.2 48.1101L28.03 47.5801L27.76 47.6701" fill="white"/>
<path d="M28.2 48.1101L27.75 47.78L27.91 47.55" fill="white"/>
<path d="M27.54 48.1101L27.99 47.78L27.83 47.55" fill="white"/>
<path d="M27.54 48.1101L27.71 47.5801L27.98 47.6701" fill="white"/>
<path d="M44.67 32.1699L44.41 32.9699L44.81 33.0999" fill="white"/>
<path d="M44.67 32.1699L44.93 32.9699L44.53 33.0999" fill="white"/>
<path d="M45.46 32.75H44.62V33.17" fill="white"/>
<path d="M45.46 32.75L44.78 33.24L44.53 32.9" fill="white"/>
<path d="M43.87 32.75L44.55 33.24L44.8 32.9" fill="white"/>
<path d="M43.87 32.75H44.71V33.17" fill="white"/>
<path d="M45.16 33.6899L44.9 32.8899L44.5 33.0199" fill="white"/>
<path d="M45.16 33.6899L44.48 33.1999L44.73 32.8599" fill="white"/>
<path d="M44.17 33.6899L44.85 33.1999L44.6 32.8599" fill="white"/>
<path d="M44.17 33.6899L44.43 32.8899L44.83 33.0199" fill="white"/>
<path d="M52.29 45.0898L52.03 45.8898L52.43 46.0198" fill="white"/>
<path d="M52.29 45.0898L52.55 45.8898L52.15 46.0198" fill="white"/>
<path d="M53.09 45.6699H52.25V46.0899" fill="white"/>
<path d="M53.09 45.6699L52.41 46.1599L52.16 45.8199" fill="white"/>
<path d="M51.5 45.6699L52.18 46.1599L52.43 45.8199" fill="white"/>
<path d="M51.5 45.6699H52.34V46.0899" fill="white"/>
<path d="M52.79 46.6098L52.53 45.8098L52.13 45.9398" fill="white"/>
<path d="M52.79 46.6098L52.11 46.1198L52.36 45.7798" fill="white"/>
<path d="M51.8 46.6098L52.48 46.1198L52.23 45.7798" fill="white"/>
<path d="M51.8 46.6098L52.06 45.8098L52.46 45.9398" fill="white"/>
<path d="M55 45.5601L54.83 46.0901L55.1 46.1801" fill="white"/>
<path d="M55 45.5601L55.17 46.0901L54.9 46.1801" fill="white"/>
<path d="M55.54 45.9399H54.98V46.2199" fill="white"/>
<path d="M55.54 45.9399L55.09 46.2699L54.93 46.0399" fill="white"/>
<path d="M54.47 45.9399L54.92 46.2699L55.08 46.0399" fill="white"/>
<path d="M54.47 45.9399H55.03V46.2199" fill="white"/>
<path d="M55.33 46.57L55.16 46.04L54.89 46.13" fill="white"/>
<path d="M55.33 46.57L54.88 46.24L55.04 46.01" fill="white"/>
<path d="M54.68 46.57L55.13 46.24L54.97 46.01" fill="white"/>
<path d="M54.68 46.57L54.85 46.04L55.12 46.13" fill="white"/>
<path d="M53.09 46.96L52.87 47.62L53.2 47.73" fill="white"/>
<path d="M53.09 46.96L53.31 47.62L52.98 47.73" fill="white"/>
<path d="M53.75 47.4399H53.05V47.7899" fill="white"/>
<path d="M53.75 47.4399L53.19 47.8499L52.98 47.5699" fill="white"/>
<path d="M52.43 47.4399L52.99 47.8499L53.2 47.5699" fill="white"/>
<path d="M52.43 47.4399H53.13V47.7899" fill="white"/>
<path d="M53.5 48.2201L53.28 47.5601L52.95 47.6701" fill="white"/>
<path d="M53.5 48.22L52.94 47.81L53.15 47.53" fill="white"/>
<path d="M52.68 48.22L53.24 47.81L53.03 47.53" fill="white"/>
<path d="M52.68 48.2201L52.9 47.5601L53.23 47.6701" fill="white"/>
<path d="M48.39 51.0498L48.17 51.7098L48.5 51.8198" fill="white"/>
<path d="M48.39 51.0498L48.61 51.7098L48.28 51.8198" fill="white"/>
<path d="M49.05 51.5298H48.35V51.8798" fill="white"/>
<path d="M49.05 51.5298L48.49 51.9398L48.28 51.6598" fill="white"/>
<path d="M47.72 51.5298L48.28 51.9398L48.49 51.6598" fill="white"/>
<path d="M47.72 51.5298H48.42V51.8798" fill="white"/>
<path d="M48.8 52.3099L48.58 51.6499L48.25 51.7599" fill="white"/>
<path d="M48.8 52.3099L48.24 51.8999L48.45 51.6199" fill="white"/>
<path d="M47.98 52.3099L48.54 51.8999L48.33 51.6199" fill="white"/>
<path d="M47.98 52.3099L48.2 51.6499L48.53 51.7599" fill="white"/>
<path d="M48.36 53.1602L48.19 53.6902L48.46 53.7802" fill="white"/>
<path d="M48.36 53.1602L48.53 53.6902L48.26 53.7802" fill="white"/>
<path d="M48.89 53.54H48.33V53.82" fill="white"/>
<path d="M48.89 53.54L48.44 53.87L48.28 53.64" fill="white"/>
<path d="M47.83 53.54L48.28 53.87L48.44 53.64" fill="white"/>
<path d="M47.83 53.54H48.39V53.82" fill="white"/>
<path d="M48.69 54.1701L48.52 53.6401L48.25 53.7301" fill="white"/>
<path d="M48.69 54.1701L48.24 53.8401L48.4 53.6101" fill="white"/>
<path d="M48.03 54.1701L48.48 53.8401L48.32 53.6101" fill="white"/>
<path d="M48.03 54.1701L48.2 53.6401L48.47 53.7301" fill="white"/>
<path d="M50.33 49.6499L50.16 50.1799L50.43 50.2699" fill="white"/>
<path d="M50.33 49.6499L50.5 50.1799L50.23 50.2699" fill="white"/>
<path d="M50.86 50.0298H50.3V50.3098" fill="white"/>
<path d="M50.86 50.0298L50.41 50.3598L50.25 50.1298" fill="white"/>
<path d="M49.8 50.0298L50.25 50.3598L50.41 50.1298" fill="white"/>
<path d="M49.8 50.0298H50.36V50.3098" fill="white"/>
<path d="M50.66 50.6599L50.49 50.1299L50.22 50.2199" fill="white"/>
<path d="M50.66 50.6599L50.21 50.3299L50.37 50.0999" fill="white"/>
<path d="M50 50.6599L50.45 50.3299L50.29 50.0999" fill="white"/>
<path d="M50 50.6599L50.17 50.1299L50.44 50.2199" fill="white"/>
<path d="M51.9 48.5298L51.68 49.1898L52.01 49.2998" fill="white"/>
<path d="M51.9 48.5298L52.12 49.1898L51.79 49.2998" fill="white"/>
<path d="M52.56 49.0098H51.86V49.3598" fill="white"/>
<path d="M52.56 49.0098L52 49.4198L51.79 49.1398" fill="white"/>
<path d="M51.23 49.0098L51.79 49.4198L52 49.1398" fill="white"/>
<path d="M51.23 49.0098H51.93V49.3598" fill="white"/>
<path d="M52.31 49.7899L52.09 49.1299L51.76 49.2399" fill="white"/>
<path d="M52.31 49.7899L51.75 49.3799L51.96 49.0999" fill="white"/>
<path d="M51.49 49.7899L52.05 49.3799L51.84 49.0999" fill="white"/>
<path d="M51.49 49.7899L51.71 49.1299L52.04 49.2399" fill="white"/>
<path d="M48.31 49.2798L48.14 49.8098L48.41 49.8998" fill="white"/>
<path d="M48.31 49.2798L48.48 49.8098L48.21 49.8998" fill="white"/>
<path d="M48.84 49.6597H48.28V49.9397" fill="white"/>
<path d="M48.84 49.6597L48.39 49.9897L48.23 49.7597" fill="white"/>
<path d="M47.78 49.6597L48.23 49.9897L48.39 49.7597" fill="white"/>
<path d="M47.78 49.6597H48.34V49.9397" fill="white"/>
<path d="M48.64 50.2898L48.47 49.7598L48.2 49.8498" fill="white"/>
<path d="M48.64 50.2897L48.19 49.9597L48.35 49.7297" fill="white"/>
<path d="M47.98 50.2897L48.43 49.9597L48.27 49.7297" fill="white"/>
<path d="M47.98 50.2898L48.15 49.7598L48.42 49.8498" fill="white"/>
<path d="M31.16 39.1699L30.94 39.8299L31.27 39.9399" fill="white"/>
<path d="M31.16 39.1699L31.38 39.8299L31.05 39.9399" fill="white"/>
<path d="M31.83 39.6499H31.13V39.9999" fill="white"/>
<path d="M31.83 39.6499L31.27 40.0599L31.06 39.7799" fill="white"/>
<path d="M30.5 39.6499L31.06 40.0599L31.27 39.7799" fill="white"/>
<path d="M30.5 39.6499H31.2V39.9999" fill="white"/>
<path d="M31.57 40.43L31.35 39.77L31.02 39.88" fill="white"/>
<path d="M31.57 40.43L31.01 40.02L31.22 39.74" fill="white"/>
<path d="M30.75 40.43L31.31 40.02L31.1 39.74" fill="white"/>
<path d="M30.75 40.43L30.97 39.77L31.3 39.88" fill="white"/>
<path d="M43.92 37.5298L43.75 38.0598L44.02 38.1498" fill="white"/>
<path d="M43.92 37.5298L44.09 38.0598L43.82 38.1498" fill="white"/>
<path d="M44.45 37.9097H43.89V38.1897" fill="white"/>
<path d="M44.45 37.9097L44 38.2397L43.84 38.0097" fill="white"/>
<path d="M43.39 37.9097L43.84 38.2397L44 38.0097" fill="white"/>
<path d="M43.39 37.9097H43.95V38.1897" fill="white"/>
<path d="M44.25 38.5398L44.08 38.0098L43.81 38.0998" fill="white"/>
<path d="M44.25 38.5397L43.8 38.2097L43.96 37.9797" fill="white"/>
<path d="M43.59 38.5397L44.04 38.2097L43.88 37.9797" fill="white"/>
<path d="M43.59 38.5398L43.76 38.0098L44.03 38.0998" fill="white"/>
<path d="M38.61 47L38.35 47.8L38.75 47.93" fill="white"/>
<path d="M38.61 47L38.87 47.8L38.47 47.93" fill="white"/>
<path d="M39.4 47.5801H38.56V48.0001" fill="white"/>
<path d="M39.4 47.5801L38.72 48.0701L38.47 47.7301" fill="white"/>
<path d="M37.81 47.5801L38.49 48.0701L38.74 47.7301" fill="white"/>
<path d="M37.81 47.5801H38.65V48.0001" fill="white"/>
<path d="M39.1 48.52L38.84 47.72L38.44 47.85" fill="white"/>
<path d="M39.1 48.5199L38.42 48.0299L38.67 47.6899" fill="white"/>
<path d="M38.11 48.5199L38.79 48.0299L38.54 47.6899" fill="white"/>
<path d="M38.11 48.52L38.37 47.72L38.77 47.85" fill="white"/>
<path d="M40.87 43.2598L40.65 43.9198L40.98 44.0298" fill="white"/>
<path d="M40.87 43.2598L41.09 43.9198L40.76 44.0298" fill="white"/>
<path d="M41.53 43.7498H40.83V44.0998" fill="white"/>
<path d="M41.53 43.7498L40.97 44.1598L40.76 43.8798" fill="white"/>
<path d="M40.2 43.7498L40.76 44.1598L40.97 43.8798" fill="white"/>
<path d="M40.2 43.7498H40.9V44.0998" fill="white"/>
<path d="M41.28 44.5299L41.06 43.8699L40.73 43.9799" fill="white"/>
<path d="M41.28 44.5298L40.72 44.1198L40.93 43.8398" fill="white"/>
<path d="M40.45 44.5298L41.01 44.1198L40.8 43.8398" fill="white"/>
<path d="M40.45 44.5299L40.67 43.8699L41 43.9799" fill="white"/>
<path d="M38.61 41.5098L38.39 42.1698L38.72 42.2798" fill="white"/>
<path d="M38.61 41.5098L38.83 42.1698L38.5 42.2798" fill="white"/>
<path d="M39.27 41.9897H38.57V42.3397" fill="white"/>
<path d="M39.27 41.9897L38.71 42.3997L38.5 42.1197" fill="white"/>
<path d="M37.94 41.9897L38.5 42.3997L38.71 42.1197" fill="white"/>
<path d="M37.94 41.9897H38.64V42.3397" fill="white"/>
<path d="M39.02 42.7699L38.8 42.1099L38.47 42.2199" fill="white"/>
<path d="M39.02 42.7698L38.46 42.3598L38.67 42.0798" fill="white"/>
<path d="M38.2 42.7698L38.76 42.3598L38.55 42.0798" fill="white"/>
<path d="M38.2 42.7699L38.42 42.1099L38.75 42.2199" fill="white"/>
<path d="M36.64 43.3999L36.47 43.9299L36.74 44.0199" fill="white"/>
<path d="M36.64 43.3999L36.81 43.9299L36.54 44.0199" fill="white"/>
<path d="M37.17 43.7898H36.61V44.0698" fill="white"/>
<path d="M37.17 43.7898L36.72 44.1198L36.56 43.8898" fill="white"/>
<path d="M36.11 43.7898L36.56 44.1198L36.72 43.8898" fill="white"/>
<path d="M36.11 43.7898H36.67V44.0698" fill="white"/>
<path d="M36.97 44.4099L36.8 43.8799L36.53 43.9699" fill="white"/>
<path d="M36.97 44.4099L36.52 44.0799L36.68 43.8499" fill="white"/>
<path d="M36.31 44.4099L36.76 44.0799L36.6 43.8499" fill="white"/>
<path d="M36.31 44.4099L36.48 43.8799L36.75 43.9699" fill="white"/>
<path d="M37.62 44.9199L37.5 45.2999L37.69 45.3599" fill="white"/>
<path d="M37.62 44.9199L37.74 45.2999L37.55 45.3599" fill="white"/>
<path d="M38 45.1899H37.6V45.3899" fill="white"/>
<path d="M38 45.1899L37.68 45.4199L37.56 45.2599" fill="white"/>
<path d="M37.24 45.1899L37.56 45.4199L37.68 45.2599" fill="white"/>
<path d="M37.24 45.1899H37.64V45.3899" fill="white"/>
<path d="M37.86 45.64L37.74 45.26L37.55 45.32" fill="white"/>
<path d="M37.86 45.64L37.54 45.41L37.66 45.25" fill="white"/>
<path d="M37.39 45.64L37.71 45.41L37.59 45.25" fill="white"/>
<path d="M37.39 45.64L37.51 45.26L37.7 45.32" fill="white"/>
<path d="M44.45 51.5298L44.23 52.1898L44.56 52.2998" fill="white"/>
<path d="M44.45 51.5298L44.67 52.1898L44.34 52.2998" fill="white"/>
<path d="M45.12 52.0098H44.42V52.3598" fill="white"/>
<path d="M45.12 52.0098L44.56 52.4198L44.35 52.1398" fill="white"/>
<path d="M43.79 52.0098L44.35 52.4198L44.56 52.1398" fill="white"/>
<path d="M43.79 52.0098H44.49V52.3598" fill="white"/>
<path d="M44.86 52.7899L44.64 52.1299L44.31 52.2399" fill="white"/>
<path d="M44.86 52.7899L44.3 52.3799L44.51 52.0999" fill="white"/>
<path d="M44.04 52.7899L44.6 52.3799L44.39 52.0999" fill="white"/>
<path d="M44.04 52.7899L44.26 52.1299L44.59 52.2399" fill="white"/>
<path d="M46.13 49.9399L45.96 50.4699L46.23 50.5599" fill="white"/>
<path d="M46.13 49.9399L46.3 50.4699L46.03 50.5599" fill="white"/>
<path d="M46.66 50.3298H46.1V50.6098" fill="white"/>
<path d="M46.66 50.3298L46.21 50.6598L46.05 50.4298" fill="white"/>
<path d="M45.6 50.3298L46.05 50.6598L46.21 50.4298" fill="white"/>
<path d="M45.6 50.3298H46.16V50.6098" fill="white"/>
<path d="M46.46 50.9499L46.29 50.4199L46.02 50.5099" fill="white"/>
<path d="M46.46 50.9499L46.01 50.6199L46.17 50.3899" fill="white"/>
<path d="M45.8 50.9499L46.25 50.6199L46.09 50.3899" fill="white"/>
<path d="M45.8 50.9499L45.97 50.4199L46.24 50.5099" fill="white"/>
<path d="M42.91 49.46L42.74 49.99L43.01 50.08" fill="white"/>
<path d="M42.91 49.46L43.08 49.99L42.81 50.08" fill="white"/>
<path d="M43.44 49.8499H42.88V50.1299" fill="white"/>
<path d="M43.44 49.8499L42.99 50.1799L42.83 49.9499" fill="white"/>
<path d="M42.38 49.8499L42.83 50.1799L42.99 49.9499" fill="white"/>
<path d="M42.38 49.8499H42.94V50.1299" fill="white"/>
<path d="M43.24 50.4699L43.07 49.9399L42.8 50.0299" fill="white"/>
<path d="M43.24 50.4699L42.79 50.1399L42.95 49.9099" fill="white"/>
<path d="M42.58 50.4699L43.03 50.1399L42.87 49.9099" fill="white"/>
<path d="M42.58 50.4699L42.75 49.9399L43.02 50.0299" fill="white"/>
<path d="M30.77 48.6001L30.51 49.4001L30.91 49.5301" fill="white"/>
<path d="M30.77 48.6001L31.03 49.4001L30.63 49.5301" fill="white"/>
<path d="M31.56 49.1802H30.72V49.6002" fill="white"/>
<path d="M31.56 49.1802L30.88 49.6702L30.63 49.3302" fill="white"/>
<path d="M29.97 49.1802L30.65 49.6702L30.9 49.3302" fill="white"/>
<path d="M29.97 49.1802H30.81V49.6002" fill="white"/>
<path d="M31.26 50.1101L31 49.3101L30.6 49.4401" fill="white"/>
<path d="M31.26 50.11L30.58 49.62L30.83 49.28" fill="white"/>
<path d="M30.27 50.11L30.95 49.62L30.7 49.28" fill="white"/>
<path d="M30.27 50.1101L30.53 49.3101L30.93 49.4401" fill="white"/>
<path d="M38.61 54.0698L38.52 54.3398L38.65 54.3798" fill="white"/>
<path d="M38.61 54.0698L38.7 54.3398L38.57 54.3798" fill="white"/>
<path d="M38.87 54.2698H38.59V54.4098" fill="white"/>
<path d="M38.87 54.2698L38.64 54.4298L38.56 54.3198" fill="white"/>
<path d="M38.34 54.2698L38.57 54.4298L38.65 54.3198" fill="white"/>
<path d="M38.34 54.2698H38.62V54.4098" fill="white"/>
<path d="M38.77 54.5798L38.68 54.3098L38.55 54.3498" fill="white"/>
<path d="M38.77 54.5798L38.54 54.4198L38.62 54.3098" fill="white"/>
<path d="M38.44 54.5798L38.67 54.4198L38.59 54.3098" fill="white"/>
<path d="M38.44 54.5798L38.53 54.3098L38.66 54.3498" fill="white"/>
</g>
<defs>
<clipPath id="clip0_1236_2521">
<rect width="111" height="78" fill="white" transform="translate(-17)"/>
</clipPath>
</defs>
</svg>
