<svg xmlns="http://www.w3.org/2000/svg" width="78" height="78" fill="none" xmlns:v="https://vecta.io/nano"><style><![CDATA[.B{fill-rule:evenodd}.C{fill:#009b3a}]]></style><g clip-path="url(#C)"><path d="M94.42 0H-17.21V78.14H94.42V0Z" class="C"/><path d="M-7.72 39.07l46.33 29.58 46.33-29.58L38.61 9.49-7.72 39.07z" fill="#fedf00"/><path d="M38.61 58.61c10.792 0 19.54-8.748 19.54-19.54s-8.748-19.54-19.54-19.54-19.54 8.748-19.54 19.54 8.748 19.54 19.54 19.54z" fill="#002776"/><mask id="A" maskUnits="userSpaceOnUse" x="19" y="19" width="40" height="40"><path d="M38.61 58.61c10.792 0 19.54-8.748 19.54-19.54s-8.748-19.54-19.54-19.54-19.54 8.748-19.54 19.54 8.748 19.54 19.54 19.54z" fill="#fff"/></mask><g mask="url(#A)"><path d="M-20 78.14c0-26.2 21.24-47.44 47.44-47.44s47.44 21.24 47.44 47.44h-2.79c0-24.66-19.99-44.65-44.65-44.65s-44.65 19.99-44.65 44.65H-20z" fill="#fff"/></g><g class="C"><g class="B"><path d="M21.94 33.36c.46-.06.78-.52.72-1.03s-.49-.88-.94-.82-.78.52-.72 1.03.49.88.94.82zm-.04-.34c.27-.03.46-.32.42-.64s-.29-.55-.56-.52-.46.32-.42.64.29.55.56.52zm1.56.17l.34-.02-.05-.69.74-.05c.32-.02.57-.3.54-.62s-.3-.57-.62-.54l-1.06.07.1 1.86.01-.01zm.27-1.06l.72-.05c.13 0 .23-.12.22-.26s-.12-.23-.26-.22l-.72.05.03.48h.01z"/></g><path d="M25.04 33.08c-.02-.27-.06-.85-.46-.82l-.5.04c.58-.04.62.54.64.81"/><path d="M25.82 33.05l.88-.02c.44 0 .79-.37.78-.81v-.27c-.01-.44-.38-.79-.82-.78l-.88.02.03 1.86h.01zm.34-.35h.5a.52.52 0 0 0 .5-.52v-.16c0-.28-.24-.5-.52-.5h-.5l.02 1.18z" class="B"/><path d="M28.18 33.02l1.67.06v-.35l-1.34-.05.02-.48 1.06.04v-.32l-1.05-.04v-.37l1.29.04v-.35l-1.58-.06-.06 1.86-.01.02zm2.36.1l.32.03.11-1.27.26 1.3.29.03.48-1.24-.11 1.27.32.03.16-1.85-.46-.04-.48 1.24-.26-1.3-.46-.04-.16 1.85-.01-.01zm3.86.44l1.38.24.05-.31-1.06-.18.07-.42.86.15.05-.31-.86-.15.05-.29 1.03.18.05-.31-1.34-.23-.28 1.65v-.02z"/><g class="B"><path d="M37.93 34.25l.33.09.17-.67.72.19c.31.08.63-.11.71-.42s-.11-.63-.42-.71l-1.03-.27-.49 1.79h.01zm.59-.92l.69.18c.13.03.26-.04.29-.17s-.04-.26-.17-.29l-.69-.18-.12.46zm1.69 1.53l.33.1.21-.66.71.22c.31.1.64-.07.73-.38s-.07-.64-.38-.73l-1.01-.32-.58 1.77h-.01zm.64-.88l.68.22c.13.04.26-.03.3-.16s-.03-.26-.16-.3l-.68-.22-.14.46z"/></g><path d="M41.72 35.34c.08-.25.26-.81-.12-.93l-.48-.15c.56.18.38.73.3.99"/><path d="M43.24 35.88c.43.16.93-.1 1.11-.58s-.03-1-.46-1.16-.93.1-1.11.58.03 1 .46 1.16zm.12-.32c.25.1.55-.07.67-.38s0-.62-.26-.72-.55.07-.67.38 0 .62.26.72z" class="B"/></g><mask id="B" maskUnits="userSpaceOnUse" x="44" y="34" width="3" height="4"><path d="M44.67 36.43l.74-1.71 1.54.67-.74 1.71-1.54-.67zm1.27-.81l-.13.29.77.33.13-.29-.77-.33z" fill="#fff"/></mask><g mask="url(#B)" class="B C"><path d="M45.43 36.77c.42.18.93-.05 1.14-.52s.03-1-.4-1.19-.93.05-1.14.52-.03 1 .4 1.19zm.14-.32c.25.11.56-.04.68-.34s.03-.62-.22-.73-.56.04-.68.34-.03.62.22.73z"/></g><g class="C"><path d="M45.933 35.969l-.108.248.642.279.108-.248-.642-.279z"/><path d="M46.332 36.145l-.371.853.248.108.371-.853-.248-.108z"/><path d="M46.82 37.39l.31.15.31-.62.67.33a.58.58 0 1 0 .52-1.04l-.95-.47-.85 1.65h-.01zm.77-.77l.64.32c.12.06.26.01.32-.11s.01-.26-.11-.32l-.64-.32-.21.43z" class="B"/><path d="M48.24 38.1c.12-.24.38-.76.02-.94l-.45-.23c.52.26.26.78.14 1.02m.98.51l1.46.82.17-.3-1.18-.67.24-.42.93.52.16-.28-.93-.52.18-.32 1.11.63.17-.3-1.39-.79-.92 1.62v.01zm2.72.91c-.1.16 0 .33.23.47s.38.14.44.04c.2-.32-.97-.79-.61-1.34.31-.48.85-.11 1.05.02s.53.46.27.84l-.34-.22c.11-.17-.01-.33-.19-.44s-.31-.16-.42 0c-.17.26.98.75.63 1.3-.26.41-.71.23-1.02.04-.26-.16-.64-.55-.39-.94l.35.22v.01zm1.99 1.32c-.11.15-.02.33.2.49s.37.16.44.06c.22-.31-.93-.84-.54-1.37.34-.46.85-.06 1.05.08s.5.49.23.86l-.33-.24c.12-.16 0-.33-.17-.45s-.31-.18-.42-.02c-.19.25.94.8.56 1.34-.28.39-.73.19-1.02-.02-.25-.18-.61-.58-.34-.96l.34.24v-.01z"/><path d="M55.53 42.83c.36.29.91.2 1.23-.21s.29-.96-.08-1.25-.91-.2-1.23.21-.29.96.08 1.25zm.22-.27c.21.17.55.1.75-.15s.19-.59-.02-.76-.55-.1-.75.15-.19.59.02.76z" class="B"/></g><g fill="#fff"><path d="M22.66 34.72l-.26.8.4.13"/><path d="M22.66 34.72l.26.8-.4.13"/><path d="M23.45 35.3h-.84v.42"/><path d="M23.45 35.3l-.68.49-.25-.34"/><path d="M21.86 35.3l.68.49.25-.34"/><path d="M21.86 35.3h.84v.42"/><path d="M23.15 36.24l-.26-.8-.4.13"/><path d="M23.15 36.24l-.68-.49.25-.34"/><path d="M22.17 36.24l.68-.49-.25-.34"/><path d="M22.17 36.24l.26-.8.4.13m1.56 7.37l-.26.8.4.13"/><path d="M24.39 42.94l.26.8-.4.13"/><path d="M25.18 43.52h-.84v.42"/><path d="M25.18 43.52l-.68.49-.25-.34"/><path d="M23.59 43.52l.68.49.25-.34"/><path d="M23.59 43.52h.84v.42"/><path d="M24.88 44.45l-.26-.8-.4.13"/><path d="M24.88 44.45l-.68-.49.25-.34"/><path d="M23.89 44.45l.68-.49-.25-.34"/><path d="M23.89 44.45l.26-.8.4.13m-2.56 1.05l-.22.66.33.11"/><path d="M21.99 44.83l.22.66-.33.11"/><path d="M22.66 45.31h-.7v.35"/><path d="M22.66 45.31l-.56.41-.21-.28"/><path d="M21.33 45.31l.56.41.21-.28"/><path d="M21.33 45.31h.7v.35"/><path d="M22.4 46.09l-.22-.66-.33.11"/><path d="M22.4 46.09l-.56-.41.21-.28"/><path d="M21.58 46.09l.56-.41-.21-.28"/><path d="M21.58 46.09l.22-.66.33.11m4.17-3.36l-.12.38.19.06"/><path d="M26.3 42.18l.12.38-.19.06"/><path d="M26.68 42.46h-.4v.2"/><path d="M26.68 42.46l-.32.23-.12-.16"/><path d="M25.92 42.46l.32.23.12-.16"/><path d="M25.92 42.46h.4v.2"/><path d="M26.53 42.9l-.12-.38-.19.06"/><path d="M26.53 42.9l-.32-.23.12-.16"/><path d="M26.07 42.9l.32-.23-.12-.16"/><path d="M26.07 42.9l.12-.38.19.06m2.07 2.44l-.22.66.33.11"/><path d="M28.45 45.02l.22.66-.33.11"/><path d="M29.12 45.5h-.7v.35"/><path d="M29.12 45.5l-.56.41-.21-.28"/><path d="M27.79 45.5l.56.41.21-.28"/><path d="M27.79 45.5h.7v.35"/><path d="M28.86 46.28l-.22-.66-.33.11"/><path d="M28.86 46.28l-.56-.41.21-.28"/><path d="M28.04 46.28l.56-.41-.21-.28"/><path d="M28.04 46.28l.22-.66.33.11m-.72 1.37l-.17.53.27.09"/><path d="M27.87 47.1l.17.53-.27.09"/><path d="M28.4 47.48h-.56v.28"/><path d="M28.4 47.48l-.45.33-.16-.23"/><path d="M27.34 47.48l.45.33.16-.23"/><path d="M27.34 47.48h.56v.28"/><path d="M28.2 48.11l-.17-.53-.27.09"/><path d="M28.2 48.11l-.45-.33.16-.23"/><path d="M27.54 48.11l.45-.33-.16-.23"/><path d="M27.54 48.11l.17-.53.27.09m16.69-15.5l-.26.8.4.13"/><path d="M44.67 32.17l.26.8-.4.13"/><path d="M45.46 32.75h-.84v.42"/><path d="M45.46 32.75l-.68.49-.25-.34"/><path d="M43.87 32.75l.68.49.25-.34"/><path d="M43.87 32.75h.84v.42"/><path d="M45.16 33.69l-.26-.8-.4.13"/><path d="M45.16 33.69l-.68-.49.25-.34"/><path d="M44.17 33.69l.68-.49-.25-.34"/><path d="M44.17 33.69l.26-.8.4.13m7.46 12.07l-.26.8.4.13"/><path d="M52.29 45.09l.26.8-.4.13"/><path d="M53.09 45.67h-.84v.42"/><path d="M53.09 45.67l-.68.49-.25-.34"/><path d="M51.5 45.67l.68.49.25-.34"/><path d="M51.5 45.67h.84v.42"/><path d="M52.79 46.61l-.26-.8-.4.13"/><path d="M52.79 46.61l-.68-.49.25-.34"/><path d="M51.8 46.61l.68-.49-.25-.34"/><path d="M51.8 46.61l.26-.8.4.13m2.54-.38l-.17.53.27.09"/><path d="M55 45.56l.17.53-.27.09"/><path d="M55.54 45.94h-.56v.28"/><path d="M55.54 45.94l-.45.33-.16-.23"/><path d="M54.47 45.94l.45.33.16-.23"/><path d="M54.47 45.94h.56v.28"/><path d="M55.33 46.57l-.17-.53-.27.09"/><path d="M55.33 46.57l-.45-.33.16-.23"/><path d="M54.68 46.57l.45-.33-.16-.23"/><path d="M54.68 46.57l.17-.53.27.09m-2.03.83l-.22.66.33.11"/><path d="M53.09 46.96l.22.66-.33.11"/><path d="M53.75 47.44h-.7v.35"/><path d="M53.75 47.44l-.56.41-.21-.28"/><path d="M52.43 47.44l.56.41.21-.28"/><path d="M52.43 47.44h.7v.35"/><path d="M53.5 48.22l-.22-.66-.33.11"/><path d="M53.5 48.22l-.56-.41.21-.28"/><path d="M52.68 48.22l.56-.41-.21-.28"/><path d="M52.68 48.22l.22-.66.33.11m-4.84 3.38l-.22.66.33.11"/><path d="M48.39 51.05l.22.66-.33.11"/><path d="M49.05 51.53h-.7v.35"/><path d="M49.05 51.53l-.56.41-.21-.28"/><path d="M47.72 51.53l.56.41.21-.28"/><path d="M47.72 51.53h.7v.35"/><path d="M48.8 52.31l-.22-.66-.33.11"/><path d="M48.8 52.31l-.56-.41.21-.28"/><path d="M47.98 52.31l.56-.41-.21-.28"/><path d="M47.98 52.31l.22-.66.33.11m-.17 1.4l-.17.53.27.09"/><path d="M48.36 53.16l.17.53-.27.09"/><path d="M48.89 53.54h-.56v.28"/><path d="M48.89 53.54l-.45.33-.16-.23"/><path d="M47.83 53.54l.45.33.16-.23"/><path d="M47.83 53.54h.56v.28"/><path d="M48.69 54.17l-.17-.53-.27.09"/><path d="M48.69 54.17l-.45-.33.16-.23"/><path d="M48.03 54.17l.45-.33-.16-.23"/><path d="M48.03 54.17l.17-.53.27.09m1.86-4.08l-.17.53.27.09"/><path d="M50.33 49.65l.17.53-.27.09"/><path d="M50.86 50.03h-.56v.28"/><path d="M50.86 50.03l-.45.33-.16-.23"/><path d="M49.8 50.03l.45.33.16-.23"/><path d="M49.8 50.03h.56v.28"/><path d="M50.66 50.66l-.17-.53-.27.09"/><path d="M50.66 50.66l-.45-.33.16-.23"/><path d="M50 50.66l.45-.33-.16-.23"/><path d="M50 50.66l.17-.53.27.09m1.46-1.69l-.22.66.33.11"/><path d="M51.9 48.53l.22.66-.33.11"/><path d="M52.56 49.01h-.7v.35"/><path d="M52.56 49.01l-.56.41-.21-.28"/><path d="M51.23 49.01l.56.41.21-.28"/><path d="M51.23 49.01h.7v.35"/><path d="M52.31 49.79l-.22-.66-.33.11"/><path d="M52.31 49.79l-.56-.41.21-.28"/><path d="M51.49 49.79l.56-.41-.21-.28"/><path d="M51.49 49.79l.22-.66.33.11m-3.73.04l-.17.53.27.09"/><path d="M48.31 49.28l.17.53-.27.09"/><path d="M48.84 49.66h-.56v.28"/><path d="M48.84 49.66l-.45.33-.16-.23"/><path d="M47.78 49.66l.45.33.16-.23"/><path d="M47.78 49.66h.56v.28"/><path d="M48.64 50.29l-.17-.53-.27.09"/><path d="M48.64 50.29l-.45-.33.16-.23"/><path d="M47.98 50.29l.45-.33-.16-.23"/><path d="M47.98 50.29l.17-.53.27.09M31.16 39.17l-.22.66.33.11"/><path d="M31.16 39.17l.22.66-.33.11"/><path d="M31.83 39.65h-.7V40"/><path d="M31.83 39.65l-.56.41-.21-.28"/><path d="M30.5 39.65l.56.41.21-.28"/><path d="M30.5 39.65h.7V40"/><path d="M31.57 40.43l-.22-.66-.33.11"/><path d="M31.57 40.43l-.56-.41.21-.28"/><path d="M30.75 40.43l.56-.41-.21-.28"/><path d="M30.75 40.43l.22-.66.33.11m12.62-2.35l-.17.53.27.09"/><path d="M43.92 37.53l.17.53-.27.09"/><path d="M44.45 37.91h-.56v.28"/><path d="M44.45 37.91l-.45.33-.16-.23"/><path d="M43.39 37.91l.45.33.16-.23"/><path d="M43.39 37.91h.56v.28"/><path d="M44.25 38.54l-.17-.53-.27.09"/><path d="M44.25 38.54l-.45-.33.16-.23"/><path d="M43.59 38.54l.45-.33-.16-.23"/><path d="M43.59 38.54l.17-.53.27.09M38.61 47l-.26.8.4.13"/><path d="M38.61 47l.26.8-.4.13"/><path d="M39.4 47.58h-.84V48"/><path d="M39.4 47.58l-.68.49-.25-.34"/><path d="M37.81 47.58l.68.49.25-.34"/><path d="M37.81 47.58h.84V48"/><path d="M39.1 48.52l-.26-.8-.4.13"/><path d="M39.1 48.52l-.68-.49.25-.34"/><path d="M38.11 48.52l.68-.49-.25-.34"/><path d="M38.11 48.52l.26-.8.4.13m2.1-4.59l-.22.66.33.11"/><path d="M40.87 43.26l.22.66-.33.11"/><path d="M41.53 43.75h-.7v.35"/><path d="M41.53 43.75l-.56.41-.21-.28"/><path d="M40.2 43.75l.56.41.21-.28"/><path d="M40.2 43.75h.7v.35"/><path d="M41.28 44.53l-.22-.66-.33.11"/><path d="M41.28 44.53l-.56-.41.21-.28"/><path d="M40.45 44.53l.56-.41-.21-.28"/><path d="M40.45 44.53l.22-.66.33.11m-2.39-2.47l-.22.66.33.11"/><path d="M38.61 41.51l.22.66-.33.11"/><path d="M39.27 41.99h-.7v.35"/><path d="M39.27 41.99l-.56.41-.21-.28"/><path d="M37.94 41.99l.56.41.21-.28"/><path d="M37.94 41.99h.7v.35"/><path d="M39.02 42.77l-.22-.66-.33.11"/><path d="M39.02 42.77l-.56-.41.21-.28"/><path d="M38.2 42.77l.56-.41-.21-.28"/><path d="M38.2 42.77l.22-.66.33.11m-2.11 1.18l-.17.53.27.09"/><path d="M36.64 43.4l.17.53-.27.09"/><path d="M37.17 43.79h-.56v.28"/><path d="M37.17 43.79l-.45.33-.16-.23"/><path d="M36.11 43.79l.45.33.16-.23"/><path d="M36.11 43.79h.56v.28"/><path d="M36.97 44.41l-.17-.53-.27.09"/><path d="M36.97 44.41l-.45-.33.16-.23"/><path d="M36.31 44.41l.45-.33-.16-.23"/><path d="M36.31 44.41l.17-.53.27.09m.87.95l-.12.38.19.06"/><path d="M37.62 44.92l.12.38-.19.06"/><path d="M38 45.19h-.4v.2"/><path d="M38 45.19l-.32.23-.12-.16"/><path d="M37.24 45.19l.32.23.12-.16"/><path d="M37.24 45.19h.4v.2"/><path d="M37.86 45.64l-.12-.38-.19.06"/><path d="M37.86 45.64l-.32-.23.12-.16"/><path d="M37.39 45.64l.32-.23-.12-.16"/><path d="M37.39 45.64l.12-.38.19.06m6.75 6.21l-.22.66.33.11"/><path d="M44.45 51.53l.22.66-.33.11"/><path d="M45.12 52.01h-.7v.35"/><path d="M45.12 52.01l-.56.41-.21-.28"/><path d="M43.79 52.01l.56.41.21-.28"/><path d="M43.79 52.01h.7v.35"/><path d="M44.86 52.79l-.22-.66-.33.11"/><path d="M44.86 52.79l-.56-.41.21-.28"/><path d="M44.04 52.79l.56-.41-.21-.28"/><path d="M44.04 52.79l.22-.66.33.11m1.54-2.3l-.17.53.27.09"/><path d="M46.13 49.94l.17.53-.27.09"/><path d="M46.66 50.33h-.56v.28"/><path d="M46.66 50.33l-.45.33-.16-.23"/><path d="M45.6 50.33l.45.33.16-.23"/><path d="M45.6 50.33h.56v.28"/><path d="M46.46 50.95l-.17-.53-.27.09"/><path d="M46.46 50.95l-.45-.33.16-.23"/><path d="M45.8 50.95l.45-.33-.16-.23"/><path d="M45.8 50.95l.17-.53.27.09m-3.33-1.05l-.17.53.27.09"/><path d="M42.91 49.46l.17.53-.27.09"/><path d="M43.44 49.85h-.56v.28"/><path d="M43.44 49.85l-.45.33-.16-.23"/><path d="M42.38 49.85l.45.33.16-.23"/><path d="M42.38 49.85h.56v.28"/><path d="M43.24 50.47l-.17-.53-.27.09"/><path d="M43.24 50.47l-.45-.33.16-.23"/><path d="M42.58 50.47l.45-.33-.16-.23"/><path d="M42.58 50.47l.17-.53.27.09M30.77 48.6l-.26.8.4.13"/><path d="M30.77 48.6l.26.8-.4.13"/><path d="M31.56 49.18h-.84v.42"/><path d="M31.56 49.18l-.68.49-.25-.34"/><path d="M29.97 49.18l.68.49.25-.34"/><path d="M29.97 49.18h.84v.42"/><path d="M31.26 50.11l-.26-.8-.4.13"/><path d="M31.26 50.11l-.68-.49.25-.34"/><path d="M30.27 50.11l.68-.49-.25-.34"/><path d="M30.27 50.11l.26-.8.4.13m7.68 4.63l-.09.27.13.04"/><path d="M38.61 54.07l.09.27-.13.04"/><path d="M38.87 54.27h-.28v.14"/><path d="M38.87 54.27l-.23.16-.08-.11"/><path d="M38.34 54.27l.23.16.08-.11"/><path d="M38.34 54.27h.28v.14"/><path d="M38.77 54.58l-.09-.27-.13.04"/><path d="M38.77 54.58l-.23-.16.08-.11"/><path d="M38.44 54.58l.23-.16-.08-.11"/><path d="M38.44 54.58l.09-.27.13.04"/></g></g><defs><clipPath id="C"><path fill="#fff" transform="translate(-17)" d="M0 0h111v78H0z"/></clipPath></defs></svg>