<svg width="151" height="72" viewBox="0 0 151 72" fill="none" xmlns="http://www.w3.org/2000/svg">
<path d="M25.9 41.7002L21.3 59.7002H21.2L16.2 44.8002H13.4L8.4 59.7002H8.3L3.5 41.7002H0.4L6.7 64.6002H9.7L14.7 49.5002H14.8L19.7 64.6002H22.7L29 41.7002H25.9ZM36.7 48.5002C34.3 48.5002 32.4 49.3002 30.9 50.9002C29.4 52.5002 28.6 54.4002 28.6 56.8002C28.6 59.2002 29.4 61.2002 30.9 62.8002C32.5 64.4002 34.4 65.2002 36.7 65.2002C39 65.2002 40.9 64.4002 42.4 62.8002C43.9 61.2002 44.7 59.2002 44.7 56.8002C44.7 54.4002 43.9 52.4002 42.4 50.9002C41 49.3002 39.1 48.5002 36.7 48.5002ZM40.4 60.9002C39.4 61.9002 38.2 62.5002 36.7 62.5002C35.3 62.5002 34 62.0002 33 60.9002C32 59.9002 31.5 58.5002 31.5 56.8002C31.5 55.1002 32 53.8002 33 52.7002C34 51.6002 35.2 51.1002 36.7 51.1002C38.1 51.1002 39.4 51.6002 40.4 52.7002C41.4 53.7002 41.8 55.1002 41.8 56.8002C41.9 58.5002 41.4 59.8002 40.4 60.9002ZM71.4 49.1002V49.0002H67.7L60.9 55.9002V41.7002H58V64.6002H60.9V59.6002L63.3 57.2002L68.1 64.6002H71.7V64.5002L65.3 55.2002L71.4 49.1002ZM51.7 49.4002C50.7 50.0002 50.1 50.7002 49.8 51.6002H49.7V49.0002H46.9V64.7002H49.8V56.0002C49.8 54.8002 50.2 53.7002 51 52.9002C51.8 52.0002 52.8 51.6002 53.9 51.6002C54.7 51.6002 55.3 51.7002 55.6 51.8002L56.5 48.9002C55.9 48.6002 55.2 48.5002 54.3 48.5002C53.6 48.5002 52.7 48.8002 51.7 49.4002ZM79.8 55.6002L77.4 54.9002C75.7 54.6002 74.9 53.9002 74.9 53.0002C74.9 52.4002 75.2 52.0002 75.8 51.6002C76.4 51.2002 77.2 51.0002 77.9 51.1002C78.7 51.1002 79.5 51.3002 80.2 51.6002C80.8 52.0002 81.3 52.5002 81.6 53.2002L84.2 52.1002C83.8 51.1002 83 50.2002 81.8 49.5002C80.7 48.8002 79.4 48.5002 78 48.5002C76.2 48.5002 74.7 48.9002 73.6 49.8002C72.4 50.7002 71.8 51.8002 71.8 53.3002C71.8 55.5002 73.3 57.0002 76.4 57.7002L79.1 58.4002C80.6 58.9002 81.4 59.6002 81.4 60.6002C81.4 61.2002 81 61.6002 80.4 62.0002C79.8 62.4002 79 62.6002 78 62.6002C77.1 62.6002 76.3 62.3002 75.6 61.8002C74.9 61.3002 74.4 60.6002 74 59.6002L71.4 60.7002C71.9 62.0002 72.8 63.1002 73.9 63.9002C75.1 64.7002 76.4 65.1002 78 65.1002C79.9 65.1002 81.4 64.7002 82.6 63.7002C83.8 62.7002 84.4 61.6002 84.4 60.2002C84.5 57.9002 82.9 56.3002 79.8 55.6002ZM150.5 57.0002C150.5 54.3002 149.8 52.1002 148.4 50.7002C147 49.2002 145.2 48.5002 142.8 48.5002C140.5 48.5002 138.7 49.2002 137.2 50.9002C135.8 52.5002 135 54.5002 135 56.8002C135 59.2002 135.7 61.2002 137.2 62.8002C138.7 64.4002 140.6 65.2002 142.9 65.2002C144.5 65.2002 145.9 64.8002 147.1 64.1002C148.3 63.4002 149.4 62.3002 150 61.0002L147.4 59.7002C146.3 61.6002 144.8 62.5002 143 62.5002C141.6 62.5002 140.4 62.1002 139.5 61.1002C138.6 60.1002 138 58.9002 138 57.4002H150.3L150.5 57.0002ZM138.4 54.9002C138.7 53.7002 139.2 52.8002 140 52.2002C140.8 51.5002 141.7 51.2002 142.8 51.2002C144.2 51.2002 145.3 51.5002 146.1 52.2002C146.9 52.9002 147.3 53.8002 147.4 54.9002H138.4ZM127.1 62.4002C125.7 62.4002 124.6 61.9002 123.6 60.8002C122.6 59.7002 122.2 58.3002 122.2 56.7002C122.2 55.1002 122.7 53.8002 123.6 52.7002C124.6 51.6002 125.8 51.1002 127.1 51.1002C129.2 51.1002 130.6 52.1002 131.5 54.0002L134.2 52.9002C133.6 51.5002 132.7 50.4002 131.5 49.6002C130.3 48.8002 128.9 48.4002 127.3 48.4002C124.9 48.4002 123 49.2002 121.5 50.8002C120 52.4002 119.2 54.3002 119.2 56.7002C119.2 59.1002 120 61.1002 121.5 62.7002C123 64.3002 125 65.1002 127.3 65.1002C128.9 65.1002 130.3 64.7002 131.5 63.9002C132.7 63.1002 133.6 62.0002 134.2 60.6002L131.5 59.5002C130.7 61.5002 129.2 62.4002 127.1 62.4002ZM94.7 48.5002C93.5 48.5002 92.5 48.7002 91.5 49.2002C90.5 49.7002 89.8 50.3002 89.3 51.2002H89.2V49.0002H86.4V71.6002H89.3V64.7002L89.2 62.5002H89.3C89.8 63.3002 90.5 64.0002 91.5 64.5002C92.5 65.0002 93.5 65.2002 94.6 65.2002H94.7C96.7 65.2002 98.5 64.4002 99.9 62.8002C101.4 61.2002 102.1 59.2002 102.1 56.9002C102.1 54.6002 101.4 52.6002 99.9 51.0002C98.5 49.3002 96.8 48.5002 94.7 48.5002ZM97.8 60.9002C96.8 61.9002 95.6 62.5002 94.2 62.5002C92.8 62.5002 91.6 62.0002 90.6 60.9002C89.7 59.9002 89.2 58.5002 89.2 56.8002C89.2 55.2002 89.7 53.8002 90.6 52.7002C91.6 51.7002 92.8 51.1002 94.2 51.1002C95.6 51.1002 96.8 51.6002 97.8 52.7002C98.8 53.8002 99.2 55.1002 99.2 56.8002C99.2 58.5002 98.8 59.8002 97.8 60.9002ZM115.4 50.2002C114.1 49.1002 112.4 48.5002 110.2 48.5002C107.4 48.5002 105.3 49.5002 103.9 51.6002L106.5 53.2002C107.5 51.8002 108.8 51.1002 110.4 51.1002C111.4 51.1002 112.4 51.5002 113.2 52.1002C114 52.8002 114.4 53.7002 114.4 54.7002V55.4002C113.3 54.8002 111.8 54.5002 110.1 54.5002C108 54.5002 106.4 55.0002 105.1 55.9002C103.9 56.9002 103.3 58.1002 103.3 59.8002C103.3 61.4002 103.9 62.6002 105.1 63.7002C106.3 64.7002 107.7 65.2002 109.4 65.2002C111.4 65.2002 113.1 64.3002 114.3 62.5002H114.4V64.7002H117.2V55.0002C117.3 52.9002 116.6 51.3002 115.4 50.2002ZM113 61.1002C112 62.0002 111 62.5002 109.7 62.5002C108.8 62.5002 108.1 62.2002 107.4 61.7002C106.7 61.2002 106.4 60.6002 106.4 59.8002C106.4 58.9002 106.7 58.2002 107.6 57.6002C108.4 57.0002 109.4 56.8002 110.6 56.8002C112.3 56.8002 113.5 57.2002 114.5 57.9002C114.4 59.2002 113.9 60.2002 113 61.1002Z" fill="#5F6368"/>
<path d="M31.4 18.2V14.1H45C45.2 14.9 45.2 15.8 45.2 16.7C45.2 19.7 44.4 23.5 41.7 26.2C39.1 29 35.8 30.4 31.3 30.4C23.1 30.4 16.2 23.7 16.2 15.5C16.2 7.3 23.1 0.5 31.3 0.5C35.9 0.5 39.1 2.3 41.6 4.6L38.7 7.5C34.4 3.4 27.7 3.6 23.6 7.9C21.6 9.9 20.6 12.7 20.7 15.5C20.7 21.5 25.4 26.3 31.4 26.3C35.3 26.3 37.6 24.7 39 23.3C40.1 22.2 40.9 20.5 41.2 18.3H31.4V18.2Z" fill="#4285F4"/>
<path d="M66.1 20.6996C66.1 26.2996 61.7 30.2996 56.4 30.2996C51.1 30.2996 46.8 26.1996 46.8 20.6996C46.8 15.1996 51.2 11.0996 56.4 11.0996C61.6 11.0996 66.1 15.0996 66.1 20.6996ZM61.8 20.6996C61.8 17.1996 59.3 14.8996 56.4 14.8996C53.5 14.8996 51 17.1996 51 20.6996C51 24.1996 53.6 26.5996 56.4 26.5996C59.2 26.5996 61.8 24.1996 61.8 20.6996Z" fill="#EA4335"/>
<path d="M87.1 20.6996C87.1 26.2996 82.7 30.2996 77.4 30.2996C72.1 30.2996 67.8 26.1996 67.8 20.6996C67.8 15.1996 72.2 11.0996 77.4 11.0996C82.6 11.0996 87.1 15.0996 87.1 20.6996ZM82.8 20.6996C82.8 17.1996 80.3 14.8996 77.4 14.8996C74.5 14.8996 72 17.1996 72 20.6996C72 24.1996 74.6 26.5996 77.4 26.5996C80.3 26.5996 82.8 24.1996 82.8 20.6996Z" fill="#FBBC04"/>
<path d="M107.3 11.6998V28.9998C107.3 36.0998 103.1 38.9998 98.1 38.9998C93.4 38.9998 90.7 35.7998 89.6 33.2998L93.3 31.7998C94 33.3998 95.6 35.2998 98.1 35.2998C101.3 35.2998 103.3 33.2998 103.3 29.6998V28.2998H103.1C101.8 29.7998 99.9 30.4998 98 30.4998C93.3 30.4998 88.8 26.2998 88.8 20.9998C88.8 15.5998 93.2 11.2998 98 11.2998C100.3 11.2998 102.1 12.3998 103.1 13.4998H103.3V11.8998L107.3 11.6998ZM103.6 20.7998C103.6 17.3998 101.3 14.8998 98.4 14.8998C95.5 14.8998 93.1 17.3998 93.1 20.7998C93.1 24.0998 95.6 26.5998 98.4 26.5998C101.3 26.5998 103.6 24.0998 103.6 20.7998Z" fill="#4285F4"/>
<path d="M110.2 1.59961H114.4V29.7996H110.2V1.59961Z" fill="#34A853"/>
<path d="M130.7 23.9002L134 26.2002C132.9 27.7002 130.4 30.4002 126 30.4002C120.5 30.4002 116.5 26.2002 116.5 20.8002C116.5 15.1002 120.6 11.2002 125.6 11.2002C130.6 11.2002 133 15.2002 133.8 17.4002L134.3 18.5002L121.4 23.8002C122.4 25.8002 123.9 26.7002 126.1 26.7002C128.2 26.6002 129.6 25.5002 130.7 23.9002ZM120.6 20.4002L129.2 16.9002C128.7 15.7002 127.3 14.9002 125.7 14.9002C123.5 14.8002 120.5 16.7002 120.6 20.4002Z" fill="#EA4335"/>
</svg>
