<svg width="65" height="44" viewBox="0 0 65 44" fill="none" xmlns="http://www.w3.org/2000/svg">
<g clip-path="url(#clip0_779_14815)">
<path d="M26.53 41.7998L26.44 41.7398C25.3 40.9198 25.04 39.3398 25.86 38.1998L28.11 35.0898C28.93 33.9498 30.52 33.6998 31.66 34.5098L31.75 34.5698C32.89 35.3898 33.15 36.9698 32.33 38.1098L30.08 41.2198C29.26 42.3598 27.67 42.6098 26.53 41.7998Z" stroke="#2F727D" stroke-width="1.68" stroke-linecap="round" stroke-linejoin="round"/>
<path d="M21.8 39.4899L21.71 39.4299C20.57 38.6099 20.31 37.0299 21.13 35.8899L24.19 31.6499C25.01 30.5099 26.6 30.2599 27.74 31.0699L27.83 31.1299C28.97 31.9499 29.23 33.5299 28.41 34.6699L25.35 38.9099C24.53 40.0499 22.94 40.2999 21.8 39.4899Z" stroke="#2F727D" stroke-width="1.68" stroke-linecap="round" stroke-linejoin="round"/>
<path d="M17.74 36.25L17.65 36.19C16.51 35.37 16.25 33.79 17.07 32.65L19.5 29.29C20.32 28.15 21.91 27.9 23.05 28.71L23.14 28.77C24.28 29.59 24.54 31.17 23.72 32.31L21.29 35.67C20.47 36.81 18.88 37.06 17.74 36.25Z" stroke="#2F727D" stroke-width="1.68" stroke-linecap="round" stroke-linejoin="round"/>
<path d="M14.14 32.9299L14.06 32.8699C13.07 32.1599 12.84 30.7799 13.55 29.7899L15.34 27.3099C16.05 26.3199 17.44 26.0899 18.43 26.8099L18.51 26.8699C19.5 27.5799 19.73 28.9599 19.02 29.9499L17.23 32.4299C16.52 33.4199 15.13 33.6499 14.14 32.9299Z" stroke="#2F727D" stroke-width="1.68" stroke-linecap="round" stroke-linejoin="round"/>
<path d="M39.63 40.3501C39.66 40.7501 39.58 41.1701 39.4 41.5701C39.04 42.3701 38.34 42.9001 37.61 43.0201C37.25 43.0901 36.89 43.0501 36.56 42.8901L31.1 39.8101" stroke="#2F727D" stroke-width="1.68" stroke-linecap="round" stroke-linejoin="round"/>
<path d="M47.49 34C47.74 34.73 47.64 35.55 47.2 36.23L47.09 36.37C46.34 37.5 44.84 37.83 43.64 37.18" stroke="#2F727D" stroke-width="1.68" stroke-linecap="round" stroke-linejoin="round"/>
<path d="M43.65 37.1704C43.88 37.8604 43.8 38.6504 43.35 39.3204L43.1 39.6904C42.34 40.8304 40.83 41.1504 39.74 40.4204L39.64 40.3504" stroke="#2F727D" stroke-width="1.68" stroke-linecap="round" stroke-linejoin="round"/>
<path d="M49.94 29.9502C50.69 30.4502 51.1 31.2602 51.1 32.0602C51.1 32.5002 50.97 32.9402 50.72 33.3202C50.02 34.3502 48.62 34.6302 47.49 33.9902" stroke="#2F727D" stroke-width="1.68" stroke-linecap="round" stroke-linejoin="round"/>
<path d="M49.94 29.9502L32.47 18.9102" stroke="#2F727D" stroke-width="1.68" stroke-linecap="round" stroke-linejoin="round"/>
<path d="M32.47 18.9099L29.22 20.5399C29.22 20.5399 27.8 22.9999 24.36 23.2899C19.06 23.7299 25.04 16.2599 25.04 16.2599C25.04 16.2599 26.54 14.2599 28.49 13.6699C29.31 13.4199 30.13 13.2799 31.63 13.1699" stroke="#2F727D" stroke-width="1.68" stroke-linecap="round" stroke-linejoin="round"/>
<path d="M47.49 34L43.03 31.27" stroke="#2F727D" stroke-width="1.68" stroke-linecap="round" stroke-linejoin="round"/>
<path d="M43.65 37.1702L39.36 34.4502" stroke="#2F727D" stroke-width="1.68" stroke-linecap="round" stroke-linejoin="round"/>
<path d="M39.73 40.4202L35.97 38.1802" stroke="#2F727D" stroke-width="1.68" stroke-linecap="round" stroke-linejoin="round"/>
<path d="M9.63 25.5698C11.16 26.2398 12.87 27.4198 13.84 29.4098" stroke="#2F727D" stroke-width="1.68" stroke-linecap="round" stroke-linejoin="round"/>
<path d="M17.8 11.46L18.23 11.64C19.44 12.17 20.76 12.32 22.06 12.1L25.13 11.56C26.41 11.35 27.71 11.49 28.9 12L31.64 13.16" stroke="#2F727D" stroke-width="1.68" stroke-linecap="round" stroke-linejoin="round"/>
<path d="M55 25.48C53.66 26.17 51.38 27.75 49.94 29.94" stroke="#2F727D" stroke-width="1.68" stroke-linecap="round" stroke-linejoin="round"/>
<path d="M31.63 13.1702L35.27 12.6402C35.96 12.5402 36.65 12.5702 37.33 12.7402L41.05 13.6302C42.33 13.9402 43.66 13.7702 44.82 13.1902L47.17 11.9902" stroke="#2F727D" stroke-width="1.68" stroke-linecap="round" stroke-linejoin="round"/>
<path d="M63.84 23.1198L56.17 27.4998L46.48 10.7698L63.84 0.839844" stroke="#2F727D" stroke-width="1.68" stroke-linecap="round" stroke-linejoin="round"/>
<path d="M0.840027 23.1198L8.51003 27.4998L18.2 10.7698L0.840027 0.839844" stroke="#2F727D" stroke-width="1.68" stroke-linecap="round" stroke-linejoin="round"/>
</g>
<defs>
<clipPath id="clip0_779_14815">
<rect width="64.68" height="43.89" fill="white"/>
</clipPath>
</defs>
</svg>
