<svg width="160" height="122" viewBox="0 0 160 122" fill="none" xmlns="http://www.w3.org/2000/svg">
<g clip-path="url(#clip0_1116_5261)">
<path d="M121.032 52.1359C126.901 30.1818 113.288 7.77524 90.6262 2.08935C67.9643 -3.59653 44.8353 9.59143 38.9661 31.5455C33.0969 53.4996 46.71 75.9062 69.3719 81.5921C92.0338 87.278 115.163 74.09 121.032 52.1359Z" stroke="#327A85" stroke-width="1.5" stroke-linecap="round" stroke-linejoin="round"/>
<path d="M97.3885 4.39062C95.6017 5.32909 82.5778 15.1204 87.5936 17.7376C90.2307 19.1036 93.2337 16.0901 95.5694 15.3706C98.1742 14.5677 99.9394 16.0693 101.909 17.477C104.126 19.0619 109.39 22.4717 106.354 25.6728C104.051 28.1024 98.4971 26.3402 95.6125 26.2151C90.9411 26.0065 85.7208 26.6113 85.5163 32.3464C85.4086 35.5476 87.6152 38.2378 90.7689 38.8843C93.7827 39.5099 97.4315 38.9573 99.2613 41.9604C100.564 44.1084 100.564 47.1323 100.973 49.5619C100.973 52.5441 101.619 56.7255 102.824 59.4992C103.179 60.3229 103.836 61.0737 104.718 61.3448C110.057 63.0028 112.436 52.5441 113.695 49.5202C114.524 47.5182 119.432 39.5829 122.317 39.3848" stroke="#327A85" stroke-width="1.5" stroke-linecap="round" stroke-linejoin="round"/>
<path d="M40.1157 30.8865C43.5278 32.0231 46.6815 33.9104 49.2432 36.3713C50.2119 37.2993 51.1376 38.4046 51.2237 39.708C51.3098 41.0323 50.7501 42.1898 51.3098 43.4827C51.8372 44.7027 52.9566 45.6099 54.1191 46.2564C56.0565 47.3304 58.8766 47.2783 59.9852 49.4785C60.3189 50.1458 60.3942 50.907 60.4588 51.6474C60.6526 53.9622 60.8032 56.2771 60.8894 58.6024C60.9755 60.7504 60.6095 63.3156 61.2338 65.3489C62.1487 68.2894 64.818 72.4186 68.5745 71.2508C67.2291 69.4468 65.1948 66.8192 66.3465 64.5043C66.8093 63.5658 67.595 62.8151 68.3162 62.0539C69.8769 60.4272 71.2546 58.6441 72.4386 56.7359C73.5473 54.9528 75.0111 53.3887 76.0444 51.5744C76.9378 50.0103 76.5934 48.2063 78.0895 46.9133C79.0044 46.1209 79.7255 44.9739 79.5318 43.733C79.3058 42.367 78.0141 41.3868 76.6795 40.8863C75.3448 40.3858 73.9025 40.1981 72.6001 39.6142C69.4141 38.1961 68.2086 34.5257 65.0871 32.8364C62.9021 31.6581 60.6633 32.0752 58.3492 31.4496C56.3256 30.9074 54.9264 29.3954 53.3764 28.1337C51.9771 26.9971 50.1904 25.6833 50.481 23.6708C50.8147 21.3768 53.1504 22.5551 54.6465 22.0962C57.1221 21.3455 56.8638 16.2569 57.1114 14.3592C57.4127 11.9921 57.6388 9.62514 58.0047 7.26855" stroke="#327A85" stroke-width="1.5" stroke-linecap="round" stroke-linejoin="round"/>
<path d="M62.5469 4.411C64.5705 6.13151 68.1763 8.3004 72.2987 6.75715C77.7666 4.69254 78.886 8.56108 82.5348 8.1857C85.6778 7.8833 86.7434 3.74365 87.1201 1.36621" stroke="#327A85" stroke-width="1.5" stroke-linecap="round" stroke-linejoin="round"/>
<path d="M132.058 93.2212L146.341 80.3122C148.946 77.9556 149.387 73.9411 147.03 71.3655C144.533 68.6335 140.27 68.5397 137.644 71.011L133.08 75.3175C129.302 79.0713 124.631 81.845 119.626 83.8262L114.858 85.7135C111.941 86.8605 109.39 88.6123 107.313 90.7812C103.728 94.5351 101.974 99.6028 101.974 104.723V121.24" stroke="#327A85" stroke-width="1.5" stroke-linecap="round" stroke-linejoin="round"/>
<path d="M145.9 70.3746C146.75 65.1192 147.579 55.7241 148.731 51.4072C148.784 51.2612 148.817 51.1257 148.86 50.9797C149.086 50.2185 149.387 49.5511 149.721 48.9568C152.681 43.5867 159.193 43.9934 159.193 43.9934V85.2127C159.193 89.7382 156.997 93.9925 153.273 96.714L132.198 112.115C130.325 113.481 129.216 115.629 129.216 117.902V121.218" stroke="#327A85" stroke-width="1.5" stroke-linecap="round" stroke-linejoin="round"/>
<path d="M27.9422 93.2212L13.6589 80.3122C11.0542 77.9556 10.6129 73.9411 12.9701 71.3655C15.4672 68.6335 19.7296 68.5397 22.3559 71.011L26.9196 75.3175C30.6976 79.0713 35.369 81.845 40.374 83.8262L45.1423 85.7135C48.0592 86.8605 50.6102 88.6123 52.6875 90.7812C56.2718 94.5351 58.0263 99.6028 58.0263 104.723V121.24" stroke="#327A85" stroke-width="1.5" stroke-linecap="round" stroke-linejoin="round"/>
<path d="M14.111 70.3746C13.2607 65.1192 12.4319 55.7241 11.2802 51.4072C11.2264 51.2612 11.1941 51.1257 11.1511 50.9797C10.925 50.2185 10.6236 49.5511 10.29 48.9568C7.33 43.5867 0.818054 43.9934 0.818054 43.9934V85.2127C0.818054 89.7382 3.01382 93.9925 6.738 96.714L27.813 112.115C29.6859 113.481 30.7945 115.629 30.7945 117.902V121.218" stroke="#327A85" stroke-width="1.5" stroke-linecap="round" stroke-linejoin="round"/>
</g>
<defs>
<clipPath id="clip0_1116_5261">
<rect width="160" height="122" fill="white"/>
</clipPath>
</defs>
</svg>
