<svg width="72" height="72" viewBox="0 0 72 72" fill="none" xmlns="http://www.w3.org/2000/svg">
<g clip-path="url(#clip0_122_810)">
<path d="M32.18 12.54C24.66 14.85 19.6 19.02 16.99 25.05C15.5 28.25 14.9 31.34 15.2 34.32H32.18V71.08H0.9V40.12C0.9 28.8 3.64 19.94 9.11 13.54C14.58 7.14001 22.27 2.93001 32.18 0.920013V12.54Z" stroke="#B0CED0" stroke-width="1.4797" stroke-miterlimit="10"/>
<path d="M71.1 12.54C63.58 14.85 58.52 19.02 55.91 25.05C54.42 28.25 53.82 31.34 54.12 34.32H71.1V71.08H39.82V40.12C39.82 28.8 42.56 19.94 48.03 13.54C53.51 7.14001 61.2 2.93001 71.1 0.920013V12.54Z" stroke="#B0CED0" stroke-width="1.4797" stroke-miterlimit="10"/>
</g>
<defs>
<clipPath id="clip0_122_810">
<rect width="72" height="72" fill="white"/>
</clipPath>
</defs>
</svg>
