<svg width="157" height="46" viewBox="0 0 157 46" fill="none" xmlns="http://www.w3.org/2000/svg">
<path d="M17.4 25.9002H5.9V38.0002H0.5V8.2002H5.9V20.7002H17.4V8.2002H22.8V38.0002H17.4V25.9002Z" fill="#213343"/>
<path d="M40.2 28.4006C40.2 30.9006 38.2 32.9006 35.7 32.9006C33.2 32.9006 31.2 30.9006 31.2 28.4006V15.6006H26V28.4006C26 33.7006 30.3 38.0006 35.6 38.0006C40.9 38.0006 45.2 33.7006 45.2 28.4006V15.6006H40.1V28.4006H40.2Z" fill="#213343"/>
<path d="M78.5 16.9002C78.5 14.3002 80.2 13.5002 82.1 13.5002C83.6 13.5002 85.6 14.7002 87 16.1002L90.4 12.1002C88.7 9.80019 85.3 8.2002 82.5 8.2002C76.9 8.2002 72.9 11.5002 72.9 16.9002C72.9 27.0002 85.2 23.8002 85.2 29.4002C85.2 31.1002 83.5 32.7002 81.6 32.7002C78.5 32.7002 77.6 31.2002 76.2 29.6002L72.4 33.5002C74.8 36.4002 77.8 37.9002 81.3 37.9002C86.6 37.9002 90.9 34.6002 90.9 29.4002C90.8 18.3002 78.5 21.8002 78.5 16.9002Z" fill="#213343"/>
<path d="M154.7 33.2C151.7 33.2 150.8 31.9 150.8 29.9V21H155.5V16.5H150.8V10.5L145.6 12.8V31C145.6 35.7 148.8 38 153.2 38C153.9 38 154.8 38 155.3 37.8L156.6 33.1C155.9 33.2 155.3 33.2 154.7 33.2Z" fill="#213343"/>
<path d="M59.9 15.8004C57.3 15.8004 55.6 16.5004 53.8 18.2004V8.40039H48.6V26.6004C48.6 33.4004 53.5 38.1004 59 38.1004C65.1 38.1004 70.5 33.4004 70.5 27.0004C70.6 20.6004 65.6 15.8004 59.9 15.8004ZM59.8 32.8004C56.6 32.8004 53.9 30.2004 53.9 26.9004C53.9 23.7004 56.5 21.0004 59.8 21.0004C63 21.0004 65.7 23.6004 65.7 26.9004C65.7 30.2004 63.1 32.8004 59.8 32.8004Z" fill="#213343"/>
<path d="M116 26.6C116 20.2 110.6 15.5 104.5 15.5C99 15.5 94.1 20.2 94.1 27V45.2H99.3V35.4C101 37.1 102.8 37.8 105.4 37.8C111 37.7 116 32.9 116 26.6ZM111.1 26.6C111.1 29.8 108.5 32.5 105.2 32.5C102 32.5 99.3 29.9 99.3 26.6C99.3 23.4 101.9 20.7 105.2 20.7C108.4 20.7 111.1 23.3 111.1 26.6Z" fill="#213343"/>
<path d="M132.7 15.2004V10.0004C134.1 9.40039 135 8.00039 135 6.40039V6.30039C135 4.10039 133.2 2.30039 131 2.30039H130.9C128.7 2.30039 126.9 4.10039 126.9 6.30039V6.40039C126.9 8.00039 127.8 9.40039 129.2 10.0004V15.2004C127.2 15.5004 125.3 16.3004 123.8 17.6004L109.5 6.50039C109.6 6.10039 109.7 5.80039 109.7 5.40039C109.7 2.90039 107.7 0.900391 105.2 0.900391C102.7 0.900391 100.7 2.90039 100.7 5.40039C100.7 7.90039 102.7 9.90039 105.2 9.90039C106 9.90039 106.8 9.70039 107.4 9.30039L121.4 20.2004C120.2 22.0004 119.5 24.2004 119.5 26.5004C119.5 28.9004 120.3 31.2004 121.6 33.0004L117.3 37.3004C117 37.2004 116.6 37.1004 116.2 37.1004C114.2 37.1004 112.5 38.8004 112.5 40.8004C112.5 42.8004 114.2 44.5004 116.2 44.5004C118.2 44.5004 119.9 42.8004 119.9 40.8004C119.9 40.4004 119.8 40.1004 119.7 39.7004L123.9 35.5004C125.8 37.0004 128.2 37.8004 130.8 37.8004C137.1 37.8004 142.2 32.7004 142.2 26.4004C142.3 20.8004 138.1 16.1004 132.7 15.2004ZM130.9 32.3004C127.7 32.3004 125.1 29.7004 125.1 26.5004C125.1 23.3004 127.7 20.7004 130.9 20.7004C134.1 20.7004 136.7 23.3004 136.7 26.5004C136.8 29.7004 134.1 32.3004 130.9 32.3004Z" fill="#FF5C35"/>
</svg>
