<svg width="175" height="117" viewBox="0 0 175 117" fill="none" xmlns="http://www.w3.org/2000/svg">
<g clip-path="url(#clip0_785_5416)">
<path d="M18.38 104.2H0.75V107.87C0.75 112.22 4.21 115.75 8.46 115.75H166.5C170.76 115.75 174.22 112.21 174.22 107.87V104.2H156.58M162.62 104.2V8.63C162.62 4.21 159.23 0.75 154.9 0.75H20.06C15.73 0.75 12.34 4.21 12.34 8.63V104.2M22.41 104.2H152.54M158.56 8.63C158.56 6.48 156.95 4.8 154.89 4.8H20.06C18 4.8 16.39 6.48 16.39 8.63V100.12H158.56V8.63Z" stroke="#327A85" stroke-width="1.5" stroke-miterlimit="10"/>
<path d="M87.48 12.9902L100.31 38.9802L128.99 43.1402L108.24 63.3802L113.14 91.9402L87.48 78.4502L61.83 91.9402L66.73 63.3802L45.97 43.1402L74.66 38.9802L87.48 12.9902Z" stroke="#327A85" stroke-width="1.5" stroke-miterlimit="10"/>
</g>
<defs>
<clipPath id="clip0_785_5416">
<rect width="174.97" height="116.5" fill="white"/>
</clipPath>
</defs>
</svg>
