<svg width="176" height="117" viewBox="0 0 176 117" fill="none" xmlns="http://www.w3.org/2000/svg">
<g clip-path="url(#clip0_785_5420)">
<path d="M18.46 104.65H0.75V108.33C0.75 112.69 4.22 116.25 8.49 116.25H167.22C171.5 116.25 174.97 112.7 174.97 108.33V104.65H157.25M163.32 104.65V8.67C163.32 4.23 159.91 0.75 155.57 0.75H20.14C15.79 0.75 12.39 4.23 12.39 8.67V104.66M22.51 104.66H153.21M159.26 8.67C159.26 6.51 157.64 4.82 155.58 4.82H20.14C18.07 4.82 16.46 6.51 16.46 8.67V100.56H159.25V8.67H159.26ZM117.84 29.03C110.99 22.18 99.88 22.18 93.03 29.03C89.6 32.46 87.89 36.95 87.89 41.44C87.89 36.95 86.18 32.46 82.75 29.03C75.9 22.18 64.79 22.18 57.94 29.03C51.09 35.88 51.09 46.99 57.94 53.84L87.9 83.8L117.86 53.84C124.71 46.99 124.71 35.88 117.86 29.03H117.84Z" stroke="#8BC1CA" stroke-width="1.5" stroke-linecap="round" stroke-linejoin="round"/>
</g>
<defs>
<clipPath id="clip0_785_5420">
<rect width="175.72" height="117" fill="white"/>
</clipPath>
</defs>
</svg>
