<svg width="62" height="62" viewBox="0 0 62 62" fill="none" xmlns="http://www.w3.org/2000/svg">
<g clip-path="url(#clip0_779_14205)">
<path d="M22.27 43.6998C34.1055 43.6998 43.7 34.1053 43.7 22.2698C43.7 10.4344 34.1055 0.839844 22.27 0.839844C10.4346 0.839844 0.840027 10.4344 0.840027 22.2698C0.840027 34.1053 10.4346 43.6998 22.27 43.6998Z" stroke="#2F727D" stroke-width="1.68" stroke-linecap="round" stroke-linejoin="round"/>
<path d="M45.007 43.9789L43.9817 45.0042C42.9976 45.9883 42.9976 47.5839 43.9817 48.568L55.5075 60.0939C56.4917 61.078 58.0872 61.078 59.0714 60.0939L60.0967 59.0686C61.0808 58.0845 61.0808 56.4889 60.0967 55.5048L48.5708 43.9789C47.5867 42.9948 45.9911 42.9948 45.007 43.9789Z" stroke="#2F727D" stroke-width="1.68" stroke-linecap="round" stroke-linejoin="round"/>
<path d="M37.41 37.4102L44.5 44.5002" stroke="#2F727D" stroke-width="1.68" stroke-linecap="round" stroke-linejoin="round"/>
<path d="M52.85 57.4401L57.44 52.8501" stroke="#2F727D" stroke-width="1.68" stroke-linecap="round" stroke-linejoin="round"/>
<path d="M17.71 26.5702L11.7 20.5602L8.25 24.0102L17.71 33.4702L36.3 14.8802L32.85 11.4302L17.71 26.5702Z" stroke="#2F727D" stroke-width="1.68" stroke-linecap="round" stroke-linejoin="round"/>
</g>
<defs>
<clipPath id="clip0_779_14205">
<rect width="61.68" height="61.68" fill="white"/>
</clipPath>
</defs>
</svg>
