<svg width="160" height="122" viewBox="0 0 160 122" fill="none" xmlns="http://www.w3.org/2000/svg">
<g clip-path="url(#clip0_770_14068)">
<path fill-rule="evenodd" clip-rule="evenodd" d="M48.0114 122C47.6472 122 47.3558 121.708 47.3558 121.343C47.3558 120.978 47.6472 120.686 48.0114 120.686H55.8382L65.4238 105.921H4.86047C2.17524 105.921 0 103.731 0 101.051V4.86957C0 2.18974 2.18565 0 4.86047 0H155.14C157.825 0 160 2.18974 160 4.86957V101.051C160 103.742 157.814 105.921 155.14 105.921H94.5762L104.162 120.686H111.989C112.353 120.686 112.644 120.978 112.644 121.343C112.644 121.708 112.353 122 111.989 122H48.0114ZM57.2744 120.697H102.715L93.1295 105.931H66.8601L57.2744 120.697ZM1.30098 101.062C1.30098 103.022 2.89338 104.628 4.86047 104.628H155.14C157.096 104.628 158.699 103.033 158.699 101.062V92.6679H1.30098V101.062ZM4.86047 1.30342C2.90379 1.30342 1.30098 2.8988 1.30098 4.86957V91.354H158.689V4.86957C158.689 2.90923 157.096 1.30342 155.129 1.30342H4.86047ZM16.1322 82.1884C15.7679 82.1884 15.4765 81.8964 15.4765 81.5315V56.9125C15.4765 56.5475 15.7679 56.2556 16.1322 56.2556H29.3293C29.6936 56.2556 29.985 56.5475 29.985 56.9125V81.5315C29.985 81.8964 29.6936 82.1884 29.3293 82.1884H16.1322ZM16.7879 80.885H28.6736V57.5798H16.7879V80.885ZM128.735 82.1884C120.034 82.1884 112.946 75.0978 112.946 66.3701C112.946 57.6424 120.023 50.5518 128.735 50.5518C137.446 50.5518 144.524 57.6424 144.524 66.3701C144.524 75.0978 137.446 82.1884 128.735 82.1884ZM128.339 71.761C125.175 71.761 122.24 73.3564 120.481 76.0258L119.43 77.6316L121.054 78.6535C123.364 80.1133 126.018 80.885 128.735 80.885C131.451 80.885 134.095 80.1133 136.416 78.6535L138.039 77.6316L136.988 76.0258C135.229 73.3564 132.294 71.761 129.13 71.761H128.35H128.339ZM128.735 59.3525C132.149 59.3525 134.927 62.1366 134.927 65.5568C134.927 66.8393 134.532 68.0802 133.783 69.1333L132.575 70.833L134.386 71.8549C135.666 72.5744 136.749 73.5232 137.634 74.6598L139.205 76.7036L140.662 74.5868C142.338 72.1573 143.212 69.321 143.212 66.3701C143.212 58.3723 136.718 51.8656 128.735 51.8656C120.752 51.8656 114.257 58.3723 114.257 66.3701C114.257 69.3106 115.142 72.1573 116.807 74.5868L118.264 76.7036L119.836 74.6598C120.71 73.5232 121.803 72.5744 123.083 71.8549L124.894 70.833L123.697 69.1333C122.948 68.0802 122.553 66.8393 122.553 65.5568C122.553 62.1366 125.331 59.3525 128.745 59.3525H128.735ZM128.735 60.6559C126.039 60.6559 123.843 62.8561 123.843 65.5568C123.843 68.2574 126.039 70.4576 128.735 70.4576C131.43 70.4576 133.626 68.2574 133.626 65.5568C133.626 62.8561 131.43 60.6559 128.735 60.6559ZM83.752 82.1884C83.3878 82.1884 83.0963 81.8964 83.0963 81.5315V57.2357C83.0963 56.8708 83.3878 56.5788 83.752 56.5788H96.9492C97.3135 56.5788 97.6049 56.8708 97.6049 57.2357V81.5315C97.6049 81.8964 97.3135 82.1884 96.9492 82.1884H83.752ZM84.4077 80.885H96.2935V57.9031H84.4077V80.885ZM61.219 82.1884C60.8547 82.1884 60.5633 81.8964 60.5633 81.5315V48.8417C60.5633 48.4768 60.8547 48.1848 61.219 48.1848H74.4162C74.7805 48.1848 75.0719 48.4768 75.0719 48.8417V81.5315C75.0719 81.8964 74.7805 82.1884 74.4162 82.1884H61.219ZM61.8747 80.885H73.7605V49.5091H61.8747V80.885ZM38.686 82.1884C38.3217 82.1884 38.0303 81.8964 38.0303 81.5315V64.2116C38.0303 63.8467 38.3217 63.5547 38.686 63.5547H51.8832C52.2474 63.5547 52.5389 63.8467 52.5389 64.2116V81.5315C52.5389 81.8964 52.2474 82.1884 51.8832 82.1884H38.686ZM39.3417 80.885H51.2275V64.879H39.3417V80.885ZM27.6225 45.6301C20.9406 45.6301 15.4973 40.1766 15.4973 33.4822C15.4973 26.7879 20.9406 21.3344 27.6225 21.3344C27.9867 21.3344 28.2782 21.6263 28.2782 21.9913V32.8253H39.0919C39.4562 32.8253 39.7476 33.1173 39.7476 33.4822C39.7476 40.1766 34.3043 45.6301 27.6225 45.6301ZM24.5625 23.0862C19.9935 24.4417 16.7983 28.7169 16.7983 33.4822C16.7983 39.4571 21.6483 44.3162 27.6225 44.3162C32.3893 44.3162 36.6565 41.115 37.9991 36.5374L38.7068 34.1287H27.6225C27.2582 34.1287 26.9668 33.8368 26.9668 33.4718V22.3667L24.5625 23.0757V23.0862ZM128.745 42.1056C120.044 42.1056 112.956 35.015 112.956 26.2874C112.956 17.5597 120.034 10.4691 128.745 10.4691C137.457 10.4691 144.534 17.5597 144.534 26.2874C144.534 35.015 137.457 42.1056 128.745 42.1056ZM128.35 31.6783C125.186 31.6783 122.251 33.2737 120.492 35.9431L119.441 37.5489L121.064 38.5708C123.375 40.0306 126.029 40.8022 128.745 40.8022C131.462 40.8022 134.105 40.0306 136.426 38.5708L138.05 37.5489L136.999 35.9431C135.24 33.2737 132.305 31.6783 129.141 31.6783H128.36H128.35ZM128.745 19.2697C132.159 19.2697 134.938 22.0538 134.938 25.474C134.938 26.7566 134.542 27.9974 133.793 29.0506L132.596 30.7503L134.407 31.7721C135.687 32.4916 136.77 33.4405 137.654 34.5771L139.226 36.6209L140.683 34.5041C142.359 32.0745 143.233 29.2383 143.233 26.2874C143.233 18.2896 136.738 11.7829 128.756 11.7829C120.773 11.7829 114.278 18.2896 114.278 26.2874C114.278 29.2279 115.163 32.0745 116.828 34.5041L118.285 36.6209L119.857 34.5771C120.731 33.4405 121.824 32.4916 123.104 31.7721L124.915 30.7503L123.718 29.0506C122.969 27.9974 122.573 26.7566 122.573 25.474C122.573 22.0538 125.352 19.2697 128.766 19.2697H128.745ZM128.745 20.5732C126.05 20.5732 123.854 22.7733 123.854 25.474C123.854 28.1747 126.05 30.3749 128.745 30.3749C131.441 30.3749 133.637 28.1747 133.637 25.474C133.637 22.7733 131.441 20.5732 128.745 20.5732ZM86.9056 35.9431C86.5413 35.9431 86.2499 35.6511 86.2499 35.2862C86.2499 34.9212 86.5413 34.6292 86.9056 34.6292H96.9596C97.3239 34.6292 97.6153 34.9212 97.6153 35.2862C97.6153 35.6511 97.3239 35.9431 96.9596 35.9431H86.9056ZM59.6683 35.9431C59.304 35.9431 59.0126 35.6511 59.0126 35.2862C59.0126 34.9212 59.304 34.6292 59.6683 34.6292H76.4145C76.7788 34.6292 77.0702 34.9212 77.0702 35.2862C77.0702 35.6511 76.7788 35.9431 76.4145 35.9431H59.6683ZM35.6261 26.0997C35.2618 26.0997 34.9704 25.8077 34.9704 25.4427V13.9518C34.9704 13.5868 35.2618 13.2949 35.6261 13.2949C42.3079 13.2949 47.7513 18.7484 47.7513 25.4427C47.7513 25.6826 47.6368 25.8285 47.5639 25.9015C47.4911 25.9745 47.3349 26.0892 47.106 26.0892H35.6365L35.6261 26.0997ZM36.2818 24.7962H46.7209L46.0131 22.3875C44.9724 18.8422 42.2351 16.0998 38.686 15.0467L36.2818 14.3376V24.7962ZM78.6938 25.2759C78.3295 25.2759 78.0381 24.9839 78.0381 24.619C78.0381 24.254 78.3295 23.9621 78.6938 23.9621H96.9596C97.3239 23.9621 97.6153 24.254 97.6153 24.619C97.6153 24.9839 97.3239 25.2759 96.9596 25.2759H78.6938ZM59.6787 25.2759C59.3144 25.2759 59.023 24.9839 59.023 24.619C59.023 24.254 59.3144 23.9621 59.6787 23.9621H68.2131C68.5774 23.9621 68.8688 24.254 68.8688 24.619C68.8688 24.9839 68.5774 25.2759 68.2131 25.2759H59.6787ZM88.4252 14.6087C88.0609 14.6087 87.7695 14.3168 87.7695 13.9518C87.7695 13.5868 88.0609 13.2949 88.4252 13.2949H96.9596C97.3239 13.2949 97.6153 13.5868 97.6153 13.9518C97.6153 14.3168 97.3239 14.6087 96.9596 14.6087H88.4252ZM59.6787 14.6087C59.3144 14.6087 59.023 14.3168 59.023 13.9518C59.023 13.5868 59.3144 13.2949 59.6787 13.2949H77.9445C78.3087 13.2949 78.6001 13.5868 78.6001 13.9518C78.6001 14.3168 78.3087 14.6087 77.9445 14.6087H59.6787Z" fill="#2F727D"/>
</g>
<defs>
<clipPath id="clip0_770_14068">
<rect width="160" height="122" fill="white"/>
</clipPath>
</defs>
</svg>
