<svg width="195" height="195" viewBox="0 0 195 195" fill="none" xmlns="http://www.w3.org/2000/svg">
<g clip-path="url(#clip0_1177_6766)">
<path d="M97.5 0C43.74 0 0 43.74 0 97.5C0 151.26 43.74 195 97.5 195C151.26 195 195 151.26 195 97.5C195 43.74 151.26 0 97.5 0ZM97.5 192C45.39 192 3 149.61 3 97.5C3 45.39 45.39 3 97.5 3C149.61 3 192 45.39 192 97.5C192 149.61 149.61 192 97.5 192ZM151.82 63.29C152.66 63.29 153.33 62.61 153.33 61.78V50.61C153.33 49.77 152.65 49.1 151.82 49.1H41.91C41.07 49.1 40.4 49.78 40.4 50.61V124.91C40.4 125.75 41.08 126.42 41.91 126.42H98.53C99.37 126.42 100.04 125.74 100.04 124.91C100.04 124.08 99.36 123.4 98.53 123.4H43.42V52.13H85.88L68.08 69.87C67.49 70.46 67.49 71.42 68.08 72.01C68.38 72.31 68.76 72.45 69.15 72.45C69.54 72.45 69.92 72.3 70.22 72.01L90.17 52.13H150.31V61.78C150.31 62.62 150.99 63.29 151.82 63.29ZM157.05 38.63H36.68C32.96 38.63 29.93 41.66 29.93 45.38V130.15C29.93 133.87 32.96 136.9 36.68 136.9H83.34V144.53L65.86 152.27C65.31 152.51 64.96 153.05 64.96 153.65V161.18C64.96 162.02 65.64 162.69 66.47 162.69H96.84C97.68 162.69 98.35 162.01 98.35 161.18C98.35 160.35 97.67 159.67 96.84 159.67H67.98V154.64L85.46 146.9C86.01 146.66 86.36 146.12 86.36 145.52V136.9H98.53C99.37 136.9 100.04 136.22 100.04 135.39C100.04 134.56 99.36 133.88 98.53 133.88H36.67C34.62 133.88 32.95 132.21 32.95 130.16V45.38C32.95 43.33 34.62 41.66 36.67 41.66H157.05C159.1 41.66 160.77 43.33 160.77 45.38V62.77C160.77 63.61 161.45 64.28 162.28 64.28C163.11 64.28 163.79 63.6 163.79 62.77V45.38C163.79 41.66 160.76 38.63 157.04 38.63H157.05ZM156.9 69.42H113.06C109.26 69.42 106.17 72.51 106.17 76.31V155.79C106.17 159.59 109.26 162.68 113.06 162.68H156.9C160.7 162.68 163.79 159.59 163.79 155.79V76.31C163.79 72.51 160.7 69.42 156.9 69.42ZM160.77 155.8C160.77 157.93 159.04 159.67 156.9 159.67H113.06C110.93 159.67 109.19 157.94 109.19 155.8V143.32H160.77V155.8ZM160.77 140.29H109.19V82.91H160.77V140.29ZM160.77 79.89H109.19V76.31C109.19 74.18 110.92 72.44 113.06 72.44H156.9C159.03 72.44 160.77 74.17 160.77 76.31V79.89ZM130.52 152.87H139.45C140.29 152.87 140.96 152.19 140.96 151.36C140.96 150.53 140.28 149.85 139.45 149.85H130.52C129.68 149.85 129.01 150.53 129.01 151.36C129.01 152.19 129.69 152.87 130.52 152.87ZM93.46 63.95L56.42 100.87C55.83 101.46 55.83 102.42 56.42 103.01C56.72 103.31 57.1 103.45 57.49 103.45C57.88 103.45 58.26 103.3 58.56 103.01L95.6 66.09C96.19 65.5 96.19 64.54 95.6 63.95C95.01 63.36 94.05 63.36 93.46 63.95Z" fill="#F1F0F0"/>
</g>
<defs>
<clipPath id="clip0_1177_6766">
<rect width="195" height="195" fill="white"/>
</clipPath>
</defs>
</svg>
