<svg width="51" height="62" viewBox="0 0 51 62" fill="none" xmlns="http://www.w3.org/2000/svg">
<path d="M1.90041 61V50.3588C1.90041 47.3847 2.45157 44.8145 3.55935 42.6426C4.66712 40.4761 6.1296 38.5935 7.95771 36.9945C9.78581 35.4011 11.7885 34.015 13.9768 32.8417C16.1596 31.6685 18.3424 30.5989 20.5252 29.6276C22.7081 28.6617 24.7108 27.7121 26.5389 26.7844C28.367 25.8568 29.8349 24.8527 30.9372 23.7776C32.045 22.7026 32.5962 21.4366 32.5962 19.9905C32.5962 18.2169 31.985 16.749 30.7517 15.5921C29.5184 14.4352 27.8158 13.8513 25.633 13.8513C23.4502 13.8513 21.4857 14.5061 19.6576 15.8158C17.8295 17.1255 16.6016 19.4175 15.9741 22.6917H1C1 18.5989 1.90587 14.9154 3.72306 11.6412C5.54025 8.36699 8.28513 5.7749 11.9686 3.86494C15.6521 1.95498 20.3179 1 25.9659 1C30.8226 1 34.9918 1.79127 38.4679 3.37381C41.9495 4.95634 44.618 7.16098 46.4898 9.98226C48.3615 12.8035 49.2947 16.0887 49.2947 19.8267C49.2947 22.7735 48.7654 25.3056 47.7012 27.4175C46.6371 29.5348 45.2183 31.3247 43.4448 32.7981C41.6712 34.2715 39.734 35.5321 37.633 36.5853C35.5321 37.6385 33.4311 38.5716 31.3302 39.3902C29.2292 40.2087 27.292 41.0164 25.5184 41.8022C23.7449 42.5935 22.3261 43.4666 21.2619 44.4216C20.1978 45.3765 19.6685 46.5389 19.6685 47.9031H48.8909V61H1.90041Z" stroke="#2F727D" stroke-width="1.68" stroke-linecap="round" stroke-linejoin="round"/>
</svg>
