<svg width="52" height="62" viewBox="0 0 52 62" fill="none" xmlns="http://www.w3.org/2000/svg">
<path d="M24.7861 60.9892C19.5182 60.9892 15.1211 60.1937 11.6056 58.6133C8.08475 57.0276 5.43469 54.7377 3.66081 51.7382C1.88694 48.7441 1 45.1319 1 40.9122H15.8361C16.4273 43.9762 17.5562 46.0349 19.2225 47.0831C20.8889 48.1313 22.7434 48.6581 24.7861 48.6581C26.8287 48.6581 28.4628 48.3947 29.8443 47.8733C31.2258 47.3519 32.274 46.6262 32.9889 45.6963C33.6984 44.7663 34.0586 43.7128 34.0586 42.5302C34.0586 41.482 33.7361 40.5359 33.091 39.6866C32.446 38.8373 31.5214 38.1546 30.3119 37.6278C29.1025 37.1011 27.6619 36.8 25.9955 36.7194L20.1471 36.3969V24.3023L25.2268 23.8991C26.8932 23.7647 28.2962 23.4583 29.4411 22.9692C30.5807 22.4854 31.4515 21.8296 32.0428 20.9964C32.6341 20.1632 32.9298 19.1419 32.9298 17.9324C32.9298 16.723 32.532 15.7339 31.7418 14.9706C30.9462 14.2019 29.9195 13.6483 28.6563 13.2989C27.3931 12.9495 26.0493 12.7775 24.6248 12.7775C22.9853 12.7775 21.5393 12.9978 20.2922 13.444C19.0452 13.8902 18.0292 14.675 17.2498 15.8038C16.4703 16.9326 15.9704 18.5345 15.7554 20.5986H1C1 16.0564 2.05357 12.3421 4.1661 9.4501C6.27325 6.56352 9.14908 4.42949 12.7936 3.05877C16.4327 1.68805 20.5288 1 25.071 1C29.6131 1 33.8543 1.54291 37.5472 2.63412C41.2401 3.72532 44.1643 5.45619 46.3145 7.83748C48.4646 10.2134 49.5397 13.3419 49.5397 17.2121C49.5397 20.0611 48.7764 22.5284 47.2444 24.6087C45.7124 26.6943 43.0624 28.3661 39.2996 29.6293C41.1003 30.1131 42.8742 30.8979 44.6212 31.9891C46.3682 33.0749 47.8196 34.537 48.9753 36.3646C50.131 38.1923 50.7115 40.4607 50.7115 43.1752C50.7115 46.2123 50.0127 48.8516 48.6151 51.0985C47.2175 53.3455 45.3093 55.2 42.8903 56.6621C40.4714 58.1295 37.7085 59.2154 34.6069 59.9303C31.5053 60.6452 28.2317 61 24.7914 61L24.7861 60.9892Z" stroke="#2F727D" stroke-width="1.68" stroke-linecap="round" stroke-linejoin="round"/>
</svg>
