<svg width="75" height="72" viewBox="0 0 75 72" fill="none" xmlns="http://www.w3.org/2000/svg">
<path d="M68.6 13.6C61.5 6.50002 50 6.50002 42.9 13.6C39.3 17.2 37.6 21.8 37.6 26.5C37.6 21.8 35.8 17.2 32.3 13.6C25.2 6.50002 13.7 6.50002 6.59999 13.6C-0.500006 20.7 -0.500006 32.2 6.59999 39.3L37.7 70.4L68.8 39.3C75.7 32.2 75.7 20.7 68.6 13.6Z" stroke="#8BC1CA" stroke-width="1.6781" stroke-miterlimit="10" stroke-linecap="round" stroke-linejoin="round"/>
<path d="M10.9 34.9C8.69999 32.7 7.39999 29.7 7.39999 26.5C7.39999 23.3 8.59999 20.3 10.9 18.1C13.1 15.9 16.1 14.6 19.3 14.6C22.5 14.6 25.5 15.8 27.7 18.1C29.9 20.3 31.2 23.3 31.2 26.5C31.2 29.2 32.9 31.6 35.4 32.4C36.1 32.6 36.8 32.8 37.5 32.8C38.8 32.8 40.1 32.4 41.2 31.6C42.9 30.4 43.9 28.5 43.9 26.5C43.9 23.3 45.1 20.3 47.4 18.1C49.6 15.9 52.6 14.6 55.8 14.6C59 14.6 62 15.8 64.2 18.1C66.4 20.3 67.7 23.3 67.7 26.5C67.7 29.7 66.5 32.7 64.2 34.9L37.5 61.5L10.9 34.9Z" stroke="#8BC1CA" stroke-width="1.6781" stroke-miterlimit="10" stroke-linecap="round" stroke-linejoin="round"/>
<path d="M55.7 27.6C56.2523 27.6 56.7 27.1523 56.7 26.6C56.7 26.0477 56.2523 25.6 55.7 25.6C55.1477 25.6 54.7 26.0477 54.7 26.6C54.7 27.1523 55.1477 27.6 55.7 27.6Z" stroke="#8BC1CA" stroke-width="1.6781" stroke-miterlimit="10" stroke-linecap="round" stroke-linejoin="round"/>
<path d="M19.3 27.6C19.8523 27.6 20.3 27.1523 20.3 26.6C20.3 26.0477 19.8523 25.6 19.3 25.6C18.7477 25.6 18.3 26.0477 18.3 26.6C18.3 27.1523 18.7477 27.6 19.3 27.6Z" stroke="#8BC1CA" stroke-width="1.6781" stroke-miterlimit="10" stroke-linecap="round" stroke-linejoin="round"/>
<path d="M15.3 30.4C14.2 29.3 13.7 28 13.7 26.4C13.7 24.8 14.3 23.5 15.3 22.4C16.4 21.3 17.7 20.8 19.3 20.8C20.8 20.8 22.2 21.4 23.3 22.4C24.4 23.5 24.9 24.8 24.9 26.4C24.9 31.8 28.3 36.5 33.4 38.3C34.7 38.8 36.1 39 37.5 39C40.1 39 42.7 38.2001 44.8 36.7001C48.1 34.3001 50.1 30.5 50.1 26.4C50.1 24.9 50.7 23.5 51.7 22.4C52.8 21.3 54.1 20.8 55.7 20.8C57.2 20.8 58.6 21.4 59.7 22.4C60.8 23.5 61.3 24.8 61.3 26.4C61.3 28 60.7 29.3 59.7 30.4L37.5 52.6L15.3 30.4Z" stroke="#8BC1CA" stroke-width="1.6781" stroke-miterlimit="10" stroke-linecap="round" stroke-linejoin="round"/>
</svg>
