<svg width="75" height="72" viewBox="0 0 75 72" fill="none" xmlns="http://www.w3.org/2000/svg">
<path d="M49.7999 31.8999C50.8999 34.0999 51.5 36.5999 51.5 39.2999C51.5 48.6999 43.8999 56.1999 34.5999 56.1999C25.2999 56.1999 17.7 48.5999 17.7 39.2999C17.7 29.8999 25.2999 22.3999 34.5999 22.3999C37.1999 22.3999 39.7 22.9999 41.9 24.0999" stroke="#8BC1CA" stroke-width="1.6781" stroke-miterlimit="10" stroke-linecap="round" stroke-linejoin="round"/>
<path d="M43.2 38.6C43.2 38.8 43.2 39.1 43.2 39.3C43.2 44.1 39.3 48 34.6 48C29.8 48 25.9 44.1 25.9 39.3C25.9 34.5 29.8 30.6 34.6 30.6C34.8 30.6 35.1 30.6 35.3 30.6" stroke="#8BC1CA" stroke-width="1.6781" stroke-miterlimit="10" stroke-linecap="round" stroke-linejoin="round"/>
<path d="M54.9 26.7999C57.1 30.3999 58.4 34.6999 58.4 39.2999C58.4 52.4999 47.7 63.2999 34.5 63.2999C21.3 63.2999 10.6 52.5999 10.6 39.2999C10.6 25.9999 21.3 15.2999 34.5 15.2999C39.1 15.2999 43.3 16.5999 47 18.7999" stroke="#8BC1CA" stroke-width="1.6781" stroke-miterlimit="10" stroke-linecap="round" stroke-linejoin="round"/>
<path d="M60.1 21.6C63.6 26.6 65.6 32.6999 65.6 39.2999C65.6 56.5 51.7 70.4 34.6 70.4C17.5 70.4 3.59998 56.5 3.59998 39.2999C3.59998 22.0999 17.5 8.19995 34.6 8.19995C36.1 8.19995 37.6 8.29995 39.1 8.49995C43.9 9.19995 48.4 11 52.2 13.7" stroke="#8BC1CA" stroke-width="1.6781" stroke-miterlimit="10" stroke-linecap="round" stroke-linejoin="round"/>
<path d="M34.6 40.1999C35.097 40.1999 35.5 39.797 35.5 39.2999C35.5 38.8028 35.097 38.3999 34.6 38.3999C34.1029 38.3999 33.7 38.8028 33.7 39.2999C33.7 39.797 34.1029 40.1999 34.6 40.1999Z" stroke="#8BC1CA" stroke-width="1.6781" stroke-miterlimit="10" stroke-linecap="round" stroke-linejoin="round"/>
<path d="M65.5 8.29993L71.7 8.39993L66.6 13.4999L60.4 13.3999" stroke="#8BC1CA" stroke-width="1.6781" stroke-miterlimit="10" stroke-linecap="round" stroke-linejoin="round"/>
<path d="M65.5 8.29998L65.4 2.09998L60.3 7.19998L60.4 13.4" stroke="#8BC1CA" stroke-width="1.6781" stroke-miterlimit="10" stroke-linecap="round" stroke-linejoin="round"/>
<path d="M68.9 4.79993L38.8 34.9999" stroke="#8BC1CA" stroke-width="1.6781" stroke-miterlimit="10" stroke-linecap="round" stroke-linejoin="round"/>
</svg>
