<svg width="66" height="55" viewBox="0 0 66 55" fill="none" xmlns="http://www.w3.org/2000/svg">
<g clip-path="url(#clip0_1236_6776)">
<path d="M30.1102 19.6309V12.532" stroke="#8BC1CA" stroke-width="1.68" stroke-linecap="round" stroke-linejoin="round"/>
<path d="M34.232 11.1179V19.6309" stroke="#8BC1CA" stroke-width="1.68" stroke-linecap="round" stroke-linejoin="round"/>
<path d="M38.3538 15.0886V21.4806" stroke="#8BC1CA" stroke-width="1.68" stroke-linecap="round" stroke-linejoin="round"/>
<path d="M38.3828 38.0515C38.4796 37.4123 38.8279 36.4728 39.273 36.0273C40.9178 34.3616 41.866 32.1437 41.866 29.8194V15.0888C41.866 14.13 41.0823 13.3455 40.1147 13.3455C39.1472 13.3455 38.3635 14.1203 38.3635 15.0888V11.118C38.3635 9.9849 37.4443 9.07453 36.3026 9.07453C35.1609 9.07453 34.2417 9.9849 34.2417 11.118V9.89774C34.2417 8.76462 33.3225 7.85425 32.1808 7.85425C31.0391 7.85425 30.1199 8.76462 30.1199 9.89774V12.532C30.1199 11.3989 29.2007 10.4885 28.059 10.4885C26.9173 10.4885 25.9981 11.3989 25.9981 12.532V26.9043" stroke="#8BC1CA" stroke-width="1.68" stroke-linecap="round" stroke-linejoin="round"/>
<path d="M25.9885 26.9043C24.9532 25.7131 23.5309 24.6671 21.6538 24.4734C21.1701 24.425 20.7637 24.638 20.5218 24.9673C20.1928 25.3935 20.1251 26.023 20.5121 26.5363C20.6573 26.7203 20.8314 26.9237 21.0539 27.1367C22.4472 28.541 23.6276 31.9501 24.2275 33.9451C24.5371 34.9427 25.1854 35.7949 26.0659 36.3567C26.6561 36.7344 27.0334 37.3542 27.0721 38.0515" stroke="#8BC1CA" stroke-width="1.68" stroke-linecap="round" stroke-linejoin="round"/>
<path d="M40.2018 54.1862V40.7534L25.2434 40.7631V54.1862" stroke="#8BC1CA" stroke-width="1.68" stroke-linecap="round" stroke-linejoin="round"/>
<path d="M38.3828 38.0515V40.7536" stroke="#8BC1CA" stroke-width="1.68" stroke-linecap="round" stroke-linejoin="round"/>
<path d="M27.0624 38.0515V40.7536" stroke="#8BC1CA" stroke-width="1.68" stroke-linecap="round" stroke-linejoin="round"/>
<path d="M36.9702 9.19081C38.8085 8.63877 40.7823 8.69688 42.611 9.33608C43.2109 9.53946 44.2172 9.47166 44.8267 9.28765" stroke="#8BC1CA" stroke-width="1.68" stroke-linecap="round" stroke-linejoin="round"/>
<path d="M41.8466 30.3618C41.8466 30.3618 41.895 30.2843 41.9241 30.2553C42.0402 30.0519 42.1466 29.8098 42.253 29.5192C42.4562 28.9575 42.8336 28.3474 43.3077 27.7275C43.356 27.6694 43.4044 27.5919 43.4528 27.5338C44.2752 26.4976 45.3202 25.4516 46.22 24.5993C46.5296 24.2991 46.8295 24.0279 47.1005 23.7858C47.8745 23.0885 48.3776 22.1588 48.5131 21.1225C48.6098 20.4349 49.0259 19.8247 49.6354 19.5051" stroke="#8BC1CA" stroke-width="1.68" stroke-linecap="round" stroke-linejoin="round"/>
<path d="M58.7595 0.832764L46.5296 6.49837L52.8671 19.999L65.0873 14.3237" stroke="#8BC1CA" stroke-width="1.68" stroke-linecap="round" stroke-linejoin="round"/>
<path d="M44.8364 9.28758L47.3037 8.14478" stroke="#8BC1CA" stroke-width="1.68" stroke-linecap="round" stroke-linejoin="round"/>
<path d="M49.6258 19.4953L52.0931 18.3525" stroke="#8BC1CA" stroke-width="1.68" stroke-linecap="round" stroke-linejoin="round"/>
<path d="M16.2646 19.4858C16.8064 19.8345 17.5127 20.5415 17.7353 21.1323C18.3061 22.6625 19.264 23.999 20.5121 24.9674" stroke="#8BC1CA" stroke-width="1.68" stroke-linecap="round" stroke-linejoin="round"/>
<path d="M21.054 9.2683C21.6925 9.52979 22.4182 9.45231 23.0181 9.08429C23.8986 8.52257 24.9435 8.29982 25.9788 8.44509C27.1592 8.60973 28.8524 8.8228 30.4199 8.83248" stroke="#8BC1CA" stroke-width="1.68" stroke-linecap="round" stroke-linejoin="round"/>
<path d="M0.812744 14.3141L13.0329 19.9797L19.3607 6.47909L7.14054 0.813477" stroke="#8BC1CA" stroke-width="1.68" stroke-linecap="round" stroke-linejoin="round"/>
<path d="M16.2742 19.4857L13.8069 18.3333" stroke="#8BC1CA" stroke-width="1.68" stroke-linecap="round" stroke-linejoin="round"/>
<path d="M21.0539 9.26829L18.5963 8.12549" stroke="#8BC1CA" stroke-width="1.68" stroke-linecap="round" stroke-linejoin="round"/>
</g>
<defs>
<clipPath id="clip0_1236_6776">
<rect width="65.9" height="55" fill="white"/>
</clipPath>
</defs>
</svg>
