<svg width="160" height="160" viewBox="0 0 160 160" fill="none" xmlns="http://www.w3.org/2000/svg">
<g clip-path="url(#clip0_219_2227)">
<path fill-rule="evenodd" clip-rule="evenodd" d="M14.0962 94.0908L28.1925 79.9946L14.0962 65.8983L0 79.9946L14.0962 94.0908ZM36.066 72.1211L50.1622 58.0248L36.066 43.9286L21.9697 58.0248L36.066 72.1211ZM58.0357 50.1514L72.132 36.0551L58.0357 21.9589L43.9395 36.0551L58.0357 50.1514ZM79.9946 0L65.8983 14.0962L79.9946 28.1925L94.0908 14.0962L79.9946 0ZM36.0551 116.061L50.1514 101.964L36.0551 87.868L21.9589 101.964L36.0551 116.061ZM58.0248 94.0908L72.1211 79.9946L58.0248 65.8983L43.9286 79.9946L58.0248 94.0908ZM79.9946 72.1211L94.0908 58.0248L79.9946 43.9286L65.8983 58.0248L79.9946 72.1211ZM101.964 50.1514L116.061 36.0551L101.964 21.9589L87.8681 36.0551L101.964 50.1514ZM58.0248 138.019L72.1211 123.923L58.0248 109.827L43.9286 123.923L58.0248 138.019ZM79.9946 116.05L94.0908 101.953L79.9946 87.8572L65.8983 101.953L79.9946 116.05ZM101.964 94.0799L116.061 79.9837L101.964 65.8875L87.8681 79.9837L101.964 94.0799ZM123.934 72.1102L138.03 58.014L123.934 43.9177L109.838 58.014L123.934 72.1102ZM79.9946 159.978L94.0908 145.882L79.9946 131.786L65.8983 145.882L79.9946 159.978ZM101.964 138.009L116.061 123.912L101.964 109.816L87.8681 123.912L101.964 138.009ZM123.934 116.039L138.03 101.943L123.934 87.8463L109.838 101.943L123.934 116.039ZM145.904 94.0691L160 79.9728L145.904 65.8766L131.808 79.9728L145.904 94.0691Z" fill="#6EB2BC" fill-opacity="0.3"/>
</g>
<defs>
<clipPath id="clip0_219_2227">
<rect width="160" height="160" fill="white"/>
</clipPath>
</defs>
</svg>
