<svg width="99" height="42" viewBox="0 0 99 42" fill="none" xmlns="http://www.w3.org/2000/svg">
<path d="M4.18638 38.9678H9.99153C10.3815 38.9678 10.8766 38.9378 11.4616 38.8778C12.0466 38.8178 12.6766 38.6678 13.3366 38.4353C13.9966 38.2028 14.6491 37.8653 15.3017 37.4227C15.9542 36.9802 16.5317 36.3802 17.0492 35.6227C17.5667 34.8652 17.9867 33.9127 18.3167 32.7726C18.6468 31.6326 18.8118 30.2601 18.8118 28.64C18.8118 27.02 18.6618 25.6699 18.3542 24.4324C18.0467 23.1949 17.5442 22.1524 16.8467 21.2898C16.1492 20.4348 15.2492 19.7748 14.1466 19.3098C13.0441 18.8448 11.6866 18.6123 10.0665 18.6123H4.18638V38.9603V38.9678ZM0.698792 15.6797H9.69902C13.7416 15.6797 16.8467 16.7072 19.0293 18.7623C21.2118 20.8173 22.2993 23.9524 22.2993 28.1675C22.2993 30.3726 22.0518 32.3226 21.5643 34.0252C21.0768 35.7277 20.3193 37.1602 19.2843 38.3228C18.2567 39.4853 16.9442 40.3703 15.3542 40.9853C13.7641 41.6004 11.8741 41.9004 9.69902 41.9004H0.698792V15.6797Z" fill="#F1F0F0"/>
<path d="M26.2444 15.6797H31.0221L39.2873 37.7153L47.5825 15.6797H52.3601V41.9004H49.0525V20.0823H48.9775L40.7873 41.9004H37.8172L29.627 20.0823H29.552V41.9004H26.2444V15.6797Z" fill="#F1F0F0"/>
<path d="M56.6202 15.6797H60.1078V38.9678H73.2257L72.1981 41.9004H56.6202V15.6797Z" fill="#F1F0F0"/>
<path d="M81.5583 31.0701H90.4461L86.0735 18.8373H85.9985L81.5508 31.0701H81.5583ZM84.1684 15.6797H88.0235L98.2688 41.9079H94.4137L91.5486 34.0102H80.4558L77.5157 41.9079H73.9156L84.1609 15.6797H84.1684Z" fill="#F1F0F0"/>
<path d="M35.0572 3.89692C34.9747 3.1319 34.6972 2.56939 34.2247 2.22438C33.7522 1.87937 33.1446 1.70687 32.4021 1.70687C32.1021 1.70687 31.8096 1.73687 31.5171 1.79687C31.2246 1.85687 30.9696 1.95437 30.7446 2.09688C30.5196 2.23938 30.3396 2.42689 30.2046 2.65939C30.0696 2.8919 30.0021 3.1844 30.0021 3.53691C30.0021 3.86692 30.0996 4.13693 30.2946 4.33943C30.4896 4.54194 30.7521 4.71444 31.0746 4.84195C31.3971 4.96945 31.7646 5.08195 32.1771 5.16445C32.5896 5.24696 33.0021 5.34446 33.4371 5.44196C33.8647 5.53946 34.2847 5.65947 34.6972 5.79447C35.1097 5.92947 35.4697 6.10948 35.7922 6.34199C36.1147 6.57449 36.3697 6.867 36.5647 7.21951C36.7597 7.57202 36.8572 8.00703 36.8572 8.53204C36.8572 9.10206 36.7297 9.58957 36.4747 9.99458C36.2197 10.3996 35.8897 10.7296 35.4922 10.9846C35.0947 11.2396 34.6447 11.4271 34.1497 11.5471C33.6546 11.6671 33.1671 11.7271 32.6721 11.7271C32.0721 11.7271 31.5096 11.6521 30.9696 11.5021C30.4371 11.3521 29.9646 11.1196 29.5595 10.8121C29.1545 10.5046 28.8395 10.1146 28.5995 9.63457C28.367 9.16206 28.247 8.59954 28.247 7.94703H29.597C29.597 8.39704 29.687 8.77955 29.8596 9.10956C30.0321 9.43207 30.2646 9.70207 30.5496 9.91208C30.8346 10.1221 31.1646 10.2796 31.5396 10.3771C31.9146 10.4746 32.3046 10.5271 32.7171 10.5271C33.0396 10.5271 33.3621 10.4971 33.6846 10.4371C34.0072 10.3771 34.2997 10.2721 34.5622 10.1296C34.8247 9.98708 35.0347 9.78457 35.1922 9.53707C35.3497 9.28956 35.4322 8.96705 35.4322 8.57704C35.4322 8.18703 35.3347 7.90953 35.1397 7.67702C34.9447 7.44451 34.6897 7.25701 34.3672 7.11451C34.0447 6.972 33.6846 6.852 33.2721 6.7545C32.8596 6.65699 32.4471 6.56699 32.0121 6.47699C31.5846 6.38699 31.1646 6.28198 30.7521 6.15448C30.3396 6.02698 29.9796 5.86197 29.6495 5.65197C29.327 5.44196 29.0645 5.17946 28.8695 4.85695C28.6745 4.53444 28.577 4.13693 28.577 3.64192C28.577 3.1019 28.6895 2.63689 28.907 2.23938C29.1245 1.84187 29.417 1.51936 29.7845 1.26436C30.1521 1.00935 30.5646 0.821844 31.0296 0.694341C31.4946 0.566837 31.9671 0.506836 32.4621 0.506836C33.0096 0.506836 33.5196 0.574338 33.9922 0.701841C34.4647 0.829344 34.8697 1.03935 35.2222 1.31686C35.5747 1.59436 35.8522 1.94687 36.0622 2.37438C36.2722 2.80189 36.3847 3.30441 36.4072 3.89692H35.0572Z" fill="#F1F0F0"/>
<path d="M40.1348 3.71697H41.6798V4.842H40.1348V9.64963C40.1348 9.79963 40.1498 9.91963 40.1723 10.0096C40.1948 10.0996 40.2473 10.1671 40.3148 10.2196C40.3823 10.2721 40.4798 10.3021 40.6073 10.3171C40.7348 10.3321 40.8923 10.3396 41.0948 10.3396H41.6798V11.4647H40.7048C40.3748 11.4647 40.0898 11.4422 39.8573 11.3972C39.6248 11.3522 39.4298 11.2697 39.2873 11.1497C39.1448 11.0297 39.0323 10.8572 38.9648 10.6397C38.8973 10.4221 38.8598 10.1296 38.8598 9.76963V4.842H37.5397V3.71697H38.8598V1.39941H40.1348V3.71697Z" fill="#F1F0F0"/>
<path d="M49.4951 11.4572H48.295V10.2271H48.265C47.995 10.7072 47.65 11.0597 47.2225 11.2922C46.795 11.5247 46.3075 11.6372 45.745 11.6372C45.2349 11.6372 44.8149 11.5697 44.4699 11.4272C44.1324 11.2847 43.8549 11.0897 43.6449 10.8422C43.4349 10.5946 43.2849 10.2946 43.2024 9.94963C43.1199 9.60462 43.0749 9.22211 43.0749 8.8021V3.70947H44.3499V8.95211C44.3499 9.43212 44.4924 9.80713 44.7699 10.0921C45.0474 10.3696 45.4299 10.5121 45.925 10.5121C46.315 10.5121 46.6525 10.4521 46.9375 10.3321C47.2225 10.2121 47.4625 10.0396 47.65 9.82213C47.8375 9.60462 47.98 9.34212 48.0775 9.04961C48.175 8.7571 48.22 8.43459 48.22 8.08208V3.70947H49.4951V11.4497V11.4572Z" fill="#F1F0F0"/>
<path d="M52.3376 7.65471C52.3376 8.01472 52.3826 8.36723 52.4801 8.71224C52.5776 9.05724 52.7201 9.36475 52.9151 9.63476C53.1102 9.90477 53.3577 10.1223 53.6652 10.2798C53.9727 10.4373 54.3252 10.5198 54.7377 10.5198C55.1652 10.5198 55.5327 10.4373 55.8327 10.2648C56.1327 10.0923 56.3802 9.87476 56.5677 9.59726C56.7552 9.31975 56.8978 9.01224 56.9803 8.65973C57.0628 8.30722 57.1078 7.95472 57.1078 7.59471C57.1078 7.2122 57.0628 6.85219 56.9728 6.49218C56.8827 6.13967 56.7402 5.82466 56.5452 5.55465C56.3502 5.28465 56.0952 5.06714 55.7877 4.90214C55.4802 4.73713 55.1052 4.65463 54.6627 4.65463C54.2202 4.65463 53.8602 4.73713 53.5602 4.90964C53.2677 5.08214 53.0276 5.30715 52.8476 5.58465C52.6676 5.86216 52.5401 6.18467 52.4576 6.54468C52.3751 6.90469 52.3376 7.2722 52.3376 7.65471ZM58.3228 11.4573H57.0478V10.4073H57.0178C56.8077 10.8348 56.4777 11.1498 56.0277 11.3448C55.5777 11.5398 55.0827 11.6373 54.5427 11.6373C53.9427 11.6373 53.4252 11.5248 52.9751 11.3073C52.5326 11.0898 52.1651 10.7898 51.8651 10.4148C51.5726 10.0398 51.3476 9.61226 51.1976 9.11725C51.0476 8.62973 50.9726 8.11222 50.9726 7.55721C50.9726 7.00219 51.0476 6.49218 51.1901 6.00467C51.3326 5.51715 51.5576 5.09714 51.8501 4.72213C52.1426 4.35462 52.5101 4.06212 52.9601 3.84461C53.4102 3.6271 53.9202 3.5221 54.5127 3.5221C54.7152 3.5221 54.9252 3.5446 55.1577 3.5821C55.3902 3.6196 55.6152 3.68711 55.8477 3.78461C56.0802 3.88211 56.2977 4.00211 56.5002 4.15962C56.7027 4.31712 56.8752 4.50463 57.0178 4.73713H57.0478V0.769531H58.3228V11.4573Z" fill="#F1F0F0"/>
<path d="M61.6379 2.32957H60.3629V0.769531H61.6379V2.32957ZM60.3629 3.72461H61.6379V11.4648H60.3629V3.71711V3.72461Z" fill="#F1F0F0"/>
<path d="M64.5405 7.5944C64.5405 8.06691 64.6005 8.47942 64.728 8.84693C64.8555 9.21444 65.028 9.51445 65.2455 9.76196C65.463 10.0095 65.7255 10.197 66.018 10.3245C66.3105 10.452 66.6255 10.5195 66.9555 10.5195C67.2855 10.5195 67.593 10.452 67.893 10.3245C68.1856 10.197 68.4481 10.0095 68.6656 9.76196C68.8831 9.51445 69.0556 9.21444 69.1831 8.84693C69.3106 8.47942 69.3706 8.06691 69.3706 7.5944C69.3706 7.12189 69.3106 6.70938 69.1831 6.34187C69.0556 5.97436 68.8831 5.67435 68.6656 5.41935C68.4481 5.17184 68.1856 4.97683 67.893 4.84933C67.6005 4.72183 67.2855 4.65433 66.9555 4.65433C66.6255 4.65433 66.3105 4.72183 66.018 4.84933C65.7255 4.97683 65.463 5.17184 65.2455 5.41935C65.028 5.66685 64.8555 5.97436 64.728 6.34187C64.6005 6.70938 64.5405 7.12189 64.5405 7.5944ZM63.1904 7.5944C63.1904 7.02439 63.2729 6.49187 63.4304 5.99686C63.5879 5.50185 63.8279 5.07434 64.1505 4.70683C64.473 4.33932 64.863 4.05431 65.328 3.84431C65.793 3.6343 66.333 3.5293 66.9555 3.5293C67.578 3.5293 68.1031 3.6343 68.5756 3.84431C69.0481 4.05431 69.4381 4.33932 69.7606 4.70683C70.0831 5.07434 70.3231 5.50185 70.4806 5.99686C70.6381 6.49187 70.7206 7.02439 70.7206 7.5944C70.7206 8.16442 70.6381 8.68943 70.4806 9.18444C70.3231 9.67196 70.0831 10.0995 69.7606 10.467C69.4381 10.8345 69.0481 11.1195 68.5756 11.3295C68.1031 11.5395 67.5705 11.6445 66.9555 11.6445C66.3405 11.6445 65.793 11.5395 65.328 11.3295C64.863 11.1195 64.473 10.8345 64.1505 10.467C63.8279 10.0995 63.5879 9.67946 63.4304 9.18444C63.2729 8.69693 63.1904 8.16442 63.1904 7.5944Z" fill="#F1F0F0"/>
<path d="M98.2688 8.10449H72.7606V11.4646H98.2688V8.10449Z" fill="#F1F0F0"/>
<path d="M26.2069 8.10449H0.698792V11.4646H26.2069V8.10449Z" fill="#F1F0F0"/>
</svg>
