<svg width="196" height="195" viewBox="0 0 196 195" fill="none" xmlns="http://www.w3.org/2000/svg">
<path d="M97.765 0C44.005 0 0.264999 43.74 0.264999 97.5C0.264999 151.26 44.005 195 97.765 195C151.525 195 195.265 151.26 195.265 97.5C195.265 43.74 151.525 0 97.765 0ZM97.765 192C45.655 192 3.265 149.61 3.265 97.5C3.265 45.39 45.655 3 97.765 3C149.875 3 192.265 45.39 192.265 97.5C192.265 149.61 149.875 192 97.765 192ZM172.735 94.07C172.735 88.99 168.305 84.56 163.235 84.57H155.115C152.325 84.57 149.855 82.83 148.985 80.27C148.205 77.94 147.255 75.66 146.175 73.49C144.965 71.04 145.475 68.07 147.455 66.1L153.205 60.35C156.915 56.64 156.915 50.61 153.205 46.9L148.365 42.06C144.655 38.35 138.625 38.35 134.915 42.06L129.165 47.81C127.185 49.79 124.215 50.3 121.775 49.09C119.605 48.01 117.315 47.07 114.995 46.29C112.425 45.42 110.695 42.96 110.685 40.16V32.04C110.685 26.8 106.425 22.53 101.175 22.53H94.325C89.085 22.53 84.815 26.79 84.825 32.03V40.15C84.825 42.95 83.095 45.41 80.525 46.27C78.235 47.04 75.955 47.99 73.745 49.08C71.295 50.29 68.325 49.78 66.355 47.81L60.605 42.06C56.895 38.35 50.865 38.35 47.155 42.06L42.315 46.9C38.605 50.61 38.605 56.64 42.315 60.35L48.065 66.1C50.035 68.07 50.555 71.04 49.345 73.49C48.255 75.68 47.315 77.96 46.535 80.27C45.675 82.84 43.215 84.57 40.415 84.57H32.295C27.055 84.57 22.795 88.84 22.785 94.08V100.93C22.785 106.17 27.045 110.44 32.295 110.44H40.415C43.215 110.44 45.685 112.18 46.535 114.74C47.315 117.04 48.255 119.32 49.335 121.51C50.545 123.96 50.035 126.93 48.055 128.9L42.305 134.65C38.595 138.36 38.595 144.39 42.305 148.1L47.145 152.94C50.855 156.65 56.885 156.65 60.595 152.94L66.345 147.19C68.315 145.22 71.285 144.7 73.745 145.92C75.945 147.01 78.225 147.95 80.515 148.73C83.095 149.59 84.815 152.05 84.815 154.85V162.97C84.815 168.21 89.065 172.47 94.315 172.47H101.165C106.405 172.47 110.665 168.21 110.675 162.97V154.85C110.675 152.05 112.405 149.59 114.975 148.72C117.305 147.94 119.585 146.99 121.755 145.92C124.195 144.71 127.165 145.22 129.145 147.2L134.895 152.95C138.605 156.66 144.635 156.66 148.345 152.95L153.185 148.11C156.895 144.4 156.895 138.37 153.185 134.66L147.435 128.91C145.455 126.93 144.945 123.96 146.165 121.52C147.245 119.34 148.185 117.06 148.965 114.74C149.825 112.17 152.285 110.44 155.085 110.44H163.215C165.755 110.44 168.145 109.46 169.935 107.66C171.725 105.87 172.715 103.48 172.715 100.94V94.09L172.735 94.07ZM163.235 107.43H155.105C151.025 107.43 147.415 109.98 146.145 113.77C145.415 115.95 144.515 118.1 143.495 120.16C141.705 123.76 142.445 128.12 145.335 131.01L151.085 136.76C153.625 139.3 153.625 143.43 151.085 145.97L146.245 150.81C143.705 153.35 139.575 153.35 137.035 150.81L131.285 145.06C128.395 142.17 124.035 141.43 120.435 143.22C118.385 144.24 116.235 145.13 114.035 145.87C110.245 147.15 107.695 150.75 107.695 154.83V162.96C107.695 166.55 104.775 169.47 101.185 169.47H94.335C90.745 169.47 87.835 166.55 87.825 162.96V154.84C87.825 150.74 85.285 147.14 81.485 145.87C79.325 145.14 77.175 144.25 75.095 143.22C71.485 141.43 67.135 142.17 64.245 145.06L58.495 150.81C55.955 153.35 51.825 153.35 49.285 150.81L44.445 145.97C41.905 143.43 41.905 139.3 44.445 136.76L50.195 131.01C53.085 128.12 53.825 123.76 52.035 120.16C51.005 118.09 50.115 115.94 49.385 113.77C48.925 112.39 48.155 111.18 47.165 110.19C45.435 108.46 43.025 107.42 40.415 107.42H32.295C28.705 107.42 25.795 104.5 25.785 100.91V94.06C25.785 90.47 28.715 87.55 32.295 87.55H40.415C44.505 87.55 48.105 85 49.385 81.21C50.115 79.04 51.005 76.89 52.035 74.82C53.815 71.22 53.075 66.86 50.185 63.98L44.435 58.23C41.895 55.69 41.895 51.56 44.435 49.02L49.275 44.18C51.815 41.64 55.945 41.64 58.485 44.18L64.235 49.93C67.125 52.82 71.475 53.56 75.085 51.77C77.165 50.73 79.315 49.84 81.475 49.12C85.265 47.85 87.815 44.24 87.815 40.15V32.03C87.815 28.44 90.735 25.53 94.325 25.52H101.175C104.765 25.52 107.685 28.44 107.685 32.03V40.16C107.685 44.24 110.235 47.83 114.025 49.12C116.215 49.86 118.375 50.75 120.415 51.77C124.015 53.56 128.375 52.82 131.265 49.93L137.015 44.18C139.555 41.64 143.685 41.64 146.225 44.18L151.065 49.02C153.605 51.56 153.605 55.69 151.065 58.23L145.315 63.98C142.425 66.87 141.685 71.23 143.475 74.83C144.495 76.88 145.385 79.03 146.125 81.22C147.405 85.01 150.995 87.57 155.085 87.56H163.205C166.675 87.56 169.715 90.59 169.715 94.07V100.92C169.715 104.51 166.795 107.43 163.215 107.43H163.235ZM97.765 52.75C73.095 52.75 53.025 72.82 53.025 97.49C53.025 109.83 58.045 121.01 66.145 129.12C74.245 137.22 85.435 142.24 97.765 142.24C122.435 142.24 142.505 122.17 142.505 97.5C142.505 72.82 122.435 52.75 97.765 52.76V52.75ZM97.765 139.24C74.735 139.24 56.025 120.5 56.015 97.49C56.015 74.47 74.745 55.74 97.765 55.74C109.275 55.74 119.715 60.42 127.275 67.98C134.835 75.54 139.515 85.98 139.515 97.49C139.515 120.51 120.785 139.24 97.765 139.24ZM120.115 72.23C118.635 70.92 117.025 69.73 115.325 68.69C114.615 68.26 113.695 68.48 113.265 69.18C112.835 69.89 113.075 70.8 113.755 71.24C115.305 72.19 116.775 73.28 118.125 74.47C124.655 80.32 128.495 88.71 128.495 97.49C128.495 105.7 125.295 113.42 119.495 119.22C113.695 125.02 105.975 128.22 97.765 128.22C80.825 128.22 67.035 114.43 67.035 97.49C67.035 83.99 76.065 71.87 88.985 68.03C89.775 67.79 90.235 66.96 89.995 66.17C89.765 65.37 88.925 64.92 88.135 65.16C73.945 69.38 64.035 82.68 64.035 97.5C64.035 106.8 67.815 115.23 73.925 121.34C80.035 127.45 88.465 131.23 97.765 131.23C116.365 131.23 131.495 116.1 131.495 97.5C131.495 87.85 127.365 78.53 120.115 72.24V72.23ZM97.775 66.77C100.805 66.77 103.795 67.21 106.685 68.08C107.475 68.32 108.315 67.87 108.555 67.08C108.795 66.29 108.355 65.46 107.555 65.21C104.385 64.25 101.095 63.77 97.765 63.77C96.935 63.77 96.265 64.44 96.265 65.27C96.265 65.68 96.435 66.05 96.705 66.33C96.975 66.6 97.355 66.77 97.765 66.77H97.775ZM90.395 102.74L85.775 107.36C85.195 107.94 85.195 108.9 85.775 109.48C86.355 110.06 87.315 110.06 87.895 109.48L92.515 104.86C94.035 105.95 95.855 106.54 97.765 106.54C100.185 106.54 102.455 105.6 104.165 103.89C105.875 102.18 106.815 99.91 106.815 97.49C106.815 95.59 106.165 93.79 105.075 92.3L115.885 81.49C116.465 80.91 116.465 79.95 115.885 79.37C115.305 78.79 114.345 78.79 113.765 79.37L102.955 90.18C101.465 89.1 99.665 88.44 97.765 88.44C95.345 88.44 93.075 89.38 91.365 91.09C89.655 92.8 88.715 95.07 88.715 97.49C88.715 99.4 89.305 101.21 90.395 102.74ZM97.765 91.44C99.385 91.44 100.905 92.07 102.045 93.21C103.185 94.35 103.815 95.87 103.815 97.49C103.815 99.11 103.185 100.63 102.045 101.77C100.905 102.91 99.385 103.54 97.765 103.54C94.425 103.54 91.715 100.82 91.715 97.49C91.715 94.16 94.435 91.44 97.765 91.44Z" fill="#6FB2BC"/>
</svg>
