<svg width="196" height="195" viewBox="0 0 196 195" fill="none" xmlns="http://www.w3.org/2000/svg">
<path d="M97.765 0C44.005 0 0.265015 43.74 0.265015 97.5C0.265015 151.26 44.005 195 97.765 195C151.525 195 195.265 151.26 195.265 97.5C195.265 43.74 151.525 0 97.765 0ZM97.765 192C45.655 192 3.26501 149.61 3.26501 97.5C3.26501 45.39 45.655 3 97.765 3C149.875 3 192.265 45.39 192.265 97.5C192.265 149.61 149.875 192 97.765 192ZM152.085 63.29C152.925 63.29 153.595 62.61 153.595 61.78V50.61C153.595 49.77 152.915 49.1 152.085 49.1H42.175C41.335 49.1 40.665 49.78 40.665 50.61V124.91C40.665 125.75 41.345 126.42 42.175 126.42H98.795C99.635 126.42 100.305 125.74 100.305 124.91C100.305 124.08 99.625 123.4 98.795 123.4H43.685V52.13H86.145L68.345 69.87C67.755 70.46 67.755 71.42 68.345 72.01C68.645 72.31 69.025 72.45 69.415 72.45C69.805 72.45 70.185 72.3 70.485 72.01L90.435 52.13H150.575V61.78C150.575 62.62 151.255 63.29 152.085 63.29ZM157.315 38.63H36.945C33.225 38.63 30.195 41.66 30.195 45.38V130.15C30.195 133.87 33.225 136.9 36.945 136.9H83.605V144.53L66.125 152.27C65.575 152.51 65.225 153.05 65.225 153.65V161.18C65.225 162.02 65.905 162.69 66.735 162.69H97.105C97.945 162.69 98.615 162.01 98.615 161.18C98.615 160.35 97.935 159.67 97.105 159.67H68.245V154.64L85.725 146.9C86.275 146.66 86.625 146.12 86.625 145.52V136.9H98.795C99.635 136.9 100.305 136.22 100.305 135.39C100.305 134.56 99.625 133.88 98.795 133.88H36.935C34.885 133.88 33.215 132.21 33.215 130.16V45.38C33.215 43.33 34.885 41.66 36.935 41.66H157.315C159.365 41.66 161.035 43.33 161.035 45.38V62.77C161.035 63.61 161.715 64.28 162.545 64.28C163.375 64.28 164.055 63.6 164.055 62.77V45.38C164.055 41.66 161.025 38.63 157.305 38.63H157.315ZM157.165 69.42H113.325C109.525 69.42 106.435 72.51 106.435 76.31V155.79C106.435 159.59 109.525 162.68 113.325 162.68H157.165C160.965 162.68 164.055 159.59 164.055 155.79V76.31C164.055 72.51 160.965 69.42 157.165 69.42ZM161.035 155.8C161.035 157.93 159.305 159.67 157.165 159.67H113.325C111.195 159.67 109.455 157.94 109.455 155.8V143.32H161.035V155.8ZM161.035 140.29H109.455V82.91H161.035V140.29ZM161.035 79.89H109.455V76.31C109.455 74.18 111.185 72.44 113.325 72.44H157.165C159.295 72.44 161.035 74.17 161.035 76.31V79.89ZM130.785 152.87H139.715C140.555 152.87 141.225 152.19 141.225 151.36C141.225 150.53 140.545 149.85 139.715 149.85H130.785C129.945 149.85 129.275 150.53 129.275 151.36C129.275 152.19 129.955 152.87 130.785 152.87ZM93.725 63.95L56.685 100.87C56.095 101.46 56.095 102.42 56.685 103.01C56.985 103.31 57.365 103.45 57.755 103.45C58.145 103.45 58.525 103.3 58.825 103.01L95.865 66.09C96.455 65.5 96.455 64.54 95.865 63.95C95.275 63.36 94.315 63.36 93.725 63.95Z" fill="#6FB2BC"/>
</svg>
