<?xml version="1.0" encoding="UTF-8" standalone="no"?><!DOCTYPE svg PUBLIC "-//W3C//DTD SVG 1.1//EN" "http://www.w3.org/Graphics/SVG/1.1/DTD/svg11.dtd"><svg width="100%" height="100%" viewBox="0 0 1480 600" version="1.1" xmlns="http://www.w3.org/2000/svg" xmlns:xlink="http://www.w3.org/1999/xlink" xml:space="preserve" xmlns:serif="http://www.serif.com/" style="fill-rule:evenodd;clip-rule:evenodd;stroke-linejoin:round;stroke-miterlimit:2;"><g><path d="M475.723,49.052c-1.157,-11.141 -5.173,-19.208 -12.046,-24.2c-6.873,-4.992 -15.663,-7.488 -26.371,-7.488c-4.341,0 -8.609,0.434 -12.806,1.302c-4.196,0.868 -7.922,2.315 -11.178,4.341c-3.255,2.026 -5.86,4.739 -7.813,8.139c-1.954,3.4 -2.93,7.633 -2.93,12.697c0,4.775 1.411,8.646 4.232,11.612c2.822,2.966 6.584,5.39 11.286,7.271c4.703,1.881 10.021,3.437 15.953,4.667c5.933,1.23 12.01,2.568 18.232,4.015c6.222,1.447 12.299,3.147 18.232,5.101c5.933,1.953 11.214,4.594 15.844,7.922c4.631,3.328 8.357,7.56 11.178,12.697c2.822,5.137 4.233,11.467 4.233,18.991c0,8.248 -1.845,15.302 -5.535,21.162c-3.69,5.861 -8.429,10.636 -14.217,14.325c-5.787,3.69 -12.263,6.403 -19.425,8.14c-7.163,1.736 -14.289,2.604 -21.379,2.604c-8.682,0 -16.894,-1.085 -24.635,-3.256c-7.741,-2.17 -14.542,-5.498 -20.402,-9.984c-5.86,-4.485 -10.491,-10.165 -13.891,-17.038c-3.4,-6.873 -5.101,-15.012 -5.101,-24.417l19.534,0c0,6.511 1.267,12.118 3.799,16.821c2.532,4.702 5.86,8.573 9.984,11.612c4.124,3.038 8.899,5.281 14.325,6.728c5.426,1.447 11.105,2.171 17.038,2.171c4.63,0 9.297,-0.435 13.999,-1.303c4.703,-0.868 8.935,-2.351 12.698,-4.449c3.762,-2.098 6.8,-4.956 9.116,-8.573c2.315,-3.618 3.472,-8.248 3.472,-13.891c0,-5.354 -1.411,-9.695 -4.232,-13.023c-2.822,-3.328 -6.548,-6.041 -11.178,-8.139c-4.63,-2.098 -9.912,-3.835 -15.844,-5.209c-5.933,-1.375 -12.01,-2.714 -18.232,-4.016c-6.222,-1.302 -12.299,-2.858 -18.232,-4.666c-5.933,-1.809 -11.25,-4.233 -15.953,-7.271c-4.703,-3.039 -8.465,-6.873 -11.286,-11.504c-2.822,-4.63 -4.233,-10.49 -4.233,-17.58c0,-7.814 1.592,-14.579 4.775,-20.294c3.184,-5.716 7.416,-10.418 12.698,-14.108c5.281,-3.69 11.286,-6.439 18.014,-8.248c6.729,-1.809 13.638,-2.713 20.728,-2.713c7.959,0 15.338,0.941 22.139,2.822c6.801,1.881 12.733,4.847 17.798,8.898c5.064,4.052 9.116,9.153 12.154,15.302c3.039,6.15 4.703,13.493 4.992,22.03l-19.534,0Z" style="fill:#8a8c8e;fill-rule:nonzero;"/><path d="M549.302,46.448l22.355,0l0,16.278l-22.355,0l0,69.672c0,2.17 0.18,3.907 0.542,5.209c0.362,1.302 1.049,2.315 2.062,3.039c1.013,0.723 2.424,1.193 4.233,1.41c1.808,0.217 4.16,0.326 7.054,0.326l8.464,0l0,16.278l-14.108,0c-4.775,0 -8.862,-0.325 -12.263,-0.976c-3.4,-0.651 -6.149,-1.845 -8.247,-3.582c-2.099,-1.736 -3.654,-4.196 -4.667,-7.379c-1.013,-3.183 -1.519,-7.38 -1.519,-12.589l0,-71.408l-19.1,0l0,-16.278l19.1,0l0,-33.642l18.449,0l0,33.642Z" style="fill:#8a8c8e;fill-rule:nonzero;"/><path d="M684.955,158.66l-17.363,0l0,-17.797l-0.435,0c-3.906,6.945 -8.935,12.082 -15.084,15.41c-6.15,3.328 -13.276,4.992 -21.379,4.992c-7.38,0 -13.529,-1.013 -18.449,-3.039c-4.92,-2.025 -8.899,-4.847 -11.938,-8.464c-3.038,-3.618 -5.173,-7.923 -6.402,-12.915c-1.23,-4.992 -1.845,-10.526 -1.845,-16.604l0,-73.795l18.448,0l0,75.966c0,6.945 2.026,12.444 6.078,16.495c4.051,4.052 9.622,6.078 16.712,6.078c5.643,0 10.527,-0.869 14.651,-2.605c4.124,-1.736 7.56,-4.196 10.31,-7.38c2.749,-3.183 4.811,-6.909 6.185,-11.177c1.375,-4.269 2.062,-8.935 2.062,-14l0,-63.377l18.449,0l0,112.212Z" style="fill:#8a8c8e;fill-rule:nonzero;"/><path d="M726.194,103.531c0,5.209 0.687,10.309 2.062,15.302c1.374,4.992 3.473,9.441 6.294,13.348c2.822,3.907 6.439,7.018 10.852,9.333c4.414,2.315 9.587,3.473 15.519,3.473c6.222,0 11.504,-1.23 15.845,-3.69c4.34,-2.46 7.886,-5.68 10.635,-9.659c2.749,-3.979 4.739,-8.501 5.969,-13.565c1.229,-5.065 1.844,-10.201 1.844,-15.41c0,-5.499 -0.651,-10.816 -1.953,-15.953c-1.302,-5.137 -3.364,-9.659 -6.186,-13.566c-2.821,-3.906 -6.475,-7.054 -10.961,-9.441c-4.485,-2.388 -9.911,-3.581 -16.278,-3.581c-6.367,0 -11.684,1.23 -15.953,3.689c-4.268,2.46 -7.705,5.716 -10.31,9.767c-2.604,4.052 -4.485,8.682 -5.643,13.891c-1.157,5.21 -1.736,10.563 -1.736,16.062Zm86.818,55.129l-18.449,0l0,-15.193l-0.434,0c-3.038,6.222 -7.813,10.744 -14.325,13.566c-6.511,2.821 -13.674,4.232 -21.487,4.232c-8.682,0 -16.243,-1.592 -22.682,-4.775c-6.439,-3.183 -11.792,-7.488 -16.061,-12.914c-4.269,-5.426 -7.488,-11.685 -9.659,-18.775c-2.17,-7.09 -3.255,-14.614 -3.255,-22.572c0,-7.959 1.049,-15.447 3.147,-22.465c2.098,-7.018 5.281,-13.203 9.55,-18.557c4.268,-5.354 9.622,-9.586 16.061,-12.697c6.439,-3.111 13.927,-4.667 22.465,-4.667c2.893,0 6.004,0.29 9.332,0.868c3.329,0.579 6.657,1.556 9.985,2.931c3.328,1.374 6.475,3.183 9.441,5.426c2.966,2.242 5.462,5.028 7.488,8.356l0.434,0l0,-57.734l18.449,0l0,154.97Z" style="fill:#8a8c8e;fill-rule:nonzero;"/><path d="M860.979,26.263l-18.449,0l0,-22.573l18.449,0l0,22.573Zm-18.449,20.185l18.449,0l0,112.212l-18.449,0l0,-112.212Z" style="fill:#8a8c8e;fill-rule:nonzero;"/><path d="M903.086,102.663c0,6.8 0.904,12.841 2.713,18.123c1.809,5.281 4.305,9.695 7.488,13.24c3.184,3.545 6.91,6.258 11.178,8.139c4.269,1.881 8.79,2.822 13.565,2.822c4.775,0 9.297,-0.941 13.566,-2.822c4.268,-1.881 7.994,-4.594 11.178,-8.139c3.183,-3.545 5.679,-7.959 7.488,-13.24c1.808,-5.282 2.713,-11.323 2.713,-18.123c0,-6.801 -0.905,-12.842 -2.713,-18.124c-1.809,-5.281 -4.305,-9.731 -7.488,-13.348c-3.184,-3.617 -6.91,-6.367 -11.178,-8.248c-4.269,-1.881 -8.791,-2.821 -13.566,-2.821c-4.775,0 -9.296,0.94 -13.565,2.821c-4.268,1.881 -7.994,4.631 -11.178,8.248c-3.183,3.617 -5.679,8.067 -7.488,13.348c-1.809,5.282 -2.713,11.323 -2.713,18.124Zm-19.534,0c0,-8.248 1.158,-15.953 3.473,-23.116c2.315,-7.162 5.788,-13.384 10.418,-18.666c4.63,-5.281 10.31,-9.441 17.038,-12.48c6.728,-3.038 14.578,-4.558 23.549,-4.558c8.827,0 16.641,1.52 23.441,4.558c6.801,3.039 12.517,7.199 17.147,12.48c4.63,5.282 8.103,11.504 10.418,18.666c2.315,7.163 3.473,14.868 3.473,23.116c0,8.247 -1.158,15.916 -3.473,23.006c-2.315,7.091 -5.788,13.276 -10.418,18.558c-4.63,5.281 -10.346,9.441 -17.147,12.48c-6.8,3.039 -14.614,4.558 -23.441,4.558c-8.971,0 -16.821,-1.519 -23.549,-4.558c-6.728,-3.039 -12.408,-7.199 -17.038,-12.48c-4.63,-5.282 -8.103,-11.467 -10.418,-18.558c-2.315,-7.09 -3.473,-14.759 -3.473,-23.006Z" style="fill:#8a8c8e;fill-rule:nonzero;"/><path d="M52.636,557.403l84.13,0c5.68,0 12.779,-0.444 21.299,-1.332c8.519,-0.887 17.571,-3.017 27.156,-6.389c9.584,-3.372 19.08,-8.253 28.487,-14.643c9.407,-6.39 17.837,-15.087 25.292,-26.091c7.454,-11.004 13.578,-24.76 18.37,-41.266c4.792,-16.507 7.188,-36.474 7.188,-59.903c0,-22.718 -2.218,-43.041 -6.655,-60.967c-4.438,-17.927 -11.715,-33.102 -21.832,-45.526c-10.117,-12.424 -23.162,-22.009 -39.136,-28.753c-15.974,-6.745 -35.675,-10.117 -59.104,-10.117l-85.195,0l0,294.987Zm-50.584,-337.585l130.454,0c58.572,0 103.654,14.909 135.247,44.728c31.593,29.818 47.39,75.255 47.39,136.311c0,31.948 -3.55,60.258 -10.65,84.929c-7.099,24.671 -18.103,45.437 -33.013,62.298c-14.909,16.862 -33.9,29.73 -56.974,38.604c-23.073,8.875 -50.406,13.312 -82,13.312l-130.454,0l0,-380.182Z" style="fill:#f2f2f2;fill-rule:nonzero;"/><path d="M377.974,219.818l69.221,0l119.805,319.481l120.337,-319.481l69.221,0l0,380.182l-47.922,0l0,-316.286l-1.065,0l-118.74,316.286l-43.13,0l-118.74,-316.286l-1.065,0l0,316.286l-47.922,0l0,-380.182Z" style="fill:#f2f2f2;fill-rule:nonzero;"/><path d="M840.688,219.818l50.584,0l0,337.585l201.273,0l0,42.597l-251.857,0l0,-380.182Z" style="fill:#f2f2f2;fill-rule:nonzero;"/><path d="M1202.23,442.922l128.857,0l-63.363,-177.311l-1.065,0l-64.429,177.311Zm37.805,-223.104l55.909,0l148.559,380.182l-55.909,0l-41.533,-114.48l-160.805,0l-42.597,114.48l-52.182,0l148.558,-380.182Z" style="fill:#f2f2f2;fill-rule:nonzero;"/><rect x="0" y="110.716" width="309.613" height="52.53" style="fill:#3e98a6;"/><rect x="1050.92" y="110.002" width="428.993" height="52.53" style="fill:#3e98a6;"/></g></svg>