<?xml version="1.0" encoding="UTF-8" standalone="no"?><!DOCTYPE svg PUBLIC "-//W3C//DTD SVG 1.1//EN" "http://www.w3.org/Graphics/SVG/1.1/DTD/svg11.dtd"><svg width="100%" height="100%" viewBox="0 0 800 800" version="1.1" xmlns="http://www.w3.org/2000/svg" xmlns:xlink="http://www.w3.org/1999/xlink" xml:space="preserve" xmlns:serif="http://www.serif.com/" style="fill-rule:evenodd;clip-rule:evenodd;stroke-linejoin:round;stroke-miterlimit:2;"><circle cx="400" cy="400" r="400" style="fill:#005f68;"/><g transform="matrix(1,0,0,1,-1043,-27)"><g transform="matrix(195,0,0,195,1360.42,264.64)"><path d="M0.255,0.009c-0.043,0 -0.083,-0.006 -0.117,-0.019c-0.036,-0.013 -0.063,-0.029 -0.084,-0.048c-0.02,-0.019 -0.03,-0.038 -0.03,-0.057c0,-0.009 0.002,-0.02 0.007,-0.031c0.005,-0.011 0.012,-0.02 0.021,-0.027c0.009,-0.008 0.018,-0.012 0.029,-0.012c0.011,0 0.021,0.004 0.03,0.012c0.009,0.007 0.02,0.016 0.032,0.026c0.012,0.011 0.027,0.02 0.044,0.027c0.017,0.008 0.039,0.012 0.064,0.012c0.02,0 0.038,-0.003 0.055,-0.009c0.018,-0.007 0.031,-0.016 0.041,-0.029c0.011,-0.013 0.016,-0.029 0.016,-0.049c0,-0.021 -0.006,-0.039 -0.017,-0.054c-0.011,-0.015 -0.027,-0.027 -0.046,-0.038c-0.019,-0.011 -0.04,-0.021 -0.063,-0.031c-0.023,-0.01 -0.045,-0.021 -0.068,-0.032c-0.023,-0.011 -0.044,-0.025 -0.063,-0.041c-0.019,-0.016 -0.035,-0.036 -0.046,-0.059c-0.012,-0.023 -0.018,-0.052 -0.018,-0.086c0,-0.037 0.007,-0.069 0.022,-0.094c0.014,-0.025 0.033,-0.046 0.057,-0.062c0.023,-0.015 0.049,-0.027 0.078,-0.034c0.029,-0.007 0.057,-0.01 0.086,-0.01c0.015,0 0.034,0.001 0.055,0.003c0.021,0.003 0.042,0.007 0.063,0.013c0.021,0.006 0.038,0.014 0.052,0.024c0.013,0.011 0.02,0.024 0.02,0.04c0,0.008 -0.002,0.017 -0.006,0.028c-0.003,0.011 -0.009,0.02 -0.016,0.028c-0.008,0.009 -0.018,0.013 -0.03,0.013c-0.011,0 -0.021,-0.003 -0.031,-0.01c-0.011,-0.006 -0.024,-0.012 -0.04,-0.019c-0.017,-0.006 -0.039,-0.009 -0.067,-0.009c-0.023,0 -0.044,0.003 -0.061,0.009c-0.017,0.007 -0.03,0.015 -0.039,0.026c-0.009,0.011 -0.013,0.025 -0.013,0.042c0,0.017 0.006,0.032 0.018,0.044c0.011,0.012 0.027,0.023 0.046,0.032c0.019,0.009 0.039,0.019 0.062,0.028c0.023,0.009 0.046,0.02 0.069,0.032c0.023,0.013 0.044,0.028 0.063,0.045c0.019,0.017 0.035,0.039 0.046,0.064c0.011,0.026 0.017,0.058 0.017,0.095c0,0.047 -0.01,0.087 -0.031,0.119c-0.021,0.033 -0.049,0.057 -0.084,0.073c-0.036,0.017 -0.077,0.025 -0.123,0.025Z" style="fill:#fff;fill-rule:nonzero;"/></g><g transform="matrix(30,0,0,30,1462.21,264.64)"><path d="M0.233,0c-0.06,0 -0.106,-0.013 -0.138,-0.039c-0.031,-0.026 -0.047,-0.067 -0.047,-0.123l0,-0.485c0,-0.012 0.007,-0.022 0.021,-0.029c0.014,-0.007 0.028,-0.011 0.043,-0.011c0.016,0 0.031,0.004 0.044,0.011c0.014,0.007 0.021,0.017 0.021,0.029l0,0.172l0.118,0c0.011,0 0.019,0.005 0.024,0.014c0.006,0.01 0.009,0.021 0.009,0.033c0,0.012 -0.003,0.023 -0.009,0.032c-0.005,0.01 -0.013,0.015 -0.024,0.015l-0.118,0l0,0.219c0,0.019 0.004,0.033 0.012,0.041c0.009,0.008 0.023,0.012 0.044,0.012l0.039,0c0.019,0 0.032,0.006 0.041,0.017c0.01,0.011 0.014,0.024 0.014,0.037c0,0.014 -0.005,0.027 -0.014,0.038c-0.009,0.011 -0.022,0.017 -0.041,0.017l-0.039,0Z" style="fill:#fff;fill-rule:nonzero;"/></g><g transform="matrix(30,0,0,30,1472.53,264.64)"><path d="M0.263,0.009c-0.04,0 -0.077,-0.01 -0.11,-0.029c-0.033,-0.019 -0.059,-0.043 -0.079,-0.075c-0.019,-0.031 -0.029,-0.064 -0.029,-0.099l0,-0.24c0,-0.01 0.006,-0.019 0.019,-0.028c0.013,-0.009 0.029,-0.013 0.046,-0.013c0.017,0 0.032,0.004 0.045,0.013c0.013,0.009 0.019,0.018 0.019,0.028l0,0.24c0,0.015 0.004,0.03 0.012,0.043c0.008,0.013 0.019,0.024 0.032,0.034c0.013,0.008 0.028,0.013 0.044,0.013c0.017,0 0.031,-0.004 0.044,-0.013c0.014,-0.009 0.024,-0.02 0.032,-0.034c0.008,-0.014 0.012,-0.028 0.012,-0.043l0,-0.241c0,-0.011 0.007,-0.02 0.02,-0.028c0.013,-0.008 0.027,-0.012 0.044,-0.012c0.019,0 0.035,0.004 0.047,0.012c0.012,0.008 0.018,0.017 0.018,0.028l0,0.241c0,0.036 -0.01,0.07 -0.029,0.101c-0.02,0.031 -0.046,0.055 -0.079,0.074c-0.033,0.019 -0.069,0.028 -0.108,0.028Z" style="fill:#fff;fill-rule:nonzero;"/></g><g transform="matrix(30,0,0,30,1488.25,264.64)"><path d="M0.208,0.009c-0.031,0 -0.06,-0.01 -0.087,-0.029c-0.027,-0.019 -0.048,-0.045 -0.064,-0.076c-0.016,-0.031 -0.024,-0.065 -0.024,-0.1l0,-0.082c0,-0.037 0.008,-0.071 0.024,-0.102c0.016,-0.031 0.037,-0.055 0.064,-0.074c0.027,-0.018 0.056,-0.027 0.089,-0.027c0.031,0 0.058,0.008 0.08,0.024c0.022,0.015 0.038,0.033 0.049,0.052l0,-0.307c0,-0.012 0.006,-0.022 0.019,-0.029c0.013,-0.007 0.028,-0.011 0.047,-0.011c0.018,0 0.033,0.004 0.045,0.011c0.012,0.007 0.018,0.017 0.018,0.029l0,0.671c0,0.01 -0.006,0.019 -0.018,0.028c-0.012,0.009 -0.027,0.013 -0.045,0.013c-0.016,0 -0.03,-0.004 -0.041,-0.013c-0.011,-0.009 -0.017,-0.018 -0.017,-0.028l0,-0.029c-0.01,0.021 -0.028,0.039 -0.054,0.055c-0.025,0.016 -0.054,0.024 -0.085,0.024Zm0.041,-0.113c0.017,0 0.033,-0.005 0.046,-0.015c0.013,-0.009 0.024,-0.02 0.032,-0.032c0.008,-0.011 0.012,-0.02 0.012,-0.027l0,-0.1c0,-0.019 -0.005,-0.035 -0.014,-0.048c-0.009,-0.013 -0.02,-0.024 -0.034,-0.031c-0.013,-0.007 -0.027,-0.011 -0.041,-0.011c-0.016,0 -0.031,0.004 -0.045,0.013c-0.013,0.009 -0.024,0.021 -0.032,0.034c-0.007,0.013 -0.011,0.028 -0.011,0.043l0,0.082c0,0.015 0.004,0.03 0.011,0.044c0.008,0.014 0.019,0.025 0.032,0.034c0.013,0.009 0.028,0.014 0.044,0.014Z" style="fill:#fff;fill-rule:nonzero;"/></g><g transform="matrix(30,0,0,30,1503.82,264.64)"><path d="M0.114,0c-0.019,0 -0.034,-0.004 -0.046,-0.013c-0.012,-0.009 -0.018,-0.018 -0.018,-0.028l0,-0.394c0,-0.012 0.006,-0.022 0.018,-0.029c0.012,-0.007 0.027,-0.011 0.046,-0.011c0.018,0 0.033,0.004 0.046,0.011c0.013,0.007 0.019,0.017 0.019,0.029l0,0.394c0,0.01 -0.006,0.019 -0.019,0.028c-0.013,0.009 -0.028,0.013 -0.046,0.013Zm0,-0.581c-0.019,0 -0.036,-0.007 -0.05,-0.02c-0.014,-0.013 -0.021,-0.027 -0.021,-0.043c0,-0.017 0.007,-0.032 0.021,-0.044c0.014,-0.013 0.031,-0.019 0.05,-0.019c0.019,0 0.036,0.006 0.05,0.019c0.013,0.012 0.02,0.027 0.02,0.044c0,0.016 -0.007,0.03 -0.02,0.043c-0.014,0.013 -0.031,0.02 -0.05,0.02Z" style="fill:#fff;fill-rule:nonzero;"/></g><g transform="matrix(30,0,0,30,1510.66,264.64)"><path d="M0.248,0.009c-0.039,0 -0.074,-0.01 -0.107,-0.029c-0.033,-0.019 -0.059,-0.044 -0.079,-0.075c-0.02,-0.031 -0.03,-0.065 -0.03,-0.101l0,-0.082c0,-0.036 0.01,-0.069 0.029,-0.1c0.019,-0.031 0.045,-0.056 0.079,-0.075c0.032,-0.019 0.069,-0.028 0.108,-0.028c0.039,0 0.076,0.009 0.108,0.028c0.034,0.018 0.06,0.042 0.08,0.073c0.019,0.031 0.029,0.065 0.029,0.102l0,0.082c0,0.035 -0.01,0.069 -0.03,0.1c-0.02,0.031 -0.047,0.057 -0.08,0.076c-0.033,0.019 -0.068,0.029 -0.107,0.029Zm0,-0.113c0.016,0 0.031,-0.004 0.044,-0.013c0.013,-0.009 0.024,-0.02 0.032,-0.034c0.008,-0.015 0.012,-0.03 0.012,-0.045l0,-0.082c0,-0.015 -0.004,-0.03 -0.012,-0.043c-0.008,-0.013 -0.019,-0.024 -0.032,-0.033c-0.013,-0.01 -0.027,-0.014 -0.044,-0.014c-0.016,0 -0.031,0.004 -0.044,0.013c-0.013,0.009 -0.024,0.02 -0.032,0.033c-0.007,0.014 -0.011,0.029 -0.011,0.044l0,0.082c0,0.015 0.004,0.03 0.011,0.044c0.008,0.015 0.019,0.026 0.032,0.035c0.013,0.009 0.028,0.013 0.044,0.013Z" style="fill:#fff;fill-rule:nonzero;"/></g><g transform="matrix(290,0,0,290,1104.13,566.64)"><path d="M0.117,0c-0.017,0 -0.031,-0.004 -0.042,-0.012c-0.01,-0.008 -0.015,-0.017 -0.015,-0.028l0,-0.651c0,-0.011 0.005,-0.02 0.015,-0.028c0.011,-0.008 0.025,-0.012 0.042,-0.012l0.177,0c0.045,0 0.085,0.008 0.12,0.023c0.035,0.015 0.063,0.039 0.084,0.073c0.021,0.033 0.032,0.078 0.032,0.133l0,0.273c0,0.055 -0.011,0.1 -0.032,0.134c-0.021,0.033 -0.049,0.058 -0.084,0.073c-0.035,0.015 -0.075,0.022 -0.12,0.022l-0.177,0Zm0.073,-0.114l0.104,0c0.033,0 0.059,-0.009 0.078,-0.028c0.019,-0.019 0.028,-0.048 0.028,-0.087l0,-0.273c0,-0.039 -0.009,-0.067 -0.028,-0.086c-0.019,-0.019 -0.044,-0.029 -0.077,-0.029l-0.105,0l0,0.503Z" style="fill:#fff;fill-rule:nonzero;"/></g><g transform="matrix(290,0,0,290,1272.63,566.64)"><path d="M0.125,0c-0.016,0 -0.031,-0.004 -0.045,-0.011c-0.013,-0.007 -0.02,-0.017 -0.02,-0.03l0,-0.625c0,-0.024 0.007,-0.041 0.021,-0.05c0.013,-0.01 0.028,-0.015 0.044,-0.015c0.016,0 0.029,0.002 0.041,0.005c0.01,0.003 0.021,0.01 0.031,0.02c0.009,0.01 0.019,0.025 0.03,0.044l0.122,0.224l0.123,-0.224c0.012,-0.019 0.023,-0.034 0.031,-0.044c0.009,-0.01 0.02,-0.017 0.031,-0.02c0.011,-0.003 0.025,-0.005 0.04,-0.005c0.017,0 0.032,0.005 0.045,0.015c0.013,0.009 0.02,0.026 0.02,0.05l0,0.625c0,0.013 -0.007,0.024 -0.021,0.031c-0.013,0.007 -0.028,0.01 -0.044,0.01c-0.016,0 -0.031,-0.003 -0.045,-0.01c-0.013,-0.007 -0.02,-0.018 -0.02,-0.031l0,-0.43l-0.116,0.208c-0.006,0.009 -0.013,0.016 -0.021,0.02c-0.008,0.004 -0.016,0.006 -0.024,0.006c-0.007,0 -0.015,-0.002 -0.022,-0.005c-0.008,-0.004 -0.015,-0.011 -0.021,-0.021l-0.115,-0.216l0,0.438c0,0.013 -0.007,0.023 -0.02,0.03c-0.013,0.007 -0.028,0.011 -0.045,0.011Z" style="fill:#fff;fill-rule:nonzero;"/></g><g transform="matrix(290,0,0,290,1475.34,566.64)"><path d="M0.117,0c-0.014,0 -0.027,-0.004 -0.039,-0.011c-0.012,-0.007 -0.018,-0.017 -0.018,-0.03l0,-0.65c0,-0.014 0.007,-0.024 0.02,-0.03c0.014,-0.007 0.029,-0.01 0.045,-0.01c0.017,0 0.032,0.003 0.045,0.01c0.013,0.006 0.02,0.016 0.02,0.03l0,0.577l0.245,0c0.013,0 0.022,0.006 0.029,0.018c0.006,0.011 0.009,0.024 0.009,0.039c0,0.014 -0.003,0.027 -0.009,0.039c-0.007,0.012 -0.016,0.018 -0.029,0.018l-0.318,0Z" style="fill:#fff;fill-rule:nonzero;"/></g><g transform="matrix(290,0,0,290,1615.4,566.64)"><path d="M0.091,0c-0.012,0 -0.024,-0.002 -0.037,-0.007c-0.013,-0.005 -0.023,-0.011 -0.032,-0.019c-0.009,-0.008 -0.013,-0.017 -0.013,-0.028c0,-0.002 0,-0.005 0.001,-0.01l0.193,-0.629c0.005,-0.015 0.015,-0.026 0.031,-0.033c0.017,-0.007 0.034,-0.011 0.053,-0.011c0.019,0 0.037,0.004 0.053,0.011c0.016,0.007 0.026,0.018 0.031,0.033l0.193,0.629c0.001,0.005 0.002,0.008 0.002,0.01c0,0.01 -0.005,0.019 -0.014,0.028c-0.009,0.008 -0.019,0.014 -0.032,0.019c-0.013,0.005 -0.025,0.007 -0.037,0.007c-0.011,0 -0.02,-0.002 -0.028,-0.005c-0.007,-0.004 -0.012,-0.011 -0.015,-0.021l-0.038,-0.133l-0.23,0l-0.037,0.133c-0.003,0.01 -0.008,0.017 -0.016,0.021c-0.008,0.003 -0.017,0.005 -0.028,0.005Zm0.109,-0.261l0.174,0l-0.087,-0.307l-0.087,0.307Z" style="fill:#fff;fill-rule:nonzero;"/></g></g></svg>