<?xml version="1.0" encoding="UTF-8" standalone="no"?><!DOCTYPE svg PUBLIC "-//W3C//DTD SVG 1.1//EN" "http://www.w3.org/Graphics/SVG/1.1/DTD/svg11.dtd"><svg width="100%" height="100%" viewBox="0 0 800 800" version="1.1" xmlns="http://www.w3.org/2000/svg" xmlns:xlink="http://www.w3.org/1999/xlink" xml:space="preserve" xmlns:serif="http://www.serif.com/" style="fill-rule:evenodd;clip-rule:evenodd;stroke-linejoin:round;stroke-miterlimit:2;"><rect id="Artboard1" x="0" y="0" width="800" height="800" style="fill:none;"/><g><path d="M249.483,334.844c-5.303,0 -9.86,-0.808 -13.672,-2.424c-3.812,-1.615 -6.733,-3.48 -8.763,-5.593c-2.03,-2.113 -3.045,-3.915 -3.045,-5.407c0,-0.663 0.186,-1.367 0.559,-2.113c0.373,-0.746 0.849,-1.346 1.429,-1.802c0.58,-0.456 1.16,-0.684 1.741,-0.684c0.828,0 1.678,0.518 2.548,1.554c0.87,1.036 2.03,2.237 3.48,3.605c1.45,1.367 3.377,2.568 5.78,3.604c2.403,1.036 5.552,1.554 9.446,1.554c3.895,0 7.23,-0.642 10.006,-1.927c2.776,-1.284 4.889,-3.19 6.339,-5.717c1.45,-2.528 2.175,-5.697 2.175,-9.509c0,-3.978 -0.745,-7.189 -2.237,-9.633c-1.491,-2.445 -3.459,-4.433 -5.904,-5.966c-2.444,-1.533 -5.117,-2.859 -8.017,-3.978c-2.9,-1.118 -5.821,-2.237 -8.763,-3.356c-2.942,-1.118 -5.635,-2.527 -8.079,-4.226c-2.445,-1.699 -4.434,-3.936 -5.967,-6.712c-1.533,-2.776 -2.299,-6.318 -2.299,-10.627c0,-4.558 0.829,-8.287 2.486,-11.187c1.657,-2.9 3.791,-5.179 6.401,-6.836c2.61,-1.658 5.449,-2.838 8.515,-3.543c3.065,-0.704 6.049,-1.056 8.949,-1.056c2.32,0 4.702,0.186 7.147,0.559c2.444,0.373 4.702,0.891 6.774,1.554c2.072,0.663 3.75,1.45 5.034,2.361c1.285,0.912 1.927,1.948 1.927,3.108c0,0.58 -0.145,1.222 -0.435,1.926c-0.29,0.705 -0.684,1.326 -1.181,1.865c-0.497,0.538 -1.16,0.808 -1.989,0.808c-0.746,0 -1.781,-0.394 -3.107,-1.181c-1.326,-0.787 -3.128,-1.574 -5.407,-2.362c-2.279,-0.787 -5.241,-1.18 -8.887,-1.18c-2.984,0 -5.863,0.435 -8.639,1.305c-2.776,0.87 -5.034,2.341 -6.774,4.412c-1.74,2.072 -2.61,4.972 -2.61,8.701c0,3.315 0.766,5.987 2.299,8.017c1.533,2.03 3.522,3.667 5.966,4.91c2.445,1.243 5.117,2.382 8.017,3.418c2.901,1.036 5.822,2.196 8.763,3.48c2.942,1.285 5.635,2.901 8.08,4.848c2.444,1.947 4.412,4.495 5.904,7.644c1.491,3.149 2.237,7.209 2.237,12.181c0,5.884 -1.119,10.71 -3.356,14.481c-2.237,3.77 -5.324,6.567 -9.26,8.39c-3.936,1.823 -8.473,2.734 -13.611,2.734Z" style="fill:#8a8c8e;fill-rule:nonzero;"/><path d="M308.152,333.974c-6.381,0 -11.27,-1.45 -14.668,-4.35c-3.397,-2.9 -5.096,-7.541 -5.096,-13.921l0,-65.505c0,-0.911 0.435,-1.636 1.305,-2.175c0.871,-0.539 1.761,-0.808 2.673,-0.808c1.077,0 2.03,0.269 2.859,0.808c0.828,0.539 1.243,1.264 1.243,2.175l0,24.984l16.158,0c0.829,0 1.492,0.331 1.989,0.994c0.497,0.663 0.746,1.45 0.746,2.362c0,0.911 -0.249,1.699 -0.746,2.362c-0.497,0.662 -1.16,0.994 -1.989,0.994l-16.158,0l0,33.809c0,4.06 0.87,6.898 2.61,8.514c1.74,1.616 4.765,2.424 9.074,2.424l3.48,0c1.16,0 2.051,0.352 2.672,1.056c0.622,0.705 0.932,1.554 0.932,2.548c0,0.995 -0.31,1.865 -0.932,2.611c-0.621,0.745 -1.512,1.118 -2.672,1.118l-3.48,0Z" style="fill:#8a8c8e;fill-rule:nonzero;"/><path d="M348.548,334.844c-4.392,0 -8.369,-1.077 -11.933,-3.231c-3.563,-2.155 -6.422,-5.034 -8.576,-8.639c-2.154,-3.605 -3.232,-7.437 -3.232,-11.498l0,-33.187c0,-0.746 0.415,-1.45 1.243,-2.113c0.829,-0.663 1.782,-0.994 2.859,-0.994c1.077,0 2.01,0.331 2.797,0.994c0.787,0.663 1.181,1.367 1.181,2.113l0,33.187c0,2.735 0.704,5.304 2.113,7.707c1.408,2.403 3.273,4.371 5.593,5.904c2.32,1.533 4.93,2.299 7.831,2.299c2.983,0 5.634,-0.745 7.955,-2.237c2.32,-1.491 4.164,-3.459 5.531,-5.904c1.367,-2.444 2.051,-5.034 2.051,-7.769l0,-33.311c0,-0.829 0.414,-1.533 1.243,-2.113c0.828,-0.58 1.781,-0.87 2.859,-0.87c1.243,0 2.216,0.29 2.921,0.87c0.704,0.58 1.056,1.284 1.056,2.113l0,33.311c0,4.227 -1.056,8.1 -3.17,11.622c-2.113,3.522 -4.971,6.36 -8.576,8.515c-3.605,2.154 -7.52,3.231 -11.746,3.231Z" style="fill:#8a8c8e;fill-rule:nonzero;"/><path d="M406.843,334.844c-3.895,0 -7.541,-1.098 -10.938,-3.294c-3.397,-2.195 -6.091,-5.116 -8.079,-8.763c-1.989,-3.646 -2.983,-7.499 -2.983,-11.559l0,-13.548c0,-4.309 0.994,-8.204 2.983,-11.684c1.988,-3.481 4.682,-6.277 8.079,-8.39c3.397,-2.113 7.126,-3.17 11.187,-3.17c4.06,0 7.478,0.974 10.254,2.921c2.776,1.947 4.827,4.123 6.153,6.526l0,-41.764c0,-0.912 0.414,-1.637 1.243,-2.175c0.828,-0.539 1.781,-0.808 2.859,-0.808c1.243,0 2.216,0.269 2.921,0.808c0.704,0.538 1.056,1.263 1.056,2.175l0,88.623c0,0.829 -0.352,1.575 -1.056,2.238c-0.705,0.663 -1.678,0.994 -2.921,0.994c-0.995,0 -1.865,-0.331 -2.611,-0.994c-0.745,-0.663 -1.118,-1.409 -1.118,-2.238l0,-5.469c-1.326,2.569 -3.543,4.807 -6.65,6.712c-3.108,1.906 -6.567,2.859 -10.379,2.859Zm1.367,-7.458c2.983,0 5.614,-0.766 7.893,-2.299c2.279,-1.533 4.081,-3.273 5.407,-5.22c1.326,-1.948 1.989,-3.543 1.989,-4.786l0,-17.401c0,-3.315 -0.746,-6.132 -2.237,-8.453c-1.492,-2.32 -3.398,-4.122 -5.718,-5.407c-2.32,-1.284 -4.723,-1.926 -7.209,-1.926c-2.818,0 -5.387,0.766 -7.707,2.299c-2.32,1.533 -4.184,3.501 -5.593,5.904c-1.409,2.404 -2.113,4.931 -2.113,7.583l0,13.548c0,2.734 0.704,5.345 2.113,7.831c1.409,2.486 3.273,4.495 5.593,6.028c2.32,1.533 4.848,2.299 7.582,2.299Z" style="fill:#8a8c8e;fill-rule:nonzero;"/><path d="M451.093,333.974c-1.077,0 -2.01,-0.331 -2.797,-0.994c-0.787,-0.663 -1.181,-1.409 -1.181,-2.238l0,-52.577c0,-0.912 0.394,-1.637 1.181,-2.175c0.787,-0.539 1.72,-0.808 2.797,-0.808c1.16,0 2.134,0.269 2.921,0.808c0.787,0.538 1.181,1.263 1.181,2.175l0,52.577c0,0.829 -0.394,1.575 -1.181,2.238c-0.787,0.663 -1.761,0.994 -2.921,0.994Zm0,-76.194c-1.492,0 -2.776,-0.518 -3.853,-1.553c-1.078,-1.036 -1.616,-2.258 -1.616,-3.667c0,-1.409 0.538,-2.61 1.616,-3.605c1.077,-0.994 2.361,-1.491 3.853,-1.491c1.574,0 2.879,0.497 3.915,1.491c1.036,0.995 1.554,2.196 1.554,3.605c0,1.409 -0.518,2.631 -1.554,3.667c-1.036,1.035 -2.341,1.553 -3.915,1.553Z" style="fill:#8a8c8e;fill-rule:nonzero;"/><path d="M491.986,334.844c-4.226,0 -8.12,-1.098 -11.684,-3.294c-3.563,-2.195 -6.442,-5.096 -8.638,-8.7c-2.196,-3.605 -3.294,-7.479 -3.294,-11.622l0,-13.548c0,-4.144 1.077,-7.976 3.232,-11.498c2.154,-3.522 5.013,-6.36 8.576,-8.514c3.563,-2.155 7.499,-3.232 11.808,-3.232c4.226,0 8.142,1.057 11.746,3.17c3.605,2.113 6.485,4.909 8.639,8.39c2.155,3.48 3.232,7.375 3.232,11.684l0,13.548c0,4.06 -1.077,7.913 -3.232,11.559c-2.154,3.647 -5.034,6.568 -8.639,8.763c-3.604,2.196 -7.52,3.294 -11.746,3.294Zm0,-7.458c2.901,0 5.511,-0.766 7.831,-2.299c2.32,-1.533 4.185,-3.542 5.593,-6.028c1.409,-2.486 2.113,-5.097 2.113,-7.831l0,-13.548c0,-2.652 -0.683,-5.179 -2.05,-7.583c-1.368,-2.403 -3.232,-4.371 -5.594,-5.904c-2.361,-1.533 -4.992,-2.299 -7.893,-2.299c-2.9,0 -5.51,0.766 -7.83,2.299c-2.321,1.533 -4.185,3.501 -5.594,5.904c-1.408,2.404 -2.113,4.931 -2.113,7.583l0,13.548c0,2.734 0.705,5.345 2.113,7.831c1.409,2.486 3.294,4.495 5.656,6.028c2.361,1.533 4.951,2.299 7.768,2.299Z" style="fill:#8a8c8e;fill-rule:nonzero;"/><path d="M37.913,609.595c-3.908,0 -7.07,-0.977 -9.484,-2.932c-2.414,-1.954 -3.621,-4.311 -3.621,-7.07l0,-232.106c0,-2.759 1.207,-5.116 3.621,-7.07c2.414,-1.954 5.576,-2.932 9.484,-2.932l61.044,0c14.026,0 26.671,2.472 37.938,7.415c11.266,4.944 20.175,12.876 26.728,23.797c6.553,10.922 9.829,25.579 9.829,43.973l0,101.74c0,18.394 -3.276,33.052 -9.829,43.973c-6.553,10.921 -15.462,18.854 -26.728,23.797c-11.267,4.943 -23.912,7.415 -37.938,7.415l-61.044,0Zm15.865,-26.211l45.179,0c14.256,0 25.407,-3.966 33.454,-11.899c8.047,-7.932 12.071,-20.29 12.071,-37.075l0,-101.74c0,-16.784 -4.024,-29.143 -12.071,-37.075c-8.047,-7.932 -19.198,-11.898 -33.454,-11.898l-45.179,0l0,199.687Z" style="fill:#232f32;fill-rule:nonzero;"/><path d="M234.496,609.595c-3.448,0 -6.725,-0.862 -9.829,-2.587c-3.104,-1.724 -4.656,-4.311 -4.656,-7.76l0,-227.622c0,-5.289 1.552,-8.967 4.656,-11.037c3.104,-2.069 6.381,-3.104 9.829,-3.104c3.679,0 6.841,0.69 9.485,2.07c2.644,1.379 5.058,3.391 7.242,6.035c2.185,2.644 4.311,6.036 6.381,10.174l54.491,103.81l54.492,-103.81c2.299,-4.138 4.541,-7.53 6.725,-10.174c2.184,-2.644 4.598,-4.656 7.242,-6.035c2.645,-1.38 5.691,-2.07 9.14,-2.07c3.909,0 7.3,1.035 10.174,3.104c2.874,2.07 4.311,5.748 4.311,11.037l0,227.622c0,3.449 -1.495,6.036 -4.484,7.76c-2.989,1.725 -6.322,2.587 -10.001,2.587c-3.679,0 -7.013,-0.862 -10.002,-2.587c-2.989,-1.724 -4.483,-4.311 -4.483,-7.76l0,-181.063l-52.422,97.947c-1.61,2.759 -3.334,4.77 -5.174,6.035c-1.839,1.265 -3.793,1.897 -5.863,1.897c-1.609,0 -3.391,-0.575 -5.345,-1.725c-1.955,-1.149 -3.737,-3.218 -5.346,-6.207l-52.077,-99.327l0,182.443c0,3.449 -1.495,6.036 -4.484,7.76c-2.989,1.725 -6.323,2.587 -10.002,2.587Z" style="fill:#232f32;fill-rule:nonzero;"/><path d="M466.603,609.595c-3.219,0 -6.208,-0.862 -8.967,-2.587c-2.759,-1.724 -4.139,-4.311 -4.139,-7.76l0,-231.761c0,-3.449 1.552,-5.978 4.656,-7.587c3.104,-1.61 6.38,-2.415 9.829,-2.415c3.679,0 7.013,0.805 10.002,2.415c2.989,1.609 4.483,4.138 4.483,7.587l0,215.897l94.498,0c3.219,0 5.576,1.322 7.07,3.966c1.495,2.644 2.242,5.691 2.242,9.139c0,3.219 -0.747,6.208 -2.242,8.967c-1.494,2.759 -3.851,4.139 -7.07,4.139l-110.362,0Z" style="fill:#232f32;fill-rule:nonzero;"/><path d="M613.523,609.595c-2.299,0 -4.886,-0.517 -7.76,-1.552c-2.874,-1.035 -5.173,-2.472 -6.898,-4.311c-1.724,-1.84 -2.586,-3.909 -2.586,-6.208c0,-0.92 0.115,-1.839 0.345,-2.759l70.701,-229.347c0.919,-3.449 3.104,-5.978 6.552,-7.588c3.449,-1.609 7.128,-2.414 11.037,-2.414c4.138,0 7.932,0.862 11.381,2.587c3.449,1.724 5.633,4.196 6.553,7.415l70.356,229.347c0.46,0.92 0.689,1.724 0.689,2.414c0,2.299 -0.977,4.369 -2.931,6.208c-1.954,1.839 -4.311,3.334 -7.07,4.483c-2.759,1.15 -5.403,1.725 -7.932,1.725c-2.53,0 -4.714,-0.517 -6.553,-1.552c-1.84,-1.035 -3.104,-2.702 -3.794,-5.001l-15.52,-51.387l-90.704,0l-14.83,51.387c-0.69,2.299 -2.012,3.966 -3.966,5.001c-1.954,1.035 -4.311,1.552 -7.07,1.552Zm32.764,-81.737l77.254,0l-38.627,-129.676l-38.627,129.676Z" style="fill:#232f32;fill-rule:nonzero;"/><rect x="25.655" y="304.241" width="156.634" height="26.575" style="fill:#005f68;"/><rect x="557.316" y="303.88" width="217.029" height="26.575" style="fill:#005f68;"/></g></svg>