<?xml version="1.0" encoding="UTF-8" standalone="no"?><!DOCTYPE svg PUBLIC "-//W3C//DTD SVG 1.1//EN" "http://www.w3.org/Graphics/SVG/1.1/DTD/svg11.dtd"><svg width="100%" height="100%" viewBox="0 0 61 39" version="1.1" xmlns="http://www.w3.org/2000/svg" xmlns:xlink="http://www.w3.org/1999/xlink" xml:space="preserve" xmlns:serif="http://www.serif.com/" style="fill-rule:evenodd;clip-rule:evenodd;stroke-linejoin:round;stroke-miterlimit:2;"><g><path d="M21.76,37.67l-21.76,0l0,-37.627c0,0 16.202,-0.097 21.307,0c1.034,0.02 9.249,1.067 9.066,10.654c-0.115,6.035 -5.44,6.573 -5.44,6.573c0,0 7.053,-0.041 6.8,9.747c-0.257,9.97 -9.973,10.653 -9.973,10.653Zm-12.92,-16.547l0,9.974l11.333,0c1.925,0 3.4,-3.098 3.4,-4.76c0,-1.663 -1.343,-5.217 -3.4,-5.214c-2.64,0.005 -11.333,0 -11.333,0Zm10.73,-14.28l-10.73,0l0,8.16l10.956,0c1.782,0 2.509,-2.83 2.509,-4.19c0,-1.36 -0.784,-3.97 -2.735,-3.97Z" style="fill:#fff;"/><path d="M60.747,28.603c0,0 0.568,9.982 -12.467,9.974c-8.925,-0.006 -14.705,-3.551 -15.187,-13.827c-0.343,-7.323 4.002,-15.112 14.507,-15.187c15.267,-0.108 13.147,16.547 13.147,16.547l-19.494,0c0,0 -0.342,6.694 6.8,6.573c5.968,-0.101 5.894,-4.08 5.894,-4.08l6.8,0Zm-19.494,-7.48l12.467,0c0,0 -0.19,-5.785 -6.12,-5.893c-5.704,-0.104 -6.347,5.893 -6.347,5.893Z" style="fill:#fff;"/><rect x="39.44" y="2.31" width="15.64" height="4.533" style="fill:#fff;"/></g></svg>