<?xml version="1.0" encoding="UTF-8" standalone="no"?><!DOCTYPE svg PUBLIC "-//W3C//DTD SVG 1.1//EN" "http://www.w3.org/Graphics/SVG/1.1/DTD/svg11.dtd"><svg width="100%" height="100%" viewBox="0 0 1194 834" version="1.1" xmlns="http://www.w3.org/2000/svg" xmlns:xlink="http://www.w3.org/1999/xlink" xml:space="preserve" xmlns:serif="http://www.serif.com/" style="fill-rule:evenodd;clip-rule:evenodd;stroke-linecap:round;stroke-linejoin:bevel;stroke-miterlimit:1.5;"><rect id="iPad-11-" serif:id="iPad 11&quot;" x="0" y="0" width="1194" height="834" style="fill:#262626;"/><clipPath id="_clip1"><rect x="0" y="0" width="1194" height="834"/></clipPath><g clip-path="url(#_clip1)"><g><text x="145.112px" y="93.34px" style="font-family:'HelveticaNeueLTCom-Roman', 'Helvetica Neue LT Com', sans-serif;font-size:37.3px;fill:#8a8c8e;">Studio</text><text x="74.888px" y="169.185px" style="font-family:'HelveticaNeueLTCom-Roman', 'Helvetica Neue LT Com', sans-serif;font-size:91.506px;fill:#f2f2f2;">DMLA</text><rect x="81.672" y="85.1" width="53.208" height="9.027" style="fill:#3e98a6;"/><rect x="262.275" y="84.978" width="73.723" height="9.027" style="fill:#3e98a6;"/></g><g><path d="M59.872,418.957l-83.396,-83.396l-83.396,83.396l83.396,83.396l83.396,-83.396Z" style="fill:#fff;fill-opacity:0.24;"/><path d="M309.307,668.392l-83.396,-83.396l-83.396,83.396l83.396,83.396l83.396,-83.396Z" style="fill:#fff;fill-opacity:0.24;"/><path d="M558.743,917.828l-83.396,-83.396l-83.396,83.396l83.396,83.396l83.396,-83.396Z" style="fill:#fff;fill-opacity:0.24;"/><path d="M143.289,170.252l-83.396,-83.396l-83.396,83.396l83.396,83.396l83.396,-83.396Z" style="fill:#fff;fill-opacity:0.24;"/><path d="M144.077,668.336l-83.396,-83.396l-83.396,83.396l83.396,83.396l83.396,-83.396Z" style="fill:#fff;fill-opacity:0.24;"/><path d="M393.513,917.771l-83.396,-83.396l-83.397,83.396l83.397,83.396l83.396,-83.396Z" style="fill:#fff;fill-opacity:0.24;"/><path d="M475.077,669.415l-83.396,-83.396l-83.396,83.396l83.396,83.396l83.396,-83.396Z" style="fill:#fff;fill-opacity:0.24;"/><path d="M143.324,834.375l-83.396,-83.396l-83.396,83.396l83.396,83.396l83.396,-83.396Z" style="fill:#fff;fill-opacity:0.24;"/><path d="M310.232,168.596l-83.396,-83.396l-83.396,83.396l83.396,83.396l83.396,-83.396Z" style="fill:#fff;fill-opacity:0.24;"/><path d="M60.681,584.94l-83.396,-83.396l-83.396,83.396l83.396,83.396l83.396,-83.396Z" style="fill:#fff;fill-opacity:0.24;"/><path d="M142.245,336.583l-83.396,-83.396l-83.396,83.396l83.396,83.396l83.396,-83.396Z" style="fill:#fff;fill-opacity:0.24;"/><path d="M60.684,751.729l-83.396,-83.396l-83.396,83.396l83.396,83.396l83.396,-83.396Z" style="fill:#fff;fill-opacity:0.24;"/><path d="M477.027,335.386l-83.396,-83.397l-83.396,83.397l83.396,83.396l83.396,-83.396Z" style="fill:#fff;fill-opacity:0.24;"/><path d="M726.463,584.821l-83.396,-83.396l-83.396,83.396l83.396,83.396l83.396,-83.396Z" style="fill:#fff;fill-opacity:0.24;"/><path d="M226.664,585.749l-83.396,-83.396l-83.396,83.396l83.396,83.396l83.396,-83.396Z" style="fill:#fff;fill-opacity:0.24;"/><path d="M59.893,86.856l-83.396,-83.396l-83.396,83.396l83.396,83.396l83.396,-83.396Z" style="fill:#fff;fill-opacity:0.24;"/><path d="M309.329,336.292l-83.396,-83.396l-83.396,83.396l83.396,83.396l83.396,-83.396Z" style="fill:#fff;fill-opacity:0.24;"/><path d="M226.723,917.768l-83.396,-83.396l-83.396,83.396l83.396,83.396l83.396,-83.396Z" style="fill:#fff;fill-opacity:0.24;"/><path d="M144.196,2.554l-83.396,-83.396l-83.396,83.396l83.396,83.396l83.396,-83.396Z" style="fill:#fff;fill-opacity:0.24;"/><path d="M143.268,502.353l-83.396,-83.396l-83.396,83.396l83.396,83.396l83.396,-83.396Z" style="fill:#fff;fill-opacity:0.24;"/><path d="M392.703,751.788l-83.396,-83.396l-83.396,83.396l83.396,83.396l83.396,-83.396Z" style="fill:#fff;fill-opacity:0.24;"/><path d="M225.933,252.896l-83.396,-83.396l-83.396,83.396l83.396,83.396l83.396,-83.396Z" style="fill:#fff;fill-opacity:0.24;"/><path d="M475.368,502.331l-83.396,-83.396l-83.396,83.396l83.396,83.396l83.396,-83.396Z" style="fill:#fff;fill-opacity:0.24;"/><path d="M724.804,751.767l-83.396,-83.396l-83.396,83.396l83.396,83.396l83.396,-83.396Z" style="fill:#fff;fill-opacity:0.24;"/><path d="M975.955,667.407l-83.396,-83.396l-83.396,83.396l83.396,83.396l83.396,-83.396Z" style="fill:#fff;fill-opacity:0.24;"/><path d="M226.72,750.979l-83.396,-83.396l-83.396,83.396l83.396,83.396l83.396,-83.396Z" style="fill:#fff;fill-opacity:0.24;"/><path d="M59.602,253.94l-83.396,-83.396l-83.396,83.396l83.396,83.396l83.396,-83.396Z" style="fill:#fff;fill-opacity:0.24;"/><path d="M309.037,503.375l-83.396,-83.396l-83.396,83.396l83.396,83.396l83.396,-83.396Z" style="fill:#fff;fill-opacity:0.24;"/></g><g transform="matrix(0.24,0,0,0.24,-3139.69,-797.496)"><text x="14159.3px" y="5430.4px" style="font-family:'HelveticaNeueLTCom-Md', 'Helvetica Neue LT Com', sans-serif;font-weight:500;font-size:266.667px;fill:#fff;">Robert Leeuwerink</text><text x="14491.4px" y="5720.4px" style="font-family:'HelveticaNeueLTCom-MdCn', 'Helvetica Neue LT Com', sans-serif;font-weight:500;font-size:200px;fill:#d6cdcb;">Designer &amp; Developer</text></g><circle cx="109.496" cy="769.53" r="23.28" style="fill:#b6b1b0;"/><path d="M132.381,773.289c-1.676,10.126 -9.896,18.054 -20.163,19.289l-9.529,-9.529l13.21,-26.241l16.482,16.481Z" style="fill:#676567;"/><path d="M116.462,757.985c0,-0.845 -0.687,-1.532 -1.533,-1.532l-10.866,0c-0.846,0 -1.532,0.687 -1.532,1.532l0,24.296c0,0.845 0.686,1.532 1.532,1.532l10.866,0c0.846,0 1.533,-0.687 1.533,-1.532l0,-24.296Z" style="fill:#fff;"/><path d="M111.597,757.538c0,-0.008 -0.007,-0.014 -0.015,-0.014l-4.172,0c-0.008,0 -0.014,0.006 -0.014,0.014l0,0.264c0,0.008 0.006,0.015 0.014,0.015l4.172,0c0.008,0 0.015,-0.007 0.015,-0.015l0,-0.264Z" style="fill:#676567;"/><circle cx="109.496" cy="781.519" r="1.593" style="fill:#676567;"/><rect x="103.011" y="758.853" width="12.971" height="19.873" style="fill:#676567;"/><circle cx="416.456" cy="769.53" r="23.28" style="fill:#b6b1b0;"/><rect x="404.816" y="765.265" width="23.28" height="13.608" style="fill:#4d4d4f;"/><path d="M428.096,765.292l-23.28,0l11.64,-9.447l11.64,9.447Z" style="fill:#5e5f61;fill-rule:nonzero;"/><path d="M422.818,757.986l-16.205,0l0,16.71l19.681,0l0,-12.658l-3.476,-4.052Z" style="fill:#fff;fill-rule:nonzero;"/><path d="M438.825,775.995c-2.786,9.646 -11.648,16.725 -22.165,16.815l-11.844,-11.844l4.066,-6.077l8.773,0l10.441,-9.623l10.729,10.729Z" style="fill:#4d4d4f;"/><path d="M422.818,757.986l0,4.052l3.476,0l-3.476,-4.052Z" style="fill:#e0e0e0;fill-rule:nonzero;"/><path d="M428.096,765.265l0,15.7l-11.64,-8.371l11.64,-7.329Z" style="fill:#5e5f61;fill-rule:nonzero;"/><path d="M416.456,772.594l-11.64,8.371l0,-15.7l11.64,7.329Z" style="fill:#5e5f61;fill-rule:nonzero;"/><path d="M428.096,780.965l-23.28,0l11.64,-8.371l11.64,8.371Z" style="fill:#666669;fill-rule:nonzero;"/><path d="M416.456,761.082c-2.118,0.013 -3.855,1.897 -3.855,4.183c0,2.295 1.75,4.183 3.877,4.183c0.919,0 1.808,-0.352 2.509,-0.994l-0.506,-0.639c-0.561,0.515 -1.274,0.797 -2.01,0.797c-1.702,0 -3.102,-1.511 -3.102,-3.347c0,-1.837 1.4,-3.348 3.102,-3.348c1.702,0 3.103,1.511 3.103,3.348l0,0.628c0,0.345 -0.263,0.628 -0.582,0.628c-0.32,0 -0.582,-0.283 -0.582,-0.628l0,-2.73l-0.79,0l0,0.431c-0.334,-0.277 -0.743,-0.429 -1.164,-0.431c-0.001,0 -0.002,0 -0.002,0c-1.064,0 -1.939,0.944 -1.939,2.091c0,1.148 0.875,2.092 1.939,2.092c0.528,0 1.034,-0.233 1.399,-0.645c0.252,0.402 0.673,0.643 1.123,0.643c0.669,0 1.243,-0.534 1.342,-1.249l0,-0.83c-0.003,-2.287 -1.742,-4.171 -3.862,-4.183Zm0,5.461c-0.638,0 -1.164,-0.567 -1.164,-1.256c0,-0.689 0.526,-1.256 1.164,-1.256c0.639,0 1.164,0.567 1.164,1.256c-0.011,0.681 -0.533,1.234 -1.164,1.234l0,0.022Z" style="fill:#4d4d4f;fill-rule:nonzero;"/><g><circle cx="844.496" cy="769.53" r="23.28" style="fill:#b6b1b0;"/><path d="M835.594,769.77c0,-7.617 3.814,-13.8 8.51,-13.8c4.697,0 8.51,6.183 8.51,13.8c0,7.616 -3.813,13.8 -8.51,13.8c-4.696,0 -8.51,-6.184 -8.51,-13.8Z" style="fill:none;stroke:#fff;stroke-width:1px;"/><path d="M833.234,778.71c2.633,-1.727 6.769,-2.84 11.414,-2.84c4.315,0 8.188,0.96 10.828,2.479c-2.639,3.181 -6.711,5.221 -11.276,5.221c-4.39,0 -8.324,-1.887 -10.966,-4.86Zm-0.525,-17.254c2.63,-3.332 6.8,-5.486 11.491,-5.486c4.691,0 8.862,2.154 11.491,5.486c-2.629,1.755 -6.8,2.89 -11.491,2.89c-4.691,0 -8.861,-1.135 -11.491,-2.89Z" style="fill:none;stroke:#fff;stroke-width:1px;"/><path d="M829.736,769.77l28.8,0" style="fill:none;stroke:#fff;stroke-width:1px;"/><path d="M844.2,783.57l0,-27.6" style="fill:none;stroke:#fff;stroke-width:1px;"/><rect x="832.709" y="766.089" width="22.982" height="7.44" style="fill:#737373;stroke:#4e4e4e;stroke-width:1px;"/><path d="M846.372,792.81l-13.663,-13.858l5.556,3.39l5.935,1.228l4.794,-0.698l5.889,-4.027c1.068,-1.158 3.502,-5.776 3.413,-9.939c-0.056,-2.644 -3.09,-7.985 -2.82,-7.714l11.998,11.998c-1.662,10.226 -9.756,18.226 -21.102,19.62Z" style="fill:#4d4d4f;"/><g><path d="M840.009,771.71l-0.662,0l-0.773,-3.023l-0.015,0l-0.765,3.023l-0.677,0l-1.221,-3.803l0.692,0l0.861,3.112l0.014,0l0.765,-3.112l0.685,0l0.794,3.112l0.015,0l0.853,-3.112l0.648,0l-1.214,3.803Z" style="fill:#fff;fill-rule:nonzero;"/><path d="M845.586,771.71l-0.663,0l-0.772,-3.023l-0.015,0l-0.765,3.023l-0.677,0l-1.221,-3.803l0.691,0l0.861,3.112l0.015,0l0.765,-3.112l0.684,0l0.795,3.112l0.015,0l0.853,-3.112l0.647,0l-1.213,3.803Z" style="fill:#fff;fill-rule:nonzero;"/><path d="M851.162,771.71l-0.662,0l-0.772,-3.023l-0.015,0l-0.765,3.023l-0.677,0l-1.221,-3.803l0.691,0l0.861,3.112l0.015,0l0.765,-3.112l0.684,0l0.795,3.112l0.014,0l0.854,-3.112l0.647,0l-1.214,3.803Z" style="fill:#fff;fill-rule:nonzero;"/></g><ellipse cx="844.136" cy="769.77" rx="14.4" ry="13.8" style="fill:none;stroke:#fff;stroke-width:1px;"/></g><text x="148.329px" y="777.99px" style="font-family:'HelveticaNeueLTCom-Roman', 'Helvetica Neue LT Com', sans-serif;font-size:30px;fill:#fff;">(604) 880-6542  |</text><text x="453.84px" y="777.99px" style="font-family:'HelveticaNeueLTCom-Roman', 'Helvetica Neue LT Com', sans-serif;font-size:30px;fill:#fff;">rleeuwerink@gmail.com  |</text><text x="882px" y="777.99px" style="font-family:'HelveticaNeueLTCom-Roman', 'Helvetica Neue LT Com', sans-serif;font-size:30px;fill:#fff;">studio-dmla.ca</text><g><g><rect x="851.028" y="102.212" width="60.117" height="60.117" style="fill:none;stroke:#404040;stroke-width:1px;"/><rect x="911.166" y="102.212" width="60.117" height="60.117" style="fill:none;stroke:#404040;stroke-width:1px;"/><rect x="971.506" y="102.212" width="60.117" height="60.117" style="fill:none;stroke:#404040;stroke-width:1px;"/><rect x="851.028" y="162.468" width="60.117" height="60.117" style="fill:none;stroke:#404040;stroke-width:1px;"/><rect x="911.166" y="162.468" width="60.117" height="60.117" style="fill:none;stroke:#404040;stroke-width:1px;"/><rect x="971.506" y="162.468" width="60.117" height="60.117" style="fill:none;stroke:#404040;stroke-width:1px;"/><rect x="851.028" y="222.724" width="60.117" height="60.117" style="fill:none;stroke:#404040;stroke-width:1px;"/><rect x="911.166" y="222.724" width="60.117" height="60.117" style="fill:none;stroke:#404040;stroke-width:1px;"/><rect x="971.506" y="222.724" width="60.117" height="60.117" style="fill:none;stroke:#404040;stroke-width:1px;"/></g><path d="M841.127,100.952c1.463,-0.376 8.78,0 8.78,0c0,0 -0.375,-7.317 0,-8.781c0.187,-0.727 2.065,-0.727 2.252,0c0.375,1.464 0,8.781 0,8.781c0,0 7.316,-0.376 8.78,0c0.727,0.186 0.727,2.065 0,2.251c-1.464,0.375 -8.78,0 -8.78,0c0,0 0.375,7.317 0,8.78c-0.187,0.727 -2.065,0.727 -2.252,0c-0.375,-1.463 0,-8.78 0,-8.78c0,0 -7.317,0.375 -8.78,0c-0.727,-0.186 -0.727,-2.065 0,-2.251Z" style="fill:#8a8c8e;stroke:#404040;stroke-width:1px;"/><path d="M901.355,100.76c1.463,-0.376 8.78,0 8.78,0c0,0 -0.375,-7.317 0,-8.781c0.187,-0.727 2.065,-0.727 2.252,0c0.375,1.464 0,8.781 0,8.781c0,0 7.316,-0.376 8.78,0c0.727,0.186 0.727,2.064 0,2.251c-1.464,0.375 -8.78,0 -8.78,0c0,0 0.375,7.317 0,8.78c-0.187,0.727 -2.065,0.727 -2.252,0c-0.375,-1.463 0,-8.78 0,-8.78c0,0 -7.317,0.375 -8.78,0c-0.727,-0.187 -0.727,-2.065 0,-2.251Z" style="fill:#8a8c8e;stroke:#404040;stroke-width:1px;"/><path d="M961.775,100.856c1.463,-0.376 8.78,0 8.78,0c0,0 -0.375,-7.317 0,-8.781c0.187,-0.727 2.065,-0.727 2.252,0c0.375,1.464 0,8.781 0,8.781c0,0 7.316,-0.376 8.78,0c0.727,0.186 0.727,2.065 0,2.251c-1.464,0.375 -8.78,0 -8.78,0c0,0 0.375,7.317 0,8.78c-0.187,0.727 -2.065,0.727 -2.252,0c-0.375,-1.463 0,-8.78 0,-8.78c0,0 -7.317,0.375 -8.78,0c-0.727,-0.186 -0.727,-2.065 0,-2.251Z" style="fill:#8a8c8e;stroke:#404040;stroke-width:1px;"/><path d="M1021.81,101.144c1.463,-0.375 8.78,0 8.78,0c0,0 -0.375,-7.317 0,-8.78c0.187,-0.727 2.065,-0.727 2.252,0c0.375,1.463 0,8.78 0,8.78c0,0 7.316,-0.375 8.78,0c0.727,0.186 0.727,2.065 0,2.251c-1.464,0.375 -8.78,0 -8.78,0c0,0 0.375,7.317 0,8.78c-0.187,0.727 -2.065,0.727 -2.252,0c-0.375,-1.463 0,-8.78 0,-8.78c0,0 -7.317,0.375 -8.78,0c-0.727,-0.186 -0.727,-2.065 0,-2.251Z" style="fill:#8a8c8e;stroke:#404040;stroke-width:1px;"/><path d="M1022,161.372c1.463,-0.375 8.78,0 8.78,0c0,0 -0.375,-7.317 0,-8.78c0.187,-0.727 2.065,-0.727 2.252,0c0.375,1.463 0,8.78 0,8.78c0,0 7.316,-0.375 8.78,0c0.727,0.186 0.727,2.065 0,2.251c-1.464,0.375 -8.78,0 -8.78,0c0,0 0.375,7.317 0,8.78c-0.187,0.727 -2.065,0.727 -2.252,0c-0.375,-1.463 0,-8.78 0,-8.78c0,0 -7.317,0.375 -8.78,0c-0.727,-0.186 -0.727,-2.065 0,-2.251Z" style="fill:#8a8c8e;stroke:#404040;stroke-width:1px;"/><path d="M961.871,161.276c1.463,-0.376 8.78,0 8.78,0c0,0 -0.375,-7.317 0,-8.781c0.187,-0.726 2.065,-0.726 2.252,0c0.375,1.464 0,8.781 0,8.781c0,0 7.317,-0.376 8.78,0c0.727,0.186 0.727,2.065 0,2.251c-1.463,0.375 -8.78,0 -8.78,0c0,0 0.375,7.317 0,8.78c-0.187,0.727 -2.065,0.727 -2.252,0c-0.375,-1.463 0,-8.78 0,-8.78c0,0 -7.317,0.375 -8.78,0c-0.727,-0.186 -0.727,-2.065 0,-2.251Z" style="fill:#8a8c8e;stroke:#404040;stroke-width:1px;"/><path d="M901.355,161.276c1.463,-0.376 8.78,0 8.78,0c0,0 -0.375,-7.317 0,-8.781c0.187,-0.726 2.065,-0.726 2.251,0c0.376,1.464 0,8.781 0,8.781c0,0 7.317,-0.376 8.781,0c0.727,0.186 0.727,2.065 0,2.251c-1.464,0.375 -8.781,0 -8.781,0c0,0 0.376,7.317 0,8.78c-0.186,0.727 -2.064,0.727 -2.251,0c-0.375,-1.463 0,-8.78 0,-8.78c0,0 -7.317,0.375 -8.78,0c-0.727,-0.186 -0.727,-2.065 0,-2.251Z" style="fill:#8a8c8e;stroke:#404040;stroke-width:1px;"/><path d="M840.935,161.276c1.463,-0.376 8.78,0 8.78,0c0,0 -0.375,-7.317 0,-8.781c0.186,-0.726 2.065,-0.726 2.251,0c0.376,1.464 0,8.781 0,8.781c0,0 7.317,-0.376 8.781,0c0.727,0.186 0.727,2.065 0,2.251c-1.464,0.375 -8.781,0 -8.781,0c0,0 0.376,7.317 0,8.78c-0.186,0.727 -2.065,0.727 -2.251,0c-0.375,-1.463 0,-8.78 0,-8.78c0,0 -7.317,0.375 -8.78,0c-0.727,-0.186 -0.727,-2.065 0,-2.251Z" style="fill:#8a8c8e;stroke:#404040;stroke-width:1px;"/><path d="M841.122,222.062c1.464,-0.375 8.781,0 8.781,0c0,0 -0.376,-7.317 0,-8.78c0.186,-0.727 2.065,-0.727 2.251,0c0.375,1.463 0,8.78 0,8.78c0,0 7.317,-0.375 8.78,0c0.727,0.186 0.727,2.065 0,2.251c-1.463,0.376 -8.78,0 -8.78,0c0,0 0.375,7.317 0,8.781c-0.186,0.727 -2.065,0.727 -2.251,0c-0.376,-1.464 0,-8.781 0,-8.781c0,0 -7.317,0.376 -8.781,0c-0.727,-0.186 -0.727,-2.065 0,-2.251Z" style="fill:#8a8c8e;stroke:#404040;stroke-width:1px;"/><path d="M901.346,221.312c1.463,-0.376 8.78,0 8.78,0c0,0 -0.375,-7.317 0,-8.781c0.187,-0.727 2.065,-0.727 2.251,0c0.376,1.464 0,8.781 0,8.781c0,0 7.317,-0.376 8.781,0c0.727,0.186 0.727,2.065 0,2.251c-1.464,0.375 -8.781,0 -8.781,0c0,0 0.376,7.317 0,8.78c-0.186,0.727 -2.064,0.727 -2.251,0c-0.375,-1.463 0,-8.78 0,-8.78c0,0 -7.317,0.375 -8.78,0c-0.727,-0.186 -0.727,-2.065 0,-2.251Z" style="fill:#8a8c8e;stroke:#404040;stroke-width:1px;"/><path d="M961.569,221.499c1.464,-0.375 8.781,0 8.781,0c0,0 -0.376,-7.317 0,-8.78c0.186,-0.727 2.065,-0.727 2.251,0c0.375,1.463 0,8.78 0,8.78c0,0 7.317,-0.375 8.78,0c0.727,0.187 0.727,2.065 0,2.252c-1.463,0.375 -8.78,0 -8.78,0c0,0 0.375,7.316 0,8.78c-0.186,0.727 -2.065,0.727 -2.251,0c-0.376,-1.464 0,-8.78 0,-8.78c0,0 -7.317,0.375 -8.781,0c-0.727,-0.187 -0.727,-2.065 0,-2.252Z" style="fill:#8a8c8e;stroke:#404040;stroke-width:1px;"/><path d="M1021.79,221.312c1.463,-0.376 8.78,0 8.78,0c0,0 -0.375,-7.317 0,-8.781c0.187,-0.727 2.065,-0.727 2.251,0c0.376,1.464 0,8.781 0,8.781c0,0 7.317,-0.376 8.781,0c0.727,0.186 0.727,2.065 0,2.251c-1.464,0.375 -8.781,0 -8.781,0c0,0 0.376,7.317 0,8.78c-0.186,0.727 -2.064,0.727 -2.251,0c-0.375,-1.463 0,-8.78 0,-8.78c0,0 -7.317,0.375 -8.78,0c-0.727,-0.186 -0.727,-2.065 0,-2.251Z" style="fill:#8a8c8e;stroke:#404040;stroke-width:1px;"/><path d="M1021.79,281.535c1.463,-0.375 8.78,0 8.78,0c0,0 -0.375,-7.317 0,-8.78c0.187,-0.727 2.065,-0.727 2.251,0c0.376,1.463 0,8.78 0,8.78c0,0 7.317,-0.375 8.781,0c0.727,0.186 0.727,2.065 0,2.251c-1.464,0.376 -8.781,0 -8.781,0c0,0 0.376,7.317 0,8.781c-0.186,0.727 -2.064,0.727 -2.251,0c-0.375,-1.464 0,-8.781 0,-8.781c0,0 -7.317,0.376 -8.78,0c-0.727,-0.186 -0.727,-2.065 0,-2.251Z" style="fill:#8a8c8e;stroke:#404040;stroke-width:1px;"/><path d="M961.569,281.723c1.464,-0.376 8.781,0 8.781,0c0,0 -0.376,-7.317 0,-8.781c0.186,-0.726 2.065,-0.726 2.251,0c0.375,1.464 0,8.781 0,8.781c0,0 7.317,-0.376 8.78,0c0.727,0.186 0.727,2.065 0,2.251c-1.463,0.375 -8.78,0 -8.78,0c0,0 0.375,7.317 0,8.78c-0.186,0.727 -2.065,0.727 -2.251,0c-0.376,-1.463 0,-8.78 0,-8.78c0,0 -7.317,0.375 -8.781,0c-0.727,-0.186 -0.727,-2.065 0,-2.251Z" style="fill:#8a8c8e;stroke:#404040;stroke-width:1px;"/><path d="M901.346,282.098c1.463,-0.375 8.78,0 8.78,0c0,0 -0.375,-7.317 0,-8.78c0.187,-0.727 2.065,-0.727 2.251,0c0.376,1.463 0,8.78 0,8.78c0,0 7.317,-0.375 8.781,0c0.727,0.186 0.727,2.065 0,2.251c-1.464,0.375 -8.781,0 -8.781,0c0,0 0.376,7.317 0,8.781c-0.186,0.726 -2.064,0.726 -2.251,0c-0.375,-1.464 0,-8.781 0,-8.781c0,0 -7.317,0.375 -8.78,0c-0.727,-0.186 -0.727,-2.065 0,-2.251Z" style="fill:#8a8c8e;stroke:#404040;stroke-width:1px;"/><path d="M841.122,281.723c1.464,-0.376 8.781,0 8.781,0c0,0 -0.376,-7.317 0,-8.781c0.186,-0.726 2.065,-0.726 2.251,0c0.375,1.464 0,8.781 0,8.781c0,0 7.317,-0.376 8.78,0c0.727,0.186 0.727,2.065 0,2.251c-1.463,0.375 -8.78,0 -8.78,0c0,0 0.375,7.317 0,8.78c-0.186,0.727 -2.065,0.727 -2.251,0c-0.376,-1.463 0,-8.78 0,-8.78c0,0 -7.317,0.375 -8.781,0c-0.727,-0.186 -0.727,-2.065 0,-2.251Z" style="fill:#8a8c8e;stroke:#404040;stroke-width:1px;"/></g></g></svg>