<?xml version="1.0" encoding="UTF-8" standalone="no"?><!DOCTYPE svg PUBLIC "-//W3C//DTD SVG 1.1//EN" "http://www.w3.org/Graphics/SVG/1.1/DTD/svg11.dtd"><svg width="100%" height="100%" viewBox="0 0 47 47" version="1.1" xmlns="http://www.w3.org/2000/svg" xmlns:xlink="http://www.w3.org/1999/xlink" xml:space="preserve" xmlns:serif="http://www.serif.com/" style="fill-rule:evenodd;clip-rule:evenodd;stroke-linejoin:round;stroke-miterlimit:2;"><circle cx="23.28" cy="23.28" r="23.28" style="fill:#b6b1b0;"/><path d="M46.165,27.039c-1.676,10.126 -9.896,18.054 -20.163,19.289l-9.529,-9.529l13.21,-26.241l16.482,16.481Z" style="fill:#676567;"/><path d="M30.245,11.736c0,-0.846 -0.686,-1.533 -1.532,-1.533l-10.866,0c-0.846,0 -1.532,0.687 -1.532,1.533l0,24.295c0,0.845 0.686,1.532 1.532,1.532l10.866,0c0.846,0 1.532,-0.687 1.532,-1.532l0,-24.295Z" style="fill:#fff;"/><circle cx="23.28" cy="35.27" r="1.593" style="fill:#676567;"/><rect x="16.795" y="12.603" width="12.971" height="19.873" style="fill:#676567;"/></svg>