<?xml version="1.0" encoding="UTF-8" standalone="no"?><!DOCTYPE svg PUBLIC "-//W3C//DTD SVG 1.1//EN" "http://www.w3.org/Graphics/SVG/1.1/DTD/svg11.dtd"><svg width="100%" height="100%" viewBox="0 0 47 47" version="1.1" xmlns="http://www.w3.org/2000/svg" xmlns:xlink="http://www.w3.org/1999/xlink" xml:space="preserve" xmlns:serif="http://www.serif.com/" style="fill-rule:evenodd;clip-rule:evenodd;stroke-linecap:round;stroke-linejoin:bevel;stroke-miterlimit:1.5;"><g><circle cx="23.28" cy="23.28" r="23.28" style="fill:#b6b1b0;"/><path d="M14.378,23.52c0,-7.616 3.813,-13.8 8.51,-13.8c4.697,0 8.51,6.184 8.51,13.8c0,7.616 -3.813,13.8 -8.51,13.8c-4.697,0 -8.51,-6.184 -8.51,-13.8Z" style="fill:none;stroke:#fff;stroke-width:1px;"/><path d="M12.018,32.46c2.633,-1.727 6.768,-2.84 11.414,-2.84c4.314,0 8.188,0.96 10.828,2.48c-2.639,3.18 -6.711,5.22 -11.276,5.22c-4.39,0 -8.324,-1.887 -10.966,-4.86Zm-0.525,-17.254c2.63,-3.332 6.8,-5.486 11.491,-5.486c4.691,0 8.861,2.154 11.491,5.486c-2.63,1.755 -6.8,2.89 -11.491,2.89c-4.691,0 -8.861,-1.135 -11.491,-2.89Z" style="fill:none;stroke:#fff;stroke-width:1px;"/><path d="M8.52,23.52l28.8,0" style="fill:none;stroke:#fff;stroke-width:1px;"/><path d="M22.984,37.32l0,-27.6" style="fill:none;stroke:#fff;stroke-width:1px;"/><rect x="11.493" y="19.839" width="22.982" height="7.44" style="fill:#737373;stroke:#4e4e4e;stroke-width:1px;"/><path d="M25.155,46.56l-13.662,-13.858l5.556,3.39l5.935,1.228l4.794,-0.698l5.889,-4.026c1.067,-1.159 3.502,-5.777 3.413,-9.94c-0.057,-2.644 -3.09,-7.984 -2.82,-7.714l11.998,11.998c-1.662,10.226 -9.516,18.594 -21.103,19.62Z" style="fill:#4d4d4f;"/><g><path d="M18.793,25.46l-0.663,0l-0.772,-3.023l-0.015,0l-0.765,3.023l-0.677,0l-1.221,-3.803l0.692,0l0.86,3.112l0.015,0l0.765,-3.112l0.684,0l0.795,3.112l0.015,0l0.853,-3.112l0.648,0l-1.214,3.803Z" style="fill:#fff;fill-rule:nonzero;"/><path d="M24.369,25.46l-0.662,0l-0.772,-3.023l-0.015,0l-0.765,3.023l-0.677,0l-1.221,-3.803l0.691,0l0.861,3.112l0.015,0l0.765,-3.112l0.684,0l0.795,3.112l0.014,0l0.854,-3.112l0.647,0l-1.214,3.803Z" style="fill:#fff;fill-rule:nonzero;"/><path d="M29.946,25.46l-0.662,0l-0.773,-3.023l-0.014,0l-0.765,3.023l-0.677,0l-1.222,-3.803l0.692,0l0.861,3.112l0.014,0l0.766,-3.112l0.684,0l0.794,3.112l0.015,0l0.854,-3.112l0.647,0l-1.214,3.803Z" style="fill:#fff;fill-rule:nonzero;"/></g><ellipse cx="22.92" cy="23.52" rx="14.4" ry="13.8" style="fill:none;stroke:#fff;stroke-width:1px;"/></g></svg>